<svg width="1320" height="187" viewBox="0 0 1320 187" fill="none" xmlns="http://www.w3.org/2000/svg">
<rect x="0.5" y="0.5" width="1319" height="186" fill="white"/>
<path d="M100 73.5C77.9088 73.5 60 82.4545 60 93.5C60 104.546 77.9088 113.5 100 113.5C122.091 113.5 140 104.545 140 93.5C140 82.4543 122.091 73.5 100 73.5ZM100 110.343C79.6525 110.343 63.1576 102.802 63.1576 93.5C63.1576 84.1981 79.6526 76.6574 100 76.6574C120.348 76.6574 136.842 84.1981 136.842 93.5C136.842 102.802 120.347 110.343 100 110.343ZM94.9555 89.9912V86.8332H106.24V89.9912H102.177V100.167H99.0187V89.9912H94.9555ZM119.861 86.8332V100.167H116.704L110.977 92.2295V100.167H107.819V86.8332H110.977L116.704 94.7707V86.8332H119.861ZM80.0448 100.167V86.8332H83.2024L86.7105 92.2295L90.2186 86.8332H93.3749V100.167H90.2186V92.6251L87.8236 96.3064H85.5974L83.2024 92.6251V100.167H80.0448Z" fill="#1890FF"/>
<line x1="215.797" y1="77.5" x2="215.797" y2="109.5" stroke="#E6E6E6"/>
<path fill-rule="evenodd" clip-rule="evenodd" d="M327.378 62.2125C330.416 67.2036 331.746 71.8367 331.725 77.3575L331.712 80.9042L331.018 78.768C329.493 74.0659 327.629 70.8366 324.448 67.3848L322.464 65.2312L324.164 62.6156C325.099 61.177 325.902 60 325.948 60C325.994 60 326.637 60.9958 327.378 62.2125ZM319.158 66.3689C324.438 70.0407 328.417 75.8188 329.801 81.8197C330.352 84.212 330.73 89.42 330.438 90.6102C330.252 91.3694 330.208 91.3453 328.533 89.5454C323.98 84.6542 317.265 80.7901 310.786 79.3344C309.512 79.0479 308.513 78.6786 308.566 78.5135C308.78 77.8559 316.996 65.2206 317.22 65.2047C317.352 65.1955 318.224 65.7192 319.158 66.3689ZM316.697 71.5834C315.708 72.2511 314.776 73.8389 314.757 74.8893C314.735 76.1017 315.837 77.887 316.936 78.4207C319.793 79.8083 322.794 78.0319 322.794 74.9534C322.794 71.8217 319.249 69.8619 316.697 71.5834ZM343.242 95.6333C343.766 95.9967 343.182 97.605 342.125 98.7122C340.265 100.66 341.274 100.566 321.107 100.657L302.67 100.74L301.566 100.038C300.217 99.1791 299.241 97.634 299.241 96.3556V95.3998L321.08 95.4044C333.091 95.4072 343.064 95.51 343.242 95.6333ZM296.274 114.015C297.471 115.694 298.557 117.067 298.689 117.067C298.82 117.067 299.807 115.694 300.881 114.015L302.834 110.964H304.615H306.396V118.745V126.527H304.458H302.521L302.518 121.873L302.516 117.22L300.987 119.585C299.595 121.737 299.37 121.95 298.479 121.95C297.617 121.95 297.327 121.709 296.06 119.941L294.62 117.933L294.537 122.23L294.454 126.527H292.525H290.595V118.745V110.964H292.347H294.099L296.274 114.015ZM328.356 114.165L330.656 117.367L332.731 114.165L334.806 110.964H336.551H338.297V118.76V126.556L336.434 126.466L334.57 126.375L334.421 121.991L334.272 117.608L332.825 119.779C331.537 121.709 331.271 121.95 330.422 121.95C329.589 121.95 329.281 121.689 327.994 119.894L326.521 117.839L326.438 122.183L326.355 126.527H324.426H322.496V118.745V110.964H324.276H326.057L328.356 114.165ZM316.766 115.1C320.056 116.506 321.56 120.259 320.084 123.379C318.021 127.742 312.162 128.277 309.388 124.358C305.898 119.426 311.232 112.733 316.766 115.1ZM349.236 115.399C353.125 117.383 353.766 122.545 350.48 125.424C346.465 128.942 340.299 126.191 340.299 120.882C340.299 116.157 345.031 113.254 349.236 115.399ZM313.36 118.274C310.688 119.426 311.533 123.476 314.446 123.476C317.785 123.476 318.173 118.707 314.879 118.148C314.395 118.065 313.711 118.122 313.36 118.274ZM345.261 118.285C343.804 118.887 343.291 120.632 344.1 122.233C344.608 123.239 345.087 123.476 346.617 123.476C348.568 123.476 349.733 121.541 348.884 119.711C348.19 118.214 346.779 117.658 345.261 118.285Z" fill="#CCCCCC"/>
<line x1="428.392" y1="77.5" x2="428.392" y2="109.5" stroke="#E6E6E6"/>
<path fill-rule="evenodd" clip-rule="evenodd" d="M504.638 81.9306H508.844C508.467 81.6738 507.758 81.3467 506.59 81.3467C505.745 81.3467 505.112 81.5826 504.638 81.9306ZM509.55 81.9306H513.949C513.431 81.5826 512.705 81.3467 511.692 81.3467C510.622 81.3467 509.929 81.6738 509.55 81.9306ZM504.044 82.5146H514.578C514.401 82.2875 514.188 82.0903 513.949 81.9306H509.55C509.305 82.0963 509.191 82.2325 509.191 82.2325C509.191 82.2325 509.086 82.0963 508.844 81.9306H504.638C504.413 82.0964 504.214 82.293 504.044 82.5146Z" fill="#CCCCCC"/>
<path fill-rule="evenodd" clip-rule="evenodd" d="M503.692 83.0789H514.92C514.828 82.8784 514.713 82.6893 514.578 82.5151H504.044C503.904 82.6967 503.788 82.888 503.692 83.0789Z" fill="#CCCCCC"/>
<path fill-rule="evenodd" clip-rule="evenodd" d="M503.452 83.6621H515.124C515.074 83.4615 515.005 83.2661 514.919 83.0781H503.692C503.592 83.2768 503.513 83.475 503.452 83.6621ZM503.299 84.2464H505.986C506.159 84.0454 506.444 83.8638 506.91 83.8638C507.376 83.8638 507.642 84.0458 507.792 84.2464H510.77C510.946 84.0454 511.236 83.8638 511.711 83.8638C512.159 83.8638 512.427 84.0458 512.586 84.2464H515.223C515.205 84.0495 515.172 83.8543 515.124 83.6625H503.452C503.389 83.8538 503.338 84.0488 503.299 84.2464Z" fill="#CCCCCC"/>
<path fill-rule="evenodd" clip-rule="evenodd" d="M503.229 84.8103H505.73V84.77C505.73 84.77 505.773 84.4941 505.986 84.2466H503.299C503.238 84.5612 503.229 84.77 503.229 84.77V84.8103ZM507.991 84.8103H510.512V84.77C510.512 84.77 510.555 84.4941 510.771 84.2466H507.793C507.906 84.3997 507.974 84.5807 507.991 84.77V84.8103H507.991ZM512.812 84.8103H515.232V84.77C515.232 84.77 515.252 84.5609 515.223 84.2466H512.586C512.781 84.4941 512.812 84.77 512.812 84.77V84.8103ZM503.228 85.3943H505.73V84.8103H503.229L503.228 85.3943ZM507.991 85.3943H510.512V84.8103H507.991V85.3943ZM512.812 85.3943H515.232V84.8103H512.812V85.3943Z" fill="#CCCCCC"/>
<path fill-rule="evenodd" clip-rule="evenodd" d="M503.227 85.979H505.73V85.395H503.228L503.227 85.979ZM507.991 85.979H510.512V85.395H507.991V85.979ZM512.812 85.979H515.232V85.395H512.812V85.979ZM503.225 86.5427H505.73V85.979H503.227L503.225 86.5427ZM507.991 86.5427H510.512V85.979H507.991V86.5427ZM512.812 86.5427H515.232V85.979H512.812V86.5427Z" fill="#CCCCCC"/>
<path fill-rule="evenodd" clip-rule="evenodd" d="M503.225 87.1259H505.73V86.542H503.225L503.225 87.1259ZM507.991 87.1259H510.512V86.542H507.991V87.1259ZM512.812 87.1259H515.232V86.542H512.812V87.1259ZM503.223 87.6897H505.73V87.1259H503.225L503.223 87.6897ZM507.991 87.6897H510.512V87.1259H507.991V87.6897ZM512.812 87.6897H515.232V87.1259H512.812V87.6897Z" fill="#CCCCCC"/>
<path fill-rule="evenodd" clip-rule="evenodd" d="M503.222 88.2743H505.73V87.6899H503.223L503.222 88.2743ZM507.991 88.2743H510.512V87.6899H507.991V88.2743ZM512.812 88.2743H515.232V87.6899H512.812V88.2743ZM503.221 88.8582H505.73V88.2743H503.222L503.221 88.8582ZM507.991 88.8582H510.512V88.2743H507.991V88.8582ZM512.812 88.8582H515.232V88.2743H512.812V88.8582Z" fill="#CCCCCC"/>
<path fill-rule="evenodd" clip-rule="evenodd" d="M503.219 89.4217H505.73V88.8579H503.221L503.219 89.4217ZM507.991 89.4217H510.512V88.8579H507.991V89.4217ZM512.812 89.4217H515.232V88.8579H512.812V89.4217Z" fill="#CCCCCC"/>
<path fill-rule="evenodd" clip-rule="evenodd" d="M503.219 90.0062H505.73V89.4219H503.22L503.219 90.0062ZM507.991 90.0062H510.512V89.4219H507.991V90.0062ZM512.812 90.0062H515.232V89.4219H512.812V90.0062Z" fill="#CCCCCC"/>
<path fill-rule="evenodd" clip-rule="evenodd" d="M503.217 90.5898H505.73V90.0059H503.218L503.217 90.5898ZM507.991 90.5898H510.512V90.0059H507.991V90.5898ZM512.812 90.5898H515.232V90.0059H512.812V90.5898Z" fill="#CCCCCC"/>
<path fill-rule="evenodd" clip-rule="evenodd" d="M503.216 91.1536H505.73V90.5898H503.217L503.216 91.1536ZM507.991 91.1536H510.512V90.5898H507.991V91.1536ZM512.812 91.1536H515.233V90.5898H512.812V91.1536ZM503.215 91.7375H505.73V91.1536H503.216L503.215 91.7375ZM507.991 91.7375H510.512V91.1536H507.991V91.7375ZM512.812 91.7375H515.233V91.1536H512.812V91.7375ZM503.213 92.3219H505.73V91.7379H503.215L503.213 92.3219ZM507.991 92.3219H510.512V91.7379H507.991V92.3219ZM512.812 92.3219H515.233V91.7379H512.812V92.3219Z" fill="#CCCCCC"/>
<path fill-rule="evenodd" clip-rule="evenodd" d="M503.212 92.8855H505.73V92.3218H503.213L503.212 92.8855ZM507.991 92.8855H510.512V92.3218H507.991V92.8855ZM512.812 92.8855H515.232V92.3218H512.812V92.8855ZM503.211 93.4695H505.73V92.8855H503.212L503.211 93.4695ZM507.991 93.4695H510.512V92.8855H507.991V93.4695ZM512.812 93.4695H515.232V92.8855H512.812V93.4695Z" fill="#CCCCCC"/>
<path fill-rule="evenodd" clip-rule="evenodd" d="M503.209 94.0537H505.73V93.4697H503.211L503.209 94.0537ZM507.991 94.0537H510.512V93.4697H507.991V94.0537ZM512.812 94.0537H515.232V93.4697H512.812V94.0537Z" fill="#CCCCCC"/>
<path fill-rule="evenodd" clip-rule="evenodd" d="M503.208 94.617H505.73V94.0532H503.209L503.208 94.617ZM507.991 94.617H510.511V94.0532H507.991V94.617ZM512.812 94.617H515.232V94.0532H512.812V94.617ZM503.207 95.2013H505.73V94.617H503.208L503.207 95.2013ZM507.991 95.2013H510.511V94.617H507.991V95.2013ZM512.812 95.2013H515.232V94.617H512.812V95.2013Z" fill="#CCCCCC"/>
<path fill-rule="evenodd" clip-rule="evenodd" d="M503.206 95.7654H505.73V95.2017H503.207L503.206 95.7654ZM507.991 95.7654H510.512V95.2017H507.991V95.7654ZM512.812 95.7654H515.232V95.2017H512.812V95.7654ZM503.205 96.3497H505.73V95.7654H503.206L503.205 96.3497ZM507.991 96.3497H510.512V95.7654H507.991V96.3497ZM512.812 96.3497H515.232V95.7654H512.812V96.3497ZM503.203 96.9333H505.73V96.3497H503.205L503.203 96.9333ZM507.991 96.9333H510.512V96.3497H507.991V96.9333ZM512.812 96.9333H515.232V96.3497H512.812V96.9333Z" fill="#CCCCCC"/>
<path fill-rule="evenodd" clip-rule="evenodd" d="M503.202 97.4981H505.73V96.9336H503.203L503.202 97.4981ZM507.991 97.4981H510.511V96.9336H507.991V97.4981ZM512.812 97.4981H515.232V96.9336H512.812V97.4981ZM503.2 98.0817H505.73V97.4981H503.201L503.2 98.0817ZM507.991 98.0817H510.511V97.4981H507.991V98.0817ZM512.812 98.0817H515.232V97.4981H512.812V98.0817Z" fill="#CCCCCC"/>
<path fill-rule="evenodd" clip-rule="evenodd" d="M503.199 98.6654H505.73V98.0811H503.2L503.199 98.6654ZM507.991 98.6654H510.512V98.0811H507.991V98.6654ZM512.812 98.6654H515.232V98.0811H512.812V98.6654ZM503.198 99.2295H505.73V98.6658H503.199L503.198 99.2295ZM507.991 99.2295H510.512V98.6658H507.991V99.2295ZM512.812 99.2295H515.232V98.6658H512.812V99.2295Z" fill="#CCCCCC"/>
<path fill-rule="evenodd" clip-rule="evenodd" d="M503.197 99.8138H505.73V99.2295H503.198L503.197 99.8138ZM507.991 99.8138H510.512V99.2295H507.991V99.8138ZM512.812 99.8138H515.232V99.2295H512.812V99.8138Z" fill="#CCCCCC"/>
<path fill-rule="evenodd" clip-rule="evenodd" d="M503.196 100.397H505.73V99.8135H503.197L503.196 100.397ZM507.991 100.397H510.512V99.8135H507.991V100.397ZM512.812 100.397H515.232V99.8135H512.812V100.397ZM503.194 100.961H505.73V100.397H503.196L503.194 100.961ZM507.991 100.961H510.512V100.397H507.991V100.961ZM512.812 100.961H515.232V100.397H512.812V100.961Z" fill="#CCCCCC"/>
<path fill-rule="evenodd" clip-rule="evenodd" d="M503.193 101.545H505.73V100.961H503.194L503.193 101.545ZM507.991 101.545H510.512V100.961H507.991V101.545ZM512.812 101.545H515.232V100.961H512.812V101.545ZM503.192 102.13H505.73V101.545H503.194L503.192 102.13ZM507.991 102.13H510.512V101.545H507.991V102.13ZM512.812 102.13H515.232V101.545H512.812V102.13ZM503.191 102.693H505.73V102.13H503.192L503.191 102.693ZM507.991 102.693H510.512V102.13H507.991V102.693ZM512.812 102.693H515.232V102.13H512.812V102.693Z" fill="#CCCCCC"/>
<path fill-rule="evenodd" clip-rule="evenodd" d="M503.19 103.276H505.73V102.693H503.191L503.19 103.276ZM507.991 103.276H510.512V102.693H507.991V103.276ZM512.812 103.276H515.232V102.693H512.812V103.276Z" fill="#CCCCCC"/>
<path fill-rule="evenodd" clip-rule="evenodd" d="M533.857 81.1049H534.188L533.857 80.521V81.1049ZM533.857 81.709H534.53L534.188 81.1049H533.857V81.709Z" fill="#CCCCCC"/>
<path fill-rule="evenodd" clip-rule="evenodd" d="M533.857 82.3131H534.872L534.53 81.709H533.857V82.3131ZM538.759 82.3131H541.119V81.7292H538.759V82.3131Z" fill="#CCCCCC"/>
<path fill-rule="evenodd" clip-rule="evenodd" d="M533.857 82.9175H535.214L534.872 82.313H533.857V82.9175ZM538.759 82.9175H541.119V82.313H538.759V82.9175Z" fill="#CCCCCC"/>
<path fill-rule="evenodd" clip-rule="evenodd" d="M533.857 83.5014H535.544L535.214 82.9175H533.857V83.5014ZM538.759 83.5014H541.119V82.9175H538.759V83.5014Z" fill="#CCCCCC"/>
<path fill-rule="evenodd" clip-rule="evenodd" d="M533.857 84.1056H535.886L535.544 83.5015H533.857V84.1056ZM538.759 84.1056H541.119V83.5015H538.759V84.1056ZM533.857 84.7097H536.228L535.886 84.1056H533.857V84.7097ZM538.759 84.7097H541.119V84.1056H538.759V84.7097Z" fill="#CCCCCC"/>
<path fill-rule="evenodd" clip-rule="evenodd" d="M533.858 85.3132H536.57L536.228 84.7095H533.858V85.3132ZM538.759 85.3132H541.119V84.7095H538.759V85.3132ZM533.858 85.8975H536.901L536.57 85.3132H533.857V85.8975H533.858ZM538.759 85.8975H541.119V85.3132H538.759V85.8975Z" fill="#CCCCCC"/>
<path fill-rule="evenodd" clip-rule="evenodd" d="M533.857 86.5021H537.242L536.9 85.8979H533.857V86.5021ZM538.759 86.5021H541.119V85.8979H538.759V86.5021ZM533.857 87.1062H537.585L537.242 86.5021H533.857V87.1062ZM538.759 87.1062H541.119V86.5021H538.759V87.1062Z" fill="#CCCCCC"/>
<path fill-rule="evenodd" clip-rule="evenodd" d="M533.857 87.7105H537.927L537.585 87.106H533.857V87.7105ZM538.759 87.7105H541.119V87.106H538.759V87.7105Z" fill="#CCCCCC"/>
<path fill-rule="evenodd" clip-rule="evenodd" d="M533.857 88.2939H538.257L537.926 87.71H533.857V88.2939ZM538.759 88.2939H541.119V87.71H538.759V88.2939ZM533.857 88.898H538.599L538.257 88.2939H533.857V88.898ZM538.759 88.898H541.119V88.2939H538.759V88.898Z" fill="#CCCCCC"/>
<path fill-rule="evenodd" clip-rule="evenodd" d="M533.857 89.5021H541.119V88.8979H538.759V89.1804L538.599 88.8979H533.857V89.5021ZM533.857 90.1062H536.178V89.5626L536.528 90.1062H541.119V89.5021H533.857V90.1062Z" fill="#CCCCCC"/>
<path fill-rule="evenodd" clip-rule="evenodd" d="M533.857 90.6909H536.178V90.1069H533.857V90.6909ZM536.903 90.6909H541.119V90.1069H536.528L536.903 90.6909Z" fill="#CCCCCC"/>
<path fill-rule="evenodd" clip-rule="evenodd" d="M533.857 91.295H536.178V90.6909H533.857V91.295ZM537.292 91.295H541.119V90.6909H536.903L537.292 91.295Z" fill="#CCCCCC"/>
<path fill-rule="evenodd" clip-rule="evenodd" d="M533.857 91.8985H536.178V91.2944H533.857V91.8985ZM537.68 91.8985H541.119V91.2944H537.292L537.68 91.8985Z" fill="#CCCCCC"/>
<path fill-rule="evenodd" clip-rule="evenodd" d="M533.857 92.4833H536.178V91.8989H533.857V92.4833ZM538.056 92.4833H541.119V91.8989H537.68L538.056 92.4833Z" fill="#CCCCCC"/>
<path fill-rule="evenodd" clip-rule="evenodd" d="M533.857 93.087H536.178V92.4829H533.857V93.087ZM538.444 93.087H541.119V92.4829H538.056L538.444 93.087Z" fill="#CCCCCC"/>
<path fill-rule="evenodd" clip-rule="evenodd" d="M533.857 93.691H536.178V93.0869H533.857V93.691ZM538.833 93.691H541.119V93.0869H538.444L538.833 93.691ZM533.857 94.2951H536.178V93.691H533.857V94.2951ZM538.859 94.2951H541.119V93.691H538.833L538.858 93.7314V94.2951H538.859ZM533.857 94.8795H536.178V94.2951H533.857V94.8795ZM538.859 94.8795H541.119V94.2951H538.859V94.8795Z" fill="#CCCCCC"/>
<path fill-rule="evenodd" clip-rule="evenodd" d="M533.857 95.483H536.178V94.8789H533.857V95.483ZM538.859 95.483H541.119V94.8789H538.859V95.483ZM533.857 96.0871H536.178V95.483H533.857V96.0871ZM538.859 96.0871H541.119V95.483H538.859V96.0871Z" fill="#CCCCCC"/>
<path fill-rule="evenodd" clip-rule="evenodd" d="M533.857 96.6918H536.178V96.0869H533.857V96.6918ZM538.859 96.6918H541.119V96.0869H538.859V96.6918Z" fill="#CCCCCC"/>
<path fill-rule="evenodd" clip-rule="evenodd" d="M533.857 97.2754H536.178V96.6919H533.857V97.2754ZM538.859 97.2754H541.119V96.6919H538.859V97.2754ZM533.857 97.8803H536.178V97.2754H533.857V97.8803ZM538.859 97.8803H541.119V97.2754H538.859V97.8803Z" fill="#CCCCCC"/>
<path fill-rule="evenodd" clip-rule="evenodd" d="M533.857 98.4845H536.178V97.8804H533.857V98.4845ZM538.859 98.4845H541.119V97.8804H538.859V98.4845Z" fill="#CCCCCC"/>
<path fill-rule="evenodd" clip-rule="evenodd" d="M533.857 99.088H536.178V98.4839H533.857V99.088ZM538.859 99.088H541.119V98.4839H538.859V99.088ZM533.857 99.6723H536.178V99.088H533.857V99.6723ZM538.859 99.6723H541.119V99.088H538.859V99.6723Z" fill="#CCCCCC"/>
<path fill-rule="evenodd" clip-rule="evenodd" d="M533.857 100.277H536.178V99.6729H533.857V100.277ZM538.859 100.277H541.119V99.6729H538.859V100.277Z" fill="#CCCCCC"/>
<path fill-rule="evenodd" clip-rule="evenodd" d="M533.857 100.88H536.178V100.276H533.857V100.88ZM538.859 100.88H541.119V100.276H538.859V100.88Z" fill="#CCCCCC"/>
<path fill-rule="evenodd" clip-rule="evenodd" d="M533.857 101.484H536.178V100.88H533.857V101.484ZM538.859 101.484H541.119V100.88H538.859V101.484Z" fill="#CCCCCC"/>
<path fill-rule="evenodd" clip-rule="evenodd" d="M533.857 102.069H536.178V101.485H533.857V102.069ZM538.859 102.069H541.119V101.485H538.859V102.069ZM533.857 102.673H536.178V102.069H533.857V102.673ZM538.859 102.673H541.119V102.069H538.859V102.673Z" fill="#CCCCCC"/>
<path fill-rule="evenodd" clip-rule="evenodd" d="M533.857 103.277H536.178V102.673H533.857V103.277ZM538.859 103.277H541.119V102.673H538.859V103.277Z" fill="#CCCCCC"/>
<path fill-rule="evenodd" clip-rule="evenodd" d="M555.09 78.3462H556.943V77.5C556.943 77.5 556.197 77.7553 555.09 78.3462Z" fill="#CCCCCC"/>
<path fill-rule="evenodd" clip-rule="evenodd" d="M553.658 79.1916H556.943V78.3462H555.09C554.601 78.6073 554.123 78.8893 553.658 79.1916Z" fill="#CCCCCC"/>
<path fill-rule="evenodd" clip-rule="evenodd" d="M552.484 80.0176H556.943V79.1919H553.658C553.257 79.4528 552.865 79.7282 552.484 80.0176ZM551.449 80.8634H556.943V80.0176H552.484C552.129 80.2874 551.784 80.5695 551.449 80.8634ZM550.549 81.7092H556.052C556.599 81.4528 556.943 81.3468 556.943 81.3468V80.8634H551.449C551.14 81.1349 550.839 81.417 550.549 81.7092Z" fill="#CCCCCC"/>
<path fill-rule="evenodd" clip-rule="evenodd" d="M549.761 82.5547H554.55C555.03 82.237 555.532 81.9542 556.052 81.7085H550.548C550.277 81.9819 550.014 82.2641 549.761 82.5547ZM549.073 83.4006H553.415C553.777 83.0975 554.156 82.8152 554.55 82.5551H549.761C549.523 82.8294 549.293 83.1113 549.073 83.4006Z" fill="#CCCCCC"/>
<path fill-rule="evenodd" clip-rule="evenodd" d="M548.468 84.2462H552.501C552.791 83.9488 553.096 83.6665 553.415 83.4004H549.073C548.862 83.6758 548.66 83.9579 548.468 84.2462ZM547.951 85.0719H551.768C552 84.7855 552.245 84.51 552.502 84.2462H548.468C548.29 84.512 548.118 84.7871 547.951 85.0719Z" fill="#CCCCCC"/>
<path fill-rule="evenodd" clip-rule="evenodd" d="M547.489 85.9176H551.141C551.338 85.6267 551.547 85.3445 551.768 85.0718H547.951C547.789 85.3492 547.635 85.6312 547.489 85.9176ZM547.091 86.7638H550.622C550.788 86.4674 550.962 86.1857 551.142 85.918H547.49C547.35 86.1919 547.217 86.4736 547.091 86.7638Z" fill="#CCCCCC"/>
<path fill-rule="evenodd" clip-rule="evenodd" d="M546.75 87.6095H550.191C550.324 87.3222 550.467 87.0401 550.621 86.7637H547.091C546.969 87.0425 546.856 87.3245 546.75 87.6095Z" fill="#CCCCCC"/>
<path fill-rule="evenodd" clip-rule="evenodd" d="M546.463 88.4547H549.839C549.948 88.1622 550.066 87.8797 550.191 87.6089H546.749C546.648 87.8844 546.553 88.1664 546.463 88.4547ZM546.231 89.2804H549.56C549.646 88.996 549.739 88.7209 549.839 88.4547H546.463C546.379 88.7279 546.302 89.0032 546.231 89.2804Z" fill="#CCCCCC"/>
<path fill-rule="evenodd" clip-rule="evenodd" d="M546.038 90.1266H549.336C549.404 89.836 549.478 89.5539 549.56 89.2808H546.231C546.16 89.561 546.095 89.8431 546.038 90.1266ZM545.89 90.9724H549.166C549.216 90.6822 549.272 90.4005 549.336 90.1266H546.038C545.983 90.4032 545.933 90.6853 545.89 90.9724Z" fill="#CCCCCC"/>
<path fill-rule="evenodd" clip-rule="evenodd" d="M545.784 91.818H549.047C549.08 91.5286 549.12 91.2465 549.166 90.9722H545.891C545.849 91.2533 545.813 91.5353 545.784 91.818ZM545.714 92.6638H548.975C548.992 92.3752 549.016 92.0931 549.048 91.818H545.785C545.755 92.0994 545.731 92.3814 545.714 92.6638ZM545.685 93.4895H548.944C548.948 93.2086 548.958 92.9331 548.975 92.6642H545.714C545.699 92.9391 545.689 93.2142 545.685 93.4895Z" fill="#CCCCCC"/>
<path fill-rule="evenodd" clip-rule="evenodd" d="M545.687 94.3351H548.953C548.945 94.1338 548.941 93.9324 548.941 93.731C548.941 93.6499 548.943 93.57 548.945 93.4893H545.685C545.684 93.6029 545.681 93.7166 545.681 93.8319C545.681 94.0018 545.684 94.1694 545.687 94.3351ZM553.682 94.3351H556.943V93.8319H553.682V94.3351Z" fill="#CCCCCC"/>
<path fill-rule="evenodd" clip-rule="evenodd" d="M545.731 95.1821H549.013C548.985 94.9005 548.965 94.6182 548.954 94.3354H545.688C545.696 94.6226 545.71 94.9046 545.731 95.1821ZM553.682 95.1821H556.943V94.3354H553.682V95.1821Z" fill="#CCCCCC"/>
<path fill-rule="evenodd" clip-rule="evenodd" d="M545.809 96.028H549.123C549.077 95.7472 549.041 95.4651 549.013 95.1821H545.731C545.751 95.4685 545.777 95.7513 545.809 96.028ZM553.682 96.028H556.943V95.1821H553.682V96.028Z" fill="#CCCCCC"/>
<path fill-rule="evenodd" clip-rule="evenodd" d="M545.935 96.8732H549.286C549.223 96.593 549.168 96.3109 549.123 96.0273H545.81C545.844 96.3149 545.887 96.5965 545.935 96.8732ZM553.682 96.8732H556.943V96.0273H553.682V96.8732Z" fill="#CCCCCC"/>
<path fill-rule="evenodd" clip-rule="evenodd" d="M546.103 97.7189H549.509C549.425 97.4395 549.351 97.1574 549.286 96.873H545.934C545.984 97.1609 546.041 97.443 546.103 97.7189ZM553.682 97.7189H556.943V96.873H553.682V97.7189Z" fill="#CCCCCC"/>
<path fill-rule="evenodd" clip-rule="evenodd" d="M546.313 98.5445H549.786C549.684 98.2727 549.592 97.9974 549.509 97.7192H546.104C546.167 98.0005 546.237 98.2756 546.313 98.5445ZM553.682 98.5445H556.943V97.7192H553.682V98.5445ZM546.579 99.3911H550.139C550.011 99.1131 549.894 98.8308 549.786 98.5445H546.313C546.395 98.8332 546.484 99.116 546.579 99.3911ZM553.682 99.3911H556.943V98.5445H553.682V99.3911Z" fill="#CCCCCC"/>
<path fill-rule="evenodd" clip-rule="evenodd" d="M546.901 100.236H550.567C550.413 99.96 550.271 99.6778 550.138 99.3906H546.579C546.68 99.6797 546.788 99.9614 546.901 100.236ZM553.682 100.236H556.943V99.3906H553.682V100.236Z" fill="#CCCCCC"/>
<path fill-rule="evenodd" clip-rule="evenodd" d="M547.284 101.082H551.081C550.899 100.807 550.727 100.525 550.567 100.236H546.902C547.022 100.526 547.15 100.808 547.284 101.082ZM553.682 101.082H556.943V100.236H553.682V101.082Z" fill="#CCCCCC"/>
<path fill-rule="evenodd" clip-rule="evenodd" d="M547.732 101.928H551.695C551.478 101.655 551.273 101.373 551.081 101.082H547.284C547.427 101.373 547.577 101.654 547.732 101.928ZM553.682 101.928H556.943V101.082H553.682V101.928Z" fill="#CCCCCC"/>
<path fill-rule="evenodd" clip-rule="evenodd" d="M548.238 102.753H552.411C552.16 102.489 551.921 102.214 551.695 101.928H547.732C547.892 102.209 548.06 102.484 548.238 102.753ZM553.682 102.753H556.943V101.928H553.682V102.753Z" fill="#CCCCCC"/>
<path fill-rule="evenodd" clip-rule="evenodd" d="M548.836 103.6H553.315C552.997 103.336 552.695 103.053 552.411 102.753H548.238C548.428 103.042 548.628 103.324 548.836 103.6ZM553.682 103.6H556.943V102.753H553.682V103.6Z" fill="#CCCCCC"/>
<path fill-rule="evenodd" clip-rule="evenodd" d="M549.523 104.445H556.943V103.6H553.682V103.882C553.682 103.882 553.545 103.789 553.315 103.6H548.836C549.056 103.889 549.285 104.171 549.523 104.445Z" fill="#CCCCCC"/>
<path fill-rule="evenodd" clip-rule="evenodd" d="M550.314 105.291H556.943V104.445H549.523C549.782 104.743 550.046 105.023 550.314 105.291Z" fill="#CCCCCC"/>
<path fill-rule="evenodd" clip-rule="evenodd" d="M551.226 106.137H556.943V105.291H550.314C550.608 105.584 550.912 105.866 551.226 106.137Z" fill="#CCCCCC"/>
<path fill-rule="evenodd" clip-rule="evenodd" d="M552.282 106.983H556.943V106.137H551.226C551.567 106.432 551.919 106.714 552.282 106.983ZM553.49 107.809H556.943V106.983H552.282C552.674 107.273 553.077 107.549 553.49 107.809ZM554.98 108.654H556.943V107.809H553.49C554.026 108.144 554.53 108.426 554.98 108.654Z" fill="#CCCCCC"/>
<path fill-rule="evenodd" clip-rule="evenodd" d="M556.943 109.5V108.654H554.979C556.148 109.249 556.943 109.5 556.943 109.5Z" fill="#CCCCCC"/>
<path fill-rule="evenodd" clip-rule="evenodd" d="M562.485 94.658H564.865V94.4966H562.485V94.658ZM567.646 94.658H570.127V94.4966H567.646V94.658ZM562.485 95.2415H564.865V94.658H562.485V95.2415ZM567.646 95.2415H570.127V94.658H567.646V95.2415Z" fill="#CCCCCC"/>
<path fill-rule="evenodd" clip-rule="evenodd" d="M562.485 95.826H564.865V95.2417H562.485V95.826ZM567.646 95.826H570.127V95.2417H567.646V95.826Z" fill="#CCCCCC"/>
<path fill-rule="evenodd" clip-rule="evenodd" d="M562.485 96.4092H564.865V95.8257H562.485V96.4092ZM567.646 96.4092H570.127V95.8257H567.646V96.4092ZM562.485 96.9936H564.865V96.4092H562.485V96.9936ZM567.646 96.9936H570.127V96.4092H567.646V96.9936Z" fill="#CCCCCC"/>
<path fill-rule="evenodd" clip-rule="evenodd" d="M562.485 97.5785H564.865V96.9941H562.485V97.5785ZM567.646 97.5785H570.127V96.9941H567.646V97.5785ZM562.485 98.1628H564.865V97.5785H562.485V98.1628ZM567.646 98.1628H570.127V97.5785H567.646V98.1628Z" fill="#CCCCCC"/>
<path fill-rule="evenodd" clip-rule="evenodd" d="M562.485 98.7457H564.865V98.1621H562.485V98.7457ZM567.646 98.7457H570.127V98.1621H567.646V98.7457ZM562.485 99.3498H564.865V98.7457H562.485V99.3498ZM567.646 99.3498H570.127V98.7457H567.646V99.3498ZM562.485 99.9341H564.865V99.3498H562.485V99.9341ZM567.646 99.9341H570.127V99.3498H567.646V99.9341Z" fill="#CCCCCC"/>
<path fill-rule="evenodd" clip-rule="evenodd" d="M562.543 100.518H565.126C564.915 100.224 564.865 99.9341 564.865 99.9341H562.485C562.485 99.9341 562.481 100.17 562.543 100.518ZM567.541 100.518H570.085C570.114 100.324 570.124 100.165 570.127 100.063V99.9341H567.646C567.646 99.9341 567.675 100.224 567.541 100.518ZM562.694 101.102H566.117C565.615 101.03 565.31 100.773 565.126 100.518H562.543C562.575 100.69 562.621 100.89 562.694 101.102ZM566.694 101.102H569.952C570.018 100.89 570.059 100.69 570.085 100.518H567.54C567.424 100.773 567.184 101.03 566.694 101.102Z" fill="#CCCCCC"/>
<path fill-rule="evenodd" clip-rule="evenodd" d="M562.947 101.686H569.717C569.818 101.488 569.895 101.29 569.952 101.102H566.694C566.503 101.13 566.308 101.13 566.117 101.102H562.694C562.757 101.29 562.839 101.488 562.947 101.686Z" fill="#CCCCCC"/>
<path fill-rule="evenodd" clip-rule="evenodd" d="M563.353 102.27H569.329C569.48 102.091 569.61 101.895 569.717 101.686H562.947C563.061 101.895 563.197 102.091 563.353 102.27ZM564.038 102.854H568.664C568.914 102.694 569.138 102.497 569.329 102.27H563.353C563.552 102.497 563.783 102.694 564.038 102.854Z" fill="#CCCCCC"/>
<path fill-rule="evenodd" clip-rule="evenodd" d="M568.664 102.854H564.038C564.593 103.202 565.345 103.438 566.366 103.438C567.381 103.438 568.123 103.202 568.664 102.854Z" fill="#CCCCCC"/>
<path fill-rule="evenodd" clip-rule="evenodd" d="M564.026 81.7695H568.603C568.049 81.4203 567.294 81.1855 566.266 81.1855C565.288 81.1852 564.564 81.4203 564.026 81.7695ZM563.362 82.3534H569.284C569.087 82.1261 568.857 81.9293 568.603 81.7695H564.026C563.777 81.9307 563.553 82.1274 563.362 82.3534Z" fill="#CCCCCC"/>
<path fill-rule="evenodd" clip-rule="evenodd" d="M562.964 82.9375H569.682C569.572 82.7287 569.438 82.5329 569.284 82.3535H563.362C563.209 82.5335 563.075 82.7292 562.964 82.9375ZM562.711 83.5214H569.929C569.864 83.3198 569.782 83.1244 569.682 82.9375H562.964C562.863 83.1249 562.779 83.3202 562.711 83.5214ZM562.557 84.1057H565.082C565.268 83.8337 565.61 83.5819 566.245 83.5819C566.891 83.5819 567.239 83.8333 567.426 84.1057H570.073C570.04 83.9078 569.992 83.7126 569.93 83.5218H562.711C562.646 83.7126 562.595 83.9077 562.557 84.1057Z" fill="#CCCCCC"/>
<path fill-rule="evenodd" clip-rule="evenodd" d="M562.487 84.6893H564.871C564.894 84.4806 564.966 84.2803 565.082 84.1054H562.557C562.506 84.3711 562.491 84.5811 562.487 84.6893ZM567.641 84.6893H570.127V84.6431C570.121 84.4627 570.103 84.2829 570.073 84.105H567.426C567.581 84.3296 567.627 84.5682 567.641 84.6893ZM562.485 85.2934H564.865V84.7696C564.865 84.7696 564.865 84.7394 564.871 84.6893H562.487C562.484 84.7409 562.485 84.7696 562.485 84.7696V85.2934ZM567.647 85.2934H570.127V84.6893H567.641C567.647 84.7394 567.647 84.7696 567.647 84.7696V85.2934H567.647Z" fill="#CCCCCC"/>
<path fill-rule="evenodd" clip-rule="evenodd" d="M562.485 85.8778H564.865V85.2935H562.485V85.8778ZM567.646 85.8778H570.127V85.2935H567.646V85.8778ZM562.485 86.4617H564.865V85.8778H562.485V86.4617ZM567.646 86.4617H570.127V85.8778H567.646V86.4617Z" fill="#CCCCCC"/>
<path fill-rule="evenodd" clip-rule="evenodd" d="M562.485 87.0454H564.865V86.4614H562.485V87.0454ZM567.646 87.0454H570.127V86.4614H567.646V87.0454ZM562.485 87.6297H564.865V87.0458H562.485V87.6297ZM567.646 87.6297H570.127V87.0458H567.646V87.6297Z" fill="#CCCCCC"/>
<path fill-rule="evenodd" clip-rule="evenodd" d="M562.485 88.2138H564.865V87.6299H562.485V88.2138ZM567.646 88.2138H570.127V87.6299H567.646V88.2138ZM562.485 88.7978H564.865V88.2138H562.485V88.7978ZM567.646 88.7978H570.127V88.2138H567.646V88.7978ZM562.485 89.3817H564.865V88.7978H562.485V89.3817ZM567.646 89.3817H570.127V88.7978H567.646V89.3817Z" fill="#CCCCCC"/>
<path fill-rule="evenodd" clip-rule="evenodd" d="M562.485 89.9653H564.865V89.3813H562.485V89.9653ZM567.646 89.9653H570.127V89.3813H567.646V89.9653Z" fill="#CCCCCC"/>
<path fill-rule="evenodd" clip-rule="evenodd" d="M562.485 90.5497H564.865V89.9653H562.485V90.5497ZM567.646 90.5497H570.127V89.9653H567.646V90.5497Z" fill="#CCCCCC"/>
<path fill-rule="evenodd" clip-rule="evenodd" d="M562.485 91.1337H564.865V90.5498H562.485V91.1337ZM567.646 91.1337H570.127V90.5498H567.646V91.1337ZM562.485 91.7181H564.865V91.1341H562.485V91.7181ZM567.646 91.7181H570.127V91.1341H567.646V91.7181ZM562.485 92.3222H564.865V91.7181H562.485V92.3222ZM567.646 92.3222H570.127V91.7181H567.646V92.3222Z" fill="#CCCCCC"/>
<path fill-rule="evenodd" clip-rule="evenodd" d="M562.485 92.9057H564.865V92.3218H562.485V92.9057ZM567.646 92.9057H570.127V92.3218H567.646V92.9057ZM562.485 93.4897H564.865V92.9057H562.485V93.4897ZM567.646 93.4897H570.127V92.9057H567.646V93.4897Z" fill="#CCCCCC"/>
<path fill-rule="evenodd" clip-rule="evenodd" d="M562.485 94.0736H564.865V93.4893H562.485V94.0736ZM567.646 94.0736H570.127V93.4893H567.646V94.0736ZM570.127 94.4965V94.0736H567.646V94.4965H570.127ZM564.865 94.0736H562.485V94.4965H564.865V94.0736Z" fill="#CCCCCC"/>
<path fill-rule="evenodd" clip-rule="evenodd" d="M522.572 81.9306H527.184C526.643 81.5826 525.899 81.3467 524.875 81.3467C523.856 81.3467 523.114 81.5826 522.572 81.9306ZM521.905 82.5146H527.847C527.657 82.2872 527.433 82.0903 527.184 81.9306H522.572C522.322 82.0906 522.097 82.2875 521.905 82.5146Z" fill="#CCCCCC"/>
<path fill-rule="evenodd" clip-rule="evenodd" d="M521.529 83.0789H528.219C528.116 82.8779 527.991 82.6888 527.847 82.5151H521.905C521.76 82.6888 521.633 82.8778 521.529 83.0789Z" fill="#CCCCCC"/>
<path fill-rule="evenodd" clip-rule="evenodd" d="M521.289 83.6621H528.453C528.393 83.4607 528.314 83.2653 528.219 83.0781H521.529C521.432 83.2653 521.351 83.4607 521.289 83.6621ZM521.154 84.2464H523.787C523.968 84.0016 524.302 83.7629 524.915 83.7629C525.548 83.7629 525.883 84.0016 526.059 84.2464H528.582C528.554 84.0487 528.511 83.8535 528.454 83.6625H521.289C521.221 83.877 521.18 84.0768 521.154 84.2464Z" fill="#CCCCCC"/>
<path fill-rule="evenodd" clip-rule="evenodd" d="M521.114 84.8103H523.575V84.77C523.575 84.77 523.596 84.5046 523.787 84.2466H521.155C521.107 84.5612 521.114 84.77 521.114 84.77V84.8103ZM526.256 84.8103H528.616V84.6443C528.612 84.5112 528.601 84.3784 528.582 84.2466H526.059C526.245 84.5046 526.256 84.77 526.256 84.77V84.8103ZM521.114 85.3943H523.575V84.8103H521.114V85.3943ZM526.256 85.3943H528.616V84.8103H526.256V85.3943Z" fill="#CCCCCC"/>
<path fill-rule="evenodd" clip-rule="evenodd" d="M521.114 85.979H523.575V85.395H521.114V85.979ZM526.255 85.979H528.616V85.395H526.255V85.979ZM521.114 86.5427H523.575V85.979H521.114V86.5427ZM526.255 86.5427H528.616V85.979H526.255V86.5427Z" fill="#CCCCCC"/>
<path fill-rule="evenodd" clip-rule="evenodd" d="M521.114 87.1259H523.575V86.542H521.114V87.1259ZM526.255 87.1259H528.616V86.542H526.255V87.1259ZM521.114 87.6897H523.575V87.1259H521.114V87.6897ZM526.255 87.6897H528.616V87.1259H526.255V87.6897Z" fill="#CCCCCC"/>
<path fill-rule="evenodd" clip-rule="evenodd" d="M521.114 88.2743H523.575V87.6899H521.114V88.2743ZM526.255 88.2743H528.616V87.6899H526.255V88.2743ZM521.114 88.8582H523.575V88.2743H521.114V88.8582ZM526.255 88.8582H528.616V88.2743H526.255V88.8582Z" fill="#CCCCCC"/>
<path fill-rule="evenodd" clip-rule="evenodd" d="M521.114 89.4217H523.575V88.8579H521.114V89.4217ZM526.255 89.4217H528.616V88.8579H526.255V89.4217Z" fill="#CCCCCC"/>
<path fill-rule="evenodd" clip-rule="evenodd" d="M521.114 90.0062H523.575V89.4219H521.114V90.0062ZM526.255 90.0062H528.616V89.4219H526.255V90.0062Z" fill="#CCCCCC"/>
<path fill-rule="evenodd" clip-rule="evenodd" d="M521.114 90.5898H523.575V90.0059H521.114V90.5898ZM526.255 90.5898H528.616V90.0059H526.255V90.5898Z" fill="#CCCCCC"/>
<path fill-rule="evenodd" clip-rule="evenodd" d="M521.114 91.1536H523.575V90.5898H521.114V91.1536ZM526.255 91.1536H528.616V90.5898H526.255V91.1536ZM521.114 91.7375H523.575V91.1536H521.114V91.7375ZM526.255 91.7375H528.616V91.1536H526.255V91.7375ZM521.114 92.3219H523.575V91.7379H521.114V92.3219ZM526.255 92.3219H528.616V91.7379H526.255V92.3219Z" fill="#CCCCCC"/>
<path fill-rule="evenodd" clip-rule="evenodd" d="M521.114 92.8855H523.575V92.3218H521.114V92.8855ZM526.255 92.8855H528.616V92.3218H526.255V92.8855ZM521.114 93.4695H523.575V92.8855H521.114V93.4695ZM526.255 93.4695H528.616V92.8855H526.255V93.4695Z" fill="#CCCCCC"/>
<path fill-rule="evenodd" clip-rule="evenodd" d="M521.114 94.0537H523.575V93.4697H521.114V94.0537ZM526.255 94.0537H528.616V93.4697H526.255V94.0537Z" fill="#CCCCCC"/>
<path fill-rule="evenodd" clip-rule="evenodd" d="M521.114 94.617H523.575V94.0532H521.114V94.617ZM526.255 94.617H528.616V94.0532H526.255V94.617ZM521.114 95.2013H523.575V94.617H521.114V95.2013ZM526.255 95.2013H528.616V94.617H526.255V95.2013Z" fill="#CCCCCC"/>
<path fill-rule="evenodd" clip-rule="evenodd" d="M521.114 95.7654H523.575V95.2017H521.114V95.7654ZM526.256 95.7654H528.616V95.2017H526.256V95.7654ZM521.114 96.3497H523.575V95.7654H521.114V96.3497ZM526.256 96.3497H528.616V95.7654H526.256V96.3497ZM518.02 96.9333H528.616V96.3497H526.256V96.4906H523.575V96.3497H521.114V96.4906H517.733L518.02 96.9333Z" fill="#CCCCCC"/>
<path fill-rule="evenodd" clip-rule="evenodd" d="M518.386 97.4981H528.616V96.9336H518.02L518.386 97.4981ZM518.764 98.0817H528.616V97.4981H518.386L518.764 98.0817Z" fill="#CCCCCC"/>
<path fill-rule="evenodd" clip-rule="evenodd" d="M519.143 98.6655H528.616V98.0815H518.764L519.143 98.6655ZM521.214 99.2296H523.535V98.9072H526.316V99.2296H528.616V98.6655H519.143L519.274 98.8672H521.214V99.2296Z" fill="#CCCCCC"/>
<path fill-rule="evenodd" clip-rule="evenodd" d="M521.214 99.8138H523.535V99.2295H521.214V99.8138ZM526.316 99.8138H528.616V99.2295H526.316V99.8138Z" fill="#CCCCCC"/>
<path fill-rule="evenodd" clip-rule="evenodd" d="M521.214 100.397H523.535V99.8135H521.214V100.397ZM526.316 100.397H528.616V99.8135H526.316V100.397ZM521.214 100.961H523.535V100.397H521.214V100.961ZM526.316 100.961H528.616V100.397H526.316V100.961Z" fill="#CCCCCC"/>
<path fill-rule="evenodd" clip-rule="evenodd" d="M521.214 101.545H523.535V100.961H521.214V101.545ZM526.316 101.545H528.616V100.961H526.316V101.545ZM521.214 102.13H523.535V101.545H521.214V102.13ZM526.316 102.13H528.616V101.545H526.316V102.13ZM521.214 102.693H523.535V102.13H521.214V102.693ZM526.316 102.693H528.616V102.13H526.316V102.693Z" fill="#CCCCCC"/>
<path fill-rule="evenodd" clip-rule="evenodd" d="M521.214 103.276H523.535V102.693H521.214V103.276ZM526.316 103.276H528.616V102.693H526.316V103.276Z" fill="#CCCCCC"/>
<line x1="645.925" y1="77.5" x2="645.925" y2="109.5" stroke="#E6E6E6"/>
<path fill-rule="evenodd" clip-rule="evenodd" d="M746.355 105.255C743.771 107.377 740.356 108.669 736.757 108.669C728.267 108.669 721.461 101.84 721.461 93.4653C721.461 85.0674 728.267 78.2381 736.757 78.2381C742.386 78.2381 747.278 81.2835 749.954 85.8979C750.323 85.9902 750.6 86.0826 750.969 86.1749C748.293 81.0068 742.94 77.5 736.757 77.5C727.897 77.5 720.722 84.606 720.722 93.4653C720.722 102.302 727.898 109.5 736.757 109.5C740.91 109.5 744.693 107.839 747.554 105.255H746.355Z" fill="#CCCCCC"/>
<path fill-rule="evenodd" clip-rule="evenodd" d="M738.787 104.517H780.662V98.2417H738.787V104.517Z" fill="#CCCCCC"/>
<path fill-rule="evenodd" clip-rule="evenodd" d="M740.91 87.0051L740.725 87.8359H738.695C738.141 93.7424 737.772 98.5178 737.403 100.733C736.572 104.701 732.881 106.916 730.481 106.916C729.651 106.916 728.636 106.547 728.636 105.532C728.636 104.978 729.097 104.517 729.651 104.517C730.481 104.517 731.127 105.163 731.589 105.901C732.881 105.163 733.065 104.517 733.619 101.933C733.896 100.733 734.634 92.1732 735.003 87.8359H733.342L733.527 87.0051H735.188L735.373 85.5289C736.296 80.0841 740.264 79.438 741.741 79.438C742.479 79.438 743.955 79.807 743.955 80.8222C743.955 81.4679 743.402 81.745 742.848 81.745C741.833 81.745 741.371 81.1912 740.91 80.3604C739.248 81.0989 738.972 85.1595 738.787 87.0047H740.91V87.0051ZM740.725 94.5725C740.725 90.2356 743.494 86.4517 748.2 86.4517C751.154 86.4517 752.814 87.7439 752.814 90.6046C752.814 94.9419 750.046 98.6105 745.339 98.6105C742.386 98.6105 740.725 97.3183 740.725 94.5725ZM749.031 91.2507C749.031 90.1432 748.939 87.4672 747.278 87.4672C744.878 87.4672 744.509 92.1735 744.509 93.9271C744.509 94.9423 744.601 97.688 746.262 97.688C748.662 97.6877 749.031 93.004 749.031 91.2507ZM753.83 94.5725C753.83 90.2356 756.691 86.4517 761.397 86.4517C764.258 86.4517 765.988 87.7439 765.988 90.6046C765.988 94.9419 763.15 98.6105 758.444 98.6105C755.583 98.6105 753.83 97.3183 753.83 94.5725ZM762.228 91.2507C762.228 90.1432 762.136 87.4672 760.474 87.4672C757.983 87.4672 757.706 92.1735 757.706 93.9271C757.706 94.9423 757.706 97.688 759.367 97.688C761.858 97.6877 762.228 93.004 762.228 91.2507ZM780.293 97.2263C778.631 97.9644 776.601 98.6101 775.217 98.6101C774.479 98.6101 774.571 97.5023 774.571 97.0412C774.571 96.4882 774.571 95.749 774.756 94.2962L774.663 94.2035C773.74 96.1184 771.895 98.6101 769.495 98.6101C767.649 98.6101 766.819 96.6722 766.819 95.0343C766.819 90.9733 770.048 86.6364 774.663 86.6364H775.586C775.955 83.7753 775.955 82.5758 775.955 81.6526C775.955 81.3759 775.955 81.0989 775.678 81.0989C775.401 81.0989 775.033 81.1912 774.109 81.4679L773.925 80.7298C775.771 80.0841 777.801 79.7147 779.647 79.6223C779.832 79.6223 779.924 79.6223 779.924 79.9914C779.924 82.3907 778.078 94.9416 778.078 96.2111C778.078 96.4882 778.078 96.9492 778.447 96.9492C778.631 96.9492 779.278 96.7642 780.016 96.4878L780.293 97.2263ZM774.294 93.281C774.94 91.7121 775.125 90.1432 775.494 87.7439C775.309 87.6512 775.125 87.6512 775.033 87.6512C772.171 87.6512 770.787 91.8965 770.787 94.2035C770.787 94.7572 770.88 96.1184 771.71 96.1184C772.91 96.1188 773.925 94.2038 774.294 93.281Z" fill="#CCCCCC"/>
<path fill-rule="evenodd" clip-rule="evenodd" d="M741.279 99.7178H742.294L743.586 101.656V99.7178H744.417V103.409H743.678L742.109 101.287V103.409H741.279V99.7178ZM746.816 99.7178H749.677V100.456H747.923V101.102H749.031V101.932H747.923V102.578H749.677V103.409H746.816V99.7178ZM752.722 100.456H751.707V99.7178H754.845V100.456H753.83V103.409H752.722V100.456ZM756.691 99.7178H757.798L758.26 101.656H758.351L758.813 99.7178H759.736L760.197 101.656H760.29L760.751 99.7178H761.581L760.659 103.409H759.736L759.182 101.379L758.628 103.409H757.706L756.691 99.7178ZM765.342 103.502C764.258 103.502 763.52 102.764 763.52 101.563C763.52 100.364 764.258 99.6255 765.342 99.6255C766.45 99.6255 767.096 100.364 767.096 101.563C767.096 102.763 766.45 103.502 765.342 103.502ZM764.697 101.563C764.697 102.578 764.974 102.763 765.342 102.763C765.712 102.763 765.988 102.578 765.988 101.563C765.988 100.549 765.712 100.364 765.342 100.364C764.881 100.364 764.697 100.641 764.697 101.563ZM769.31 99.7178H771.156C772.356 99.7178 772.633 100.271 772.633 100.733C772.633 101.194 772.356 101.563 771.895 101.656L772.633 103.409H771.433L770.879 101.84H770.418V103.409H769.31V99.7178ZM770.418 101.194H770.972C771.248 101.194 771.526 101.009 771.526 100.825C771.526 100.549 771.341 100.364 770.972 100.364H770.418V101.194ZM774.94 99.7178H776.048V101.194L777.155 99.7178H778.17L777.247 100.917L778.354 103.409H777.247L776.509 101.84L776.048 102.487V103.409H774.94V99.7178Z" fill="white"/>
<line x1="856.459" y1="77.5" x2="856.459" y2="109.5" stroke="#E6E6E6"/>
<g clip-path="url(#clip0_2336_5280)">
<path d="M1003.91 95.8893C1003.59 95.8893 1003.35 95.8083 1003.16 95.6194C1003 95.4574 1002.89 95.1875 1002.89 94.8636V84.9042C1002.89 84.5803 1002.97 84.3104 1003.16 84.1484C1003.35 83.9865 1003.59 83.9055 1003.91 83.9055H1005.72C1006.13 83.9055 1006.48 83.9325 1006.78 83.9595C1007.07 84.0135 1007.34 84.0944 1007.53 84.2564C1007.75 84.4183 1007.88 84.6343 1007.99 84.9581C1008.1 85.255 1008.15 85.6869 1008.15 86.1997V93.5951C1008.15 94.2698 1008.07 94.7557 1007.88 95.0795C1007.69 95.4034 1007.42 95.6194 1007.07 95.7273C1006.72 95.8353 1006.26 95.8893 1005.72 95.8623L1003.91 95.8893ZM998.112 78.1026C997.788 78.1296 997.518 78.2105 997.356 78.3725C997.194 78.5344 997.113 78.8043 997.113 79.1282V100.667C997.113 100.99 997.194 101.233 997.383 101.422C997.545 101.584 997.815 101.692 998.139 101.692H1005.64C1007.21 101.692 1008.56 101.53 1009.64 101.206C1010.72 100.882 1011.58 100.37 1012.23 99.7219C1012.88 99.0741 1013.36 98.2104 1013.63 97.1848C1013.93 96.1592 1014.06 94.9716 1014.06 93.5951V86.1997C1014.06 84.8232 1013.93 83.6356 1013.63 82.61C1013.33 81.5843 1012.88 80.7476 1012.23 80.0999C1011.58 79.4251 1010.72 78.9393 1009.64 78.6154C1008.56 78.2915 1007.23 78.1296 1005.64 78.1296L998.112 78.1026ZM988.287 92.3265C988.287 92.9743 988.26 93.5681 988.233 94.0809C988.179 94.5937 988.071 95.0256 987.909 95.4034C987.747 95.7813 987.478 96.0512 987.1 96.2401C986.749 96.4291 986.263 96.537 985.642 96.537C985.021 96.537 984.536 96.4291 984.185 96.2401C983.807 96.0512 983.564 95.7813 983.375 95.4034C983.213 95.0526 983.105 94.5937 983.051 94.0809C982.997 93.5681 982.97 92.9743 982.997 92.3265V87.4683C982.997 86.8205 983.024 86.2267 983.051 85.7139C983.105 85.2011 983.213 84.7692 983.375 84.3913C983.537 84.0135 983.807 83.7436 984.185 83.5546C984.536 83.3657 985.021 83.2577 985.642 83.2577C986.263 83.2577 986.749 83.3657 987.1 83.5546C987.478 83.7436 987.721 84.0135 987.909 84.3913C988.071 84.7422 988.179 85.2011 988.233 85.7139C988.287 86.2267 988.287 86.8205 988.287 87.4683V92.3265ZM994.063 85.6869C994.063 85.309 994.036 84.8502 993.982 84.3104C993.928 83.7706 993.82 83.2038 993.631 82.583C993.442 81.9622 993.173 81.3684 992.822 80.7746C992.444 80.1808 991.958 79.641 991.337 79.1552C990.716 78.6694 989.934 78.2645 988.989 77.9676C988.044 77.6707 986.911 77.5358 985.588 77.5088C984.266 77.5088 983.132 77.6707 982.187 77.9676C981.243 78.2645 980.46 78.6694 979.839 79.1552C979.219 79.641 978.733 80.1808 978.355 80.7746C977.977 81.3684 977.707 81.9892 977.545 82.583C977.356 83.2038 977.248 83.7706 977.194 84.3104C977.14 84.8502 977.113 85.309 977.113 85.6869V94.1079C977.113 94.4858 977.14 94.9446 977.194 95.4844C977.248 96.0242 977.356 96.591 977.545 97.2118C977.707 97.8326 978.004 98.4264 978.355 99.0201C978.733 99.6139 979.219 100.154 979.839 100.667C980.46 101.152 981.243 101.557 982.187 101.827C983.132 102.124 984.266 102.286 985.588 102.286C986.911 102.286 988.044 102.124 988.989 101.827C989.934 101.53 990.716 101.152 991.337 100.667C991.958 100.181 992.444 99.6409 992.822 99.0201C993.2 98.4264 993.469 97.8056 993.631 97.2118C993.793 96.591 993.928 96.0242 993.982 95.4844C994.036 94.9446 994.063 94.4858 994.063 94.1079V85.6869ZM968.665 92.3265C968.665 92.9743 968.638 93.5681 968.611 94.0809C968.557 94.5937 968.449 95.0256 968.287 95.4034C968.125 95.7813 967.856 96.0512 967.478 96.2401C967.127 96.4291 966.641 96.537 966.02 96.537C965.399 96.537 964.914 96.4291 964.563 96.2401C964.185 96.0512 963.942 95.7813 963.753 95.4034C963.591 95.0526 963.483 94.5937 963.429 94.0809C963.375 93.5681 963.348 92.9743 963.375 92.3265V87.4683C963.375 86.8205 963.402 86.2267 963.429 85.7139C963.483 85.2011 963.591 84.7692 963.753 84.3913C963.915 84.0135 964.185 83.7436 964.563 83.5546C964.914 83.3657 965.399 83.2577 966.02 83.2577C966.641 83.2577 967.127 83.3657 967.478 83.5546C967.856 83.7436 968.098 84.0135 968.287 84.3913C968.449 84.7422 968.557 85.2011 968.611 85.7139C968.665 86.2267 968.665 86.8205 968.665 87.4683V92.3265ZM974.468 85.6869C974.468 85.309 974.441 84.8502 974.387 84.3104C974.333 83.7706 974.225 83.2038 974.036 82.583C973.847 81.9622 973.578 81.3684 973.227 80.7746C972.849 80.1808 972.363 79.641 971.742 79.1552C971.121 78.6694 970.339 78.2645 969.394 77.9676C968.449 77.6707 967.316 77.5358 965.993 77.5088C964.671 77.5088 963.537 77.6707 962.592 77.9676C961.648 78.2645 960.865 78.6694 960.244 79.1552C959.623 79.641 959.138 80.1808 958.76 80.7746C958.382 81.3684 958.112 81.9892 957.95 82.583C957.761 83.2038 957.653 83.7706 957.599 84.3104C957.545 84.8502 957.518 85.309 957.518 85.6869V94.1079C957.518 94.4858 957.545 94.9446 957.599 95.4844C957.653 96.0242 957.761 96.591 957.95 97.2118C958.112 97.8326 958.409 98.4264 958.76 99.0201C959.138 99.6139 959.623 100.154 960.244 100.667C960.865 101.152 961.648 101.557 962.592 101.827C963.537 102.124 964.671 102.286 965.993 102.286C967.316 102.286 968.449 102.124 969.394 101.827C970.339 101.53 971.121 101.152 971.742 100.667C972.363 100.181 972.849 99.6409 973.227 99.0201C973.605 98.4264 973.874 97.8056 974.036 97.2118C974.198 96.591 974.333 96.0242 974.387 95.4844C974.441 94.9446 974.468 94.4858 974.468 94.1079V85.6869ZM954.549 78.1026C955.224 78.1026 955.548 78.4535 955.548 79.1012V82.8799C955.548 83.2038 955.467 83.4467 955.305 83.6356C955.143 83.8245 954.873 83.9055 954.549 83.9055H945.75C945.427 83.9055 945.184 83.9865 944.995 84.1484C944.806 84.3104 944.725 84.5803 944.725 84.9042V100.694C944.725 101.017 944.644 101.26 944.482 101.449C944.32 101.611 944.05 101.719 943.726 101.719H939.759C939.435 101.719 939.192 101.638 939.003 101.449C938.841 101.26 938.733 101.017 938.733 100.694V79.1282C938.733 78.8043 938.814 78.5344 939.003 78.3725C939.192 78.2105 939.435 78.1296 939.759 78.1296L954.549 78.1026Z" fill="#CCCCCC"/>
<path d="M1012.52 106.954C1012.52 106.927 1012.5 106.927 1012.5 106.9C1012.5 106.874 1012.5 106.874 1012.52 106.847L1013.87 105.011C1013.93 104.93 1013.93 104.876 1013.9 104.849C1013.87 104.822 1013.82 104.768 1013.74 104.768H1012.77C1012.71 104.768 1012.66 104.768 1012.63 104.795C1012.61 104.822 1012.55 104.849 1012.52 104.903L1011.47 106.334C1011.44 106.361 1011.44 106.361 1011.42 106.361C1011.39 106.361 1011.39 106.334 1011.39 106.307V104.984C1011.39 104.849 1011.34 104.795 1011.2 104.795H1010.45C1010.39 104.795 1010.34 104.822 1010.31 104.849C1010.28 104.876 1010.26 104.93 1010.26 105.011V109.276C1010.26 109.33 1010.28 109.384 1010.31 109.411C1010.34 109.438 1010.39 109.465 1010.45 109.465H1011.2C1011.26 109.465 1011.31 109.438 1011.36 109.411C1011.42 109.384 1011.42 109.33 1011.42 109.276V108.547V108.493C1011.42 108.466 1011.42 108.466 1011.44 108.439L1011.71 108.061C1011.71 108.034 1011.74 108.034 1011.77 108.034C1011.8 108.034 1011.8 108.034 1011.82 108.061L1012.66 109.33C1012.69 109.384 1012.71 109.411 1012.77 109.438C1012.79 109.465 1012.85 109.465 1012.9 109.465H1013.9C1013.98 109.465 1014.04 109.438 1014.06 109.384C1014.09 109.33 1014.09 109.276 1014.04 109.222L1012.52 106.954ZM1006.48 104.768C1006.42 104.768 1006.37 104.795 1006.34 104.822C1006.32 104.849 1006.29 104.903 1006.29 104.984V107.953C1006.29 108.034 1006.29 108.115 1006.32 108.223C1006.32 108.331 1006.34 108.439 1006.4 108.574C1006.42 108.682 1006.48 108.817 1006.56 108.925C1006.64 109.033 1006.72 109.141 1006.86 109.249C1006.99 109.357 1007.13 109.411 1007.32 109.492C1007.5 109.546 1007.72 109.573 1007.99 109.573C1008.26 109.573 1008.48 109.546 1008.66 109.492C1008.85 109.438 1009.02 109.357 1009.12 109.249C1009.26 109.141 1009.34 109.033 1009.42 108.925C1009.5 108.817 1009.56 108.682 1009.58 108.574C1009.61 108.466 1009.64 108.331 1009.64 108.223C1009.64 108.115 1009.66 108.034 1009.66 107.953V104.984C1009.66 104.849 1009.61 104.795 1009.47 104.795H1008.72C1008.66 104.795 1008.61 104.822 1008.58 104.849C1008.56 104.876 1008.53 104.93 1008.53 105.011V107.98C1008.53 108.088 1008.5 108.169 1008.48 108.25C1008.45 108.331 1008.4 108.385 1008.31 108.412C1008.23 108.439 1008.15 108.466 1008.02 108.466C1007.88 108.466 1007.8 108.439 1007.72 108.412C1007.64 108.385 1007.59 108.331 1007.56 108.25C1007.53 108.169 1007.5 108.088 1007.5 107.98C1007.5 107.872 1007.48 107.764 1007.5 107.629V105.011C1007.5 104.876 1007.45 104.822 1007.32 104.822L1006.48 104.768ZM1005.62 108.277C1005.75 108.277 1005.8 108.331 1005.8 108.466V109.222C1005.8 109.276 1005.78 109.33 1005.75 109.357C1005.72 109.384 1005.67 109.411 1005.59 109.411H1004.83C1004.78 109.411 1004.72 109.384 1004.7 109.357C1004.67 109.33 1004.64 109.276 1004.64 109.222V108.466C1004.64 108.412 1004.67 108.358 1004.7 108.304C1004.72 108.277 1004.78 108.25 1004.83 108.25L1005.62 108.277ZM1003 107.575V107.926C1003 108.034 1002.97 108.115 1002.94 108.196C1002.92 108.277 1002.86 108.331 1002.78 108.358C1002.7 108.385 1002.62 108.412 1002.48 108.412C1002.35 108.412 1002.27 108.385 1002.19 108.358C1002.11 108.331 1002.05 108.277 1002.03 108.196C1002 108.115 1001.97 108.034 1001.97 107.926C1001.97 107.818 1001.94 107.71 1001.97 107.575V106.631V106.28C1001.97 106.172 1002 106.091 1002.03 106.01C1002.05 105.929 1002.11 105.875 1002.19 105.848C1002.27 105.821 1002.35 105.794 1002.48 105.794C1002.62 105.794 1002.7 105.821 1002.78 105.848C1002.86 105.875 1002.92 105.929 1002.94 106.01C1002.97 106.091 1003 106.172 1003 106.28V107.575ZM1004.16 106.253C1004.16 106.172 1004.16 106.091 1004.13 105.983C1004.13 105.875 1004.1 105.767 1004.08 105.632C1004.05 105.524 1004 105.389 1003.91 105.281C1003.83 105.173 1003.75 105.065 1003.62 104.957C1003.48 104.849 1003.35 104.795 1003.16 104.714C1002.97 104.66 1002.75 104.633 1002.48 104.633C1002.21 104.633 1002 104.66 1001.81 104.714C1001.62 104.768 1001.46 104.849 1001.35 104.957C1001.22 105.065 1001.13 105.173 1001.05 105.281C1000.97 105.389 1000.92 105.524 1000.89 105.632C1000.86 105.74 1000.84 105.875 1000.81 105.983C1000.81 106.091 1000.78 106.172 1000.78 106.253V107.926C1000.78 108.007 1000.78 108.088 1000.81 108.196C1000.81 108.304 1000.84 108.412 1000.89 108.547C1000.92 108.655 1000.97 108.79 1001.05 108.898C1001.13 109.006 1001.22 109.114 1001.35 109.222C1001.49 109.33 1001.62 109.384 1001.81 109.465C1002 109.519 1002.21 109.546 1002.48 109.546C1002.75 109.546 1002.97 109.519 1003.16 109.465C1003.35 109.411 1003.51 109.33 1003.62 109.222C1003.75 109.114 1003.83 109.006 1003.91 108.898C1004 108.79 1004.05 108.655 1004.08 108.547C1004.1 108.439 1004.13 108.304 1004.13 108.196C1004.13 108.088 1004.16 108.007 1004.16 107.926V106.253ZM997.086 107.926C997.086 108.007 997.086 108.088 997.113 108.196C997.113 108.304 997.14 108.412 997.194 108.547C997.221 108.655 997.275 108.79 997.356 108.898C997.437 109.006 997.518 109.114 997.653 109.222C997.788 109.33 997.923 109.384 998.112 109.465C998.301 109.519 998.517 109.546 998.786 109.546C999.029 109.546 999.218 109.519 999.407 109.465C999.569 109.411 999.731 109.357 999.839 109.276C999.947 109.195 1000.06 109.114 1000.14 109.006C1000.22 108.898 1000.27 108.79 1000.32 108.682C1000.38 108.574 1000.41 108.466 1000.41 108.358C1000.43 108.25 1000.43 108.169 1000.43 108.061C1000.43 108.007 1000.43 107.98 1000.41 107.926C1000.38 107.899 1000.35 107.872 1000.3 107.872L999.542 107.71C999.488 107.683 999.407 107.71 999.38 107.737C999.326 107.764 999.299 107.818 999.299 107.899C999.299 108.007 999.272 108.088 999.218 108.169C999.191 108.25 999.137 108.304 999.056 108.331C998.975 108.358 998.894 108.385 998.759 108.385C998.625 108.385 998.544 108.358 998.463 108.331C998.382 108.304 998.328 108.25 998.301 108.169C998.274 108.088 998.247 108.007 998.247 107.899C998.247 107.791 998.22 107.683 998.247 107.548V106.604V106.253C998.247 106.145 998.274 106.064 998.301 105.983C998.328 105.902 998.382 105.848 998.463 105.821C998.544 105.794 998.625 105.767 998.759 105.767C998.867 105.767 998.975 105.794 999.056 105.821C999.137 105.848 999.191 105.902 999.218 105.983C999.245 106.064 999.272 106.145 999.272 106.226C999.272 106.307 999.299 106.361 999.353 106.388C999.407 106.415 999.461 106.442 999.542 106.442L1000.27 106.28C1000.32 106.28 1000.35 106.253 1000.38 106.226C1000.41 106.199 1000.41 106.145 1000.41 106.118C1000.41 106.037 1000.38 105.929 1000.38 105.821L1000.3 105.497C1000.24 105.389 1000.19 105.281 1000.11 105.173C1000.03 105.065 999.92 104.984 999.812 104.903C999.677 104.822 999.542 104.768 999.38 104.714C999.218 104.66 999.002 104.633 998.759 104.633C998.49 104.633 998.274 104.66 998.085 104.714C997.896 104.768 997.734 104.849 997.626 104.957C997.491 105.065 997.41 105.173 997.329 105.281C997.248 105.389 997.194 105.524 997.167 105.632C997.14 105.74 997.113 105.875 997.086 105.983C997.086 106.091 997.059 106.172 997.059 106.253V107.926H997.086ZM996.465 108.277C996.6 108.277 996.654 108.331 996.654 108.466V109.222C996.654 109.276 996.627 109.33 996.6 109.357C996.573 109.384 996.519 109.411 996.438 109.411H995.683C995.629 109.411 995.575 109.384 995.548 109.357C995.521 109.33 995.494 109.276 995.494 109.222V108.466C995.494 108.412 995.521 108.358 995.548 108.304C995.575 108.277 995.629 108.25 995.683 108.25L996.465 108.277Z" fill="#CCCCCC"/>
<path d="M947.046 90.9227C944.536 90.7068 932.282 92.704 931.365 90.5448C929.826 86.9551 942.701 88.9794 944.428 89.0333C945.292 89.0603 946.371 89.2223 946.992 89.0603C947.424 88.9254 947.721 88.2236 948.207 87.9537C949.286 87.306 951.041 87.6568 952.552 87.7918C953.578 87.8728 954.576 87.9807 955.656 88.0617C954.118 88.2776 952.471 88.4935 950.852 88.7095C950.663 88.7365 950.366 88.6555 950.231 88.8714C951.877 89.1413 953.74 89.1953 955.521 89.3302C953.767 89.6001 951.796 89.6541 950.069 89.978C950.177 90.1669 950.501 90.113 950.69 90.14C952.228 90.2479 953.929 90.3829 955.548 90.4638C953.875 90.7337 951.931 90.7877 950.258 91.1116C950.312 91.3815 950.663 91.3005 950.825 91.3005C952.363 91.4895 954.091 91.7054 955.683 91.8404C953.929 91.9753 951.769 92.3802 949.961 92.4881C948.558 92.5691 947.721 91.7594 947.046 90.9227Z" fill="#CCCCCC"/>
<path d="M942.701 91.1387C944.644 90.9767 946.29 90.8418 947.046 90.8958C947.397 91.3276 947.748 91.7325 948.234 92.0294C948.692 92.3263 949.232 92.5152 949.934 92.4612C950.933 92.4072 952.039 92.2453 953.119 92.1103C953.902 92.0024 954.657 91.8944 955.359 91.8404C954.657 91.7865 953.956 91.7055 953.227 91.6245C952.39 91.5435 951.58 91.4356 950.825 91.3276H950.69C950.501 91.3276 950.258 91.3276 950.231 91.1117V91.0847H950.258C951.175 90.8958 952.201 90.7878 953.227 90.7068C953.929 90.6529 954.63 90.5719 955.278 90.4909C954.063 90.4099 952.795 90.329 951.607 90.248C951.31 90.221 951.014 90.194 950.717 90.194H950.582C950.393 90.194 950.177 90.194 950.069 90.0321L950.042 90.0051H950.069C951.041 89.8162 952.093 89.7082 953.146 89.6272C953.848 89.5732 954.576 89.4923 955.251 89.4113C954.9 89.3843 954.522 89.3573 954.171 89.3303C952.822 89.2494 951.445 89.1684 950.231 88.9795H950.177L950.204 88.9525C950.312 88.7905 950.501 88.7905 950.663 88.7905H950.825L952.12 88.6286C953.2 88.4936 954.306 88.3317 955.332 88.1967C954.711 88.1428 954.09 88.0888 953.497 88.0348C953.173 88.0078 952.876 87.9808 952.525 87.9538L951.715 87.8728C950.42 87.7379 949.07 87.576 948.207 88.1158C947.991 88.2507 947.802 88.4666 947.64 88.6826C947.424 88.9255 947.235 89.1684 946.992 89.2494C946.56 89.3573 945.912 89.3303 945.265 89.2763C944.968 89.2494 944.671 89.2224 944.401 89.2224C944.104 89.2224 943.483 89.1414 942.674 89.0604C939.759 88.6016 934.28 88.0348 932.147 88.9525C931.392 89.2763 931.068 89.7622 931.392 90.5449C932.012 92.0294 938.166 91.5166 942.701 91.1387ZM947.046 90.9498C946.29 90.8958 944.644 91.0307 942.701 91.1927C938.166 91.5705 931.985 92.0834 931.338 90.5449C930.987 89.7352 931.338 89.2224 932.12 88.8715C934.28 87.9538 939.759 88.5206 942.701 88.8175C943.51 88.8985 944.131 88.9795 944.428 88.9795C944.698 88.9795 944.995 89.0064 945.292 89.0334C945.939 89.0874 946.56 89.1144 946.992 89.0064C947.208 88.9525 947.397 88.7095 947.613 88.4666C947.802 88.2507 947.964 88.0348 948.207 87.8998C949.097 87.36 950.447 87.522 951.769 87.6569L952.579 87.7379C952.876 87.7649 953.227 87.7919 953.551 87.8189C954.252 87.8728 954.954 87.9538 955.683 87.9808L955.98 88.0078L955.71 88.0618C954.603 88.2237 953.416 88.3857 952.228 88.5476L950.933 88.7096H950.771C950.636 88.7096 950.474 88.7096 950.366 88.8175C951.58 89.0064 952.93 89.0874 954.279 89.1684C954.738 89.1954 955.17 89.2224 955.629 89.2494L955.899 89.2763L955.629 89.3033C954.873 89.4113 954.063 89.4923 953.254 89.5732C952.228 89.6812 951.175 89.7622 950.231 89.9511C950.312 90.0591 950.501 90.0591 950.663 90.0591H950.798C951.095 90.0861 951.391 90.1131 951.688 90.1131C952.984 90.221 954.333 90.302 955.629 90.383L955.899 90.4099L955.629 90.4639C954.873 90.5719 954.09 90.6529 953.308 90.7338C952.309 90.8418 951.31 90.9228 950.393 91.1117C950.447 91.2736 950.636 91.2466 950.798 91.2466H950.933C951.715 91.3276 952.525 91.4356 953.335 91.5435C954.144 91.6245 954.981 91.7325 955.764 91.7865V91.8404C954.981 91.8944 954.09 92.0294 953.2 92.1373C952.12 92.2723 951.014 92.4342 950.015 92.4882C949.313 92.5422 948.746 92.3533 948.288 92.0564C947.748 91.7865 947.37 91.3816 947.046 90.9498Z" fill="#CCCCCC"/>
</g>
<line x1="1089.7" y1="77.5" x2="1089.7" y2="109.5" stroke="#E6E6E6"/>
<path fill-rule="evenodd" clip-rule="evenodd" d="M1165.83 103.053L1173.54 102.949L1173.56 102.904L1165.25 101.575L1165.21 101.415L1172.17 101.315C1172.17 101.315 1172.12 101.177 1171.94 100.834L1164.78 99.693L1164.75 99.5327L1171.45 99.4362L1171.35 98.9686L1164.55 97.9537L1164.55 97.7562L1171.15 97.6612L1171.1 97.1748L1164.5 96.09L1164.51 95.9287L1171.1 95.8337C1171.06 95.6454 1171.12 95.2645 1171.12 95.2645L1164.6 94.2722L1164.63 94.1098L1171.22 94.0333C1171.22 93.9393 1171.25 93.5937 1171.25 93.5937L1164.84 92.4426L1164.87 92.2808L1171.52 92.1848C1171.52 92.1848 1171.56 91.8203 1171.64 91.6309L1165.23 90.6529L1165.28 90.4905L1171.94 90.3945C1171.94 90.3945 1172.08 90.0086 1172.16 89.8662L1165.78 88.9039L1165.82 88.76L1172.6 88.6625C1172.6 88.6625 1172.79 88.2546 1172.84 88.1443L1166.51 87.1647L1166.58 87.0203L1173.47 86.9212C1173.47 86.9212 1173.66 86.5583 1173.83 86.3046L1167.5 85.3255L1167.57 85.1989L1174.66 85.1146C1174.66 85.1146 1174.87 84.7787 1175.06 84.6036L1168.67 83.646L1168.79 83.501L1176.04 83.3969C1176.04 83.3969 1176.32 83.0885 1176.52 82.9288L1170.24 81.9696L1170.34 81.8246L1177.72 81.7123L1178.21 81.284L1172.48 80.0471L1172.47 80.0486C1174.93 78.4917 1177.97 77.5508 1181.65 77.5018C1188.48 77.4094 1194.25 80.7904 1194.44 88.7288L1185.56 88.8483C1185.26 86.034 1183.59 85.0748 1181.2 85.107C1176.03 85.1764 1173.8 90.7141 1173.87 95.9654C1173.92 99.5505 1175.49 101.921 1179.29 101.869C1181.81 101.835 1183.93 100.91 1184.83 98.4219L1180.57 98.4785L1181.84 91.9291L1194.31 91.7611L1191.03 108.584L1185.1 108.664L1185.32 105.716L1185.23 105.631C1183.3 108.304 1180.29 109.454 1177.04 109.498C1170.7 109.584 1167.42 106.447 1165.84 103.078L1165.83 103.053ZM1211.57 91.9944C1210.66 91.4574 1209.53 91.0873 1208.08 91.1041C1206.28 91.1245 1204.31 91.8591 1204.34 94.1313C1204.38 97.3345 1210.89 97.2871 1210.95 102.297C1210.98 105.171 1209.02 108.453 1204.42 108.505C1202.2 108.531 1200.61 108.057 1199.07 107.472L1199.92 104.943C1201.05 105.642 1202.62 106.117 1203.96 106.102C1206.86 106.068 1208.07 104.247 1208.05 102.659C1208.01 98.7721 1201.5 99.5316 1201.44 94.2206C1201.4 90.7432 1204.55 88.7355 1207.7 88.6992C1209.29 88.6809 1210.85 88.9642 1212.31 89.5497L1211.57 91.9944ZM1222.51 107.722C1221.18 108.066 1219.78 108.328 1218.39 108.344C1214.99 108.383 1211.94 107.05 1211.88 102.122C1211.84 98.2616 1214.49 93.7678 1219.42 93.7106C1222.79 93.6718 1224.7 95.676 1224.74 98.989C1224.75 99.9191 1224.65 100.715 1224.52 101.537L1214.69 101.651C1214.64 101.941 1214.62 102.235 1214.62 102.529C1214.66 105.458 1216.47 106.285 1218.96 106.257C1220.25 106.242 1221.64 105.898 1222.9 105.362L1222.51 107.722ZM1222.09 99.6491C1222.14 99.2381 1222.17 98.9094 1222.16 98.5801C1222.14 96.9379 1221.12 95.7725 1219.17 95.7944C1217.07 95.8184 1215.47 97.672 1214.95 99.7318L1222.09 99.6491ZM1226.4 96.0936C1226.51 95.5172 1226.66 94.7765 1226.76 93.9541L1229.17 93.9261L1228.76 96.1487H1228.81C1229.62 94.8245 1231.11 93.5754 1233.55 93.5473C1233.79 93.5442 1234.23 93.5942 1234.73 93.7806L1234.18 96.0588C1233.68 95.8735 1233.27 95.7954 1233.08 95.7985C1229.91 95.8342 1228.38 99.3019 1228.05 101.031L1226.68 107.919L1224.1 107.949L1226.4 96.0936ZM1235.52 93.852L1238.1 93.8229L1235.3 107.819L1232.73 107.849L1235.52 93.852ZM1238.91 90.6922L1236.01 90.7253L1236.58 87.8161L1239.48 87.7829L1238.91 90.6922ZM1248.33 107.423C1246.99 107.767 1245.6 108.029 1244.2 108.045C1240.8 108.085 1237.75 106.751 1237.69 101.823C1237.65 97.9624 1240.31 93.4687 1245.24 93.4115C1248.6 93.3732 1250.51 95.3779 1250.55 98.6899C1250.56 99.621 1250.46 100.416 1250.34 101.239L1240.51 101.352C1240.46 101.642 1240.43 101.935 1240.44 102.23C1240.47 105.159 1242.29 105.986 1244.78 105.958C1246.06 105.944 1247.46 105.599 1248.71 105.064L1248.33 107.423ZM1247.9 99.3499C1247.96 98.939 1247.98 98.6102 1247.97 98.281C1247.96 96.6388 1246.93 95.4733 1244.99 95.4953C1242.88 95.5203 1241.28 97.3728 1240.76 99.4326L1247.9 99.3499Z" fill="#CCCCCC"/>
<path fill-rule="evenodd" clip-rule="evenodd" d="M1259.26 96.0424C1258.54 95.6943 1257.41 95.3512 1256.46 95.3625C1255.33 95.3752 1253.86 95.6933 1253.87 97.0904C1253.9 99.4713 1258.67 99.5259 1258.71 103.414C1258.75 106.782 1255.67 107.912 1253.48 107.937C1251.26 107.963 1250.44 107.671 1249.39 107.327L1249.86 105.104C1250.88 105.503 1251.95 105.874 1253.07 105.861C1254.47 105.845 1256 105.252 1255.98 103.664C1255.95 101.283 1251.18 100.981 1251.14 97.4498C1251.11 94.4926 1254.05 93.3088 1256.35 93.2822C1257.58 93.268 1258.84 93.5543 1260 94.0066L1259.26 96.0424Z" fill="#CCCCCC"/>
<rect x="0.5" y="0.5" width="1319" height="186" stroke="#E6E6E6"/>
<defs>
<clipPath id="clip0_2336_5280">
<rect width="82.6446" height="32" fill="white" transform="translate(931.257 77.5)"/>
</clipPath>
</defs>
</svg>
