<svg width="63" height="67" viewBox="0 0 63 67" fill="none" xmlns="http://www.w3.org/2000/svg">
<path id="CompoundPath 1" fill-rule="evenodd" clip-rule="evenodd" d="M37.3779 2.21249C40.4159 7.20356 41.7456 11.8367 41.7247 17.3575L41.7116 20.9042L41.0184 18.768C39.4935 14.0659 37.6295 10.8366 34.4483 7.38483L32.4636 5.23124L34.1642 2.61562C35.0995 1.17705 35.9024 0 35.948 0C35.9936 0 36.6373 0.995776 37.3779 2.21249ZM29.1582 6.36892C34.4376 10.0407 38.4175 15.8188 39.8008 21.8197C40.3521 24.212 40.7295 29.42 40.4377 30.6102C40.2516 31.3694 40.2084 31.3453 38.5331 29.5454C33.9797 24.6542 27.2647 20.7901 20.7864 19.3344C19.5116 19.0479 18.5125 18.6786 18.5662 18.5135C18.7803 17.8559 26.9964 5.22056 27.2203 5.20469C27.3523 5.19554 28.2244 5.71921 29.1582 6.36892ZM26.6973 11.5834C25.7075 12.2511 24.7755 13.8389 24.7567 14.8893C24.735 16.1017 25.8366 17.887 26.9358 18.4207C29.7926 19.8083 32.794 18.0319 32.794 14.9534C32.794 11.8217 29.2488 9.86191 26.6973 11.5834ZM53.2415 35.6333C53.7657 35.9967 53.1822 37.605 52.125 38.7122C50.2646 40.6598 51.2735 40.5664 31.1074 40.6573L12.6696 40.7403L11.5665 40.0384C10.2168 39.1791 9.241 37.634 9.241 36.3556V35.3998L31.0797 35.4044C43.0911 35.4072 53.0638 35.51 53.2415 35.6333ZM6.27422 54.0153C7.47095 55.6937 8.55736 57.067 8.68884 57.067C8.82002 57.067 9.80657 55.6937 10.8808 54.0153L12.8342 50.9636H14.6153H16.3963V58.7454V66.5273H14.4584H12.5205L12.5184 61.8734L12.5161 57.2196L10.9869 59.5846C9.59549 61.7367 9.36979 61.9497 8.47895 61.9497C7.61703 61.9497 7.32695 61.7089 6.05986 59.9414L4.61984 57.933L4.53726 62.2302L4.45438 66.5273H2.52482H0.594971V58.7454V50.9636H2.34683H4.0987L6.27422 54.0153ZM38.3564 54.1651L40.6559 57.3667L42.7306 54.1651L44.8057 50.9636H46.5513H48.2972V58.7601V66.5563L46.4338 66.4656L44.5705 66.3747L44.4214 61.9912L44.2723 57.608L42.8246 59.7787C41.5372 61.7089 41.2707 61.9497 40.4222 61.9497C39.5892 61.9497 39.2812 61.6891 37.9944 59.8944L36.5207 57.8391L36.4381 62.1832L36.3552 66.5273H34.4257H32.4958V58.7454V50.9636H34.2763H36.0571L38.3564 54.1651ZM26.7662 55.0995C30.0559 56.5061 31.5597 60.2591 30.0839 63.3794C28.0211 67.7415 22.1623 68.2771 19.3882 64.3575C15.8984 59.4263 21.2321 52.7332 26.7662 55.0995ZM59.2362 55.3986C63.1254 57.3825 63.7659 62.5451 60.4801 65.4241C56.4647 68.9421 50.2989 66.191 50.2989 60.8816C50.2989 56.157 55.031 53.2539 59.2362 55.3986ZM23.36 58.2736C20.6877 59.4256 21.5333 63.4756 24.4461 63.4756C27.7852 63.4756 28.1728 58.707 24.879 58.1476C24.3948 58.0655 23.7115 58.1219 23.36 58.2736ZM55.2608 58.2852C53.8044 58.8867 53.291 60.6323 54.0999 62.2329C54.6082 63.2391 55.087 63.4756 56.6174 63.4756C58.5681 63.4756 59.7329 61.5414 58.8844 59.711C58.19 58.2135 56.779 57.6581 55.2608 58.2852Z" fill="#CCCCCC"/>
</svg>
