<svg width="40" height="19" viewBox="0 0 40 19" fill="none" xmlns="http://www.w3.org/2000/svg">
<g id="Discover">
<path id="Stripe" d="M15.1177 18.1765L39.7059 10.7354V14.2942C39.7059 16.4383 37.9677 18.1765 35.8236 18.1765H15.1177Z" fill="#FD6020"/>
<path id="DISC-VER" fill-rule="evenodd" clip-rule="evenodd" d="M35.0388 0.261116C36.3915 0.261116 37.1356 0.886876 37.1356 2.06887C37.2032 2.97275 36.5945 3.73757 35.7828 3.87662L37.609 6.4492H36.1886L34.633 3.94615H34.4977V6.4492H33.3479V0.261116H35.0388ZM34.4978 3.1118H34.836C35.58 3.1118 35.9182 2.76416 35.9182 2.1384C35.9182 1.58216 35.58 1.23452 34.836 1.23452H34.4978V3.1118ZM29.3573 6.4492H32.6039V5.40626H30.5072V3.73757H32.5363V2.69463H30.5072V1.30405H32.6039V0.261116H29.3573V6.4492ZM25.9755 4.43285L24.4198 0.261116H23.2024L25.7049 6.58825H26.3137L28.8162 0.261116H27.5988L25.9755 4.43285ZM12.2453 3.38993C12.2453 5.12816 13.5981 6.58826 15.289 6.58826C15.8301 6.58826 16.3035 6.44921 16.777 6.24062V4.85004C16.4388 5.26721 15.9654 5.54533 15.4243 5.54533C14.3421 5.54533 13.4628 4.71098 13.4628 3.59852V3.45946C13.3952 2.347 14.2744 1.37359 15.3566 1.30406C15.8977 1.30406 16.4388 1.58218 16.777 1.99935V0.608773C16.3712 0.330657 15.8301 0.261128 15.3566 0.261128C13.5981 0.12207 12.2453 1.58218 12.2453 3.38993ZM10.1486 2.62511C9.47223 2.347 9.26932 2.20794 9.26932 1.86029C9.33696 1.44312 9.67514 1.09547 10.081 1.165C10.4191 1.165 10.7573 1.37359 11.0279 1.65171L11.6366 0.817358C11.1631 0.400184 10.5544 0.122068 9.94569 0.122068C8.99877 0.0525387 8.18713 0.817358 8.11949 1.79076V1.86029C8.11949 2.69464 8.45768 3.18134 9.53987 3.52899C9.81041 3.59852 10.081 3.73758 10.3515 3.87663C10.5544 4.01569 10.6897 4.22428 10.6897 4.50239C10.6897 4.9891 10.2839 5.40627 9.87805 5.40627H9.81041C9.26932 5.40627 8.79586 5.05863 8.59295 4.57192L7.84895 5.33674C8.25477 6.10156 9.06641 6.51874 9.87805 6.51874C10.9602 6.58826 11.8395 5.75392 11.9072 4.64145V4.43287C11.8395 3.59852 11.5013 3.18134 10.1486 2.62511ZM6.22561 6.4492H7.37544V0.261116H6.22561V6.4492ZM0.882324 0.261116H2.57324H2.91143C4.53471 0.330645 5.8198 1.72122 5.75217 3.38992C5.75217 4.2938 5.34635 5.12815 4.66998 5.75391C4.06125 6.24061 3.31725 6.51873 2.57324 6.4492H0.882324V0.261116ZM2.37042 5.40613C2.91152 5.47566 3.52025 5.26707 3.92607 4.91943C4.33189 4.50225 4.5348 3.94602 4.5348 3.32026C4.5348 2.76403 4.33189 2.2078 3.92607 1.79062C3.52025 1.44298 2.91152 1.23439 2.37042 1.30392H2.03224V5.40613H2.37042Z" fill="black"/>
<path id="O" fill-rule="evenodd" clip-rule="evenodd" d="M20.2265 0.117676C18.5356 0.117676 17.1152 1.50826 17.1152 3.31601C17.1152 5.05423 18.468 6.51434 20.2265 6.58387C21.9851 6.6534 23.3378 5.19329 23.4054 3.38554C23.3378 1.57778 21.9851 0.117676 20.2265 0.117676V0.117676Z" fill="#FD6020"/>
</g>
</svg>
