<svg width="83" height="33" viewBox="0 0 83 33" fill="none" xmlns="http://www.w3.org/2000/svg">
<g id="food" clip-path="url(#clip0_2336_5410)">
<path id="Vector" d="M72.9147 18.8893C72.5909 18.8893 72.3479 18.8083 72.159 18.6194C71.9971 18.4574 71.8891 18.1875 71.8891 17.8636V7.90416C71.8891 7.58028 71.9701 7.31037 72.159 7.14843C72.3479 6.98649 72.5909 6.90552 72.9147 6.90552H74.7231C75.128 6.90552 75.4788 6.93251 75.7757 6.9595C76.0726 7.01348 76.3425 7.09445 76.5315 7.25639C76.7474 7.41833 76.8823 7.63426 76.9903 7.95814C77.0983 8.25504 77.1522 8.68688 77.1522 9.1997V16.5951C77.1522 17.2698 77.0713 17.7557 76.8823 18.0795C76.6934 18.4034 76.4235 18.6194 76.0726 18.7273C75.7217 18.8353 75.2629 18.8893 74.7231 18.8623L72.9147 18.8893ZM67.1118 1.10258C66.7879 1.12957 66.518 1.21054 66.3561 1.37248C66.1941 1.53442 66.1132 1.80433 66.1132 2.12821V23.6666C66.1132 23.9904 66.1941 24.2334 66.3831 24.4223C66.545 24.5842 66.8149 24.6922 67.1388 24.6922H74.6421C76.2076 24.6922 77.5571 24.5303 78.6367 24.2064C79.7163 23.8825 80.58 23.3697 81.2278 22.7219C81.8756 22.0741 82.3614 21.2104 82.6313 20.1848C82.9282 19.1592 83.0631 17.9716 83.0631 16.5951V9.1997C83.0631 7.82319 82.9282 6.63561 82.6313 5.60998C82.3344 4.58434 81.8756 3.74764 81.2278 3.09987C80.58 2.42511 79.7163 1.93928 78.6367 1.6154C77.5571 1.29151 76.2346 1.12957 74.6421 1.12957L67.1118 1.10258ZM57.2873 15.3265C57.2873 15.9743 57.2603 16.5681 57.2333 17.0809C57.1793 17.5937 57.0714 18.0256 56.9094 18.4034C56.7475 18.7813 56.4776 19.0512 56.0997 19.2401C55.7488 19.4291 55.263 19.537 54.6422 19.537C54.0215 19.537 53.5356 19.4291 53.1848 19.2401C52.8069 19.0512 52.564 18.7813 52.375 18.4034C52.2131 18.0526 52.1051 17.5937 52.0512 17.0809C51.9972 16.5681 51.9702 15.9743 51.9972 15.3265V10.4683C51.9972 9.82048 52.0242 9.22669 52.0512 8.71387C52.1051 8.20106 52.2131 7.76921 52.375 7.39134C52.537 7.01348 52.8069 6.74357 53.1848 6.55464C53.5356 6.36571 54.0215 6.25775 54.6422 6.25775C55.263 6.25775 55.7488 6.36571 56.0997 6.55464C56.4776 6.74357 56.7205 7.01348 56.9094 7.39134C57.0714 7.74222 57.1793 8.20106 57.2333 8.71387C57.2873 9.22669 57.2873 9.82048 57.2873 10.4683V15.3265ZM63.0632 8.68688C63.0632 8.30902 63.0363 7.85018 62.9823 7.31037C62.9283 6.77056 62.8203 6.20376 62.6314 5.58299C62.4425 4.96221 62.1726 4.36842 61.8217 3.77463C61.4438 3.18084 60.958 2.64103 60.3372 2.1552C59.7164 1.66938 58.9337 1.26452 57.989 0.967626C57.0444 0.670732 55.9108 0.535779 54.5883 0.508789C53.2657 0.508789 52.1321 0.670732 51.1875 0.967626C50.2428 1.26452 49.4601 1.66938 48.8393 2.1552C48.2185 2.64103 47.7327 3.18084 47.3548 3.77463C46.977 4.36842 46.7071 4.9892 46.5451 5.58299C46.3562 6.20376 46.2482 6.77056 46.1942 7.31037C46.1403 7.85018 46.1133 8.30902 46.1133 8.68688V17.1079C46.1133 17.4858 46.1403 17.9446 46.1942 18.4844C46.2482 19.0242 46.3562 19.591 46.5451 20.2118C46.7071 20.8326 47.004 21.4264 47.3548 22.0201C47.7327 22.6139 48.2185 23.1537 48.8393 23.6666C49.4601 24.1524 50.2428 24.5572 51.1875 24.8271C52.1321 25.124 53.2657 25.286 54.5883 25.286C55.9108 25.286 57.0444 25.124 57.989 24.8271C58.9337 24.5303 59.7164 24.1524 60.3372 23.6666C60.958 23.1807 61.4438 22.6409 61.8217 22.0201C62.1996 21.4264 62.4695 20.8056 62.6314 20.2118C62.7933 19.591 62.9283 19.0242 62.9823 18.4844C63.0363 17.9446 63.0632 17.4858 63.0632 17.1079V8.68688ZM37.6653 15.3265C37.6653 15.9743 37.6383 16.5681 37.6113 17.0809C37.5573 17.5937 37.4493 18.0256 37.2874 18.4034C37.1255 18.7813 36.8556 19.0512 36.4777 19.2401C36.1268 19.4291 35.641 19.537 35.0202 19.537C34.3994 19.537 33.9136 19.4291 33.5627 19.2401C33.1849 19.0512 32.9419 18.7813 32.753 18.4034C32.5911 18.0526 32.4831 17.5937 32.4291 17.0809C32.3752 16.5681 32.3482 15.9743 32.3752 15.3265V10.4683C32.3752 9.82048 32.4021 9.22669 32.4291 8.71387C32.4831 8.20106 32.5911 7.76921 32.753 7.39134C32.915 7.01348 33.1849 6.74357 33.5627 6.55464C33.9136 6.36571 34.3994 6.25775 35.0202 6.25775C35.641 6.25775 36.1268 6.36571 36.4777 6.55464C36.8556 6.74357 37.0985 7.01348 37.2874 7.39134C37.4493 7.74222 37.5573 8.20106 37.6113 8.71387C37.6653 9.22669 37.6653 9.82048 37.6653 10.4683V15.3265ZM43.4682 8.68688C43.4682 8.30902 43.4412 7.85018 43.3872 7.31037C43.3333 6.77056 43.2253 6.20376 43.0364 5.58299C42.8474 4.96221 42.5775 4.36842 42.2267 3.77463C41.8488 3.18084 41.363 2.64103 40.7422 2.1552C40.1214 1.66938 39.3387 1.26452 38.394 0.967626C37.4494 0.670732 36.3158 0.535779 34.9932 0.508789C33.6707 0.508789 32.5371 0.670732 31.5924 0.967626C30.6478 1.26452 29.865 1.66938 29.2443 2.1552C28.6235 2.64103 28.1377 3.18084 27.7598 3.77463C27.3819 4.36842 27.112 4.9892 26.9501 5.58299C26.7611 6.20376 26.6532 6.77056 26.5992 7.31037C26.5452 7.85018 26.5182 8.30902 26.5182 8.68688V17.1079C26.5182 17.4858 26.5452 17.9446 26.5992 18.4844C26.6532 19.0242 26.7611 19.591 26.9501 20.2118C27.112 20.8326 27.4089 21.4264 27.7598 22.0201C28.1377 22.6139 28.6235 23.1537 29.2443 23.6666C29.865 24.1524 30.6478 24.5572 31.5924 24.8271C32.5371 25.124 33.6707 25.286 34.9932 25.286C36.3158 25.286 37.4494 25.124 38.394 24.8271C39.3387 24.5303 40.1214 24.1524 40.7422 23.6666C41.363 23.1807 41.8488 22.6409 42.2267 22.0201C42.6045 21.4264 42.8744 20.8056 43.0364 20.2118C43.1983 19.591 43.3333 19.0242 43.3872 18.4844C43.4412 17.9446 43.4682 17.4858 43.4682 17.1079V8.68688ZM23.5493 1.10258C24.2241 1.10258 24.5479 1.45345 24.5479 2.10122V5.87988C24.5479 6.20376 24.467 6.44668 24.305 6.63561C24.1431 6.82454 23.8732 6.90552 23.5493 6.90552H14.7504C14.4265 6.90552 14.1836 6.98649 13.9947 7.14843C13.8058 7.31037 13.7248 7.58028 13.7248 7.90416V23.6936C13.7248 24.0174 13.6438 24.2603 13.4819 24.4493C13.3199 24.6112 13.05 24.7192 12.7261 24.7192H8.75855C8.43466 24.7192 8.19175 24.6382 8.00281 24.4493C7.84087 24.2603 7.73291 24.0174 7.73291 23.6936V2.12821C7.73291 1.80433 7.81388 1.53442 8.00281 1.37248C8.19175 1.21054 8.43466 1.12957 8.75855 1.12957L23.5493 1.10258Z" fill="#CCCCCC"/>
<path id="Vector_2" d="M81.5246 29.9545C81.5246 29.9275 81.4976 29.9275 81.4976 29.9005C81.4976 29.8735 81.4976 29.8735 81.5246 29.8465L82.8741 28.0112C82.9281 27.9302 82.9281 27.8762 82.9011 27.8492C82.8741 27.8222 82.8201 27.7683 82.7391 27.7683H81.7675C81.7135 27.7683 81.6595 27.7683 81.6325 27.7952C81.6055 27.8222 81.5516 27.8492 81.5246 27.9032L80.472 29.3337C80.445 29.3607 80.445 29.3607 80.418 29.3607C80.391 29.3607 80.391 29.3337 80.391 29.3067V27.9842C80.391 27.8492 80.337 27.7952 80.2021 27.7952H79.4463C79.3923 27.7952 79.3384 27.8222 79.3114 27.8492C79.2844 27.8762 79.2574 27.9302 79.2574 28.0112V32.2756C79.2574 32.3296 79.2844 32.3836 79.3114 32.4106C79.3384 32.4376 79.3923 32.4646 79.4463 32.4646H80.2021C80.256 32.4646 80.31 32.4376 80.364 32.4106C80.418 32.3836 80.418 32.3296 80.418 32.2756V31.5469V31.4929C80.418 31.4659 80.418 31.4659 80.445 31.4389L80.7149 31.0611C80.7149 31.0341 80.7419 31.0341 80.7688 31.0341C80.7958 31.0341 80.7958 31.0341 80.8228 31.0611L81.6595 32.3296C81.6865 32.3836 81.7135 32.4106 81.7675 32.4376C81.7945 32.4646 81.8485 32.4646 81.9024 32.4646H82.9011C82.9821 32.4646 83.036 32.4376 83.063 32.3836C83.09 32.3296 83.09 32.2756 83.036 32.2217L81.5246 29.9545ZM75.4787 27.7683C75.4248 27.7683 75.3708 27.7952 75.3438 27.8222C75.3168 27.8492 75.2898 27.9032 75.2898 27.9842V30.9531C75.2898 31.0341 75.2898 31.1151 75.3168 31.223C75.3168 31.331 75.3438 31.4389 75.3978 31.5739C75.4248 31.6819 75.4787 31.8168 75.5597 31.9248C75.6407 32.0327 75.7216 32.1407 75.8566 32.2487C75.9916 32.3566 76.1265 32.4106 76.3154 32.4916C76.5044 32.5456 76.7203 32.5725 76.9902 32.5725C77.2601 32.5725 77.476 32.5456 77.665 32.4916C77.8539 32.4376 78.0158 32.3566 78.1238 32.2487C78.2587 32.1407 78.3397 32.0327 78.4207 31.9248C78.5017 31.8168 78.5556 31.6819 78.5826 31.5739C78.6096 31.4659 78.6366 31.331 78.6366 31.223C78.6366 31.1151 78.6636 31.0341 78.6636 30.9531V27.9842C78.6636 27.8492 78.6096 27.7952 78.4747 27.7952H77.7189C77.665 27.7952 77.611 27.8222 77.584 27.8492C77.557 27.8762 77.53 27.9302 77.53 28.0112V30.9801C77.53 31.0881 77.503 31.169 77.476 31.25C77.449 31.331 77.3951 31.385 77.3141 31.412C77.2331 31.4389 77.1521 31.4659 77.0172 31.4659C76.8822 31.4659 76.8013 31.4389 76.7203 31.412C76.6393 31.385 76.5853 31.331 76.5584 31.25C76.5314 31.169 76.5044 31.0881 76.5044 30.9801C76.5044 30.8721 76.4774 30.7642 76.5044 30.6292V28.0112C76.5044 27.8762 76.4504 27.8222 76.3154 27.8222L75.4787 27.7683ZM74.615 31.277C74.75 31.277 74.804 31.331 74.804 31.4659V32.2217C74.804 32.2756 74.777 32.3296 74.75 32.3566C74.723 32.3836 74.669 32.4106 74.588 32.4106H73.8323C73.7783 32.4106 73.7244 32.3836 73.6974 32.3566C73.6704 32.3296 73.6434 32.2756 73.6434 32.2217V31.4659C73.6434 31.412 73.6704 31.358 73.6974 31.304C73.7244 31.277 73.7783 31.25 73.8323 31.25L74.615 31.277ZM71.997 30.5753V30.9261C71.997 31.0341 71.97 31.1151 71.943 31.196C71.916 31.277 71.862 31.331 71.7811 31.358C71.7001 31.385 71.6191 31.412 71.4842 31.412C71.3492 31.412 71.2682 31.385 71.1873 31.358C71.1063 31.331 71.0523 31.277 71.0253 31.196C70.9983 31.1151 70.9713 31.0341 70.9713 30.9261C70.9713 30.8182 70.9444 30.7102 70.9713 30.5753V29.6306V29.2797C70.9713 29.1718 70.9983 29.0908 71.0253 29.0098C71.0523 28.9288 71.1063 28.8749 71.1873 28.8479C71.2682 28.8209 71.3492 28.7939 71.4842 28.7939C71.6191 28.7939 71.7001 28.8209 71.7811 28.8479C71.862 28.8749 71.916 28.9288 71.943 29.0098C71.97 29.0908 71.997 29.1718 71.997 29.2797V30.5753ZM73.1576 29.2527C73.1576 29.1718 73.1576 29.0908 73.1306 28.9828C73.1306 28.8749 73.1036 28.7669 73.0766 28.6319C73.0496 28.524 72.9956 28.389 72.9147 28.2811C72.8337 28.1731 72.7527 28.0651 72.6178 27.9572C72.4828 27.8492 72.3478 27.7952 72.1589 27.7143C71.97 27.6603 71.7541 27.6333 71.4842 27.6333C71.2143 27.6333 70.9983 27.6603 70.8094 27.7143C70.6205 27.7683 70.4585 27.8492 70.3506 27.9572C70.2156 28.0651 70.1346 28.1731 70.0537 28.2811C69.9727 28.389 69.9187 28.524 69.8917 28.6319C69.8647 28.7399 69.8377 28.8749 69.8108 28.9828C69.8108 29.0908 69.7838 29.1718 69.7838 29.2527V30.9261C69.7838 31.0071 69.7838 31.0881 69.8108 31.196C69.8108 31.304 69.8377 31.412 69.8917 31.5469C69.9187 31.6549 69.9727 31.7898 70.0537 31.8978C70.1346 32.0057 70.2156 32.1137 70.3506 32.2217C70.4855 32.3296 70.6205 32.3836 70.8094 32.4646C70.9983 32.5186 71.2143 32.5456 71.4842 32.5456C71.7541 32.5456 71.97 32.5186 72.1589 32.4646C72.3478 32.4106 72.5098 32.3296 72.6178 32.2217C72.7527 32.1137 72.8337 32.0057 72.9147 31.8978C72.9956 31.7898 73.0496 31.6549 73.0766 31.5469C73.1036 31.4389 73.1306 31.304 73.1306 31.196C73.1306 31.0881 73.1576 31.0071 73.1576 30.9261V29.2527ZM66.0861 30.9261C66.0861 31.0071 66.0861 31.0881 66.1131 31.196C66.1131 31.304 66.1401 31.412 66.194 31.5469C66.221 31.6549 66.275 31.7898 66.356 31.8978C66.437 32.0057 66.5179 32.1137 66.6529 32.2217C66.7878 32.3296 66.9228 32.3836 67.1117 32.4646C67.3007 32.5186 67.5166 32.5456 67.7865 32.5456C68.0294 32.5456 68.2183 32.5186 68.4073 32.4646C68.5692 32.4106 68.7311 32.3566 68.8391 32.2756C68.9471 32.1947 69.055 32.1137 69.136 32.0057C69.217 31.8978 69.2709 31.7898 69.3249 31.6819C69.3789 31.5739 69.4059 31.4659 69.4059 31.358C69.4329 31.25 69.4329 31.169 69.4329 31.0611C69.4329 31.0071 69.4329 30.9801 69.4059 30.9261C69.3789 30.8991 69.3519 30.8721 69.2979 30.8721L68.5422 30.7102C68.4882 30.6832 68.4073 30.7102 68.3803 30.7372C68.3263 30.7642 68.2993 30.8182 68.2993 30.8991C68.2993 31.0071 68.2723 31.0881 68.2183 31.169C68.1913 31.25 68.1374 31.304 68.0564 31.331C67.9754 31.358 67.8944 31.385 67.7595 31.385C67.6245 31.385 67.5436 31.358 67.4626 31.331C67.3816 31.304 67.3276 31.25 67.3006 31.169C67.2737 31.0881 67.2467 31.0071 67.2467 30.8991C67.2467 30.7912 67.2197 30.6832 67.2467 30.5483V29.6036V29.2527C67.2467 29.1448 67.2737 29.0638 67.3006 28.9828C67.3276 28.9018 67.3816 28.8479 67.4626 28.8209C67.5436 28.7939 67.6245 28.7669 67.7595 28.7669C67.8675 28.7669 67.9754 28.7939 68.0564 28.8209C68.1374 28.8479 68.1913 28.9018 68.2183 28.9828C68.2453 29.0638 68.2723 29.1448 68.2723 29.2257C68.2723 29.3067 68.2993 29.3607 68.3533 29.3877C68.4073 29.4147 68.4612 29.4417 68.5422 29.4417L69.2709 29.2797C69.3249 29.2797 69.3519 29.2527 69.3789 29.2257C69.4059 29.1987 69.4059 29.1448 69.4059 29.1178C69.4059 29.0368 69.3789 28.9288 69.3789 28.8209L69.2979 28.497C69.244 28.389 69.19 28.2811 69.109 28.1731C69.028 28.0651 68.9201 27.9842 68.8121 27.9032C68.6772 27.8222 68.5422 27.7683 68.3803 27.7143C68.2183 27.6603 68.0024 27.6333 67.7595 27.6333C67.4896 27.6333 67.2737 27.6603 67.0847 27.7143C66.8958 27.7683 66.7339 27.8492 66.6259 27.9572C66.4909 28.0651 66.41 28.1731 66.329 28.2811C66.248 28.389 66.194 28.524 66.1671 28.6319C66.1401 28.7399 66.1131 28.8749 66.0861 28.9828C66.0861 29.0908 66.0591 29.1718 66.0591 29.2527V30.9261H66.0861ZM65.4653 31.277C65.6003 31.277 65.6542 31.331 65.6542 31.4659V32.2217C65.6542 32.2756 65.6272 32.3296 65.6003 32.3566C65.5733 32.3836 65.5193 32.4106 65.4383 32.4106H64.6826C64.6286 32.4106 64.5746 32.3836 64.5476 32.3566C64.5206 32.3296 64.4937 32.2756 64.4937 32.2217V31.4659C64.4937 31.412 64.5206 31.358 64.5476 31.304C64.5746 31.277 64.6286 31.25 64.6826 31.25L65.4653 31.277Z" fill="#CCCCCC"/>
<g id="Group">
<path id="Vector_3" d="M16.0461 13.9227C13.536 13.7068 1.28233 15.704 0.364658 13.5448C-1.17379 9.95508 11.7006 11.9794 13.428 12.0333C14.2917 12.0603 15.3713 12.2223 15.9921 12.0603C16.424 11.9254 16.7208 11.2236 17.2067 10.9537C18.2863 10.306 20.0407 10.6568 21.5521 10.7918C22.5778 10.8728 23.5764 10.9807 24.656 11.0617C23.1176 11.2776 21.4712 11.4935 19.8517 11.7095C19.6628 11.7365 19.3659 11.6555 19.231 11.8714C20.8774 12.1413 22.7397 12.1953 24.5211 12.3302C22.7667 12.6001 20.7964 12.6541 19.069 12.978C19.177 13.1669 19.5009 13.113 19.6898 13.14C21.2282 13.2479 22.9286 13.3829 24.5481 13.4638C22.8747 13.7337 20.9314 13.7877 19.2579 14.1116C19.3119 14.3815 19.6628 14.3005 19.8247 14.3005C21.3632 14.4895 23.0906 14.7054 24.683 14.8404C22.9286 14.9753 20.7694 15.3802 18.9611 15.4881C17.5576 15.5691 16.7208 14.7594 16.0461 13.9227Z" fill="#CCCCCC"/>
</g>
<g id="Group_2">
<path id="Vector_4" d="M11.7005 14.1387C13.6438 13.9767 15.2902 13.8418 16.046 13.8958C16.3968 14.3276 16.7477 14.7325 17.2335 15.0294C17.6924 15.3263 18.2322 15.5152 18.9339 15.4612C19.9326 15.4072 21.0392 15.2453 22.1188 15.1103C22.9015 15.0024 23.6573 14.8944 24.359 14.8404C23.6573 14.7865 22.9555 14.7055 22.2268 14.6245C21.3901 14.5435 20.5804 14.4356 19.8246 14.3276H19.6897C19.5007 14.3276 19.2578 14.3276 19.2308 14.1117V14.0847H19.2578C20.1755 13.8958 21.2011 13.7878 22.2268 13.7068C22.9285 13.6529 23.6303 13.5719 24.278 13.4909C23.0635 13.4099 21.7949 13.329 20.6073 13.248C20.3105 13.221 20.0136 13.194 19.7167 13.194H19.5817C19.3928 13.194 19.1769 13.194 19.0689 13.0321L19.0419 13.0051H19.0689C20.0405 12.8162 21.0932 12.7082 22.1458 12.6272C22.8475 12.5732 23.5763 12.4923 24.2511 12.4113C23.9002 12.3843 23.5223 12.3573 23.1714 12.3303C21.8219 12.2494 20.4454 12.1684 19.2308 11.9795H19.1769L19.2038 11.9525C19.3118 11.7905 19.5007 11.7905 19.6627 11.7905H19.8246L21.1202 11.6286C22.1998 11.4936 23.3064 11.3317 24.332 11.1967C23.7112 11.1428 23.0905 11.0888 22.4967 11.0348C22.1728 11.0078 21.8759 10.9808 21.525 10.9538L20.7153 10.8728C19.4198 10.7379 18.0702 10.576 17.2066 11.1158C16.9906 11.2507 16.8017 11.4666 16.6398 11.6826C16.4238 11.9255 16.2349 12.1684 15.992 12.2494C15.5601 12.3573 14.9124 12.3303 14.2646 12.2763C13.9677 12.2494 13.6708 12.2224 13.4009 12.2224C13.104 12.2224 12.4832 12.1414 11.6735 12.0604C8.75856 11.6016 3.2795 11.0348 1.14726 11.9525C0.391529 12.2763 0.0676445 12.7622 0.391529 13.5449C1.01231 15.0294 7.16612 14.5166 11.7005 14.1387ZM16.046 13.9498C15.2902 13.8958 13.6438 14.0307 11.7005 14.1927C7.16612 14.5705 0.985318 15.0834 0.337549 13.5449C-0.0133267 12.7352 0.337549 12.2224 1.12027 11.8715C3.2795 10.9538 8.75856 11.5206 11.7005 11.8175C12.5102 11.8985 13.131 11.9795 13.4279 11.9795C13.6978 11.9795 13.9947 12.0064 14.2916 12.0334C14.9394 12.0874 15.5601 12.1144 15.992 12.0064C16.2079 11.9525 16.3968 11.7095 16.6128 11.4666C16.8017 11.2507 16.9636 11.0348 17.2066 10.8998C18.0972 10.36 19.4468 10.522 20.7693 10.6569L21.579 10.7379C21.8759 10.7649 22.2268 10.7919 22.5507 10.8189C23.2524 10.8728 23.9542 10.9538 24.6829 10.9808L24.9798 11.0078L24.7099 11.0618C23.6033 11.2237 22.4157 11.3857 21.2281 11.5476L19.9326 11.7096H19.7706C19.6357 11.7096 19.4737 11.7096 19.3658 11.8175C20.5804 12.0064 21.9299 12.0874 23.2794 12.1684C23.7382 12.1954 24.1701 12.2224 24.6289 12.2494L24.8988 12.2763L24.6289 12.3033C23.8732 12.4113 23.0635 12.4923 22.2538 12.5732C21.2281 12.6812 20.1755 12.7622 19.2308 12.9511C19.3118 13.0591 19.5007 13.0591 19.6627 13.0591H19.7976C20.0945 13.0861 20.3914 13.1131 20.6883 13.1131C21.9839 13.221 23.3334 13.302 24.6289 13.383L24.8988 13.4099L24.6289 13.4639C23.8732 13.5719 23.0905 13.6529 22.3077 13.7338C21.3091 13.8418 20.3105 13.9228 19.3928 14.1117C19.4468 14.2736 19.6357 14.2466 19.7976 14.2466H19.9326C20.7153 14.3276 21.525 14.4356 22.3347 14.5435C23.1444 14.6245 23.9811 14.7325 24.7639 14.7865V14.8404C23.9811 14.8944 23.0905 15.0294 22.1998 15.1373C21.1202 15.2723 20.0136 15.4342 19.0149 15.4882C18.3132 15.5422 17.7464 15.3533 17.2875 15.0564C16.7477 14.7865 16.3699 14.3816 16.046 13.9498Z" fill="#CCCCCC"/>
</g>
</g>
<defs>
<clipPath id="clip0_2336_5410">
<rect width="82.6446" height="32" fill="white" transform="translate(0.256592 0.5)"/>
</clipPath>
</defs>
</svg>
