<svg width="381" height="438" viewBox="0 0 381 438" fill="none" xmlns="http://www.w3.org/2000/svg">
<path d="M445.84 360.403C445.87 360.173 445.89 359.953 445.92 359.723C445.98 359.163 445.57 358.663 445.15 358.373C442.43 356.463 440.02 356.933 436.73 357.083C431.32 357.333 425.9 357.543 420.49 357.713C410.15 358.043 399.81 358.233 389.46 358.293C368.28 358.403 347.11 357.443 325.94 357.463C324.9 357.463 324.7 358.603 325.25 359.193C324.97 359.253 324.72 359.433 324.65 359.783C321.56 375.203 328.63 390.723 339.75 401.303C352.35 413.303 369.93 418.203 387 418.503C403.14 418.793 421.77 416.393 433.14 403.763C443.34 392.433 446.69 376.523 447.07 361.703C447.09 360.873 446.49 360.453 445.84 360.403ZM437.32 360.533C437.27 360.703 437.25 360.883 437.28 361.083C439.21 374.283 434.77 387.673 425.61 397.363C415.82 407.723 402.34 411.183 388.38 410.363C374.26 409.543 358.92 406.243 348.38 396.213C338.37 386.683 333.89 373.793 334.01 360.203C350.47 361.393 367.05 361.493 383.53 361.483C387.64 361.493 423.38 360.303 437.32 360.533ZM431.64 400.843C421.1 413.193 403.6 415.523 388.22 415.523C356.11 415.503 324.13 395.323 326.32 360.013C326.33 359.833 326.27 359.683 326.19 359.553C328.24 359.753 330.28 359.913 332.33 360.073C330.8 374.013 336.71 388.213 346.76 397.833C358.33 408.913 375.53 412.433 391.08 412.833C419.96 413.583 443.83 390.083 439.61 360.593C441.64 360.673 442.85 360.803 442.87 361.003C442.93 361.953 443.61 362.413 444.3 362.403C443.81 375.963 440.65 390.283 431.64 400.843Z" fill="#B4CCB4"/>
<path d="M360.05 371.153C359.19 369.783 357.17 370.983 357.89 372.413C358.33 373.283 358.57 374.203 358.51 375.183C358.44 376.213 358.09 377.003 358.61 377.983C358.92 378.573 359.85 378.863 360.42 378.453C362.59 376.903 361.21 373.013 360.05 371.153Z" fill="#B4CCB4"/>
<path d="M379.94 387.843C379.18 386.713 377.54 387.683 378.12 388.903C378.84 390.403 379.3 392.013 379.45 393.673C379.58 395.093 379.23 396.503 379.56 397.883C379.83 398.993 381.51 399.253 382.05 398.213C383.65 395.103 381.72 390.493 379.94 387.843Z" fill="#B4CCB4"/>
<path d="M155.951 425.043C147.681 415.333 132.23 424.843 124.491 430.663C114.861 437.903 107.371 447.753 103.471 459.133C102.751 453.853 100.831 444.783 95.3905 449.633C89.4305 454.943 91.2605 467.363 94.2405 473.583C94.1905 473.583 94.1405 473.583 94.0905 473.583C93.7805 473.303 93.3105 473.223 92.9205 473.613C92.9105 473.623 92.9105 473.633 92.9005 473.633C92.1505 473.743 91.7405 474.313 91.6805 474.943C86.5705 480.513 83.3305 487.353 79.8905 494.073C75.8705 501.923 72.1005 509.903 68.5605 517.983C61.6005 533.833 55.5805 550.073 50.3805 566.583C50.0805 567.533 50.8805 568.413 51.8005 568.453C56.7605 568.633 58.9305 564.663 61.7805 561.013C65.2005 556.633 68.5305 552.193 71.7605 547.673C79.6505 536.633 86.9405 525.163 93.6105 513.343C96.7205 507.823 99.6905 502.233 102.521 496.563C104.571 492.463 107.771 487.413 107.501 482.603C107.471 482.123 107.411 481.673 107.331 481.243C113.411 484.303 122.531 484.533 127.141 479.743C128.871 477.943 129.671 475.363 128.121 473.183C127.111 471.763 125.511 471.183 123.811 471.003C134.261 468.193 143.73 462.253 150.73 453.853C157 446.313 163.531 433.933 155.951 425.043ZM103.101 488.313C102.281 492.153 99.3005 496.393 97.4905 499.903C93.5405 507.533 89.3305 515.033 84.8805 522.383C80.6605 529.343 76.2105 536.173 71.5505 542.843C69.2205 546.183 66.8405 549.483 64.4005 552.743C62.3005 555.553 58.2405 562.933 54.0105 564.953C56.7505 556.383 59.7305 547.903 62.9305 539.493C63.1305 540.363 63.4105 541.203 63.8205 541.973C64.2205 542.723 65.3805 542.203 65.1705 541.403C64.7705 539.903 64.1805 538.513 63.9105 536.983C66.1905 531.093 68.5505 525.233 71.0705 519.433C71.3405 518.813 71.6305 518.203 71.9005 517.583C72.0705 518.643 72.3905 519.713 73.2705 520.303C73.7105 520.603 74.4705 520.323 74.5705 519.773C74.7805 518.593 74.0905 517.493 73.8705 516.333C73.7105 515.503 73.7905 514.593 73.6205 513.763C76.0205 508.463 78.4805 503.183 81.0505 497.963C81.2505 497.563 81.4505 497.143 81.6505 496.733C82.0105 498.723 82.6705 500.693 83.9305 501.923C84.6205 502.603 85.6505 501.903 85.4805 501.023C85.2205 499.713 84.3805 498.523 83.9505 497.253C83.5605 496.113 83.2905 494.933 83.1005 493.743C85.9605 487.793 88.9205 481.653 92.9105 476.473C92.9705 476.483 93.0105 476.503 93.0705 476.503C94.8305 476.483 96.8405 476.233 98.5205 476.833C102.101 478.123 103.851 484.803 103.101 488.313ZM143.941 456.663C136.121 463.783 126.721 467.803 116.371 469.513C114.761 469.783 115.121 472.603 116.761 472.393C117.451 472.303 118.141 472.193 118.821 472.083C118.871 472.463 119.151 472.813 119.591 472.793C121.741 472.713 129.181 472.453 124.591 478.383C123.441 479.863 119.531 480.283 117.851 480.413C113.211 480.763 109.59 479.083 105.55 477.093C105.44 477.043 105.331 477.023 105.221 477.003C103.011 474.693 99.4605 473.833 95.8805 473.643C96.0405 473.433 96.1205 473.163 96.0105 472.863C94.1505 467.443 93.4305 461.903 94.9705 456.303C95.2105 455.413 95.6505 453.073 96.3705 452.563L99.5105 452.693C99.6105 453.083 99.7005 453.483 99.8005 453.873C101.021 455.713 100.951 459.963 101.561 462.193C101.851 463.233 103.451 463.233 103.761 462.343C103.961 462.263 104.141 462.123 104.241 461.883C108.031 452.853 113.141 444.593 120.271 437.813C126.871 431.543 144.371 417.953 153.281 426.353C162.611 435.133 150.711 450.503 143.941 456.663Z" fill="#B4CCB4"/>
<path d="M289.66 383.433C289.74 382.783 289.84 382.133 289.98 381.493C290.77 377.663 292.69 374.453 294.2 370.913C294.65 369.853 293.39 368.563 292.46 369.573C290.65 371.523 289.33 373.933 288.44 376.553C284.69 369.233 276.24 363.393 268.2 366.763C267.42 367.093 266.93 367.893 267.41 368.713C271.54 375.903 278.58 380.993 286.92 381.823C287.05 381.833 287.15 381.803 287.24 381.763C287.13 382.593 287.07 383.433 287.02 384.263C272.82 379.423 257.94 388.113 255.66 403.143C253.52 417.223 264.71 429.823 278.51 431.313C292.14 432.783 305.38 422.653 308.68 409.563C311.85 396.883 303.96 382.053 289.66 383.433ZM287.08 380.433C286.59 380.303 286.13 380.153 285.65 380.003C284.51 378.483 282.811 377.293 281.381 376.063C279.641 374.563 277.91 373.073 276.15 371.603C275.63 371.173 274.89 371.873 275.4 372.353C277.04 373.943 278.7 375.503 280.37 377.073C280.89 377.563 281.41 378.093 281.94 378.623C277.27 376.513 273.36 373.273 270.56 368.793C274.4 367.923 278.2 369.123 281.26 371.803C284.05 374.233 285.44 377.453 287.41 380.403C287.4 380.473 287.38 380.543 287.37 380.613C287.31 380.543 287.21 380.473 287.08 380.433ZM304.31 412.733C299.83 422.933 288.49 430.113 277.21 428.113C266.58 426.223 257.87 416.783 258.37 405.743C259.04 391.083 273.19 382.803 286.68 385.853C286.79 385.873 286.88 385.873 286.97 385.863C286.96 388.383 287.21 390.873 287.75 393.113C288.021 394.243 289.99 394.033 289.83 392.833C289.54 390.693 289.39 388.553 289.44 386.413C304.06 385.253 309.42 401.083 304.31 412.733Z" fill="#B4CCB4"/>
<path d="M405.09 444.653C404.83 443.503 404.57 442.363 404.29 441.223C404.01 440.053 403.93 439.053 402.89 438.323C402.26 437.873 401.51 438.253 401.15 438.813C385.72 440.413 371.07 436.953 357.82 428.903C350.7 424.583 341.67 413.713 332.63 418.243C330.85 417.003 329.61 415.323 329.06 413.203C328.67 411.723 328.69 410.163 327.7 408.903C326.24 407.043 323.46 406.823 321.45 407.873C315.76 410.853 319 418.243 322.73 421.713C322.67 421.823 322.63 421.953 322.65 422.113C324.05 438.393 342.64 447.893 356.55 452.003C370.56 456.143 394.1 458.893 404.51 445.913C404.93 445.723 405.23 445.293 405.09 444.653ZM358.46 449.793C344.52 445.903 328.92 437.603 324.63 422.823C325.44 422.703 326.11 421.703 325.59 420.913C324.33 418.983 322.36 417.503 321.63 415.243C320.98 413.243 322.18 408.373 325.13 410.363C326.2 411.083 326.17 412.733 326.54 413.883C326.82 414.733 327.24 415.553 327.73 416.303C328.6 417.603 329.7 418.653 330.98 419.483C330.7 420.303 331.55 421.263 332.57 420.803C340.88 417.083 348.03 426.013 354.27 430.063C358.84 433.033 363.69 435.533 368.77 437.503C379.13 441.523 390.14 443.083 401.04 440.683C401.2 441.173 401.44 441.653 401.63 442.143C401.91 442.853 402.19 443.563 402.48 444.273C392.57 455.693 371.47 453.423 358.46 449.793Z" fill="#B4CCB4"/>
<path d="M382.741 445.423C363.201 446.013 345.641 439.263 332.331 424.733C331.981 424.353 331.461 424.903 331.771 425.293C344.001 440.033 363.541 448.563 382.741 446.383C383.341 446.313 383.371 445.403 382.741 445.423Z" fill="#B4CCB4"/>
<path d="M163.84 416.743C166.5 425.163 168.88 433.223 174.95 439.863C175.87 440.873 177.08 440.153 177.39 439.123C177.73 439.723 178.15 440.303 178.7 440.843C173.58 439.343 169.26 444.893 172 449.623C174.82 454.493 180.33 453.733 183.8 450.573C184.79 456.063 187.93 462.093 194.44 460.683C197.65 459.993 199.69 456.563 199.18 453.653C201.51 454.613 204.03 455.943 206.02 454.503C208.92 452.413 207.57 446.963 206.4 443.503C210.4 443.743 214.9 443.203 216.87 439.303C218.26 436.553 217.73 433.293 215.36 431.563C216.24 430.543 216.97 429.393 217.5 428.133C222.22 431.963 228.99 429.313 229.56 423.073C232.46 425.833 237.26 425.993 240.49 423.033C245.77 418.213 244.01 411.203 240.27 406.163C246.07 405.323 250.61 399.903 247.96 393.723C247.52 392.693 245.88 391.063 244.1 389.873C247.84 388.493 251.18 385.653 251.48 381.453C251.7 378.293 250.12 375.293 247.48 373.853C249.59 371.793 251.14 369.043 249.9 366.083C249.09 364.143 247.19 362.723 245.23 362.813C246.18 359.153 244.84 354.503 240.56 354.033C237.53 353.703 235.05 355.893 234.54 358.543C228.24 355.463 220.98 361.913 224.34 368.963C223.96 368.883 223.57 368.863 223.19 368.833C223.96 368.593 224.12 367.353 223.15 367.103C204.75 362.303 187.5 363.683 168.87 365.963C163.88 366.573 158.86 366.883 153.93 365.633C149.73 364.573 146.08 362.223 141.98 360.913C136.77 359.243 130.01 359.033 126.35 363.873C116.61 376.753 140.18 384.873 146.88 390.093C155.7 396.973 160.52 406.263 163.84 416.743ZM214.75 437.283C213.51 439.653 211.74 440.833 209.44 440.803C207.77 441.083 206.16 440.913 204.49 440.773C203.71 440.703 203.01 441.703 203.3 442.423C204.57 445.573 207.17 452.753 201.79 452.383C200.49 452.293 199.32 451.713 198.07 451.363C197.71 450.953 197.26 450.593 196.71 450.293C195.64 449.703 194.88 451.013 195.45 451.873C195.43 452.043 195.46 452.203 195.53 452.363C195.75 457.703 194.05 459.453 190.43 457.613C189.17 457.033 188.3 456.093 187.8 454.813C186.29 452.453 186.08 450.033 186.04 447.253C186.02 445.933 184.21 445.563 183.59 446.683C182.2 449.213 179.27 451.533 176.13 450.043C172.33 448.253 173.73 441.403 178.69 442.873C179.49 443.113 179.91 442.413 179.8 441.773C180.1 441.993 180.41 442.203 180.76 442.403C182.12 443.183 183.19 441.083 181.88 440.263C175.07 436.033 181.07 426.443 187.91 430.723C188.9 431.343 190.16 429.983 189.47 429.043C186.8 425.393 189.34 421.473 192.94 421.163C192.82 423.773 194.64 426.383 198.1 426.833C197.76 430.133 199.91 433.743 203.61 435.033C207.14 436.273 210.59 435.453 213.28 433.473L214.75 437.283ZM173.45 409.373C174.59 400.323 185.91 407.533 191.9 409.853C191.47 410.733 191.26 411.753 191.37 412.943C191.57 415.133 192.8 416.803 194.5 417.603C194.05 418.063 193.71 418.583 193.45 419.123C188.76 418.673 185.12 422.903 186.12 427.403C184.57 427.033 183.11 427.193 181.8 427.673C181.8 427.563 181.82 427.473 181.79 427.363C180.4 421.133 172.62 415.933 173.45 409.373ZM226.21 369.833C226.6 369.513 226.83 368.963 226.53 368.383C223.44 362.513 230.42 357.463 235.1 361.953C236.2 363.003 237.56 361.563 237.01 360.373C235.57 357.243 240.48 355.233 242.6 358.033C243.95 359.803 243.54 362.203 242.84 364.103C242.72 364.433 242.82 364.693 243.02 364.873C243.19 365.143 243.47 365.323 243.86 365.273C245.99 364.993 247.94 366.343 247.62 368.913C247.4 370.663 245.41 372.283 244.12 373.193C243.25 373.813 243.31 375.423 244.52 375.623C248.16 376.223 249.79 380.283 248.35 383.563C247.18 386.233 244.51 387.743 241.86 388.693C239.97 387.983 238.41 388.303 238.52 391.003C238.57 392.243 240.38 392.163 240.43 390.953C242.02 390.483 243.22 390.923 244.02 392.253C245.17 393.093 245.88 394.223 246.16 395.653C246.87 400.553 243.31 404.473 238.11 403.943C236.97 403.823 236.2 405.043 237.05 405.943C239.94 408.993 242.41 412.983 241.23 417.403C239.68 423.243 232.75 424.883 229.53 419.563C228.96 418.613 227.27 419.303 227.7 420.383C227.87 420.803 228.08 421.193 228.31 421.563C228.22 421.673 228.15 421.813 228.14 421.993C227.14 428.343 223.74 429.553 217.93 425.643C217.35 424.913 216.25 425.013 215.97 425.973C215.05 429.113 213.1 431.743 209.86 432.893C208.95 433.063 208.04 433.233 207.13 433.403C201.62 433.413 200.27 430.103 203.06 423.473C204.29 422.763 203.14 421.043 201.92 421.643C200.34 422.403 199.28 423.493 198.67 424.733C198.38 422.503 198.09 420.273 197.81 418.043C199.2 417.563 198.55 415.693 197.18 415.913C193.45 415.313 193.05 413.713 196 411.123C196.52 408.243 198.16 407.033 200.9 407.483C201.69 407.433 202.23 406.543 201.78 405.853C199.56 402.463 200.67 399.143 203.09 397.543C204.07 398.413 205.31 397.633 205.5 396.643C206.97 396.423 208.61 396.713 210.18 397.743C210.74 398.113 211.39 397.373 211.18 396.853C211.93 396.983 212.49 395.943 211.69 395.583C205.91 392.963 210.72 387.163 214.56 386.993C217.52 386.863 219.77 388.553 221.76 390.583C222.28 391.113 223.41 390.663 223.29 389.883C222.73 385.903 225.5 381.283 229.99 381.283C234.58 381.293 236.87 385.913 236.88 389.843C236.88 390.723 238.18 390.833 238.39 389.993C239.61 385.043 235.65 379.823 230.56 379.463C227.03 379.213 224.18 381.223 222.64 384.043C222.5 383.943 222.33 383.873 222.12 383.833C218.47 383.183 215.39 379.753 216.26 375.863C217.15 371.933 221.52 370.053 225.17 370.973C225.89 371.173 226.4 370.393 226.21 369.833ZM221.56 386.343C221.63 386.353 221.69 386.333 221.76 386.323C221.64 386.793 221.54 387.263 221.49 387.753C218.02 384.823 212.65 383.013 209.2 386.833C206.98 389.293 206.9 393.223 209.02 395.483C207.52 394.843 206.02 394.723 204.64 394.973C202.43 392.933 200.34 390.783 198.51 388.393C197.5 387.073 196.54 385.693 195.68 384.273C194.15 381.733 193.7 381.473 195.4 378.553C197.15 375.563 197.85 375.813 201.07 375.653C202.34 375.593 203.61 375.603 204.88 375.663C207.88 375.803 210.75 376.303 213.66 376.953C213.54 381.403 217.04 385.843 221.56 386.343ZM129.05 373.933C129.53 370.753 130 367.583 130.48 364.403C132.64 363.173 134.87 362.783 137.17 363.233C143.98 363.833 149.79 368.513 156.65 369.393C163.16 370.233 169.67 368.943 176.09 367.993C191.55 365.693 206.97 366.183 222.37 368.803C218.79 368.903 215.28 371.153 214.1 374.673C208.13 372.873 194.15 369.953 191.14 376.843C189.9 379.683 191.35 382.633 192.78 385.103C195.18 389.243 198.22 392.943 201.68 396.243C199.01 398.153 197.61 401.773 199.21 405.533C197.1 405.863 194.89 406.653 193.35 408.013C187.02 405.383 177.03 396.853 171.56 405.243C166.26 413.353 177.12 421.133 178.83 428.253C178.93 428.673 179.16 428.933 179.43 429.113C177.24 431.013 176.03 434.063 176.59 436.953C166.82 425.113 167 408.303 157.47 396.083C153.62 391.153 148.89 387.013 143.5 383.863C140.55 382.143 137.32 380.893 134.44 379.043C132.72 377.943 129.73 375.983 129.05 373.933Z" fill="#B4CCB4"/>
<path d="M401.725 165.586C401.495 158.886 396.275 153.356 389.785 153.156C391.155 147.556 387.935 142.146 382.265 140.676C384.025 130.356 371.605 127.776 364.275 132.856C362.425 131.486 360.245 130.596 357.895 130.316C353.765 129.826 350.045 133.166 346.375 132.476C343.535 131.946 341.415 129.016 337.905 128.686C329.975 127.946 324.255 133.516 322.745 140.726C319.095 140.266 316.165 141.516 314.195 143.586C314.105 143.576 314.035 143.546 313.945 143.546C309.505 143.776 305.555 146.026 303.955 150.416C303.445 151.816 303.785 153.056 303.415 154.426C302.605 157.426 301.475 157.356 299.495 158.966C297.515 160.576 295.645 161.386 294.345 163.776C293.225 165.816 292.755 168.226 293.015 170.536C293.205 172.276 294.815 174.576 294.555 176.106C294.365 177.266 291.535 179.756 290.985 181.196C289.895 184.036 289.805 187.236 290.125 190.216C290.595 194.596 292.335 199.826 296.135 202.456C297.955 203.716 299.735 204.196 301.955 203.956C303.195 203.816 304.475 202.776 305.665 202.706C311.885 202.316 309.385 203.736 311.665 205.926C319.645 213.566 329.535 217.926 339.725 212.336C343.435 213.376 344.295 216.006 346.055 220.036C345.985 220.486 346.165 220.936 346.565 221.166C346.575 221.196 346.585 221.216 346.605 221.246C346.885 221.846 347.685 221.716 348.015 221.266C350.705 221.026 353.355 219.846 355.905 219.046C359.125 218.036 362.345 217.036 365.555 215.976C366.455 215.686 366.975 214.406 366.155 213.706C364.305 212.136 362.935 210.216 361.735 208.156C372.225 205.836 381.645 199.226 386.865 189.706C388.085 187.476 388.975 184.986 389.425 182.486C396.015 179.596 401.975 173.176 401.725 165.586ZM323.495 143.696C324.455 143.936 325.155 143.256 325.265 142.356C326.335 133.526 334.445 129.446 342.005 133.136C343.275 133.756 345.395 135.836 347.095 136.006C348.315 136.126 349.075 135.326 350.105 134.906C354.545 133.066 359.045 133.106 362.315 135.236C362.405 135.386 362.555 135.486 362.725 135.526C364.915 137.126 366.505 139.726 367.005 143.416C367.105 144.136 368.045 144.556 368.675 144.366C372.745 142.666 374.985 144.106 375.405 148.686C377.205 150.256 377.925 151.866 377.585 153.506C373.755 151.036 368.515 150.846 364.215 154.566C362.945 150.696 360.095 147.786 355.925 146.366C353.285 145.466 350.495 145.476 347.785 146.006C343.745 146.796 340.165 150.466 336.415 150.966C331.265 151.646 327.595 148.226 322.765 152.756C321.135 154.276 320.195 156.146 319.805 158.116C309.775 154.876 313.625 141.256 323.495 143.696ZM320.295 209.996C316.935 208.186 314.975 205.666 312.755 202.696C312.085 201.796 311.925 200.936 310.955 200.246C308.045 198.156 306.075 200.486 303.175 200.826C290.785 202.276 289.695 182.296 297.615 177.346C298.175 176.996 298.535 176.106 298.095 175.516C295.555 172.766 295.075 169.306 296.655 165.146C298.475 162.546 300.795 160.996 303.605 160.466C304.005 160.036 304.855 159.976 305.295 159.496C305.825 158.916 306.135 157.416 306.275 157.006C306.415 156.156 306.355 155.306 306.085 154.446C306.255 149.976 308.325 147.326 312.275 146.476C310.085 151.436 311.865 158.016 319.415 159.686C319.495 159.706 319.555 159.696 319.625 159.696C319.545 161.356 319.805 163.056 320.395 164.666C314.775 165.126 310.405 169.916 309.775 175.746C308.975 183.096 314.305 189.036 319.695 193.326C316.515 197.716 318.995 202.846 323.345 206.026C326.775 208.546 331.885 210.946 336.295 211.756C330.995 213.236 325.325 212.706 320.295 209.996ZM377.965 196.496C372.835 201.296 366.655 204.096 359.865 205.556C359.725 205.556 359.585 205.586 359.465 205.656C357.795 206.036 358.335 208.356 359.855 208.476C360.705 210.406 361.785 212.166 362.985 213.916C360.355 214.676 357.725 215.446 355.105 216.236C352.595 216.986 349.765 217.476 347.435 218.726C346.385 215.756 345.335 212.776 344.295 209.806C344.035 209.056 343.375 208.686 342.595 208.836C337.535 209.816 333.255 208.066 328.935 205.856C325.665 204.186 316.915 199.866 322.765 194.116C323.485 193.406 323.195 192.396 322.475 191.856C318.815 189.126 315.005 185.786 313.555 181.316C311.515 175.066 314.885 166.626 322.655 167.596C323.785 167.736 324.395 166.276 323.905 165.426C319.205 157.206 327.905 149.616 335.535 154.696C335.915 154.946 336.595 154.986 336.965 154.696C343.875 149.406 360.315 143.106 362.115 157.266C362.245 158.296 363.605 159.256 364.455 158.236C371.235 150.086 383.995 157.166 379.225 167.316C378.855 168.106 379.135 169.076 380.045 169.326C394.395 173.256 384.415 190.456 377.965 196.496ZM389.735 179.296C389.825 174.086 387.705 169.276 382.175 167.166C383.815 162.326 382.375 157.916 379.515 155.046C383.375 148.806 378.755 142.686 372.145 141.126C370.425 140.726 370.375 141.356 369.325 140.566C369.025 140.336 367.675 136.586 367.505 136.326C367.015 135.556 366.455 134.866 365.835 134.226C371.955 131.936 382.405 130.586 379.415 141.336C379.165 142.246 379.855 142.906 380.685 143.006C386.525 144.526 388.535 148.156 386.725 153.896C386.355 154.706 386.765 156.066 387.885 155.926C396.585 154.836 401.125 164.616 397.525 171.556C395.775 174.966 392.845 177.256 389.735 179.296Z" fill="#B4CCB4"/>
<path d="M297.245 209.506C290.325 208.606 287.275 215.546 283.715 220.166C278.735 226.636 272.915 228.056 264.925 226.466C261.165 225.716 257.895 225.096 254.115 226.226C253.935 226.276 253.775 226.366 253.655 226.466C249.965 223.496 244.045 223.196 240.635 226.786C240.615 226.776 240.605 226.756 240.585 226.736C238.995 225.626 237.895 224.176 237.715 222.196C237.645 221.386 236.955 220.866 236.165 221.216C233.775 222.266 230.465 223.956 231.905 226.986C233.135 229.566 235.365 231.956 237.965 233.236C237.315 236.386 238.205 239.546 240.385 241.866C239.515 256.336 259.505 266.266 271.575 267.266C287.055 268.546 302.365 259.336 308.905 245.316C314.065 234.266 313.325 211.606 297.245 209.506ZM239.565 233.106C239.565 233.056 239.555 233.026 239.545 232.986C239.655 232.706 239.635 232.396 239.385 232.186C237.735 230.746 236.115 229.406 234.915 227.536C234.335 226.636 233.715 225.896 234.495 224.986C234.815 224.616 235.345 224.246 235.895 223.906C236.415 225.846 237.575 227.576 239.395 228.596C239.725 228.776 240.035 228.786 240.305 228.686C240.675 229.206 241.395 229.436 242.065 228.876C244.725 226.656 248.215 226.056 251.045 227.706C249.295 228.286 247.705 229.296 246.915 231.066C246.485 232.026 246.385 233.016 246.555 233.936C245.485 233.516 244.465 232.996 243.435 232.306C242.615 231.756 241.595 232.386 241.515 233.306C241.355 235.206 241.195 237.106 241.035 239.006C239.825 237.346 239.385 235.376 239.565 233.106ZM299.945 213.256C308.655 217.176 310.525 229.576 308.675 237.706C305.605 251.226 293.605 261.966 280.035 264.216C266.565 266.456 244.965 258.296 242.255 242.956C242.765 242.876 243.205 242.506 243.265 241.836L243.825 235.446C245.405 236.286 247.035 236.866 248.885 237.216C250.225 237.466 251.185 235.826 249.945 234.956C246.205 232.336 252.245 229.856 254.105 229.606C254.695 229.526 255.025 229.006 255.065 228.476C261.265 226.966 266.715 230.726 272.895 230.186C276.845 229.836 280.115 227.846 282.925 225.146C287.735 220.506 290.825 209.146 299.945 213.256Z" fill="#B4CCB4"/>
<path d="M396.996 265.466C390.886 255.796 381.495 256.866 371.585 254.106C371.475 254.076 371.376 254.076 371.286 254.076C368.396 250.776 368.616 246.116 366.786 242.156C365.396 239.156 363.175 236.686 360.485 234.786C353.955 230.176 345.676 229.826 338.316 232.536C321.766 238.646 313.006 255.926 316.536 272.906C323.476 306.276 381.106 323.226 397.906 288.686C401.526 281.266 401.466 272.536 396.996 265.466ZM386.826 297.806C370.226 309.836 344.325 305.226 329.955 291.776C314.595 277.416 314.005 251.786 331.715 239.056C341.175 232.256 356.356 230.406 363.556 241.556C366.736 246.476 365.716 253.296 371.266 256.456C371.596 256.646 371.955 256.556 372.225 256.356C382.215 259.796 392.696 258.566 396.996 270.956C400.526 281.166 395.136 291.796 386.826 297.806Z" fill="#B4CCB4"/>
<path d="M394.705 270.046C391.545 261.516 378.855 257.486 370.526 257.506C370.516 257.496 370.515 257.486 370.505 257.476C362.655 251.516 364.405 239.466 353.865 236.066C345.875 233.486 337.856 237.166 332.406 243.056C326.246 249.726 320.966 260.016 321.806 269.326C322.636 278.526 328.775 286.436 335.745 292.056C350.555 304.016 375.495 309.396 388.995 292.366C393.165 287.096 397.225 276.866 394.705 270.046ZM393.176 278.746C391.186 287.746 385.985 295.026 377.495 298.826C361.555 305.956 342.005 298.006 331.245 285.266C325.255 278.176 322.105 269.756 324.615 260.526C326.835 252.336 333.085 242.526 340.865 238.746C350.345 234.126 358.905 238.616 362.835 247.686C364.545 251.636 365.945 255.186 369.375 257.736C369.155 258.056 369.316 258.606 369.826 258.656C380.706 259.726 396.306 264.606 393.176 278.746Z" fill="#B4CCB4"/>
<path d="M384.085 274.695C381.895 269.665 375.705 267.715 370.825 269.825C370.445 269.985 370.335 270.325 370.385 270.665C367.425 271.805 365.555 276.075 365.635 279.395C365.785 285.555 370.585 289.685 376.685 288.165C382.725 286.655 386.715 280.725 384.085 274.695ZM378.875 284.855C374.845 287.155 369.615 286.565 368.195 281.655C367.035 277.665 368.935 269.895 374.625 271.845C374.955 271.955 375.125 271.475 374.855 271.305C374.665 271.185 374.485 271.105 374.305 271.015C376.995 270.895 379.655 271.785 381.285 274.175C383.735 277.735 382.645 282.705 378.875 284.855Z" fill="#B4CCB4"/>
<path d="M379.326 276.346C378.446 274.956 375.386 273.376 373.946 274.766C373.486 274.716 373.036 274.706 372.726 274.856C372.346 275.036 372.006 275.596 371.816 275.966C371.296 276.956 371.226 278.246 371.536 279.316C372.256 281.746 374.726 283.006 377.096 282.076C379.356 281.186 380.716 278.556 379.326 276.346ZM376.196 280.466C374.736 280.916 373.486 280.006 373.106 278.586C372.926 277.906 372.946 277.206 373.176 276.546C373.266 276.286 373.396 276.116 373.566 275.996C373.686 276.236 373.926 276.416 374.226 276.406C374.876 276.396 375.396 276.036 376.066 276.166C376.726 276.286 377.376 276.716 377.736 277.276C378.596 278.606 377.526 280.056 376.196 280.466Z" fill="#B4CCB4"/>
<path d="M227.435 279.025C227.385 278.335 226.405 278.145 226.105 278.765C225.625 279.755 225.175 280.865 223.865 280.975C222.355 281.095 221.505 279.695 221.505 278.385C221.505 277.585 220.305 277.395 219.985 278.085C219.695 278.925 219.075 279.425 218.145 279.595C216.555 279.185 216.225 278.315 217.155 276.985C217.625 276.595 217.155 275.865 216.625 276.195C215.135 277.105 215.015 279.275 216.335 280.435C217.575 281.515 219.115 281.155 220.245 280.245C221.705 283.565 227.715 283.275 227.435 279.025Z" fill="#B4CCB4"/>
<path d="M229.995 294.725C229.975 294.055 228.955 293.655 228.545 294.245C228.075 294.925 227.655 295.835 226.695 295.855C225.405 295.885 224.955 294.505 225.365 293.515C225.395 293.425 225.435 293.345 225.455 293.255C225.655 292.225 224.165 291.695 223.695 292.655C223.575 292.895 223.495 293.145 223.435 293.395C222.915 294.285 221.495 294.505 220.865 293.515C220.245 292.555 220.705 291.285 221.415 290.555C221.855 290.095 221.175 289.295 220.675 289.705C219.015 291.065 218.525 293.835 220.405 295.275C221.365 296.005 222.555 296.025 223.545 295.585C223.865 296.485 224.535 297.255 225.525 297.605C227.485 298.335 230.055 296.915 229.995 294.725Z" fill="#B4CCB4"/>
<path d="M228.405 314.795C228.465 314.735 228.525 314.685 228.565 314.615C240.755 294.165 240.395 267.625 230.295 246.475C229.935 245.715 229.035 245.475 228.415 246.115C220.425 254.345 213.395 265.315 210.045 276.925C209.825 276.835 209.605 276.735 209.375 276.675C208.855 276.485 208.125 276.575 207.895 277.175C206.205 281.465 204.495 285.745 202.825 290.045C202.625 290.565 202.745 291.225 203.305 291.475C204.895 292.175 206.435 292.995 208.055 293.605C208.455 300.035 210.315 306.355 214.115 312.245C214.465 312.795 215.365 312.345 215.135 311.735C209.305 296.005 210.045 280.905 216.285 267.265C220.815 270.655 229.635 275.285 234.605 270.625C236.055 285.125 233.075 299.725 226.455 313.575C226.415 313.645 226.425 313.715 226.395 313.785C225.875 314.115 225.555 314.795 225.985 315.475C229.735 321.375 231.175 327.995 230.285 334.825C225.075 330.875 222.565 325.645 220.435 319.555C220.465 319.485 220.515 319.435 220.545 319.365C221.265 317.975 219.125 316.935 218.385 318.295C215.335 323.845 210.715 327.815 204.865 329.865C206.815 323.265 210.675 318.865 215.025 313.385C215.425 312.875 214.845 312.315 214.315 312.585C207.515 316.015 203.515 324.355 201.945 331.445C201.735 332.405 202.685 333.035 203.525 332.815C209.985 331.165 215.485 327.295 219.105 321.815C220.115 328.505 225.165 334.505 230.645 338.055C231.315 338.495 232.235 337.905 232.365 337.205C233.905 329.345 232.495 321.595 228.405 314.795ZM205.125 290.025C206.575 286.455 207.995 282.875 209.425 279.295C208.425 283.425 207.915 287.615 207.995 291.775C207.075 291.145 206.105 290.575 205.125 290.025ZM216.775 266.225C219.725 260.085 223.795 254.255 228.905 248.815C231.735 255.285 233.525 261.875 234.385 268.485C228.505 272.455 222.305 269.405 216.775 266.225Z" fill="#B4CCB4"/>
<path d="M225.915 258.815C223.645 258.595 222.305 261.455 224.005 263.025C224.485 263.465 225.055 262.825 224.795 262.325C224.455 261.665 225.105 260.495 225.825 260.355C226.595 260.195 226.885 258.905 225.915 258.815Z" fill="#B4CCB4"/>
<path d="M184.375 231.326C184.265 231.126 184.155 230.926 184.045 230.736C183.765 230.246 183.145 230.086 182.625 230.096C179.305 230.136 177.625 231.936 175.045 233.986C170.805 237.356 166.535 240.696 162.245 244.006C154.055 250.326 145.785 256.536 137.425 262.636C120.315 275.126 102.595 286.736 85.4353 299.146C84.5953 299.756 85.0953 300.796 85.8853 300.946C85.6853 301.156 85.5953 301.456 85.7453 301.766C92.2653 316.076 107.085 324.516 122.295 326.596C139.545 328.946 156.665 322.626 170.675 312.886C183.925 303.666 197.625 290.816 199.455 273.926C201.095 258.766 194.485 243.906 186.125 231.676C185.655 230.986 184.915 230.986 184.375 231.326ZM177.535 236.426C177.595 236.586 177.685 236.746 177.825 236.886C187.115 246.456 191.355 259.906 189.605 273.126C187.735 287.256 178.835 297.956 167.035 305.466C155.105 313.066 140.735 319.366 126.325 317.406C112.635 315.546 101.455 307.716 93.5953 296.626C107.645 287.956 121.135 278.326 134.495 268.676C137.815 266.276 166.095 244.396 177.535 236.426ZM196.525 272.426C195.205 288.606 182.385 300.746 169.915 309.746C143.865 328.536 106.135 330.886 87.2353 300.976C87.1353 300.816 87.0053 300.736 86.8553 300.686C88.6253 299.646 90.3853 298.586 92.1453 297.516C99.0653 309.706 112.175 317.766 125.945 319.686C141.805 321.896 157.815 314.676 170.665 305.906C194.515 289.606 200.105 256.576 179.435 235.136C181.125 234.006 182.185 233.406 182.315 233.556C182.925 234.296 183.735 234.266 184.295 233.856C191.825 245.136 197.655 258.596 196.525 272.426Z" fill="#B4CCB4"/>
<path d="M121.105 290.276C119.605 289.666 118.675 291.826 120.095 292.566C120.965 293.016 121.695 293.616 122.225 294.456C122.775 295.326 122.955 296.176 123.945 296.666C124.545 296.966 125.465 296.646 125.685 295.996C126.525 293.436 123.135 291.096 121.105 290.276Z" fill="#B4CCB4"/>
<path d="M156.825 269.516C155.915 268.716 155.435 267.566 154.585 266.696C154.425 266.526 154.245 266.346 154.155 266.236C154.125 266.196 154.095 266.156 154.065 266.116C153.765 265.696 152.695 266.286 152.925 266.786C153.045 267.056 152.695 267.676 152.775 268.006C152.855 268.356 153.035 268.826 153.215 269.136C153.585 269.796 154.005 270.446 154.465 271.036C155.315 272.116 156.265 273.566 157.705 273.696C158.715 273.786 159.495 272.916 159.165 271.916C158.785 270.746 157.715 270.296 156.825 269.516Z" fill="#B4CCB4"/>
<path d="M171.965 252.366C171.045 251.976 170.105 253.346 171.015 253.926C172.105 254.616 173.205 255.656 174.035 256.636C174.855 257.596 175.295 258.846 176.275 259.636C177.155 260.346 178.615 259.616 178.465 258.456C178.065 255.456 174.445 253.426 171.965 252.366Z" fill="#B4CCB4"/>
<path d="M175.295 271.226C174.195 270.056 172.125 271.416 173.205 272.736C174.785 274.676 176.355 277.346 178.575 278.596C179.515 279.126 180.595 277.976 180.225 277.046C179.325 274.806 176.935 272.956 175.295 271.226Z" fill="#B4CCB4"/>
<path d="M147.005 292.146C145.725 291.666 144.965 293.426 146.155 294.076C147.615 294.876 148.925 295.906 150.025 297.166C150.955 298.236 151.505 299.586 152.585 300.516C153.445 301.256 154.965 300.476 154.795 299.326C154.255 295.866 149.995 293.266 147.005 292.146Z" fill="#B4CCB4"/>
<path d="M246.066 332.256C252.056 334.346 256.916 326.916 252.826 322.316C255.146 321.606 257.455 320.356 259.625 319.086C259.995 320.166 260.805 321.096 262.125 321.546C263.515 322.026 265.156 321.766 266.316 320.856C267.986 319.566 267.946 317.276 269.266 315.746C269.276 315.736 269.276 315.716 269.286 315.706C269.406 315.666 269.526 315.636 269.646 315.556C275.196 311.916 286.566 315.606 292.826 315.396C297.716 315.236 302.496 314.286 306.696 311.646C314.936 306.456 316.806 297.236 312.016 288.946C307.136 280.496 297.176 276.176 287.666 278.456C282.646 279.656 278.496 282.676 275.016 286.396C270.466 291.266 267.255 299.916 261.705 303.776C258.995 304.046 255.536 302.976 254.396 306.166C253.626 308.296 255.035 309.736 256.845 310.446C255.805 310.936 254.776 311.446 253.776 312.026C253.086 312.426 252.305 312.826 251.605 313.316C251.025 311.396 250.066 309.566 248.046 308.836C245.996 308.096 243.525 308.836 242.115 310.466C238.995 314.076 241.185 318.246 244.595 320.276C240.485 323.386 240.306 330.246 246.066 332.256ZM258.286 312.716C258.506 312.056 259.346 311.526 259.886 311.116C259.966 311.056 260.026 310.976 260.066 310.896C260.136 310.886 260.206 310.886 260.266 310.876C261.386 310.696 261.275 309.166 260.225 308.966C259.185 308.766 257.165 308.996 256.595 307.866C255.455 305.606 259.125 305.736 260.205 305.676C260.455 305.656 260.696 305.626 260.936 305.596C261.056 305.646 261.185 305.676 261.355 305.646C267.565 304.416 270.975 295.836 274.605 291.336C278.665 286.296 283.585 281.826 290.225 280.896C298.175 279.796 306.346 283.956 310.036 291.136C317.986 306.616 300.106 313.146 288.076 312.516C281.716 312.186 273.685 309.486 268.085 313.556C267.725 313.816 267.585 314.146 267.585 314.476C266.515 315.416 266.295 316.626 265.705 317.906C264.625 320.276 262.136 319.416 261.686 317.876C261.736 317.846 261.795 317.816 261.845 317.786C262.375 317.486 262.236 316.766 261.806 316.596C261.926 316.356 262.076 316.116 262.316 315.886C263.226 314.986 262.436 313.446 261.146 313.916C260.196 314.266 257.596 314.766 258.286 312.716ZM247.735 321.226C248.645 320.946 248.646 319.326 247.696 319.096C245.356 318.526 242.766 317.016 243.156 314.026C244.156 310.576 246.145 310.016 249.125 312.346C249.555 313.066 249.946 313.796 250.326 314.546C250.286 314.596 250.245 314.646 250.215 314.706C249.825 315.336 250.396 315.996 251.076 315.786C252.416 315.376 253.496 314.216 254.656 313.446C255.196 313.086 255.756 312.756 256.316 312.426C255.996 313.016 255.856 313.686 256.046 314.426C256.486 316.196 257.976 316.646 259.526 316.566C259.456 316.876 259.426 317.196 259.416 317.506C258.306 318.006 257.195 318.516 256.085 318.996C254.475 319.696 252.735 320.216 251.255 321.156C250.975 321.326 250.905 321.626 250.965 321.906C250.575 322.226 250.405 322.776 250.855 323.306C254.045 327.096 249.885 332.476 245.615 329.476C242.075 327.016 244.255 322.306 247.735 321.226Z" fill="#B4CCB4"/>
<path d="M359.125 76.5054C352.845 70.5454 343.745 73.3654 336.725 76.1554C336.585 74.7654 336.625 73.4754 336.835 72.2154C337.355 72.0754 337.765 71.6054 337.565 70.9654C337.495 70.7254 337.395 70.4854 337.305 70.2554C337.725 68.8754 338.325 67.5054 339.105 66.0754C339.535 65.2954 338.455 64.3654 337.825 65.0854C337.085 65.9354 336.485 66.8954 336.015 67.9354C333.115 64.0754 327.585 62.3254 322.935 63.1654C322.185 63.2954 321.865 64.2854 322.235 64.8854C324.965 69.3454 329.645 72.2454 334.855 72.4854C334.725 74.1554 334.875 75.8454 335.315 77.4154C335.305 77.4654 335.285 77.5254 335.285 77.5754C329.375 75.3254 323.055 73.9254 317.985 78.0054C312.605 82.3354 312.865 90.4954 313.765 96.6254C314.785 103.555 317.435 112.525 323.605 116.735C328.555 120.115 335.315 119.585 338.515 114.325C340.655 118.595 345.805 118.365 349.615 115.545C355.755 111.005 359.895 102.075 361.885 94.9054C363.575 88.8654 364.085 81.2254 359.125 76.5054ZM325.235 65.2454C329.425 65.1254 332.695 67.5154 335.065 70.9254C335.065 70.9354 335.065 70.9454 335.055 70.9554C331.055 70.4554 327.565 68.4854 325.235 65.2454ZM360.235 90.3454C359.615 94.7054 358.035 98.8854 356.015 102.785C355.285 104.195 354.495 105.585 353.625 106.925C351.785 109.755 344.015 121.105 339.385 112.555C339.095 112.015 338.355 112.145 338.085 112.575C337.645 112.425 337.125 112.505 336.765 112.985C328.915 123.565 320.125 110.235 317.895 103.985C316.265 99.4154 315.285 94.3054 315.515 89.4354C316.375 71.1754 333.755 80.3254 343.885 82.9154C344.955 83.1854 345.355 81.6454 344.335 81.2754C342.285 80.5354 340.005 79.5054 337.615 78.5154C340.875 77.1854 344.115 75.9254 347.655 75.6454C357.035 74.8954 361.415 82.0554 360.235 90.3454Z" fill="#B4CCB4"/>
<path d="M277.255 174.285C276.885 166.685 273.555 159.275 268.995 153.285C266.675 150.225 263.905 147.265 260.395 145.565C255.655 143.275 249.775 144.495 245.495 141.115C244.905 140.645 244.195 140.795 243.735 141.175C240.405 141.015 238.755 146.885 237.315 149.185C232.785 156.435 229.305 163.595 229.235 172.355C229.135 186.065 238.505 198.585 252.545 200.235C267.515 202.005 277.945 188.415 277.255 174.285ZM260.565 196.935C247.965 200.795 235.185 190.815 232.485 178.765C230.885 171.615 232.175 163.955 235.215 157.365C235.975 155.705 241.375 145.095 244.235 143.315C247.005 145.425 249.795 145.895 253.285 146.495C260.935 147.815 265.675 152.485 269.485 159.025C276.575 171.205 276.925 191.925 260.565 196.935Z" fill="#B4CCB4"/>
<path d="M240.715 161.645C238.115 162.685 237.235 166.455 239.575 168.275C240.275 168.815 241.225 167.955 240.575 167.275C239.335 165.975 239.535 163.565 241.125 162.615C241.625 162.325 241.295 161.415 240.715 161.645Z" fill="#B4CCB4"/>
<path d="M244.965 172.135C242.885 170.345 239.735 172.935 240.335 175.355C240.525 176.135 241.635 175.785 241.515 175.035C241.395 174.325 241.875 173.705 242.455 173.365C243.065 173.005 243.665 173.025 244.325 173.245C244.935 173.445 245.455 172.565 244.965 172.135Z" fill="#B4CCB4"/>
<path d="M362.626 15.2656C362.616 15.2356 362.595 15.2256 362.585 15.1956C363.095 11.0856 360.565 7.46561 356.465 5.93561C352.795 4.56561 348.626 5.38561 344.816 5.08561C338.526 4.58561 333.005 2.37561 327.095 0.405611C326.925 0.345611 326.786 0.36561 326.666 0.41561C322.076 -1.16439 316.256 1.95561 314.686 6.47561C312.986 11.3856 316.676 18.0656 322.256 17.2156C321.306 25.2456 310.996 35.3556 314.766 44.1656C315.606 46.1256 316.226 46.8056 318.386 47.3956C322.506 48.5156 323.686 46.6956 328.916 49.1356C331.556 50.3656 333.786 52.3756 336.416 53.6556C355.476 62.9356 356.046 35.0156 352.566 23.3956C355.066 24.2856 357.956 24.1256 360.146 22.5256C362.346 20.9156 363.516 17.8656 362.626 15.2656ZM358.246 20.9256C356.066 22.1856 353.466 21.6856 351.156 21.1656C350.386 20.9956 349.956 21.9956 350.616 22.4356C350.626 22.4456 350.636 22.4456 350.646 22.4556C350.496 22.6656 350.415 22.9356 350.465 23.2656C351.565 29.8556 354.056 39.8156 350.996 46.2956C343.746 61.6456 333.786 46.8956 325.286 45.2356C321.896 44.5756 318.966 46.5156 316.866 42.0956C315.376 38.9656 318.656 32.3056 320.006 29.5556C322.106 25.2856 324.245 21.9556 323.835 17.0556C323.815 16.7956 323.706 16.6156 323.566 16.4856C323.626 16.1556 323.496 15.8056 323.106 15.7156C318.726 14.7356 315.336 11.0556 317.646 6.42561C319.906 1.86561 324.185 2.59561 328.335 3.04561C328.505 3.06561 328.656 3.01561 328.776 2.92561C332.286 4.91561 336.126 6.07561 340.176 6.71561C347.826 7.90561 359.366 5.23561 360.736 15.0256C360.606 15.2356 360.546 15.5056 360.626 15.8256C361.106 17.9256 360.116 19.8556 358.246 20.9256Z" fill="#B4CCB4"/>
<path d="M353.906 9.44572C345.846 7.53572 337.196 7.52572 329.056 6.26572C328.856 6.23572 328.686 6.27572 328.536 6.35572C325.836 4.81572 321.226 4.88572 319.906 8.09572C318.566 11.3557 321.696 14.0457 324.646 14.6857C326.706 20.7057 324.676 25.3357 321.786 30.5757C320.436 33.0257 318.416 36.0057 318.236 38.9157C317.936 43.9757 322.236 43.6857 326.166 43.6357C330.806 45.6957 335.356 48.1257 340.036 49.8457C343.006 50.9357 345.596 50.6957 347.496 47.9757C352.526 40.8057 349.936 27.3757 348.306 19.4857C348.126 18.6357 346.706 18.8157 346.776 19.6957C347.416 27.5857 349.736 36.6957 347.116 44.4757C344.826 51.2857 337.976 46.5557 333.536 44.6557C330.386 43.3057 327.216 42.2657 323.866 41.6057C321.336 40.4057 320.456 38.2157 321.966 33.8957C322.786 31.5557 324.526 29.4457 325.506 27.1357C327.276 22.9957 327.936 18.7557 325.746 14.7857C325.916 14.7057 326.006 14.4557 325.846 14.3157C324.236 12.9657 320.286 11.4057 321.556 8.66572C322.946 5.66572 326.626 7.69572 328.886 7.85572C328.916 7.85572 328.936 7.83572 328.966 7.83572C332.816 9.02572 336.976 9.27572 340.966 9.69572C345.136 10.1357 349.346 10.7657 353.546 10.7657C355.356 11.1657 356.486 12.3957 356.616 14.2857C356.716 15.7757 356.286 18.8057 354.386 18.8657C352.096 18.9357 349.836 17.2357 347.536 17.9257C347.286 17.9957 347.166 18.3457 347.376 18.5357C348.916 19.9157 352.036 20.3457 354.046 20.5457C355.866 20.7257 357.046 20.0157 357.656 18.2657C358.676 15.2657 358.336 9.01572 353.906 9.44572Z" fill="#B4CCB4"/>
<path d="M227.995 203.506C227.815 202.096 226.905 200.386 225.535 199.756C230.915 189.186 224.755 174.256 211.295 175.616C200.665 176.696 192.425 192.666 200.335 200.916C199.175 201.536 198.195 202.376 197.975 203.796C197.745 205.236 198.345 206.726 199.485 207.626C200.375 208.326 201.515 208.476 202.585 208.236C203.215 214.976 204.445 221.626 205.795 228.256C207.055 234.406 207.785 242.056 210.615 247.676C210.755 247.946 211.145 248.196 211.455 248.156C215.845 247.626 216.205 240.156 217.175 236.806C219.825 227.666 221.755 218.396 223.235 208.996C224.175 209.026 225.125 208.726 225.945 208.136C227.415 207.106 228.225 205.286 227.995 203.506ZM217.835 226.906C217.055 230.076 215.075 242.826 212.285 243.146C209.505 243.466 205.165 215.416 203.765 207.796C204.045 207.636 204.325 207.466 204.555 207.246C205.215 208.546 206.525 209.596 207.915 209.926C209.965 210.416 212.665 209.446 214.135 207.706C214.785 208.726 216.055 209.366 217.335 209.206C218.255 209.096 219.405 208.386 220.205 207.456C220.425 207.766 220.715 208.056 221.065 208.296C221.235 208.416 221.415 208.516 221.595 208.606C220.565 214.756 219.315 220.856 217.835 226.906ZM225.615 205.576C225.155 206.286 224.245 206.966 223.385 207.026C222.425 207.096 220.985 206.396 221.215 205.226C221.255 205.006 221.175 204.806 221.045 204.646C221.015 204.556 220.985 204.466 220.945 204.376C220.795 204.076 220.355 203.966 220.075 204.146C219.055 204.786 218.975 206.256 217.945 206.986C216.905 207.726 215.065 207.266 215.115 205.806C215.125 205.766 215.145 205.736 215.155 205.706C215.295 204.956 214.515 204.556 213.945 205.006C212.405 206.216 211.425 207.936 209.235 208.056C207.355 208.166 206.055 206.826 205.615 205.176C205.645 204.846 205.625 204.506 205.535 204.146C205.495 204.006 205.415 203.906 205.335 203.836C205.325 203.826 205.325 203.816 205.315 203.806C205.305 203.796 205.285 203.786 205.275 203.776C205.105 203.626 204.855 203.606 204.675 203.766C204.505 203.836 204.345 203.956 204.285 204.146C204.055 204.816 203.535 205.536 202.905 205.976C202.745 205.996 202.605 206.076 202.515 206.196C201.865 206.496 201.155 206.476 200.515 205.776C199.205 204.316 200.125 202.876 201.335 201.846C201.345 201.856 201.345 201.856 201.355 201.866C201.735 202.176 202.325 201.786 202.065 201.326C202.045 201.296 202.035 201.256 202.015 201.226C202.165 200.906 201.965 200.536 201.635 200.466C197.535 192.216 199.805 179.856 210.275 177.686C223.035 175.036 228.745 189.876 223.465 199.476C223.075 200.186 223.605 200.836 224.205 200.946C224.835 201.546 225.485 201.936 225.855 202.776C226.245 203.706 226.175 204.726 225.615 205.576Z" fill="#B4CCB4"/>
<path d="M214.405 234.116C214.135 232.866 213.245 231.686 212.545 230.626C211.815 229.526 211.015 228.486 210.165 227.476C209.745 226.986 208.865 227.646 209.265 228.176C210.065 229.246 210.815 230.356 211.515 231.496C212.155 232.546 212.615 233.766 213.425 234.696C213.835 235.166 214.525 234.646 214.405 234.116Z" fill="#B4CCB4"/>
<path d="M215.715 226.986C214.925 225.686 213.835 224.566 212.955 223.316C212.075 222.066 211.245 220.776 210.485 219.446C210.165 218.896 209.355 219.376 209.635 219.946C210.935 222.586 212.505 225.756 214.745 227.736C215.245 228.186 216.095 227.616 215.715 226.986Z" fill="#B4CCB4"/>
<path d="M217.435 219.326C216.155 217.096 214.465 215.036 212.945 212.956C212.485 212.336 211.455 212.906 211.895 213.576C213.335 215.776 214.715 218.116 216.395 220.136C216.875 220.726 217.795 219.966 217.435 219.326Z" fill="#B4CCB4"/>
<path d="M290.765 102.636C288.805 99.7257 285.205 96.7157 281.615 96.8357C281.535 96.5757 281.365 96.3457 281.075 96.2557C279.415 95.6957 281.215 93.5457 281.675 92.8157C282.135 92.0757 282.475 91.2957 282.485 90.4157C282.495 89.0157 281.565 87.7057 280.075 87.7657C275.935 87.9157 275.915 94.6857 276.825 97.3657C276.835 97.4057 276.865 97.4457 276.885 97.4757C273.855 96.7657 270.545 98.0257 268.795 100.616C264.535 98.4057 258.025 107.576 257.055 110.716C253.955 120.806 264.875 125.676 272.845 127.316C281.375 129.076 292.505 128.286 296.715 119.266C298.945 114.506 297.955 102.506 290.765 102.636ZM269.955 102.066C270.085 101.836 270.245 101.616 270.425 101.416C272.035 99.4257 274.555 98.4157 277.085 98.4857C277.495 98.4957 277.645 98.0557 277.495 97.7557C277.765 97.7257 277.995 97.5457 277.965 97.2057C277.785 95.4257 277.865 93.6057 278.455 91.9057C278.615 91.4557 278.815 90.6957 279.185 90.3657C279.335 89.9457 279.635 89.9057 280.055 90.2457C280.735 90.1857 280.925 90.4557 280.625 91.0357C280.475 91.8357 279.615 92.6257 279.235 93.3157C278.355 94.8957 278.485 97.2557 280.335 97.8257C280.335 98.0757 280.455 98.3157 280.775 98.4557C282.365 99.1357 284.025 99.4356 285.515 100.376C286.105 100.746 286.635 101.186 287.125 101.656C285.895 101.386 284.625 101.296 283.325 101.406C283.015 101.296 282.625 101.446 282.465 101.716C282.015 102.506 282.185 103.416 282.215 104.296C282.235 104.746 282.285 105.186 282.325 105.636C281.235 104.916 280.345 103.956 279.605 102.826C279.425 102.556 279.175 102.496 278.945 102.556C278.065 102.676 277.275 103.406 276.615 104.256C276.585 103.506 276.515 102.756 276.395 102.026C276.405 102.016 276.425 102.016 276.445 102.016C277.065 101.786 277.045 100.666 276.275 100.766C274.955 100.926 273.655 101.276 272.355 101.566C271.565 101.746 270.745 102.006 269.935 102.106C269.945 102.086 269.945 102.086 269.955 102.066ZM295.355 114.996C294.825 118.096 293.255 120.526 290.875 122.536C285.755 126.846 278.215 126.126 272.185 124.746C270.335 124.326 268.575 123.816 266.815 123.086C262.205 121.176 258.615 116.816 259.245 111.316C259.525 108.916 264.835 102.356 268.265 101.476C267.845 102.406 267.845 103.656 269.085 103.856C270.005 104.006 271.235 103.366 272.125 103.146C273.245 102.866 274.385 102.606 275.495 102.286C275.265 103.776 275.285 105.326 275.115 106.826C275.015 107.666 276.265 107.896 276.645 107.236C277.095 106.466 277.605 105.736 278.215 105.076C278.475 104.796 278.775 104.546 279.025 104.276C279.975 105.886 281.355 107.216 282.955 108.186C283.595 108.576 284.465 108.076 284.455 107.326C284.435 106.246 284.345 105.156 284.225 104.086C284.175 103.626 284.155 103.176 284.075 102.756C286.105 103.106 287.995 103.766 289.765 104.906C290.185 105.176 290.635 105.076 290.955 104.806C294.175 106.216 295.845 112.116 295.355 114.996Z" fill="#B4CCB4"/>
</svg>
