<svg width="442" height="529" viewBox="0 0 442 529" fill="none" xmlns="http://www.w3.org/2000/svg">
<path d="M302.894 336.602C302.885 336.384 302.875 336.175 302.866 335.957C302.837 335.416 302.372 335.017 301.936 334.808C299.098 333.422 296.906 334.229 293.85 334.865C288.81 335.909 283.771 336.915 278.722 337.893C269.079 339.753 259.418 341.48 249.728 343.084C229.892 346.368 209.915 348.636 190.07 351.834C189.092 351.996 189.083 353.087 189.681 353.562C189.424 353.657 189.225 353.865 189.206 354.197C188.627 369.107 197.577 382.593 209.582 390.841C223.192 400.199 240.408 402.154 256.447 399.876C271.613 397.721 288.715 392.682 297.485 379.139C305.352 366.991 306.093 351.578 304.232 337.636C304.128 336.858 303.502 336.545 302.894 336.602ZM294.922 338.006C294.903 338.168 294.913 338.339 294.97 338.519C298.756 350.601 296.602 363.811 289.474 374.261C281.853 385.431 269.743 390.698 256.533 392.027C243.179 393.375 228.307 392.578 216.928 384.767C206.118 377.336 199.987 365.928 198.07 353.182C213.673 351.834 229.228 349.433 244.669 346.956C248.503 346.349 281.825 339.867 294.922 338.006ZM295.643 376.624C287.614 389.778 271.566 394.59 257.149 396.886C227.055 401.689 194.065 387.567 190.819 354.15C190.8 353.979 190.725 353.846 190.63 353.742C192.575 353.619 194.521 353.467 196.466 353.305C197.121 366.592 204.799 379.025 215.647 386.532C228.146 395.178 244.793 395.899 259.437 393.944C286.608 390.319 305.457 364.713 297.086 337.712C299.003 337.484 300.161 337.418 300.199 337.608C300.398 338.491 301.1 338.823 301.746 338.709C303.321 351.483 302.505 365.387 295.643 376.624Z" fill="#B4CCB4"/>
<path d="M224.103 359.541C223.087 358.383 221.379 359.816 222.271 361.05C222.812 361.8 223.182 362.625 223.267 363.556C223.362 364.533 223.154 365.321 223.78 366.165C224.16 366.668 225.08 366.801 225.545 366.336C227.339 364.543 225.469 361.107 224.103 359.541Z" fill="#B4CCB4"/>
<path d="M263.242 357.206C262.805 356.134 262.9 354.957 262.549 353.856C262.483 353.647 262.407 353.41 262.388 353.277C262.378 353.229 262.369 353.182 262.369 353.135C262.293 352.65 261.135 352.698 261.116 353.21C261.106 353.495 260.537 353.865 260.461 354.178C260.385 354.511 260.328 354.985 260.347 355.327C260.385 356.048 260.452 356.769 260.594 357.472C260.86 358.743 261.04 360.385 262.207 361.116C263.024 361.629 264.058 361.221 264.21 360.224C264.381 359.085 263.659 358.24 263.242 357.206Z" fill="#B4CCB4"/>
<path d="M283.4 349.13C282.792 348.409 281.407 349.168 281.929 350.041C282.555 351.094 283.039 352.442 283.333 353.628C283.618 354.796 283.457 356.039 283.95 357.131C284.396 358.108 285.943 358.118 286.304 357.064C287.243 354.359 285.042 351.085 283.4 349.13Z" fill="#B4CCB4"/>
<path d="M278.171 366.545C277.734 365.083 275.4 365.349 275.751 366.934C276.263 369.259 276.453 372.192 277.801 374.194C278.37 375.039 279.775 374.527 279.86 373.587C280.05 371.29 278.816 368.709 278.171 366.545Z" fill="#B4CCB4"/>
<path d="M245.248 372.193C244.365 371.243 242.98 372.401 243.701 373.464C244.593 374.764 245.267 376.198 245.656 377.735C245.988 379.045 245.874 380.421 246.396 381.664C246.814 382.661 248.437 382.651 248.778 381.598C249.803 378.447 247.307 374.413 245.248 372.193Z" fill="#B4CCB4"/>
<path d="M72.101 385.26C77.7385 383.115 76.7135 374.754 70.9432 373.909C72.196 371.973 73.107 369.658 73.9043 367.408C74.8343 367.968 75.9922 368.139 77.2165 367.665C78.5167 367.162 79.5512 365.966 79.8454 364.599C80.263 362.644 78.8394 361.002 78.8679 359.085C78.8679 359.066 78.8584 359.057 78.8584 359.038C78.9248 358.933 78.9912 358.838 79.0292 358.705C80.8324 352.669 91.348 348.399 95.7612 344.432C99.2158 341.328 102.11 337.712 103.543 333.233C106.362 324.425 102.082 316.586 93.5404 313.492C84.828 310.341 74.9672 313.283 69.4437 320.762C66.53 324.701 65.3627 329.427 65.1065 334.258C64.7743 340.578 67.7354 348.816 66.065 355.014C64.2618 356.864 61.1014 358.202 62.2118 361.22C62.9521 363.232 64.8597 363.422 66.606 362.834C66.1409 363.821 65.7139 364.827 65.3437 365.861C65.0875 366.573 64.7648 367.342 64.556 368.12C62.9616 367.086 61.1394 366.336 59.2318 367.038C57.2862 367.75 55.948 369.809 55.9195 371.85C55.8626 376.377 60.0005 378.066 63.7113 377.459C62.6294 382.233 66.6914 387.32 72.101 385.26ZM69.0356 363.603C68.7888 362.986 69.083 362.094 69.2159 361.467C69.2349 361.372 69.2349 361.277 69.2159 361.192C69.2633 361.145 69.3108 361.097 69.3488 361.05C70.0511 360.233 69.0356 359.199 68.1529 359.692C67.2798 360.186 65.9511 361.581 64.8502 361.116C62.6389 360.167 65.3817 358.022 66.1314 357.32C66.3023 357.158 66.4636 356.988 66.606 356.817C66.7199 356.788 66.8337 356.722 66.9381 356.599C70.6964 351.91 67.9347 343.596 67.8113 338.111C67.6784 331.97 68.5136 325.716 72.7844 320.99C77.8808 315.333 86.356 313.359 93.4265 316.32C108.659 322.708 99.6618 338.377 90.5413 345.257C85.7201 348.902 78.2415 351.853 76.666 358.231C76.5616 358.639 76.666 358.962 76.8653 359.199C76.666 360.528 77.2355 361.553 77.5961 362.843C78.2605 365.226 75.9258 366.127 74.6635 365.282C74.6825 365.226 74.7015 365.169 74.7205 365.121C74.9198 364.58 74.3788 364.134 73.9707 364.276C73.9043 364.03 73.8758 363.764 73.9043 363.451C74.0181 362.236 72.4996 361.6 71.8448 362.739C71.3703 363.565 69.7853 365.52 69.0356 363.603ZM66.568 376.235C67.052 375.475 66.0745 374.299 65.2393 374.716C63.1893 375.732 60.3896 376.216 58.8426 373.815C57.4665 370.702 58.5674 369.079 62.1549 368.955C62.9046 369.212 63.6449 369.506 64.3662 369.819C64.3757 369.876 64.3662 369.942 64.3757 369.999C64.4706 370.692 65.2963 370.834 65.6569 370.265C66.3782 369.145 66.4541 367.646 66.8243 366.383C66.9951 365.785 67.2039 365.207 67.4032 364.628C67.5361 365.254 67.8398 365.814 68.4282 366.25C69.8328 367.266 71.1805 366.687 72.2624 365.681C72.4047 365.947 72.5756 366.194 72.7559 366.431C72.2529 367.475 71.7594 368.519 71.2469 369.553C70.5066 371.043 69.567 372.486 69.0545 374.071C68.9596 374.365 69.0925 374.621 69.3013 374.792C69.2159 375.267 69.4247 375.77 70.0795 375.883C74.711 376.69 74.9862 383.134 70.0416 383.571C65.9986 383.894 64.7078 379.139 66.568 376.235Z" fill="#B4CCB4"/>
<path d="M173.726 328.193C168.924 323.467 162.413 322.243 156.178 324.482C153.597 325.413 151.281 327.121 148.548 327.652C144.381 328.459 141.202 326.817 137.69 325.09C134.302 323.429 131.275 322.091 127.459 322.005C126.748 321.986 126.387 322.508 126.368 323.059C113.337 325.204 111.031 343.255 117.561 353.343C126.586 367.276 146.127 371.85 161.075 365.672C174.799 359.996 186.652 340.93 173.726 328.193ZM167.026 359.256C155.371 368.12 138.26 367.836 126.605 359.104C114.448 349.993 111.136 328.582 128.598 324.397C133.799 325.023 137.795 328.525 142.834 329.75C146.659 330.68 149.838 329.664 153.397 328.231C162.309 324.644 172.435 325.46 175.833 336.241C178.595 345.03 173.963 353.979 167.026 359.256Z" fill="#B4CCB4"/>
<path d="M166.305 343.502C165.678 337.19 159.158 331.866 152.809 334.001C152.467 334.115 152.258 334.372 152.163 334.656C147.086 334.827 143.309 339.496 143.584 344.783C143.916 351.246 150.066 356.418 156.501 355.621C162.413 354.89 166.893 349.443 166.305 343.502ZM157.184 352.973C152.733 354.103 147.731 351.123 146.336 346.795C144.685 341.67 147.769 336.944 152.648 335.957C152.771 336.013 152.913 336.042 153.084 336.042C158.105 335.909 162.774 337.503 163.808 343.103C164.653 347.63 161.578 351.853 157.184 352.973Z" fill="#B4CCB4"/>
<path d="M-8.27556 330.803C-8.48436 331.031 -8.51283 331.297 -8.44639 331.525C-12.6318 336.194 -15.0708 342.743 -13.4859 348.978C-12.6602 352.205 -11.3126 354.881 -11.341 358.298C-11.3695 361.098 -12.1572 363.679 -12.7456 366.384C-13.5144 369.971 -13.932 372.828 -12.6223 376.197C-12.6128 376.273 -12.6033 376.358 -12.5748 376.444C-11.9484 378.095 -9.60425 379.538 -7.84848 379.433C-6.311 379.348 -5.21958 378.361 -5.07722 376.947C-4.78301 376.833 -4.57422 376.539 -4.73556 376.188C-5.23856 375.125 -5.51379 374.033 -5.64666 372.923C10.3735 369.829 26.1185 363.584 41.6072 358.573C42.262 358.364 42.4993 357.368 41.9109 356.941C28.8423 347.317 12.0344 342.306 -2.90387 336.185C-2.8659 336.061 -2.83743 335.938 -2.79947 335.815C-2.68558 335.786 -2.58119 335.729 -2.52424 335.587C-1.86939 334.011 -2.19207 332.237 -3.49229 331.079C-4.65963 330.044 -7.10821 329.532 -8.27556 330.803ZM-0.0376978 370.028C-1.54671 367.902 0.256513 364.913 2.6007 364.343C5.08724 363.736 6.41593 365.501 7.28907 367.428C4.8215 368.263 2.38241 369.117 -0.0376978 370.028ZM31.9267 359.702C30.8163 360.054 29.6964 360.395 28.5765 360.737C28.2728 360.196 28.4057 359.437 28.8233 358.962C29.3548 358.355 30.0571 358.032 30.7973 357.776C31.0536 358.431 31.3668 359.057 31.8034 359.598C31.8413 359.646 31.8888 359.664 31.9267 359.702ZM13.5814 344.84C13.5624 344.859 13.5529 344.869 13.5339 344.897C13.1448 345.571 12.7557 346.235 12.3666 346.909C12.1483 347.279 11.6263 348.655 11.1043 348.674C10.8101 348.684 10.3545 348.219 10.0793 348.105C10.0224 348.076 9.96542 348.076 9.90848 348.048C10.3261 346.662 10.8765 345.334 11.5788 344.062C12.2527 344.318 12.917 344.584 13.5814 344.84ZM10.1742 343.521C9.31057 345.115 8.65572 346.786 8.20966 348.541C8.09577 348.969 8.53234 349.538 9.00687 349.443C10.0698 349.225 10.7626 350.743 11.9774 350.022C12.5753 349.671 12.8126 348.883 13.0784 348.285C13.5244 347.298 13.98 346.321 14.426 345.334C14.445 345.286 14.4545 345.239 14.464 345.191C23.1005 348.598 31.6325 352.338 39.1491 357.368C37.251 358.004 35.3244 358.611 33.4073 359.228C33.4452 359.038 33.3978 358.829 33.2269 358.63C32.6955 358.004 32.2494 357.387 31.9267 356.627C31.7749 356.276 31.3763 356.02 30.9966 356.181C29.649 356.751 27.8363 357.539 27.7034 359.199C27.656 359.797 27.7224 360.424 27.9881 360.927C21.6674 362.872 15.2992 364.78 9.02585 366.858C8.58928 363.613 4.29003 361.79 1.44284 362.986C-1.29995 364.135 -3.31196 368.092 -1.09116 370.455C-2.63813 371.053 -4.1851 371.651 -5.71309 372.296C-6.12119 366.412 -2.51475 359.94 -3.59668 353.847C-4.11867 350.905 -6.20661 347.412 -5.95036 344.451C-5.76055 342.202 -4.58371 340.199 -3.65363 338.149C0.844931 339.981 5.49534 341.727 10.1742 343.521ZM-4.64065 332.379C-4.09969 332.73 -3.72955 333.29 -3.53025 333.897C-3.59668 333.964 -3.65363 334.049 -3.6821 334.163C-3.8814 334.809 -4.14714 335.406 -4.44135 335.985C-4.83046 336.204 -5.06773 336.65 -5.02977 337.067C-6.0073 338.738 -7.09872 340.294 -7.45937 342.306C-8.18066 346.273 -6.15915 350.345 -5.64666 354.179C-4.65963 361.572 -10.4584 369.715 -6.04526 376.415C-6.32049 377.45 -7.92441 377.583 -8.71213 377.27C-9.74661 376.852 -10.3445 375.799 -11.36 375.4C-11.4739 375.352 -11.5878 375.343 -11.7112 375.343C-11.6258 368.443 -8.11422 361.629 -9.37647 354.805C-9.96489 351.616 -11.8156 348.826 -11.9295 345.504C-12.1003 340.598 -9.49985 336.393 -7.01331 332.407C-6.93738 332.293 -6.90891 332.18 -6.89942 332.066C-6.62419 331.999 -6.33947 331.933 -6.04526 331.942C-5.56124 331.942 -5.06773 332.104 -4.64065 332.379Z" fill="#B4CCB4"/>
<path d="M-0.436258 353.505C-0.76843 353.609 -0.92028 353.942 -0.929771 354.264C-0.967734 355.792 -0.92028 357.425 -0.521674 358.905C-0.388805 359.389 0.114198 359.484 0.503314 359.332C2.40144 360.101 4.74562 358.364 4.57479 356.324C4.366 353.961 1.58525 352.879 -0.436258 353.505ZM3.1512 356.295C3.49286 357.671 2.1357 358.459 0.958863 358.412C0.807013 357.197 0.626692 356.02 0.579239 354.805C1.6327 354.71 2.87597 355.204 3.1512 356.295Z" fill="#B4CCB4"/>
<path d="M-1.80273 342.088C-3.92863 342.952 -5.36171 346.245 -3.89066 348.219C-3.74831 348.418 -3.48257 348.485 -3.25479 348.447C-2.57147 350.051 -0.682833 350.848 1.01599 350.411C3.28425 349.832 4.15739 347.26 3.60693 345.163C2.99004 342.866 0.541457 341.129 -1.80273 342.088ZM1.9176 345.581C2.29722 346.814 1.93658 348.352 0.693307 348.94C-0.549964 349.529 -2.22981 348.959 -2.72332 347.669C-2.7423 347.621 -2.77077 347.621 -2.79924 347.583C-2.73281 346.226 -3.02702 344.85 -1.68884 343.929C-0.189321 342.885 1.45256 344.053 1.9176 345.581Z" fill="#B4CCB4"/>
<path d="M7.43161 354.254C7.033 354.748 6.82421 355.203 6.77676 355.849C6.71981 356.58 7.76378 356.836 7.92512 356.077C7.9441 355.915 8.01054 355.782 8.06748 355.65C8.92164 356.295 9.82325 356.874 10.7059 357.462C11.1519 357.756 11.9586 358.108 12.3003 358.516C12.8223 359.142 12.6135 359.655 12.2434 360.11C10.7249 358.705 8.97858 357.576 7.06147 356.76C6.2263 356.409 5.60941 357.643 6.43509 358.032C8.46609 358.981 10.1934 360.271 11.7498 361.885C12.0725 362.217 12.623 362.094 12.9077 361.799C13.9612 360.708 14.9767 359.066 13.7903 357.69C13.2019 357.007 12.2434 356.551 11.5031 356.077C10.4401 355.393 9.37719 354.653 8.2478 354.103C7.98206 353.96 7.61193 354.017 7.43161 354.254Z" fill="#B4CCB4"/>
<path d="M17.6247 351C15.9638 352.499 15.1761 356.049 17.1122 357.662C17.5677 359.902 20.7946 360.395 22.7306 359.456C25.445 358.146 26.6787 354.739 24.8945 352.167C23.2906 349.851 19.8075 349.016 17.6247 351ZM22.408 352.252C24.0119 353.344 24.439 355.28 23.2716 356.865C22.7591 357.558 22.0283 358.099 21.2027 358.355C20.2441 358.659 18.9249 358.507 18.2131 357.729C18.3175 357.596 18.3555 357.425 18.2606 357.207C17.6532 355.802 17.2071 354.549 18.0328 353.097C18.9724 351.474 20.9274 351.256 22.408 352.252Z" fill="#B4CCB4"/>
<path d="M8.6654 402.134C7.53601 399.638 5.7233 398.946 4.22379 396.924C1.49998 393.27 3.62588 390.271 2.22126 386.646C-1.17638 377.838 -16.4183 379.936 -18.6391 388.439C-18.6771 388.591 -18.6866 388.734 -18.6581 388.866C-23.3085 394.817 -22.5018 404.868 -17.747 410.429C-12.0052 417.149 0.902067 419.635 7.42213 412.536C10.051 409.67 10.2408 405.598 8.6654 402.134ZM0.474987 414.045C-6.43419 415.934 -14.4633 412.764 -17.9084 406.443C-21.7805 399.335 -18.6012 392.435 -14.7764 386.266C-14.6721 386.105 -14.767 385.934 -14.8998 385.858C-10.126 380.837 -0.474075 382.754 0.598366 390.926C0.883085 393.08 0.190268 394.722 1.34813 396.753C2.45853 398.727 4.80271 399.762 6.04599 401.679C9.3772 406.832 5.90363 412.565 0.474987 414.045Z" fill="#B4CCB4"/>
<path d="M47.2164 389.133C47.1215 385.355 44.3882 381.891 41.3322 379.984C41.1329 379.86 40.9336 380.031 40.9241 380.221C35.2203 377.516 27.6942 379.433 27.3241 387.121C27.0488 392.711 30.2377 391.325 24.6857 399.088C23.3665 400.939 22.0188 401.983 21.3355 404.289C20.2156 408.095 21.3165 412.252 24.1257 415.004C30.5793 421.315 41.8447 417.652 46.7988 411.094C51.5631 404.783 50.5476 396.203 47.2164 389.133ZM30.959 415.811C27.1437 416.048 24.5243 414.131 23.0817 410.069C21.9524 405.523 23.4614 401.907 27.5993 399.231C28.1877 398.566 29.1937 398.111 29.5259 397.257C30.6458 394.333 29.7916 396.175 30.2377 393.214C30.1428 392.454 30.0004 391.705 29.8106 390.955C29.355 380.999 33.493 378.408 42.2148 383.182C42.2338 383.201 42.2528 383.201 42.2813 383.21C45.7359 388.478 47.9757 394.523 47.6909 400.92C47.3018 409.632 39.7852 417.045 30.959 415.811Z" fill="#B4CCB4"/>
<path d="M119.041 378.56C118.87 377.222 118.007 375.599 116.706 375.001C121.812 364.969 115.966 350.8 103.192 352.091C93.1032 353.116 85.283 368.272 92.7901 376.102C91.6891 376.69 90.7591 377.488 90.5503 378.835C90.332 380.202 90.9014 381.616 91.9834 382.47C92.828 383.134 93.9099 383.277 94.9254 383.049C95.5234 389.446 96.6907 395.757 97.9719 402.049C99.1678 407.886 99.8606 415.146 102.546 420.48C102.679 420.736 103.049 420.974 103.344 420.936C107.51 420.433 107.852 413.343 108.772 410.164C111.287 401.489 113.119 392.692 114.524 383.77C115.416 383.799 116.317 383.514 117.096 382.954C118.491 381.977 119.259 380.249 119.041 378.56ZM109.399 400.768C108.658 403.777 106.779 415.877 104.131 416.181C101.493 416.485 97.374 389.863 96.0453 382.631C96.3111 382.48 96.5768 382.318 96.7951 382.109C97.4215 383.343 98.6648 384.34 99.9839 384.653C101.93 385.118 104.492 384.197 105.887 382.546C106.504 383.514 107.709 384.121 108.924 383.97C109.797 383.865 110.889 383.191 111.648 382.309C111.857 382.603 112.132 382.878 112.464 383.106C112.625 383.22 112.796 383.315 112.967 383.4C111.99 389.237 110.803 395.026 109.399 400.768ZM116.782 380.525C116.346 381.198 115.482 381.844 114.666 381.901C113.755 381.967 112.388 381.303 112.606 380.192C112.644 379.984 112.569 379.794 112.445 379.642C112.417 379.556 112.388 379.471 112.35 379.386C112.208 379.101 111.79 378.997 111.525 379.167C110.557 379.775 110.481 381.17 109.503 381.863C108.516 382.565 106.77 382.128 106.817 380.743C106.827 380.705 106.846 380.676 106.855 380.648C106.988 379.936 106.248 379.556 105.707 379.984C104.245 381.132 103.315 382.764 101.237 382.878C99.4525 382.983 98.2187 381.711 97.8011 380.145C97.8296 379.832 97.8106 379.509 97.7252 379.167C97.6872 379.034 97.6113 378.94 97.5354 378.873C97.5259 378.864 97.5259 378.854 97.5164 378.845C97.5069 378.835 97.4879 378.826 97.4784 378.816C97.3171 378.674 97.0798 378.655 96.909 378.807C96.7476 378.873 96.5958 378.987 96.5388 379.167C96.3206 379.803 95.8271 380.487 95.2291 380.904C95.0773 380.923 94.9444 380.999 94.859 381.113C94.2421 381.398 93.5683 381.379 92.9609 380.714C91.7176 379.329 92.5907 377.962 93.7391 376.984C93.7486 376.994 93.7486 376.994 93.7581 377.003C94.1187 377.298 94.6787 376.928 94.4319 376.491C94.413 376.463 94.4035 376.425 94.3845 376.396C94.5268 376.092 94.337 375.741 94.0238 375.675C90.1327 367.845 92.287 356.115 102.214 354.055C114.324 351.54 119.743 365.624 114.732 374.735C114.362 375.409 114.865 376.026 115.435 376.14C116.033 376.709 116.649 377.079 117.001 377.877C117.38 378.75 117.314 379.718 116.782 380.525Z" fill="#B4CCB4"/>
<path d="M106.144 407.611C105.887 406.425 105.043 405.305 104.378 404.299C103.686 403.255 102.926 402.268 102.12 401.309C101.721 400.844 100.886 401.47 101.266 401.973C102.025 402.989 102.737 404.042 103.401 405.124C104.008 406.121 104.445 407.279 105.214 408.161C105.603 408.607 106.258 408.114 106.144 407.611Z" fill="#B4CCB4"/>
<path d="M107.387 400.844C106.637 399.61 105.603 398.547 104.768 397.361C103.932 396.175 103.145 394.95 102.423 393.688C102.12 393.166 101.351 393.622 101.617 394.163C102.85 396.668 104.341 399.677 106.466 401.556C106.941 401.983 107.748 401.442 107.387 400.844Z" fill="#B4CCB4"/>
<path d="M109.019 393.574C107.804 391.458 106.201 389.503 104.758 387.528C104.321 386.94 103.344 387.481 103.761 388.117C105.128 390.205 106.438 392.426 108.032 394.343C108.488 394.903 109.361 394.181 109.019 393.574Z" fill="#B4CCB4"/>
<path d="M441.969 515.966C441.618 508.753 438.458 501.72 434.13 496.035C431.928 493.131 429.299 490.322 425.968 488.708C421.47 486.535 415.889 487.693 411.827 484.485C411.267 484.039 410.593 484.181 410.157 484.542C406.996 484.39 405.43 489.961 404.064 492.144C399.764 499.025 396.462 505.82 396.395 514.134C396.3 527.145 405.193 539.028 418.518 540.594C432.725 542.274 442.624 529.376 441.969 515.966ZM426.129 537.462C414.171 541.125 402.042 531.653 399.48 520.217C397.961 513.431 399.186 506.162 402.071 499.907C402.792 498.332 407.917 488.262 410.631 486.573C413.26 488.576 415.908 489.022 419.22 489.591C426.481 490.844 430.979 495.276 434.595 501.483C441.324 513.042 441.656 532.707 426.129 537.462Z" fill="#B4CCB4"/>
<path d="M407.291 503.97C404.823 504.957 403.988 508.535 406.209 510.262C406.873 510.774 407.775 509.958 407.158 509.313C405.981 508.079 406.171 505.792 407.68 504.89C408.154 504.615 407.841 503.751 407.291 503.97Z" fill="#B4CCB4"/>
<path d="M411.324 513.925C409.35 512.226 406.361 514.684 406.93 516.981C407.111 517.721 408.164 517.389 408.05 516.677C407.936 516.003 408.392 515.415 408.942 515.092C409.521 514.751 410.091 514.77 410.717 514.978C411.296 515.168 411.789 514.333 411.324 513.925Z" fill="#B4CCB4"/>
<path d="M377.007 561.548C375.232 555.788 366.814 556.272 365.608 561.985C363.758 560.609 361.499 559.555 359.316 558.616C359.933 557.724 360.18 556.585 359.781 555.323C359.363 553.994 358.234 552.883 356.896 552.504C354.969 551.963 353.242 553.273 351.325 553.13C351.306 553.13 351.296 553.14 351.277 553.14C351.183 553.064 351.088 552.997 350.964 552.95C345.052 550.767 341.474 540.005 337.791 535.335C334.916 531.691 331.489 528.568 327.114 526.851C318.506 523.481 310.411 527.24 306.776 535.573C303.075 544.057 305.381 554.098 312.489 560.077C316.238 563.238 320.879 564.709 325.681 565.269C331.964 566.009 340.382 563.579 346.456 565.639C348.193 567.556 349.322 570.802 352.397 569.881C354.447 569.264 354.76 567.385 354.286 565.601C355.245 566.123 356.222 566.616 357.228 567.053C357.921 567.357 358.671 567.727 359.439 567.983C358.3 569.501 357.446 571.276 358.025 573.222C358.614 575.205 360.578 576.676 362.609 576.828C367.127 577.179 369.072 573.155 368.702 569.407C373.381 570.811 378.715 567.081 377.007 561.548ZM355.207 563.228C354.571 563.427 353.698 563.086 353.09 562.906C352.995 562.877 352.9 562.877 352.815 562.887C352.767 562.839 352.729 562.792 352.682 562.744C351.913 561.994 350.812 562.943 351.249 563.855C351.686 564.756 352.995 566.17 352.454 567.243C351.372 569.388 349.408 566.512 348.743 565.724C348.592 565.544 348.43 565.373 348.269 565.212C348.24 565.098 348.193 564.974 348.07 564.87C343.628 560.818 335.162 563.048 329.677 562.82C323.536 562.564 317.358 561.321 312.907 556.765C307.583 551.317 306.168 542.728 309.566 535.867C316.912 521.071 331.973 531.055 338.266 540.593C341.597 545.642 344.055 553.291 350.328 555.275C350.736 555.398 351.059 555.323 351.315 555.142C352.635 555.427 353.688 554.924 354.998 554.649C357.418 554.146 358.168 556.528 357.247 557.733C357.19 557.714 357.143 557.686 357.086 557.667C356.554 557.439 356.08 557.942 356.203 558.359C355.956 558.407 355.691 558.426 355.377 558.369C354.172 558.179 353.441 559.65 354.533 560.371C355.301 560.893 357.162 562.602 355.207 563.228ZM367.639 566.493C366.908 565.952 365.675 566.863 366.035 567.727C366.918 569.834 367.222 572.671 364.726 574.047C361.527 575.224 359.98 574.019 360.085 570.432C360.388 569.701 360.73 568.979 361.091 568.277C361.157 568.277 361.214 568.277 361.271 568.277C361.973 568.22 362.163 567.414 361.613 567.015C360.54 566.227 359.05 566.047 357.807 565.601C357.228 565.392 356.659 565.155 356.089 564.908C356.716 564.823 357.304 564.547 357.769 563.987C358.87 562.649 358.376 561.264 357.437 560.125C357.712 560.001 357.968 559.85 358.215 559.679C359.221 560.248 360.237 560.799 361.233 561.387C362.676 562.222 364.052 563.257 365.599 563.864C365.883 563.978 366.149 563.864 366.339 563.665C366.804 563.788 367.317 563.598 367.478 562.953C368.579 558.378 375.032 558.521 375.146 563.475C375.26 567.556 370.43 568.543 367.639 566.493Z" fill="#B4CCB4"/>
<path d="M70.5633 581.023C70.7246 580.88 70.8954 580.748 71.0568 580.605C71.4744 580.264 71.5029 579.647 71.4174 579.172C70.81 576.078 68.8455 574.816 66.4918 572.766C62.6196 569.378 58.7664 565.971 54.9417 562.535C47.6339 555.977 40.4211 549.315 33.3031 542.557C18.7065 528.73 4.84069 514.171 -9.68946 500.286C-10.4013 499.603 -11.2934 500.258 -11.2934 501.017C-11.5212 500.875 -11.8154 500.837 -12.0906 501.026C-24.3335 509.568 -29.6767 524.848 -29.0029 539.397C-28.2436 555.901 -19.4174 570.792 -7.91471 582.209C2.96154 593 17.3019 603.592 33.3885 602.405C47.8237 601.342 60.5602 592.63 70.5443 582.731C71.1042 582.162 70.9809 581.469 70.5633 581.023ZM64.6411 575.509C64.4988 575.594 64.3659 575.699 64.2615 575.86C56.9158 586.176 45.0809 592.431 32.4489 593.057C18.9438 593.731 7.43163 587.249 -1.60345 577.521C-10.7334 567.688 -19.0852 555.36 -19.7211 541.561C-20.3285 528.454 -14.9283 516.686 -5.93117 507.452C4.56546 519.078 15.8688 530.02 27.1626 540.849C29.9624 543.544 55.2359 566.198 64.6411 575.509ZM34.2806 599.406C18.9438 600.944 5.41962 591.054 -5.11498 580.956C-27.1142 559.859 -35.7792 525.038 -11.0941 502.279C-10.9707 502.165 -10.9137 502.023 -10.8853 501.881C-9.61353 503.361 -8.31332 504.813 -7.0131 506.275C-17.206 514.816 -22.4828 528.435 -21.9134 541.627C-21.2585 556.812 -11.7869 570.517 -1.38516 581.004C17.9093 600.479 49.7029 600.042 66.1786 577.065C67.5168 578.451 68.2665 579.334 68.1432 579.485C67.5547 580.178 67.7256 580.937 68.2001 581.383C58.9562 590.343 47.3872 598.087 34.2806 599.406Z" fill="#B4CCB4"/>
<path d="M366.813 444.719C358.965 435.504 344.302 444.529 336.956 450.053C327.816 456.924 320.708 466.272 317.007 477.073C316.323 472.061 314.501 463.453 309.338 468.056C303.682 473.096 305.419 484.883 308.247 490.786C308.199 490.786 308.152 490.786 308.104 490.786C307.81 490.521 307.364 490.445 306.994 490.815C306.984 490.824 306.984 490.834 306.975 490.834C306.263 490.938 305.874 491.479 305.817 492.077C300.967 497.363 297.892 503.855 294.618 510.233C290.803 517.683 287.225 525.256 283.865 532.925C277.26 547.967 271.547 563.38 266.611 579.049C266.327 579.951 267.086 580.786 267.959 580.824C272.666 580.995 274.726 577.227 277.431 573.763C280.676 569.606 283.837 565.392 286.902 561.103C294.39 550.625 301.309 539.739 307.639 528.521C310.591 523.282 313.41 517.977 316.095 512.596C318.041 508.705 321.078 503.912 320.822 499.347C320.793 498.891 320.736 498.464 320.661 498.056C326.431 500.96 335.086 501.179 339.461 496.633C341.103 494.924 341.863 492.476 340.391 490.407C339.433 489.059 337.914 488.509 336.301 488.338C346.219 485.671 355.206 480.034 361.85 472.061C367.8 464.896 373.998 453.156 366.813 444.719ZM316.646 504.757C315.868 508.401 313.04 512.425 311.322 515.756C307.573 522.998 303.577 530.116 299.354 537.091C295.349 543.697 291.126 550.179 286.703 556.509C284.492 559.679 282.233 562.811 279.917 565.905C277.924 568.572 274.071 575.576 270.056 577.493C272.657 569.359 275.485 561.311 278.522 553.33C278.712 554.155 278.978 554.953 279.367 555.683C279.746 556.395 280.847 555.902 280.648 555.142C280.268 553.719 279.708 552.4 279.452 550.948C281.616 545.358 283.856 539.796 286.247 534.291C286.504 533.703 286.779 533.124 287.035 532.536C287.197 533.542 287.5 534.557 288.335 535.117C288.753 535.402 289.474 535.136 289.569 534.614C289.769 533.494 289.114 532.45 288.905 531.349C288.753 530.562 288.829 529.698 288.668 528.91C290.945 523.88 293.28 518.869 295.719 513.915C295.909 513.536 296.099 513.137 296.289 512.748C296.63 514.636 297.257 516.506 298.452 517.673C299.107 518.319 300.085 517.654 299.923 516.819C299.677 515.576 298.88 514.447 298.471 513.241C298.101 512.159 297.845 511.039 297.665 509.91C300.379 504.263 303.188 498.436 306.975 493.52C307.032 493.52 307.07 493.548 307.127 493.548C308.797 493.529 310.705 493.292 312.299 493.861C315.697 495.086 317.358 501.425 316.646 504.757ZM355.415 474.719C347.994 481.476 339.072 485.291 329.25 486.914C327.722 487.171 328.063 489.847 329.62 489.648C330.274 489.562 330.929 489.458 331.575 489.353C331.622 489.714 331.888 490.046 332.305 490.027C334.346 489.951 341.407 489.705 337.051 495.332C335.959 496.737 332.249 497.136 330.654 497.259C326.25 497.591 322.815 495.997 318.981 494.108C318.876 494.061 318.772 494.042 318.667 494.023C316.57 491.83 313.201 491.014 309.803 490.834C309.955 490.635 310.031 490.378 309.927 490.094C308.161 484.95 307.478 479.692 308.94 474.377C309.167 473.532 309.585 471.312 310.268 470.828L313.248 470.951C313.343 471.321 313.429 471.701 313.524 472.071C314.681 473.817 314.615 477.851 315.194 479.967C315.469 480.954 316.988 480.954 317.282 480.11C317.472 480.034 317.642 479.901 317.737 479.673C321.334 471.103 326.184 463.264 332.951 456.829C339.215 450.878 355.823 437.981 364.279 445.953C373.134 454.295 361.831 468.882 355.415 474.719Z" fill="#B4CCB4"/>
<path d="M270.066 436.453C270.141 435.836 270.236 435.219 270.369 434.612C271.119 430.977 272.941 427.93 274.374 424.571C274.801 423.565 273.606 422.34 272.723 423.299C271.005 425.149 269.752 427.437 268.908 429.923C265.349 422.976 257.329 417.434 249.699 420.632C248.958 420.945 248.493 421.704 248.949 422.483C252.869 429.306 259.55 434.137 267.465 434.925C267.589 434.934 267.683 434.906 267.769 434.868C267.664 435.656 267.608 436.453 267.56 437.24C254.083 432.647 239.961 440.894 237.797 455.159C235.766 468.522 246.386 480.48 259.484 481.894C272.419 483.289 284.985 473.675 288.117 461.252C291.125 449.218 283.637 435.153 270.066 436.453ZM267.617 433.615C267.152 433.492 266.715 433.349 266.26 433.207C265.178 431.764 263.564 430.635 262.207 429.468C260.556 428.044 258.914 426.63 257.244 425.235C256.75 424.827 256.048 425.491 256.532 425.947C258.088 427.456 259.664 428.936 261.249 430.426C261.742 430.891 262.236 431.394 262.739 431.897C258.307 429.895 254.596 426.82 251.938 422.568C255.583 421.742 259.189 422.881 262.093 425.425C264.741 427.731 266.061 430.787 267.93 433.587C267.921 433.653 267.902 433.719 267.892 433.786C267.835 433.719 267.74 433.644 267.617 433.615ZM283.969 464.27C279.718 473.95 268.955 480.765 258.25 478.866C248.161 477.073 239.895 468.113 240.369 457.636C241.005 443.723 254.435 435.864 267.237 438.759C267.342 438.778 267.427 438.778 267.513 438.769C267.503 441.16 267.74 443.523 268.253 445.649C268.509 446.722 270.379 446.522 270.227 445.383C269.952 443.352 269.809 441.321 269.857 439.29C283.732 438.19 288.819 453.213 283.969 464.27Z" fill="#B4CCB4"/>
<path d="M289.91 509.749C289.664 508.657 289.417 507.575 289.151 506.493C288.885 505.383 288.81 504.434 287.823 503.741C287.225 503.314 286.513 503.665 286.171 504.206C271.527 505.725 257.623 502.441 245.048 494.801C238.291 490.701 229.721 480.385 221.141 484.684C219.452 483.507 218.275 481.913 217.753 479.901C217.383 478.496 217.402 477.016 216.463 475.82C215.077 474.054 212.439 473.846 210.531 474.842C205.131 477.67 208.206 484.684 211.746 487.977C211.689 488.082 211.651 488.205 211.67 488.357C212.998 503.808 230.642 512.824 243.843 516.724C257.139 520.653 279.48 523.263 289.36 510.945C289.759 510.764 290.043 510.356 289.91 509.749ZM245.656 514.627C232.426 510.935 217.62 503.058 213.549 489.031C214.318 488.917 214.954 487.968 214.46 487.218C213.264 485.386 211.395 483.982 210.702 481.837C210.085 479.939 211.224 475.317 214.023 477.205C215.039 477.889 215.01 479.455 215.362 480.546C215.627 481.353 216.026 482.131 216.491 482.843C217.317 484.077 218.361 485.073 219.575 485.861C219.31 486.639 220.116 487.55 221.084 487.114C228.971 483.583 235.757 492.058 241.679 495.902C246.016 498.721 250.619 501.093 255.441 502.963C265.273 506.778 275.722 508.259 286.067 505.981C286.219 506.446 286.446 506.902 286.627 507.367C286.892 508.04 287.158 508.714 287.433 509.388C278.028 520.226 258.003 518.082 245.656 514.627Z" fill="#B4CCB4"/>
<path d="M268.699 510.479C250.154 511.039 233.489 504.633 220.857 490.843C220.524 490.482 220.031 491.004 220.325 491.375C231.932 505.364 250.477 513.459 268.699 511.39C269.268 511.324 269.297 510.46 268.699 510.479Z" fill="#B4CCB4"/>
<path d="M95.5616 444.786C95.2104 437.573 92.05 430.54 87.7223 424.856C85.5205 421.951 82.8916 419.142 79.5604 417.529C75.0618 415.355 69.4813 416.513 65.4193 413.305C64.8594 412.859 64.1855 413.002 63.749 413.362C60.5886 413.211 59.0226 418.781 57.656 420.964C53.3567 427.845 50.054 434.64 49.9876 442.954C49.8927 455.966 58.7854 467.848 72.1102 469.414C86.3177 471.094 96.2164 458.196 95.5616 444.786ZM79.7217 466.282C67.7635 469.945 55.6345 460.474 53.072 449.038C51.5535 442.252 52.7778 434.982 55.663 428.728C56.3842 427.152 61.5092 417.083 64.2235 415.393C66.8524 417.396 69.5003 417.842 72.8125 418.411C80.0729 419.664 84.5714 424.096 88.1873 430.303C94.9162 441.863 95.2484 461.527 79.7217 466.282Z" fill="#B4CCB4"/>
<path d="M60.8829 432.789C58.4153 433.776 57.5801 437.354 59.8009 439.082C60.4653 439.594 61.3669 438.778 60.75 438.133C59.5732 436.899 59.763 434.612 61.272 433.71C61.7465 433.435 61.4333 432.571 60.8829 432.789Z" fill="#B4CCB4"/>
<path d="M64.916 442.746C62.9419 441.047 59.9524 443.505 60.5218 445.802C60.7021 446.542 61.7556 446.21 61.6417 445.498C61.5278 444.824 61.9834 444.236 62.5338 443.913C63.1127 443.571 63.6822 443.59 64.3086 443.799C64.8875 443.989 65.381 443.154 64.916 442.746Z" fill="#B4CCB4"/>
<path d="M104.739 444.103C106.182 450.3 112.075 454.485 118.149 453.47C117.912 458.936 121.908 463.388 127.45 463.701C127.716 473.628 139.75 473.742 145.644 467.668C147.618 468.607 149.82 469.025 152.05 468.854C155.979 468.55 158.836 464.754 162.376 464.716C165.119 464.688 167.634 467.022 170.955 466.681C178.472 465.912 182.781 459.667 182.847 452.682C186.33 452.435 188.826 450.727 190.278 448.449C190.364 448.44 190.43 448.459 190.515 448.44C194.606 447.405 197.871 444.587 198.554 440.202C198.772 438.807 198.222 437.706 198.317 436.368C198.516 433.435 199.589 433.283 201.135 431.414C202.682 429.544 204.267 428.443 205.046 425.985C205.71 423.878 205.7 421.553 205.036 419.446C204.533 417.861 202.616 416.01 202.578 414.549C202.54 413.429 204.713 410.591 204.97 409.149C205.463 406.301 204.951 403.312 204.106 400.598C202.853 396.602 200.281 392.065 196.257 390.31C194.321 389.475 192.584 389.351 190.563 389.987C189.434 390.348 188.437 391.544 187.336 391.838C181.613 393.347 183.682 391.562 181.158 389.949C172.322 384.302 162.309 382.072 153.853 389.152C150.199 388.867 148.928 386.58 146.536 383.154C146.517 382.727 146.261 382.338 145.853 382.195C145.834 382.176 145.824 382.148 145.805 382.129C145.435 381.616 144.714 381.892 144.495 382.366C142.037 383.087 139.788 384.672 137.558 385.887C134.739 387.415 131.93 388.953 129.14 390.519C128.361 390.955 128.105 392.236 128.997 392.739C131.009 393.859 132.642 395.397 134.132 397.086C124.793 401.186 117.238 409.073 114.135 418.895C113.404 421.202 113.043 423.679 113.081 426.089C107.463 430 103.097 437.08 104.739 444.103ZM181.604 450.063C180.664 450.015 180.142 450.784 180.209 451.638C180.835 460.056 174.04 465.352 166.324 463.312C165.024 462.97 162.67 461.423 161.057 461.575C159.899 461.689 159.329 462.571 158.456 463.16C154.66 465.694 150.465 466.482 147.029 465.105C146.916 464.991 146.764 464.916 146.593 464.916C144.258 463.834 142.303 461.708 141.155 458.357C140.927 457.703 139.978 457.494 139.418 457.779C135.944 460.113 133.591 459.183 132.357 454.998C130.392 453.859 129.424 452.502 129.434 450.917C133.458 452.511 138.364 451.724 141.686 447.462C143.584 450.831 146.773 453.014 150.911 453.574C153.53 453.925 156.131 453.403 158.551 452.407C162.167 450.926 164.824 446.845 168.222 445.697C172.891 444.122 176.934 446.618 180.598 441.521C181.832 439.803 182.363 437.896 182.373 435.988C192.309 437.127 191.237 450.509 181.604 450.063ZM172.36 387.738C175.824 388.801 178.111 390.784 180.731 393.138C181.518 393.85 181.832 394.618 182.857 395.093C185.95 396.507 187.355 393.973 189.984 393.119C201.249 389.484 205.947 407.886 199.494 413.951C199.038 414.387 198.858 415.27 199.38 415.745C202.255 417.833 203.337 420.964 202.635 425.131C201.42 427.883 199.551 429.762 197.026 430.768C196.732 431.243 195.954 431.461 195.631 431.983C195.242 432.619 195.232 434.081 195.175 434.489C195.194 435.305 195.413 436.092 195.821 436.833C196.485 441.028 195.052 443.875 191.531 445.393C192.66 440.363 189.785 434.574 182.448 434.413C182.373 434.413 182.316 434.432 182.259 434.441C182.031 432.875 181.471 431.347 180.626 429.952C185.78 428.49 188.959 423.223 188.475 417.681C187.868 410.686 181.803 406.14 175.995 403.151C178.149 398.481 174.894 394.163 170.253 391.999C166.59 390.291 161.398 388.991 157.137 389.057C161.797 386.694 167.178 386.153 172.36 387.738ZM121.158 410.952C125.049 405.542 130.288 401.793 136.333 399.183C136.466 399.155 136.58 399.098 136.685 399.013C138.175 398.348 137.235 396.298 135.802 396.46C134.654 394.818 133.325 393.375 131.882 391.971C134.189 390.775 136.495 389.579 138.792 388.364C140.993 387.197 143.537 386.229 145.482 384.634C147.01 387.206 148.538 389.778 150.047 392.36C150.427 393.005 151.11 393.233 151.813 392.948C156.349 391.097 160.648 391.942 165.081 393.204C168.431 394.153 177.371 396.574 172.996 402.989C172.455 403.786 172.91 404.669 173.689 405.039C177.599 406.909 181.756 409.319 183.938 413.211C186.985 418.658 185.41 427.133 177.997 427.665C176.915 427.741 176.621 429.212 177.238 429.914C183.132 436.7 176.431 445.365 168.383 442.053C167.985 441.891 167.339 441.986 167.045 442.318C161.588 448.516 147.438 457.408 143.157 444.558C142.844 443.628 141.411 442.983 140.804 444.084C136.001 452.929 122.809 448.687 125.381 438.351C125.581 437.554 125.144 436.7 124.252 436.633C110.149 435.609 116.261 417.757 121.158 410.952ZM113.366 429.126C114.239 433.995 117.105 438.076 122.639 439.025C122.003 443.837 124.157 447.681 127.346 449.816C124.897 456.336 130.335 461.186 136.77 461.414C138.45 461.47 138.374 460.873 139.494 461.423C139.817 461.575 141.772 464.821 141.971 465.029C142.569 465.656 143.224 466.197 143.916 466.671C138.64 469.927 129.159 473.115 129.965 462.552C130.032 461.66 129.263 461.176 128.475 461.233C122.762 460.901 120.218 457.892 120.845 452.208C121.044 451.391 120.408 450.196 119.383 450.537C111.487 453.157 105.451 444.881 107.52 437.763C108.545 434.27 110.851 431.603 113.366 429.126Z" fill="#B4CCB4"/>
<path d="M47.0833 458.747C41.2845 449.569 32.3728 450.585 22.9676 447.965C22.8632 447.937 22.7683 447.937 22.6829 447.937C19.9401 444.805 20.1489 440.382 18.4121 436.624C17.0929 433.777 14.986 431.433 12.433 429.629C6.23561 425.254 -1.62263 424.922 -8.60773 427.494C-24.3147 433.293 -32.6285 449.693 -29.2783 465.808C-22.6918 497.478 32.0027 513.564 47.9469 480.784C51.3825 473.742 51.3256 465.466 47.0833 458.747ZM37.4313 489.449C21.6769 500.866 -2.90386 496.491 -16.5419 483.726C-31.1195 470.097 -31.6794 445.773 -14.8715 433.691C-5.89341 427.238 8.51337 425.482 15.3466 436.064C18.3646 440.733 17.3966 447.206 22.6639 450.205C22.9771 450.385 23.3187 450.3 23.575 450.11C33.0561 453.375 43.0023 452.208 47.0833 463.966C50.4335 473.647 45.318 483.735 37.4313 489.449Z" fill="#B4CCB4"/>
<path d="M44.9101 463.093C41.911 454.998 29.8674 451.173 21.9617 451.192C21.9522 451.183 21.9522 451.173 21.9427 451.164C14.4926 445.507 16.1535 434.071 6.15034 430.844C-1.43267 428.396 -9.04415 431.888 -14.2165 437.478C-20.0628 443.808 -25.0738 453.574 -24.2766 462.41C-23.4889 471.141 -17.6616 478.648 -11.0467 483.982C3.00895 495.333 26.6786 500.439 39.4909 484.276C43.4485 479.275 47.3017 469.566 44.9101 463.093ZM43.458 471.35C41.5694 479.892 36.6342 486.801 28.5767 490.407C13.4486 497.174 -5.10554 489.629 -15.3175 477.538C-21.0023 470.809 -23.9919 462.818 -21.6097 454.058C-19.5028 446.285 -13.5712 436.975 -6.18747 433.388C2.80964 429.003 10.9336 433.264 14.6634 441.872C16.2863 445.621 17.615 448.99 20.8703 451.41C20.6615 451.714 20.8134 452.236 21.2974 452.284C31.6232 453.299 46.4286 457.93 43.458 471.35Z" fill="#B4CCB4"/>
<path d="M34.8309 467.507C32.7525 462.733 26.8778 460.882 22.2463 462.885C21.8857 463.036 21.7813 463.359 21.8288 463.682C19.0195 464.764 17.2448 468.816 17.3207 471.967C17.4631 477.813 22.0186 481.733 27.8078 480.29C33.5402 478.857 37.3269 473.229 34.8309 467.507ZM29.8863 477.149C26.0616 479.332 21.098 478.772 19.7503 474.112C18.6494 470.325 20.4526 462.951 25.8528 464.802C26.166 464.906 26.3273 464.451 26.0711 464.289C25.8907 464.175 25.7199 464.099 25.5491 464.014C28.1021 463.9 30.6266 464.745 32.183 467.013C34.4987 470.401 33.4643 475.109 29.8863 477.149Z" fill="#B4CCB4"/>
<path d="M30.3136 469.082C29.4784 467.762 26.5743 466.263 25.2076 467.582C24.771 467.535 24.344 467.525 24.0498 467.667C23.6891 467.838 23.3664 468.37 23.1861 468.721C22.6926 469.66 22.6262 470.885 22.9204 471.9C23.6037 474.206 25.9479 475.402 28.1972 474.52C30.342 473.675 31.6328 471.169 30.3136 469.082ZM27.343 472.982C25.9574 473.409 24.771 472.546 24.4104 471.198C24.2396 470.553 24.2585 469.888 24.4768 469.262C24.5622 469.015 24.6856 468.854 24.847 468.74C24.9609 468.968 25.1886 469.138 25.4733 469.129C26.0902 469.12 26.5837 468.778 27.2196 468.901C27.846 469.015 28.4629 469.423 28.8046 469.955C29.6207 471.217 28.6053 472.593 27.343 472.982Z" fill="#B4CCB4"/>
<path d="M312.982 376.159C307.81 379.253 310.268 387.311 316.104 387.14C315.212 389.256 314.709 391.705 314.32 394.059C313.305 393.669 312.137 393.698 311.008 394.381C309.812 395.103 309.005 396.46 308.958 397.855C308.882 399.857 310.571 401.214 310.885 403.113C310.885 403.132 310.894 403.141 310.904 403.16C310.856 403.274 310.809 403.378 310.79 403.511C310.068 409.775 300.454 415.802 296.8 420.48C293.944 424.144 291.723 428.196 291.087 432.866C289.844 442.024 295.424 449 304.374 450.566C313.495 452.151 322.7 447.538 326.838 439.215C329.021 434.83 329.344 429.971 328.755 425.169C327.987 418.886 323.63 411.284 324.2 404.897C325.652 402.761 328.537 400.892 326.914 398.121C325.832 396.27 323.925 396.412 322.311 397.295C322.596 396.241 322.843 395.178 323.023 394.096C323.146 393.347 323.336 392.531 323.403 391.733C325.149 392.483 327.076 392.891 328.831 391.876C330.625 390.832 331.584 388.582 331.251 386.561C330.521 382.091 326.146 381.151 322.596 382.395C322.833 377.488 317.955 373.189 312.982 376.159ZM319.768 396.944C320.109 397.513 319.986 398.443 319.958 399.079C319.958 399.183 319.977 399.269 320.005 399.345C319.967 399.402 319.929 399.449 319.901 399.506C319.35 400.436 320.537 401.281 321.315 400.636C322.093 400 323.146 398.386 324.323 398.661C326.667 399.212 324.333 401.793 323.725 402.619C323.583 402.809 323.46 403.008 323.346 403.198C323.241 403.255 323.137 403.331 323.061 403.473C320.176 408.75 324.342 416.447 325.424 421.828C326.63 427.855 326.886 434.156 323.517 439.557C319.483 446.02 311.473 449.427 304.004 447.747C287.898 444.112 294.02 427.114 301.802 418.744C305.911 414.321 312.773 410.107 313.21 403.549C313.238 403.122 313.086 402.828 312.849 402.629C312.821 401.281 312.071 400.379 311.492 399.164C310.429 396.934 312.564 395.643 313.96 396.251C313.95 396.308 313.941 396.365 313.931 396.422C313.827 396.991 314.434 397.333 314.814 397.115C314.918 397.342 314.994 397.599 315.023 397.912C315.127 399.127 316.731 399.487 317.177 398.263C317.481 397.399 318.695 395.197 319.768 396.944ZM319.996 384.084C319.644 384.919 320.821 385.906 321.571 385.346C323.412 383.989 326.089 383.021 328.025 385.128C329.923 387.956 329.126 389.74 325.614 390.49C324.826 390.367 324.058 390.205 323.279 390.025C323.26 389.968 323.251 389.902 323.232 389.845C323.014 389.18 322.178 389.19 321.922 389.807C321.41 391.031 321.59 392.521 321.448 393.84C321.381 394.457 321.286 395.065 321.182 395.672C320.945 395.084 320.546 394.581 319.891 394.258C318.335 393.499 317.101 394.305 316.218 395.492C316.038 395.254 315.82 395.036 315.601 394.837C315.915 393.726 316.218 392.606 316.541 391.496C317.016 389.902 317.689 388.317 317.908 386.665C317.946 386.362 317.775 386.124 317.538 385.992C317.547 385.507 317.243 385.052 316.579 385.061C311.881 385.08 310.486 378.769 315.279 377.488C319.227 376.434 321.324 380.895 319.996 384.084Z" fill="#B4CCB4"/>
<path d="M233.024 446.389C233.451 445.108 233.375 443.276 232.454 442.166C241.395 435.332 242.249 420.024 230.177 415.668C220.639 412.223 207.029 422.511 210.417 432.827C209.164 432.884 207.988 433.207 207.219 434.326C206.441 435.465 206.336 436.984 206.934 438.218C207.409 439.176 208.329 439.784 209.335 440.011C207.105 446.038 205.435 452.235 203.869 458.461C202.426 464.241 199.901 471.084 200.025 477.063C200.034 477.357 200.262 477.727 200.547 477.822C204.523 479.17 207.893 472.925 210.104 470.457C216.121 463.719 221.578 456.582 226.694 449.151C227.491 449.559 228.421 449.701 229.37 449.53C231.05 449.236 232.483 448.002 233.024 446.389ZM214.726 462.248C212.761 464.64 205.833 474.738 203.318 473.874C200.803 473.01 208.604 447.224 210.531 440.125C210.835 440.106 211.148 440.068 211.433 439.983C211.461 441.359 212.154 442.802 213.207 443.656C214.764 444.918 217.469 445.193 219.443 444.311C219.585 445.449 220.401 446.512 221.569 446.911C222.404 447.196 223.676 447.063 224.738 446.588C224.805 446.949 224.928 447.31 225.128 447.661C225.222 447.832 225.336 447.993 225.45 448.145C222.043 452.966 218.484 457.673 214.726 462.248ZM230.139 447.186C229.455 447.604 228.402 447.813 227.643 447.509C226.788 447.177 225.849 445.99 226.523 445.079C226.646 444.909 226.665 444.7 226.618 444.51C226.627 444.425 226.637 444.33 226.637 444.244C226.627 443.921 226.295 443.656 225.982 443.694C224.843 443.827 224.169 445.041 223.002 445.25C221.815 445.459 220.42 444.311 221.066 443.086C221.085 443.058 221.123 443.039 221.142 443.01C221.569 442.431 221.066 441.767 220.401 441.909C218.589 442.308 217.042 443.381 215.124 442.593C213.473 441.909 212.913 440.23 213.207 438.645C213.369 438.379 213.492 438.075 213.568 437.734C213.596 437.601 213.568 437.487 213.521 437.382C213.521 437.373 213.521 437.363 213.511 437.345C213.502 437.335 213.492 437.316 213.483 437.307C213.407 437.107 213.198 436.984 212.97 437.05C212.79 437.041 212.619 437.079 212.477 437.212C212.012 437.686 211.262 438.094 210.54 438.218C210.398 438.17 210.246 438.18 210.123 438.246C209.449 438.237 208.842 437.933 208.585 437.069C208.063 435.285 209.44 434.421 210.901 434.042C210.901 434.051 210.911 434.061 210.911 434.061C211.1 434.478 211.774 434.393 211.736 433.88C211.736 433.842 211.736 433.804 211.736 433.767C211.993 433.548 211.983 433.159 211.717 432.96C211.594 424.219 218.608 414.576 228.459 417.006C240.464 419.967 239.259 435.01 230.803 441.065C230.177 441.511 230.366 442.289 230.831 442.631C231.126 443.399 231.524 444.007 231.496 444.88C231.439 445.839 230.964 446.683 230.139 447.186Z" fill="#B4CCB4"/>
<path d="M208.832 467.012C209.117 465.836 208.832 464.45 208.671 463.264C208.5 462.02 208.244 460.796 207.921 459.591C207.769 459.002 206.744 459.202 206.858 459.819C207.105 461.062 207.295 462.324 207.418 463.586C207.532 464.744 207.428 465.987 207.741 467.107C207.912 467.667 208.718 467.515 208.832 467.012Z" fill="#B4CCB4"/>
<path d="M212.875 461.441C212.733 460.008 212.258 458.594 212.021 457.171C211.784 455.737 211.604 454.295 211.49 452.843C211.442 452.235 210.55 452.321 210.56 452.919C210.588 455.718 210.626 459.069 211.736 461.679C211.983 462.276 212.942 462.134 212.875 461.441Z" fill="#B4CCB4"/>
<path d="M217.488 455.595C217.307 453.156 216.709 450.698 216.254 448.307C216.121 447.585 215.001 447.652 215.096 448.402C215.428 450.879 215.646 453.441 216.254 455.861C216.444 456.563 217.545 456.288 217.488 455.595Z" fill="#B4CCB4"/>
<path d="M123.16 522.381C125.248 514.266 127.374 506.579 125.827 498.189C125.59 496.917 124.261 496.889 123.493 497.563C123.521 496.908 123.474 496.224 123.303 495.513C126.672 499.29 132.936 496.993 133.107 491.811C133.287 486.468 128.456 484.314 124.081 485.12C126.045 480.195 126.539 473.77 120.588 471.634C117.656 470.581 114.287 472.318 113.243 474.918C111.857 472.972 110.49 470.647 108.165 470.799C104.777 471.027 103.135 476.085 102.328 479.464C99.225 477.262 95.3243 475.44 91.7843 477.594C89.2883 479.113 88.0735 481.998 89.108 484.589C87.8932 484.969 86.7258 485.528 85.6629 486.269C83.7837 480.812 76.998 479.54 73.4105 484.285C72.4614 480.603 68.6747 478.069 64.5842 478.828C57.9123 480.062 55.8149 486.582 56.2894 492.523C51.2024 490.283 44.8247 492.371 43.8567 498.682C43.6953 499.726 44.1983 501.862 45.0335 503.722C41.3322 502.953 37.2132 503.561 34.8596 506.797C33.0943 509.227 32.8665 512.434 34.2712 514.93C31.5379 515.528 28.9089 516.961 28.4249 519.979C28.1022 521.953 28.9184 524.051 30.5413 524.962C27.9409 527.43 26.6787 531.852 29.896 534.377C32.1737 536.161 35.2677 535.639 37.0139 533.769C40.5445 539.407 49.627 537.86 50.4622 530.495C50.7279 530.751 51.0316 530.96 51.3258 531.178C50.5855 530.989 49.8358 531.9 50.4906 532.593C62.9044 545.69 77.482 553.244 93.635 560.77C97.9532 562.782 102.158 565.05 105.498 568.534C108.345 571.495 110.111 575.215 112.749 578.337C116.109 582.304 121.452 585.863 126.824 583.804C141.136 578.318 126.235 559.954 123.455 552.38C119.791 542.396 120.569 532.488 123.16 522.381ZM92.4772 480.28C94.66 478.989 96.6815 478.933 98.5227 480.109C100.013 480.726 101.218 481.666 102.499 482.624C103.097 483.07 104.16 482.615 104.283 481.894C104.843 478.724 106.352 471.625 110.5 474.633C111.496 475.355 112.151 476.418 112.986 477.319C113.072 477.832 113.252 478.354 113.546 478.866C114.116 479.882 115.388 479.198 115.359 478.23C115.454 478.107 115.52 477.955 115.539 477.803C118.045 473.39 120.294 472.83 122.278 476.133C122.999 477.234 123.236 478.42 122.99 479.701C123.027 482.359 121.974 484.418 120.617 486.667C119.972 487.74 121.243 488.945 122.306 488.357C124.688 487.019 128.219 486.62 130.003 489.401C132.157 492.751 127.602 497.572 124.337 493.89C123.806 493.292 123.122 493.643 122.895 494.212C122.762 493.89 122.619 493.558 122.439 493.225C121.737 491.916 119.81 493.064 120.465 494.383C123.825 501.207 114.182 505.924 110.823 499.034C110.339 498.047 108.64 498.502 108.716 499.603C109.029 503.883 105.014 505.762 101.958 504.206C103.363 502.156 103.211 499.157 100.649 497.05C102.585 494.564 102.661 490.578 100.335 487.683C98.1146 484.912 94.9257 483.839 91.7559 484.086L92.4772 480.28ZM111.724 523.5C106.258 530.22 100.762 518.727 97.1086 513.849C97.8963 513.355 98.5796 512.634 99.0826 511.628C100.013 509.768 99.8704 507.803 98.8928 506.303C99.4907 506.161 100.022 505.914 100.497 505.611C104.046 508.325 109.105 506.75 110.557 502.621C111.62 503.694 112.873 504.31 114.173 504.567C114.125 504.652 114.059 504.719 114.021 504.823C112.028 510.527 115.682 518.622 111.724 523.5ZM49.3802 528.844C48.8962 528.91 48.4407 529.233 48.4027 529.85C47.9377 536.132 39.7852 536.692 38.2667 530.723C37.9061 529.318 36.0934 529.802 35.932 531.036C35.5239 534.282 30.5603 533.428 30.2566 530.115C30.0668 528.009 31.5948 526.291 33.1133 525.104C33.379 524.905 33.4265 524.639 33.3506 524.393C33.3506 524.089 33.2082 523.804 32.876 523.643C31.0159 522.798 30.1237 520.729 31.6802 518.822C32.7337 517.521 35.1538 517.218 36.6438 517.132C37.6593 517.075 38.4186 515.737 37.5359 514.968C34.8975 512.653 35.6283 508.572 38.4375 506.655C40.7248 505.089 43.6289 505.222 46.2388 505.781C47.4062 507.3 48.8203 507.822 50.092 505.601C50.671 504.576 49.1809 503.731 48.5261 504.69C47.0076 504.272 46.2673 503.314 46.2863 501.843C45.7833 500.59 45.7738 499.318 46.2673 498.037C48.1559 493.738 52.9962 492.371 56.9158 495.408C57.7794 496.073 59.0037 495.484 58.7665 494.326C57.9692 490.426 57.9882 485.965 61.1486 482.994C65.3245 479.065 71.7307 481.229 71.6547 487.123C71.6452 488.176 73.3535 488.471 73.5434 487.379C73.6193 486.952 73.6383 486.534 73.6383 486.126C73.7711 486.079 73.8945 486.003 73.9894 485.861C77.985 481.248 81.3352 481.979 84.04 488.053C84.1444 488.926 85.084 489.401 85.7863 488.774C88.102 486.705 90.9966 485.576 94.1855 486.269C95.0017 486.591 95.8273 486.905 96.6435 487.227C101.085 489.989 100.506 493.33 94.9352 497.259C93.5876 497.211 93.654 499.176 94.9352 499.309C96.5961 499.489 97.9912 499.138 99.1111 498.455C98.219 500.391 97.3364 502.336 96.4442 504.272C95.0871 503.969 94.6695 505.791 95.8843 506.303C98.5891 508.667 98.1051 510.147 94.4322 510.755C92.5626 512.805 90.636 512.966 88.6619 511.22C88.0071 510.859 87.115 511.305 87.1339 512.093C87.2194 515.936 84.6569 518.053 81.9046 518.129C81.5534 516.933 80.1583 516.942 79.513 517.645C78.2222 517.085 77.0454 516.031 76.2956 514.408C76.0299 513.83 75.1378 514.095 75.0429 514.627C74.5019 514.143 73.5339 514.703 73.9989 515.386C77.3396 520.397 70.5538 522.656 67.3745 520.862C64.9259 519.476 63.9578 516.99 63.3789 514.361C63.2271 513.678 62.0977 513.469 61.794 514.152C60.247 517.645 55.6915 519.97 52.0851 517.711C48.3932 515.405 48.8677 510.536 50.8323 507.357C51.2689 506.645 50.2818 505.905 49.6934 506.474C46.2293 509.843 46.7988 516.041 50.7089 518.888C53.4232 520.862 56.7355 520.682 59.3928 519.173C59.4593 519.325 59.5542 519.467 59.706 519.6C62.3254 521.963 63.0847 526.262 60.4273 528.958C57.7415 531.681 53.2714 530.989 50.7943 528.426C50.3103 527.923 49.5036 528.293 49.3802 528.844ZM61.4049 517.882C61.3479 517.835 61.291 517.825 61.234 517.797C61.5662 517.483 61.8889 517.151 62.1736 516.791C63.4928 520.891 66.9189 525.047 71.6168 523.7C74.6348 522.836 76.6753 519.704 76.1058 516.819C76.9979 518.091 78.1368 518.936 79.3801 519.429C80.1299 522.181 80.7373 524.962 81.0125 527.809C81.1643 529.375 81.2497 530.979 81.2213 532.555C81.1833 535.373 81.4111 535.81 78.5734 537.3C75.6598 538.828 75.2232 538.277 72.5468 536.787C71.4934 536.199 70.4779 535.544 69.4814 534.861C67.1277 533.247 65.0777 531.397 63.0562 529.413C65.3909 525.892 64.793 520.558 61.4049 517.882ZM129.68 574.332C127.706 576.648 125.723 578.973 123.739 581.289C121.386 581.194 119.393 580.387 117.76 578.869C112.578 574.968 110.253 568.277 105.166 564.12C100.345 560.182 94.4512 557.942 88.8043 555.493C75.1947 549.581 63.0277 541.447 51.9427 531.596C54.8753 533.314 58.8329 533.257 61.5472 531.027C65.4479 535.478 75.2517 544.845 81.1264 540.811C83.5465 539.151 83.8597 536.038 83.9546 533.342C84.1064 528.796 83.5085 524.288 82.3791 519.904C85.4826 519.714 88.4342 517.493 89.0321 513.668C90.8922 514.465 93.0751 514.94 95.0017 514.617C98.7789 519.904 102.547 531.795 111.164 527.79C119.506 523.918 114.666 512.197 116.868 505.611C117.001 505.222 116.944 504.899 116.821 504.614C119.544 504.187 122.05 502.336 123.046 499.726C124.964 514.171 116.375 527.619 117.931 542.244C118.557 548.148 120.285 553.852 123.046 559.1C124.555 561.966 126.53 564.595 127.925 567.528C128.741 569.255 130.164 572.339 129.68 574.332Z" fill="#B4CCB4"/>
<path d="M252.745 535.07C248.256 530.201 241.812 533.39 236.402 534.586C228.838 536.256 223.732 533.741 218.892 527.724C216.614 524.887 214.612 522.448 211.176 520.967C211.005 520.891 210.844 520.863 210.692 520.863C209.809 516.449 205.69 512.625 201.021 513.156C201.012 513.137 201.021 513.118 201.012 513.099C200.528 511.324 200.613 509.597 201.695 508.05C202.131 507.424 201.951 506.617 201.163 506.389C198.781 505.697 195.346 504.909 194.548 507.984C193.865 510.613 194.036 513.707 195.146 516.222C192.755 518.11 191.473 520.957 191.654 523.976C182.201 533.979 190.695 553.377 198.867 561.463C209.344 571.827 226.105 574.456 239.401 568.24C249.907 563.343 263.175 546.402 252.745 535.07ZM196.409 517.104C196.437 517.076 196.447 517.038 196.475 517.009C196.722 516.877 196.893 516.639 196.845 516.326C196.522 514.267 196.162 512.312 196.428 510.214C196.551 509.199 196.551 508.297 197.671 508.107C198.126 508.031 198.734 508.088 199.351 508.174C198.544 509.901 198.335 511.865 199.037 513.716C199.161 514.048 199.389 514.248 199.645 514.342C199.597 514.94 199.977 515.548 200.803 515.557C204.087 515.557 207 517.256 208.054 520.179C206.421 519.534 204.656 519.306 203.005 520.113C202.103 520.549 201.439 521.204 200.983 521.982C200.461 521.024 200.034 520.018 199.702 518.898C199.436 517.996 198.316 517.826 197.699 518.452C196.428 519.733 195.156 521.024 193.875 522.305C194.007 520.341 194.89 518.642 196.409 517.104ZM252.441 539.445C256.399 547.598 250.192 557.762 243.9 562.555C233.432 570.518 218.152 571.021 206.905 564.387C195.744 557.81 185.001 538.714 192.375 525.893C192.793 526.149 193.343 526.139 193.789 525.693L198.088 521.385C198.724 522.951 199.559 524.374 200.689 525.75C201.505 526.756 203.204 526.139 202.834 524.754C201.714 520.568 207.617 522.448 209.126 523.397C209.61 523.7 210.16 523.529 210.521 523.159C215.95 525.836 217.62 531.9 222.451 535.269C225.535 537.424 229.132 537.974 232.815 537.718C239.126 537.281 248.294 530.904 252.441 539.445Z" fill="#B4CCB4"/>
<path d="M385.471 493.168C385.633 492.532 384.807 492.077 384.352 492.542C383.621 493.292 382.89 494.165 381.675 493.871C380.271 493.529 379.929 492.02 380.318 490.834C380.555 490.112 379.53 489.59 379.037 490.112C378.524 490.777 377.822 491.052 376.93 490.928C375.62 490.093 375.573 489.211 376.807 488.281C377.338 488.072 377.139 487.275 376.56 487.407C374.946 487.787 374.187 489.714 375.041 491.147C375.838 492.494 377.328 492.618 378.619 492.124C378.961 495.56 384.465 497.069 385.471 493.168Z" fill="#B4CCB4"/>
<path d="M383.137 508.079C383.317 507.471 382.52 506.798 381.979 507.215C381.353 507.69 380.707 508.382 379.834 508.117C378.657 507.766 378.667 506.38 379.322 505.611C379.369 505.535 379.436 505.478 379.483 505.402C379.967 504.529 378.781 503.618 378.078 504.349C377.908 504.529 377.756 504.729 377.623 504.937C376.892 505.583 375.544 505.364 375.269 504.283C374.994 503.239 375.782 502.233 376.645 501.777C377.177 501.492 376.797 500.572 376.228 500.79C374.33 501.53 373.067 503.884 374.339 505.735C374.984 506.674 376.057 507.054 377.082 506.949C377.101 507.86 377.481 508.743 378.268 509.36C379.806 510.584 382.549 510.072 383.137 508.079Z" fill="#B4CCB4"/>
<path d="M375.763 525.702C375.83 525.664 375.906 525.645 375.963 525.588C393.008 510.754 400.534 486.715 397.687 464.658C397.582 463.871 396.851 463.387 396.102 463.776C386.459 468.834 376.883 476.645 370.42 486.117C370.249 485.974 370.078 485.813 369.889 485.69C369.471 485.358 368.797 485.225 368.399 485.699C365.599 489.068 362.79 492.419 360.018 495.807C359.686 496.215 359.591 496.851 360.028 497.24C361.252 498.341 362.4 499.537 363.682 500.571C362.135 506.484 361.945 512.738 363.634 519.173C363.796 519.771 364.726 519.638 364.707 519.011C364.109 503.105 369.243 489.704 378.905 479.255C381.989 483.649 388.576 490.435 394.431 487.702C391.451 501.207 384.438 513.488 374.368 524.022C374.311 524.079 374.292 524.136 374.254 524.193C373.685 524.335 373.191 524.858 373.381 525.588C375.013 532.013 374.349 538.41 371.53 544.304C368 539.207 367.279 533.741 367.174 527.619C367.222 527.572 367.279 527.534 367.336 527.477C368.389 526.442 366.776 524.867 365.703 525.864C361.309 529.963 355.975 532.175 350.091 532.298C353.802 526.926 358.585 524.098 364.128 520.444C364.64 520.103 364.289 519.429 363.729 519.505C356.583 520.577 350.509 526.917 346.997 532.849C346.523 533.646 347.196 534.5 348.022 534.557C354.333 534.975 360.436 533.114 365.324 529.252C364.251 535.582 367.032 542.491 370.923 547.312C371.398 547.901 372.404 547.645 372.726 547.056C376.418 540.451 377.434 533.048 375.763 525.702ZM362.097 496.481C364.46 493.69 366.804 490.881 369.148 488.081C367.022 491.507 365.324 495.133 364.166 498.91C363.53 498.065 362.818 497.259 362.097 496.481ZM379.645 478.467C384.124 473.807 389.515 469.755 395.741 466.357C396.377 473.029 396.035 479.502 394.858 485.718C388.376 487.55 383.697 482.966 379.645 478.467Z" fill="#B4CCB4"/>
<path d="M390.084 474.491C388.11 473.618 386.051 475.801 387.114 477.727C387.408 478.268 388.12 477.86 388.034 477.329C387.92 476.636 388.86 475.772 389.553 475.858C390.293 475.934 390.929 474.861 390.084 474.491Z" fill="#B4CCB4"/>
<path d="M131.256 498.607C131.275 498.91 131.446 499.119 131.664 499.233C132.119 505.487 135.147 511.789 140.746 514.969C143.641 516.611 146.507 517.493 148.946 519.885C150.949 521.84 152.249 524.203 153.805 526.509C155.855 529.556 157.63 531.833 160.961 533.219C161.018 533.267 161.094 533.314 161.18 533.352C162.803 534.054 165.46 533.361 166.608 532.023C167.614 530.856 167.662 529.385 166.741 528.293C166.865 527.999 166.798 527.648 166.428 527.525C165.308 527.155 164.34 526.595 163.438 525.921C172.322 512.235 178.737 496.557 185.874 481.922C186.178 481.305 185.628 480.442 184.906 480.565C168.905 483.317 153.635 491.954 138.867 498.474C138.801 498.36 138.734 498.256 138.668 498.142C138.725 498.047 138.753 497.923 138.696 497.781C138.013 496.215 136.514 495.219 134.777 495.352C133.22 495.475 131.151 496.889 131.256 498.607ZM165.232 519.885C162.651 519.496 161.749 516.127 162.964 514.039C164.255 511.827 166.447 512.093 168.44 512.805C167.33 515.149 166.248 517.503 165.232 519.885ZM179.952 489.686C179.43 490.73 178.908 491.774 178.377 492.817C177.779 492.656 177.323 492.039 177.266 491.413C177.2 490.606 177.447 489.875 177.779 489.164C178.424 489.429 179.089 489.648 179.791 489.705C179.857 489.705 179.905 489.686 179.952 489.686ZM156.529 492.599C156.529 492.628 156.529 492.647 156.539 492.666C156.748 493.406 156.966 494.156 157.184 494.896C157.298 495.304 157.934 496.642 157.583 497.031C157.393 497.25 156.738 497.259 156.463 497.373C156.406 497.402 156.358 497.43 156.302 497.458C155.59 496.196 155.02 494.877 154.584 493.491C155.229 493.197 155.874 492.903 156.529 492.599ZM153.208 494.137C153.758 495.864 154.508 497.487 155.466 499.034C155.704 499.414 156.406 499.489 156.662 499.081C157.241 498.161 158.807 498.721 159.139 497.345C159.301 496.671 158.892 495.949 158.655 495.352C158.257 494.346 157.858 493.34 157.459 492.334C157.44 492.286 157.412 492.248 157.383 492.21C165.83 488.347 174.438 484.798 183.274 482.871C182.42 484.684 181.518 486.487 180.626 488.3C180.512 488.139 180.332 488.025 180.076 488.015C179.259 487.968 178.5 487.854 177.731 487.56C177.38 487.427 176.915 487.541 176.763 487.92C176.241 489.287 175.549 491.138 176.659 492.39C177.058 492.846 177.561 493.226 178.101 493.377C175.121 499.281 172.075 505.184 169.218 511.153C166.58 509.217 162.281 511.059 161.17 513.925C160.098 516.696 161.55 520.891 164.796 520.929C164.15 522.457 163.514 523.994 162.916 525.532C158.389 521.735 156.235 514.665 151.091 511.21C148.614 509.549 144.647 508.629 142.692 506.389C141.211 504.69 140.576 502.46 139.74 500.363C144.191 498.407 148.681 496.263 153.208 494.137ZM134.91 497.088C135.546 496.936 136.191 497.06 136.779 497.345C136.789 497.439 136.808 497.534 136.865 497.639C137.197 498.227 137.434 498.835 137.643 499.451C137.529 499.879 137.681 500.363 138.013 500.628C138.535 502.488 138.905 504.358 140.101 506.009C142.455 509.284 146.792 510.65 149.914 512.947C155.922 517.36 157.773 527.183 165.659 528.654C166.21 529.565 165.194 530.818 164.425 531.16C163.4 531.615 162.233 531.321 161.237 531.767C161.123 531.814 161.037 531.89 160.952 531.976C156.036 527.136 153.568 519.866 147.779 516.051C145.074 514.266 141.781 513.659 139.304 511.438C135.65 508.154 134.426 503.371 133.277 498.816C133.239 498.683 133.182 498.578 133.106 498.502C133.249 498.256 133.401 498.009 133.609 497.8C133.961 497.439 134.416 497.202 134.91 497.088Z" fill="#B4CCB4"/>
<path d="M153.047 508.705C152.885 509.019 153.018 509.36 153.246 509.588C154.318 510.67 155.533 511.78 156.871 512.511C157.308 512.748 157.735 512.454 157.887 512.065C159.756 511.23 160.136 508.335 158.542 507.044C156.71 505.564 153.996 506.817 153.047 508.705ZM157.545 508.06C158.769 508.762 158.399 510.29 157.545 511.116C156.568 510.385 155.59 509.702 154.688 508.886C155.353 508.05 156.577 507.5 157.545 508.06Z" fill="#B4CCB4"/>
<path d="M143.869 501.776C143.015 503.902 144.4 507.224 146.84 507.537C147.077 507.566 147.314 507.433 147.437 507.233C149.07 507.85 150.958 507.044 151.822 505.516C152.98 503.475 151.737 501.065 149.839 500.011C147.76 498.853 144.809 499.423 143.869 501.776ZM148.975 501.511C150.133 502.09 150.987 503.418 150.541 504.719C150.104 506.019 148.529 506.844 147.248 506.303C147.21 506.284 147.172 506.303 147.134 506.303C146.204 505.316 145.008 504.576 145.264 502.972C145.568 501.169 147.542 500.789 148.975 501.511Z" fill="#B4CCB4"/>
<path d="M159.045 503.561C159.13 504.187 159.31 504.653 159.737 505.137C160.231 505.687 161.132 505.108 160.696 504.463C160.591 504.33 160.535 504.197 160.487 504.055C161.541 503.884 162.594 503.637 163.628 503.409C164.16 503.295 164.967 502.954 165.498 502.982C166.314 503.039 166.533 503.552 166.609 504.131C164.54 504.254 162.518 504.728 160.601 505.535C159.766 505.886 160.231 507.187 161.085 506.864C163.182 506.057 165.299 505.715 167.539 505.706C167.994 505.706 168.298 505.222 168.279 504.814C168.222 503.295 167.747 501.426 165.925 501.331C165.024 501.283 164.037 501.653 163.182 501.862C161.958 502.156 160.686 502.403 159.5 502.84C159.215 502.954 159.007 503.267 159.045 503.561Z" fill="#B4CCB4"/>
<path d="M163.762 493.956C163.695 496.196 165.707 499.224 168.203 498.949C170.13 500.173 172.721 498.199 173.395 496.149C174.334 493.283 172.74 490.037 169.646 489.534C166.865 489.078 163.857 491.005 163.762 493.956ZM167.985 491.375C169.883 490.976 171.572 492.011 171.905 493.947C172.047 494.792 171.933 495.703 171.544 496.472C171.098 497.373 170.073 498.218 169.019 498.189C169 498.028 168.896 497.876 168.678 497.791C167.245 497.259 166.03 496.709 165.555 495.105C165.043 493.321 166.239 491.755 167.985 491.375Z" fill="#B4CCB4"/>
<path d="M90.3134 113.985C82.4647 104.769 67.8017 113.795 60.4559 119.318C51.3165 126.19 44.208 135.538 40.5066 146.338C39.8233 141.327 38.0011 132.719 32.8382 137.322C27.1818 142.362 28.9186 154.149 31.7468 160.052C31.6993 160.052 31.6519 160.052 31.6044 160.052C31.3102 159.786 30.8642 159.71 30.494 160.081C30.4845 160.09 30.4845 160.1 30.475 160.1C29.7632 160.204 29.3741 160.745 29.3172 161.343C24.4675 166.629 21.3925 173.121 18.1277 179.498C14.3125 186.949 10.7345 194.522 7.37486 202.19C0.769382 217.233 -4.94397 232.646 -9.8791 248.315C-10.1638 249.217 -9.40457 250.052 -8.53143 250.09C-3.82408 250.26 -1.76461 246.493 0.940214 243.029C4.18601 238.872 7.34639 234.658 10.4119 230.368C17.9 219.89 24.8186 209.005 31.1489 197.787C34.1005 192.548 36.9192 187.243 39.605 181.862C41.5506 177.97 44.5876 173.178 44.3314 168.613C44.3029 168.157 44.2459 167.73 44.17 167.322C49.9403 170.226 58.5958 170.444 62.9709 165.898C64.6128 164.19 65.3721 161.741 63.901 159.672C62.9425 158.325 61.424 157.774 59.8106 157.603C69.7283 154.937 78.7159 149.299 85.3593 141.327C91.31 134.162 97.5073 122.422 90.3134 113.985ZM40.1555 174.022C39.3772 177.667 36.549 181.691 34.8312 185.022C31.0824 192.263 27.0869 199.381 22.8636 206.357C18.8585 212.962 14.6352 219.444 10.2126 225.775C8.00124 228.945 5.74247 232.076 3.42676 235.17C1.43373 237.837 -2.41947 244.841 -6.434 246.758C-3.83357 238.625 -1.00536 230.577 2.03164 222.595C2.22145 223.421 2.48719 224.218 2.8763 224.949C3.25593 225.661 4.35684 225.167 4.15754 224.408C3.77791 222.984 3.21796 221.665 2.96172 220.213C5.12558 214.623 7.36537 209.062 9.757 203.557C10.0133 202.969 10.2885 202.39 10.5447 201.801C10.7061 202.807 11.0098 203.823 11.8449 204.383C12.2625 204.668 12.9838 204.402 13.0787 203.88C13.278 202.76 12.6232 201.716 12.4144 200.615C12.2625 199.827 12.3385 198.964 12.1771 198.176C14.4549 193.146 16.7896 188.135 19.2286 183.181C19.4185 182.801 19.6083 182.403 19.7981 182.013C20.1398 183.902 20.7661 185.772 21.962 186.939C22.6168 187.584 23.5943 186.92 23.433 186.085C23.1862 184.842 22.389 183.712 21.9809 182.507C21.6108 181.425 21.3545 180.305 21.1742 179.176C23.8885 173.529 26.6978 167.702 30.4845 162.785C30.5415 162.785 30.5794 162.814 30.6364 162.814C32.3067 162.795 34.2144 162.558 35.8088 163.127C39.2064 164.351 40.8673 170.691 40.1555 174.022ZM78.9152 143.984C71.4935 150.742 62.5723 154.557 52.7495 156.18C51.2215 156.436 51.5632 159.113 53.1197 158.913C53.7745 158.828 54.4294 158.723 55.0747 158.619C55.1222 158.98 55.3879 159.312 55.8055 159.293C57.846 159.217 64.907 158.97 60.5508 164.598C59.4594 166.003 55.7486 166.401 54.1542 166.525C49.7505 166.857 46.3149 165.262 42.4807 163.374C42.3763 163.326 42.2719 163.307 42.1675 163.288C40.0701 161.096 36.7009 160.28 33.3032 160.1C33.4551 159.9 33.531 159.644 33.4266 159.359C31.6614 154.215 30.978 148.958 32.4396 143.643C32.6674 142.798 33.085 140.577 33.7683 140.093L36.7483 140.217C36.8433 140.587 36.9287 140.966 37.0236 141.337C38.1814 143.083 38.115 147.116 38.6939 149.233C38.9692 150.22 40.4877 150.22 40.7819 149.375C40.9717 149.299 41.1425 149.166 41.2374 148.939C44.8344 140.369 49.6841 132.529 56.4509 126.095C62.7147 120.144 79.3233 107.246 87.7794 115.218C96.6342 123.561 85.3403 138.148 78.9152 143.984Z" fill="#B4CCB4"/>
<path d="M129.14 137.616C129.216 136.999 129.311 136.383 129.444 135.775C130.193 132.14 132.016 129.094 133.449 125.734C133.876 124.728 132.68 123.504 131.797 124.462C130.08 126.313 128.827 128.6 127.982 131.087C124.423 124.14 116.404 118.597 108.773 121.795C108.033 122.109 107.568 122.868 108.023 123.646C111.943 130.47 118.624 135.301 126.54 136.088C126.663 136.098 126.758 136.069 126.843 136.031C126.739 136.819 126.682 137.616 126.635 138.404C113.158 133.811 99.0358 142.058 96.8719 156.322C94.8409 169.685 105.461 181.643 118.558 183.057C131.494 184.453 144.059 174.839 147.191 162.415C150.2 150.381 142.712 136.307 129.14 137.616ZM126.701 134.779C126.236 134.655 125.799 134.513 125.344 134.371C124.262 132.928 122.648 131.799 121.291 130.631C119.64 129.208 117.998 127.794 116.328 126.398C115.834 125.99 115.132 126.655 115.616 127.11C117.172 128.619 118.748 130.1 120.333 131.59C120.826 132.055 121.32 132.558 121.823 133.061C117.391 131.058 113.68 127.983 111.022 123.732C114.667 122.906 118.273 124.045 121.177 126.588C123.825 128.894 125.144 131.95 127.014 134.75C127.005 134.817 126.986 134.883 126.976 134.95C126.91 134.874 126.824 134.807 126.701 134.779ZM143.044 165.424C138.792 175.104 128.03 181.919 117.324 180.02C107.236 178.227 98.9693 169.268 99.4439 158.79C100.08 144.877 113.509 137.018 126.312 139.913C126.416 139.932 126.502 139.932 126.587 139.923C126.578 142.314 126.815 144.677 127.327 146.803C127.584 147.876 129.453 147.676 129.301 146.538C129.026 144.507 128.884 142.476 128.931 140.445C142.807 139.353 147.903 154.377 143.044 165.424Z" fill="#B4CCB4"/>
<path d="M62.1453 302.289C61.8986 301.197 61.6518 300.115 61.3861 299.033C61.1204 297.923 61.0444 296.974 60.0574 296.281C59.4595 295.854 58.7477 296.215 58.406 296.746C43.762 298.265 29.8582 294.981 17.2832 287.341C10.5258 283.241 1.9558 272.925 -6.62373 277.224C-8.31306 276.047 -9.4899 274.453 -10.0119 272.441C-10.382 271.036 -10.363 269.556 -11.3026 268.36C-12.6882 266.595 -15.3266 266.386 -17.2342 267.382C-22.6344 270.21 -19.5595 277.224 -16.0194 280.517C-16.0764 280.622 -16.1144 280.745 -16.0954 280.897C-14.7667 296.348 2.87639 305.364 16.0778 309.264C29.3742 313.193 51.7151 315.803 61.5949 303.485C61.9935 303.304 62.2782 302.896 62.1453 302.289ZM17.8906 307.167C4.66062 303.475 -10.1448 295.598 -14.2162 281.571C-13.4475 281.457 -12.8116 280.508 -13.3051 279.758C-14.5009 277.926 -16.3706 276.522 -17.0634 274.377C-17.6803 272.479 -16.5414 267.857 -13.7417 269.745C-12.7262 270.429 -12.7547 271.995 -12.4035 273.086C-12.1378 273.893 -11.7392 274.671 -11.2741 275.383C-10.4485 276.617 -9.40448 277.613 -8.18968 278.401C-8.45542 279.179 -7.64872 280.09 -6.68067 279.654C1.20604 276.123 7.99183 284.598 13.914 288.442C18.2512 291.261 22.8542 293.633 27.6754 295.503C37.5077 299.318 47.9569 300.799 58.3016 298.521C58.4535 298.986 58.6813 299.442 58.8616 299.907C59.1273 300.58 59.3931 301.254 59.6683 301.928C50.2631 312.766 30.2379 310.612 17.8906 307.167Z" fill="#B4CCB4"/>
<path d="M40.9339 303.019C22.3892 303.579 5.72367 297.173 -6.90835 283.383C-7.24052 283.023 -7.73403 283.545 -7.43982 283.915C4.16721 297.904 22.7119 305.999 40.9339 303.93C41.5033 303.864 41.5318 303 40.9339 303.019Z" fill="#B4CCB4"/>
<path d="M23.2528 29.3093C18.7637 24.4406 12.3195 27.6295 6.90989 28.8253C-0.654137 30.4956 -5.76009 27.9806 -10.6003 21.9636C-12.8781 19.1259 -14.8806 16.6868 -18.3162 15.2063C-18.487 15.1303 -18.6484 15.1019 -18.8002 15.1019C-19.6828 10.6887 -23.8018 6.864 -28.4712 7.39547C-28.4806 7.37649 -28.4712 7.3575 -28.4807 7.33852C-28.9647 5.56378 -28.8793 3.83648 -27.7973 2.28951C-27.3608 1.66313 -27.5411 0.856425 -28.3288 0.62865C-30.7109 -0.0546751 -34.1466 -0.851887 -34.9438 2.22308C-35.6271 4.85198 -35.4563 7.94592 -34.3459 10.4609C-36.7375 12.3496 -38.0187 15.1968 -37.8384 18.2148C-47.2911 28.2179 -38.797 47.6167 -30.6255 55.7028C-20.1479 66.0665 -3.38744 68.6954 9.90893 62.4791C20.4151 57.5724 33.683 40.6316 23.2528 29.3093ZM-33.0836 11.3341C-33.0551 11.3056 -33.0456 11.2676 -33.0172 11.2392C-32.7704 11.1063 -32.5996 10.869 -32.647 10.5558C-32.9697 8.49638 -33.3304 6.54131 -33.0646 4.44389C-32.9412 3.42839 -32.9412 2.52678 -31.8214 2.33697C-31.3658 2.26104 -30.7584 2.31798 -30.1415 2.4034C-30.9482 4.13069 -31.157 6.09525 -30.4547 7.94592C-30.3313 8.27809 -30.1035 8.4774 -29.8473 8.57231C-29.8948 9.17022 -29.5151 9.77762 -28.6894 9.78711C-25.4057 9.78711 -22.4921 11.4859 -21.4386 14.409C-23.071 13.7637 -24.8363 13.5359 -26.4876 14.3426C-27.3892 14.7792 -28.0536 15.434 -28.5091 16.2123C-29.0311 15.2537 -29.4582 14.2477 -29.7904 13.1278C-30.0561 12.2262 -31.176 12.0554 -31.7929 12.6818C-33.0646 13.963 -34.3364 15.2537 -35.6176 16.5349C-35.4847 14.5799 -34.6021 12.881 -33.0836 11.3341ZM22.9396 33.6845C26.8971 41.837 20.6903 52.0014 14.398 56.7942C3.92984 64.7568 -11.3501 65.2598 -22.5965 58.6259C-33.7574 52.0489 -44.5008 32.9537 -37.1266 20.1319C-36.709 20.3881 -36.1586 20.3786 -35.7125 19.9326L-31.4133 15.6238C-30.7774 17.1898 -29.9422 18.6134 -28.8128 19.9895C-27.9966 20.9955 -26.2978 20.3786 -26.6679 18.993C-27.7878 14.8076 -21.8847 16.6868 -20.3757 17.6359C-19.8916 17.9396 -19.3412 17.7687 -18.9805 17.3986C-13.5519 20.0749 -11.8815 26.1395 -7.05082 29.5086C-3.96636 31.663 -0.369419 32.2135 3.31295 31.9572C9.6337 31.5206 18.8016 25.1334 22.9396 33.6845Z" fill="#B4CCB4"/>
<path d="M26.7359 97.7937C26.8972 97.1579 26.0715 96.7023 25.616 97.1673C24.8852 97.9171 24.1544 98.7902 22.9396 98.496C21.535 98.1544 21.1933 96.6454 21.5825 95.459C21.8197 94.7377 20.7947 94.2158 20.3012 94.7377C19.7887 95.4021 19.0864 95.6773 18.1943 95.5539C16.8846 94.7188 16.8371 93.8361 18.0709 92.906C18.6024 92.6973 18.4031 91.9 17.8242 92.0329C16.2108 92.4125 15.4515 94.3391 16.3057 95.7722C17.1029 97.1199 18.5929 97.2433 19.8836 96.7498C20.2253 100.185 25.7299 101.694 26.7359 97.7937Z" fill="#B4CCB4"/>
<path d="M24.4011 112.703C24.5814 112.096 23.7842 111.422 23.2432 111.84C22.6169 112.314 21.9715 113.007 21.0984 112.741C19.9215 112.39 19.931 111.004 20.5859 110.236C20.6333 110.16 20.6998 110.103 20.7472 110.027C21.2312 109.154 20.0449 108.243 19.3426 108.973C19.1718 109.154 19.0199 109.353 18.887 109.562C18.1563 110.207 16.8086 109.989 16.5334 108.907C16.2581 107.863 17.0459 106.857 17.9095 106.402C18.441 106.117 18.0614 105.196 17.4919 105.414C15.5938 106.155 14.3315 108.508 15.6033 110.359C16.2487 111.299 17.3211 111.678 18.3461 111.574C18.3651 112.485 18.7447 113.368 19.5324 113.985C21.0699 115.209 23.8127 114.696 24.4011 112.703Z" fill="#B4CCB4"/>
<path d="M17.0269 130.328C17.0933 130.29 17.1693 130.271 17.2262 130.214C34.2714 115.38 41.7974 91.3402 38.9503 69.2839C38.8459 68.4962 38.1151 68.0122 37.3653 68.4013C27.7228 73.4598 18.1468 81.2706 11.6837 90.7423C11.5129 90.5999 11.342 90.4386 11.1522 90.3152C10.7346 89.983 10.0608 89.8501 9.66218 90.3247C6.86245 93.6938 4.05322 97.044 1.28196 100.432C0.949788 100.84 0.854882 101.476 1.29145 101.865C2.51574 102.966 3.66411 104.162 4.94534 105.196C3.39837 111.109 3.20856 117.363 4.89789 123.798C5.05923 124.396 5.98931 124.263 5.97033 123.637C5.37242 107.73 10.5069 94.3297 20.1683 83.8805C23.2528 88.2747 29.8393 95.0605 35.695 92.3272C32.7149 105.832 25.7013 118.113 15.6318 128.648C15.5748 128.705 15.5559 128.762 15.5179 128.819C14.9485 128.961 14.455 129.483 14.6448 130.214C16.2771 136.639 15.6128 143.036 12.7941 148.929C9.26358 143.833 8.54229 138.366 8.43789 132.245C8.48535 132.197 8.54229 132.159 8.59923 132.102C9.65269 131.068 8.03929 129.492 6.96684 130.489C2.57268 134.589 -2.76105 136.8 -8.64523 136.924C-4.9344 131.552 -0.151125 128.724 5.3914 125.07C5.90389 124.728 5.55274 124.054 4.99279 124.13C-2.15365 125.203 -8.22765 131.542 -11.7392 137.474C-12.2137 138.271 -11.5399 139.125 -10.7142 139.182C-4.40292 139.6 1.69955 137.74 6.58722 133.877C5.51478 140.207 8.29553 147.117 12.1867 151.938C12.6612 152.526 13.6672 152.27 13.9899 151.682C17.6818 145.076 18.6973 137.673 17.0269 130.328ZM3.36041 101.106C5.72357 98.3158 8.06776 95.5066 10.4119 92.7068C8.28604 96.1329 6.58722 99.7584 5.42936 103.536C4.79349 102.691 4.08169 101.884 3.36041 101.106ZM20.9086 83.0928C25.3881 78.4329 30.7788 74.3804 37.0047 70.9828C37.6405 77.6547 37.2989 84.1273 36.122 90.3436C29.6399 92.1753 24.9611 87.5914 20.9086 83.0928Z" fill="#B4CCB4"/>
<path d="M31.348 79.1161C29.3739 78.2429 27.3144 80.4258 28.3774 82.3524C28.6716 82.8933 29.3834 82.4852 29.298 81.9538C29.1841 81.2609 30.1237 80.3973 30.8165 80.4827C31.5568 80.5586 32.1926 79.4862 31.348 79.1161Z" fill="#B4CCB4"/>
<path d="M124.622 244.87C126.71 236.755 128.836 229.068 127.289 220.678C127.052 219.407 125.723 219.378 124.954 220.052C124.983 219.397 124.935 218.714 124.765 218.002C128.134 221.779 134.398 219.482 134.568 214.301C134.749 208.957 129.918 206.803 125.543 207.61C127.507 202.684 128.001 196.259 122.05 194.123C119.118 193.07 115.749 194.807 114.705 197.407C113.319 195.462 111.952 193.136 109.627 193.288C106.239 193.516 104.597 198.575 103.79 201.953C100.687 199.751 96.7863 197.929 93.2463 200.084C90.7502 201.602 89.5354 204.487 90.5699 207.078C89.3551 207.458 88.1877 208.018 87.1248 208.758C85.2457 203.301 78.4599 202.029 74.8724 206.774C73.9233 203.092 70.1366 200.558 66.0461 201.317C59.3742 202.551 57.2768 209.071 57.7513 215.012C52.6643 212.773 46.2866 214.861 45.3186 221.172C45.1573 222.216 45.6603 224.351 46.4954 226.211C42.7941 225.443 38.6752 226.05 36.3215 229.286C34.5562 231.716 34.3285 234.924 35.7331 237.42C32.9998 238.018 30.3709 239.451 29.8868 242.469C29.5642 244.443 30.3804 246.54 32.0032 247.451C29.4028 249.919 28.1406 254.342 31.3579 256.866C33.6356 258.65 36.7296 258.128 38.4759 256.259C42.0064 261.896 51.0889 260.349 51.9241 252.994C52.1898 253.25 52.4935 253.459 52.7877 253.677C52.0475 253.487 51.2977 254.398 51.9525 255.091C64.3663 268.188 78.9439 275.743 95.0969 283.269C99.4152 285.281 103.62 287.549 106.96 291.032C109.807 293.993 111.573 297.714 114.211 300.836C117.571 304.803 122.914 308.362 128.286 306.303C142.598 300.817 127.697 282.453 124.916 274.879C121.253 264.886 122.031 254.977 124.622 244.87ZM93.9391 202.76C96.1219 201.469 98.1434 201.412 99.9846 202.589C101.475 203.206 102.68 204.146 103.961 205.104C104.559 205.55 105.622 205.095 105.745 204.373C106.305 201.203 107.814 194.105 111.962 197.113C112.958 197.834 113.613 198.897 114.448 199.799C114.534 200.311 114.714 200.833 115.008 201.346C115.578 202.361 116.849 201.678 116.821 200.71C116.916 200.587 116.982 200.435 117.001 200.283C119.507 195.879 121.747 195.31 123.74 198.613C124.461 199.713 124.698 200.9 124.451 202.181C124.489 204.838 123.436 206.898 122.079 209.147C121.433 210.22 122.705 211.425 123.768 210.836C126.15 209.498 129.681 209.1 131.465 211.88C133.619 215.231 129.064 220.052 125.799 216.37C125.268 215.772 124.584 216.132 124.357 216.692C124.224 216.37 124.081 216.037 123.901 215.705C123.199 214.395 121.272 215.544 121.927 216.863C125.287 223.687 115.644 228.404 112.284 221.513C111.8 220.526 110.102 220.982 110.178 222.083C110.491 226.363 106.476 228.242 103.42 226.686C104.825 224.636 104.673 221.637 102.111 219.53C104.047 217.043 104.123 213.057 101.797 210.163C99.5765 207.391 96.3877 206.319 93.2178 206.566L93.9391 202.76ZM113.186 245.98C107.719 252.7 102.224 241.206 98.5705 236.328C99.3582 235.835 100.042 235.114 100.545 234.108C101.475 232.247 101.332 230.283 100.355 228.783C100.953 228.641 101.484 228.394 101.959 228.09C105.508 230.805 110.567 229.229 112.019 225.101C113.082 226.173 114.334 226.79 115.635 227.046C115.587 227.132 115.521 227.198 115.483 227.303C113.49 233.016 117.153 241.112 113.186 245.98ZM50.8421 251.333C50.3581 251.399 49.9026 251.722 49.8646 252.339C49.3996 258.622 41.2471 259.182 39.7286 253.212C39.368 251.808 37.5553 252.292 37.3939 253.525C36.9763 256.771 32.0222 255.917 31.7185 252.605C31.5287 250.498 33.0567 248.78 34.5752 247.594C34.8409 247.394 34.8884 247.129 34.8125 246.882C34.8125 246.578 34.6701 246.293 34.3379 246.132C32.4778 245.287 31.5857 243.219 33.1421 241.311C34.1956 240.011 36.6157 239.707 38.1057 239.622C39.1212 239.565 39.8805 238.226 38.9978 237.458C36.3594 235.142 37.0902 231.061 39.8995 229.144C42.1867 227.578 45.0908 227.711 47.7007 228.271C48.8681 229.789 50.2822 230.311 51.5539 228.09C52.1329 227.065 50.6428 226.221 49.988 227.179C48.4695 226.762 47.7292 225.803 47.7482 224.332C47.2452 223.079 47.2357 221.808 47.7292 220.526C49.6179 216.227 54.4581 214.861 58.3777 217.898C59.2413 218.562 60.4656 217.973 60.2284 216.816C59.4312 212.915 59.4501 208.454 62.6105 205.484C66.7864 201.555 73.1926 203.719 73.1166 209.612C73.1072 210.666 74.8155 210.96 75.0053 209.868C75.0812 209.441 75.1002 209.024 75.1002 208.616C75.233 208.568 75.3564 208.492 75.4513 208.35C79.4469 203.737 82.7971 204.468 85.5019 210.542C85.6063 211.415 86.5459 211.89 87.2482 211.264C89.5639 209.195 92.4585 208.065 95.6474 208.758C96.4636 209.081 97.2893 209.394 98.1055 209.717C102.547 212.478 101.968 215.819 96.3971 219.748C95.0495 219.701 95.1159 221.665 96.3971 221.798C98.058 221.978 99.4531 221.627 100.573 220.944C99.6809 222.88 98.7983 224.826 97.9062 226.762C96.549 226.458 96.1314 228.28 97.3462 228.793C100.051 231.156 99.567 232.636 95.8941 233.244C94.0245 235.294 92.0979 235.455 90.1238 233.709C89.469 233.348 88.5769 233.794 88.5958 234.582C88.6813 238.426 86.1188 240.542 83.3665 240.618C83.0154 239.422 81.6202 239.432 80.9749 240.134C79.6842 239.574 78.5073 238.521 77.7576 236.898C77.4918 236.319 76.5997 236.585 76.5048 237.116C75.9638 236.632 74.9958 237.192 75.4608 237.875C78.8015 242.886 72.0157 245.145 68.8364 243.351C66.3878 241.966 65.4197 239.479 64.8408 236.85C64.689 236.167 63.5596 235.958 63.2559 236.641C61.7089 240.134 57.1534 242.459 53.547 240.2C49.8551 237.894 50.3296 233.026 52.2942 229.846C52.7308 229.134 51.7438 228.394 51.1553 228.964C47.6913 232.333 48.2607 238.53 52.1708 241.377C54.8851 243.351 58.1974 243.171 60.8548 241.662C60.9212 241.814 61.0161 241.956 61.1679 242.089C63.7873 244.452 64.5466 248.752 61.8892 251.447C59.2034 254.171 54.7333 253.478 52.2562 250.915C51.7722 250.403 50.975 250.783 50.8421 251.333ZM62.8763 240.362C62.8193 240.314 62.7624 240.305 62.7054 240.276C63.0376 239.963 63.3603 239.631 63.645 239.27C64.9642 243.37 68.3903 247.527 73.0882 246.18C76.1062 245.316 78.1467 242.184 77.5772 239.299C78.4693 240.571 79.6082 241.415 80.8515 241.909C81.6013 244.661 82.2087 247.442 82.4839 250.289C82.6357 251.855 82.7211 253.459 82.6927 255.034C82.6547 257.853 82.8825 258.29 80.0448 259.78C77.1312 261.308 76.6946 260.757 74.0182 259.267C72.9648 258.679 71.9493 258.024 70.9528 257.341C68.5991 255.727 66.5491 253.876 64.5276 251.893C66.8623 248.372 66.2644 243.038 62.8763 240.362ZM131.152 296.812C129.178 299.128 127.194 301.453 125.22 303.769C122.867 303.674 120.873 302.867 119.241 301.349C114.059 297.448 111.734 290.757 106.647 286.6C101.826 282.662 95.9321 280.422 90.2852 277.964C76.6756 272.051 64.5086 263.918 53.4236 254.066C56.3562 255.784 60.3138 255.727 63.0281 253.497C66.9287 257.948 76.7326 267.315 82.6073 263.282C85.0274 261.621 85.3406 258.508 85.4355 255.813C85.5873 251.267 84.9894 246.759 83.86 242.374C86.9635 242.184 89.9151 239.963 90.513 236.138C92.3731 236.936 94.556 237.41 96.4826 237.088C100.26 242.374 104.028 254.266 112.645 250.261C120.987 246.388 116.147 234.667 118.349 228.081C118.482 227.692 118.425 227.369 118.302 227.084C121.025 226.657 123.531 224.807 124.527 222.197C126.454 236.641 117.855 250.09 119.412 264.705C120.038 270.608 121.766 276.312 124.527 281.561C126.036 284.427 128.01 287.056 129.406 289.988C130.203 291.735 131.626 294.819 131.152 296.812Z" fill="#B4CCB4"/>
<path d="M222.744 233.545C222.673 233.516 222.616 233.502 222.544 233.473C222.759 229.17 218.141 225.081 214.796 223.008C210.636 220.421 205.761 219.592 201 220.492C201.372 219.72 201.772 218.963 202.229 218.205C203.702 215.76 207.448 213.344 207.791 210.513C208.291 206.411 202.487 204.309 199.442 204.924C193.981 206.01 190.693 212.286 188.92 217.018C188.52 218.09 188.234 219.148 188.005 220.206C187.848 220.149 187.69 220.078 187.505 220.078C177.783 219.434 168.391 224.138 163.115 232.215C160.942 232.587 158.798 233.287 156.739 234.417C146.718 239.978 144.373 250.857 146.689 261.35C148.691 270.428 152.336 279.421 155.238 288.241C157.497 295.104 158.969 303.167 162.586 309.514C166.032 315.561 174.138 319.15 178.469 311.93C178.87 311.258 177.94 310.529 177.383 311.087C167.976 320.593 161.686 294.932 160.413 290.986C158.155 283.967 155.882 276.948 153.651 269.914C150.864 261.15 147.347 251.257 153.551 243.023C160.356 233.988 170.95 235.26 178.827 241.436C177.84 242.079 176.868 242.766 175.982 243.552C170.921 244.81 170.249 250.114 169.734 255.132C168.419 267.941 169.306 280.979 172.293 293.517C174.524 302.881 183.573 330.315 196.468 313.202C196.668 312.931 196.84 312.616 197.026 312.33C197.712 319.578 206.547 318.892 210.836 313.974C216.726 307.198 220.057 296.404 223.702 288.299C227.162 280.579 231.022 272.644 233.038 264.396C235.682 253.559 234.296 238.877 222.744 233.545ZM200.714 223.48C205.003 222.865 209.263 223.88 212.894 226.254C214.653 227.397 216.268 228.884 217.483 230.6C217.869 231.157 218.17 231.715 218.484 232.272C215.167 231.758 211.865 232.329 209.02 233.816C208.963 233.716 208.934 233.602 208.849 233.502C206.004 230.128 202.372 228.555 198.269 228.598C198.641 226.782 199.142 225.024 199.771 223.309C200.042 223.451 200.357 223.537 200.714 223.48ZM189.206 233.402C189.906 233.144 190.478 232.544 190.45 231.758C190.307 226.454 190.807 221.364 193.08 216.504C193.966 214.616 195.31 211.986 196.854 210.614C199.57 207.64 201.486 207.297 202.573 209.584C203.616 210.456 203.416 211.257 201.972 211.986C200.628 214.96 198.098 217.419 196.754 220.521C195.41 223.637 194.581 226.825 194.081 230.171C193.852 231.672 194.896 232.787 196.425 232.515C200.271 231.829 203.387 233.13 205.889 235.932C204.431 237.233 203.202 238.848 202.315 240.707C196.654 236.976 189.177 236.69 182.658 239.377C181.929 238.52 181.128 237.748 180.299 237.018C183.259 235.775 186.204 234.517 189.206 233.402ZM178.212 235.446C174.91 233.244 171.064 232.015 167.133 231.9C172.422 226.511 179.499 223.68 187.304 223.995C187.133 225.196 186.99 226.396 186.804 227.626C186.347 230.685 186.489 230.628 184.174 232.315C182.458 233.573 180.242 234.502 178.212 235.446ZM195.067 306.755C194.481 309.514 192.508 310.829 189.163 310.686C185.389 313.903 182.901 313.26 181.686 308.742C178.812 303.31 177.254 296.462 175.953 290.515C174.852 285.554 168.534 249.099 177.697 247.312C178.812 247.097 179.241 246.011 179.098 245.024C180.013 244.481 180.971 243.995 181.929 243.566C182.572 243.595 183.201 243.323 183.616 242.88C187.404 241.493 191.45 241.107 195.582 242.279C205.203 245.039 207.219 253.788 206.676 262.623C205.932 274.86 201.415 287.641 197.726 299.249C196.997 301.551 196.468 304.768 195.067 306.755ZM224.403 275.618C221.715 282.123 218.827 288.556 215.839 294.932C214.467 297.877 213.066 300.808 211.622 303.71L209.892 307.198C208.491 311.344 205.046 312.559 199.542 310.815C199.485 310.229 199.142 309.843 198.727 309.686C203.53 301.065 205.26 289.399 207.49 280.321C209.849 270.743 213.166 259.12 209.32 249.47C208.391 247.14 207.147 245.196 205.675 243.58C210.707 228.641 227.09 239.406 229.421 249.256C231.551 258.234 227.777 267.469 224.403 275.618Z" fill="#B4CCB4"/>
</svg>
