<svg width="36" height="36" viewBox="0 0 36 36" fill="none" xmlns="http://www.w3.org/2000/svg">
<g id="package" clip-path="url(#clip0_2336_5588)">
<g id="Group">
<path id="Vector" d="M34.5564 8.48713C34.5564 8.35036 34.526 8.21359 34.4652 8.08442C34.3436 7.82609 34.1081 7.65133 33.8497 7.59814L18.3723 0.0911777C18.1216 -0.0303926 17.8253 -0.0303926 17.5745 0.0911777L1.94514 7.66653C1.64121 7.81089 1.44366 8.11482 1.42847 8.45673V8.46433C1.42847 8.47193 1.42847 8.47953 1.42847 8.49472V27.5053C1.42847 27.8548 1.62602 28.1739 1.94514 28.3259L17.5745 35.9012C17.5821 35.9012 17.5821 35.9012 17.5897 35.9088C17.6125 35.9164 17.6353 35.924 17.6581 35.9392C17.6657 35.9392 17.6733 35.9468 17.6885 35.9468C17.7113 35.9544 17.7341 35.962 17.7569 35.9696C17.7645 35.9696 17.7721 35.9772 17.7797 35.9772C17.8025 35.9848 17.8329 35.9848 17.8557 35.9924C17.8633 35.9924 17.8708 35.9924 17.8784 35.9924C17.9088 35.9924 17.9468 36 17.9772 36C18.0076 36 18.0456 36 18.076 35.9924C18.0836 35.9924 18.0912 35.9924 18.0988 35.9924C18.1216 35.9924 18.152 35.9848 18.1748 35.9772C18.1824 35.9772 18.19 35.9696 18.1976 35.9696C18.2204 35.962 18.2432 35.9544 18.266 35.9468C18.2736 35.9468 18.2811 35.9392 18.2963 35.9392C18.3191 35.9316 18.3419 35.924 18.3647 35.9088C18.3723 35.9088 18.3723 35.9088 18.3799 35.9012L34.0549 28.3031C34.3664 28.1511 34.5716 27.832 34.5716 27.4825V8.50992C34.5564 8.50232 34.5564 8.49472 34.5564 8.48713ZM17.9696 1.92233L31.5247 8.49472L26.5327 10.9185L12.9776 4.34614L17.9696 1.92233ZM17.9696 15.0671L4.41454 8.49472L10.8882 5.35669L24.4432 11.9291L17.9696 15.0671ZM3.25202 9.96117L17.0578 16.6551V33.6218L3.25202 26.9278V9.96117ZM18.8814 33.6218V16.6551L25.3626 13.5095V17.9468C25.3626 18.4483 25.7729 18.8586 26.2744 18.8586C26.7759 18.8586 27.1862 18.4483 27.1862 17.9468V12.6205L32.7328 9.93077V26.8974L18.8814 33.6218Z" fill="#1890FF"/>
</g>
</g>
<defs>
<clipPath id="clip0_2336_5588">
<rect width="36" height="36" fill="white"/>
</clipPath>
</defs>
</svg>
