<svg width="40" height="41" viewBox="0 0 40 41" fill="none" xmlns="http://www.w3.org/2000/svg">
<g clip-path="url(#clip0_2446_623)">
<path d="M20.2447 11.5C15.3114 11.5 12.6877 14.6614 12.6877 18.1085C12.6877 19.7072 13.581 21.7008 15.011 22.3331C15.2281 22.431 15.3462 22.3894 15.3946 22.188C15.4374 22.035 15.6253 21.2981 15.7164 20.9504C15.7445 20.839 15.7299 20.7423 15.6399 20.6377C15.1651 20.0886 14.7882 19.0885 14.7882 18.1502C14.7882 15.7459 16.6997 13.4115 19.9522 13.4115C22.7648 13.4115 24.7325 15.2385 24.7325 17.852C24.7325 20.8053 23.1698 22.8484 21.1391 22.8484C20.0152 22.8484 19.1782 21.9663 19.4437 20.875C19.7643 19.5756 20.3932 18.1783 20.3932 17.2411C20.3932 16.4007 19.9184 15.7054 18.9486 15.7054C17.8045 15.7054 16.8763 16.8384 16.8763 18.3594C16.8763 19.3259 17.2183 19.9784 17.2183 19.9784C17.2183 19.9784 16.0865 24.5506 15.8761 25.4045C15.5206 26.8502 15.9245 29.1914 15.9594 29.3928C15.9808 29.5042 16.1056 29.5391 16.1754 29.4479C16.2868 29.3017 17.6548 27.3497 18.0385 25.9389C18.178 25.4248 18.7506 23.34 18.7506 23.34C19.1275 24.0207 20.2155 24.5911 21.3743 24.5911C24.8214 24.5911 27.3123 21.5613 27.3123 17.8014C27.2999 14.1967 24.215 11.5 20.2447 11.5Z" fill="#B3B3B3"/>
</g>
<defs>
<clipPath id="clip0_2446_623">
<rect width="18" height="18" fill="white" transform="translate(11 11.5)"/>
</clipPath>
</defs>
</svg>
