<svg width="80" height="41" viewBox="0 0 80 41" fill="none" xmlns="http://www.w3.org/2000/svg">
<path id="Vector" d="M40 0.5C17.9088 0.5 0 9.4545 0 20.5C0 31.5457 17.9088 40.5 40 40.5C62.0912 40.5 80 31.5455 80 20.5C80 9.45434 62.0912 0.5 40 0.5ZM40 37.3426C19.6525 37.3426 3.15758 29.802 3.15758 20.5C3.15758 11.1981 19.6526 3.65743 40 3.65743C60.3475 3.65743 76.8424 11.1981 76.8424 20.5C76.8424 29.802 60.3474 37.3426 40 37.3426ZM34.9555 16.9912V13.8332H46.24V16.9912H42.1774V27.1668H39.0187V16.9912H34.9555ZM59.8611 13.8332V27.167H56.7037L50.9768 19.2295V27.167H47.8192V13.8332H50.9766L56.7035 21.7707V13.8332H59.8611ZM20.0448 27.167V13.8332H23.2024L26.7105 19.2295L30.2186 13.8332H33.3749V27.167H30.2186V19.6251L27.8236 23.3064H25.5974L23.2024 19.6251V27.167H20.0448Z" fill="#1890FF"/>
</svg>
