<svg width="33" height="15" viewBox="0 0 33 15" fill="none" xmlns="http://www.w3.org/2000/svg">
<path fill-rule="evenodd" clip-rule="evenodd" d="M6.50578 2.04236C6.12807 2.5081 5.52373 2.87545 4.9194 2.82298C4.84385 2.19323 5.13973 1.52413 5.48596 1.11086C5.86367 0.631998 6.52467 0.290888 7.05976 0.264648C7.12271 0.92063 6.8772 1.56349 6.50578 2.04236ZM7.05348 2.94759C6.52106 2.91566 6.03526 3.11444 5.64287 3.275C5.39035 3.37832 5.17652 3.46582 5.01383 3.46582C4.83127 3.46582 4.60861 3.37364 4.35861 3.27015C4.03103 3.13454 3.65651 2.97951 3.26377 2.98695C2.36356 3.00007 1.5263 3.53141 1.06675 4.37763C0.12247 6.07006 0.821236 8.5759 1.73404 9.95346C2.181 10.6357 2.71609 11.3835 3.42115 11.3573C3.73133 11.3451 3.95446 11.2464 4.18538 11.1443C4.45123 11.0268 4.7274 10.9046 5.15862 10.9046C5.5749 10.9046 5.83899 11.0236 6.0925 11.1377C6.33355 11.2463 6.56504 11.3505 6.90869 11.3441C7.63893 11.331 8.09848 10.6619 8.54544 9.9797C9.02778 9.2475 9.23974 8.5329 9.27191 8.42445L9.27568 8.41191C9.27491 8.41111 9.26895 8.40826 9.25844 8.40325C9.0972 8.32633 7.86479 7.73842 7.85297 6.1619C7.8411 4.83863 8.83048 4.16819 8.98623 4.06265C8.9957 4.05623 9.0021 4.0519 9.00498 4.04964C8.37547 3.07879 7.39342 2.97383 7.05348 2.94759ZM12.1086 11.272V1.04524H15.7913C17.6924 1.04524 19.0207 2.40968 19.0207 4.40386C19.0207 6.39805 17.6672 7.7756 15.7409 7.7756H13.632V11.272H12.1086ZM13.6319 2.38347H15.3883C16.7103 2.38347 17.4657 3.11817 17.4657 4.41045C17.4657 5.70274 16.7103 6.44399 15.382 6.44399H13.6319V2.38347ZM24.0506 10.0454C23.6477 10.8457 22.7601 11.3508 21.8032 11.3508C20.3868 11.3508 19.3985 10.4717 19.3985 9.14666C19.3985 7.8347 20.3553 7.08032 22.1243 6.96881L24.0254 6.85073V6.28659C24.0254 5.45349 23.5029 5.00087 22.5713 5.00087C21.8032 5.00087 21.243 5.41413 21.1297 6.04388H19.7573C19.8014 4.71879 20.9975 3.7545 22.6153 3.7545C24.3591 3.7545 25.4922 4.70568 25.4922 6.18163V11.272H24.0821V10.0454H24.0506ZM22.2123 10.1372C21.4003 10.1372 20.8841 9.73044 20.8841 9.10726C20.8841 8.4644 21.3814 8.09049 22.3319 8.03145L24.0254 7.91994V8.4972C24.0254 9.45493 23.2448 10.1372 22.2123 10.1372ZM30.1696 11.6722C29.5589 13.463 28.8602 14.0534 27.3745 14.0534C27.2612 14.0534 26.8835 14.0403 26.7953 14.014V12.7874C26.8898 12.8005 27.1227 12.8136 27.2423 12.8136C27.9159 12.8136 28.2936 12.5184 28.5265 11.7509L28.665 11.2983L26.084 3.8529H27.6767L29.4708 9.89448H29.5023L31.2964 3.8529H32.845L30.1696 11.6722Z" fill="white"/>
</svg>
