<svg width="39" height="8" viewBox="0 0 39 8" fill="none" xmlns="http://www.w3.org/2000/svg">
<path fill-rule="evenodd" clip-rule="evenodd" d="M35.9035 1.05844C37.287 1.05844 38.0479 1.69843 38.0479 2.90728C38.117 3.8317 37.4945 4.6139 36.6644 4.75612L38.5321 7.38716H37.0794L35.4884 4.82723H35.3501V7.38716H34.1741V1.05844H35.9035ZM35.3501 3.97394H35.696C36.4569 3.97394 36.8028 3.61839 36.8028 2.97841C36.8028 2.40954 36.4569 2.05399 35.696 2.05399H35.3501V3.97394ZM30.0929 7.38716H33.4132V6.32052H31.2688V4.6139H33.344V3.54726H31.2688V2.12508H33.4132V1.05844H30.0929V7.38716ZM26.6342 5.32499L25.0432 1.05844H23.798L26.3575 7.52938H26.98L29.5395 1.05844H28.2943L26.6342 5.32499ZM12.592 4.25837C12.592 6.0361 13.9755 7.52939 15.7048 7.52939C16.2582 7.52939 16.7424 7.38717 17.2266 7.17385V5.75166C16.8808 6.17832 16.3965 6.46275 15.8431 6.46275C14.7364 6.46275 13.8371 5.60944 13.8371 4.4717V4.32948C13.7679 3.19173 14.6672 2.1962 15.774 2.12509C16.3274 2.12509 16.8808 2.40953 17.2266 2.83618V1.414C16.8116 1.12956 16.2582 1.05846 15.774 1.05846C13.9755 0.916237 12.592 2.40953 12.592 4.25837ZM10.4476 3.47617C9.75583 3.19173 9.54831 3.04951 9.54831 2.69397C9.61749 2.26731 9.96336 1.91176 10.3784 1.98287C10.7243 1.98287 11.0701 2.1962 11.3468 2.48064L11.9694 1.62733C11.4852 1.20067 10.8626 0.916235 10.2401 0.916235C9.27162 0.845126 8.44153 1.62733 8.37236 2.62286V2.69397C8.37236 3.54728 8.71823 4.04504 9.82501 4.40059C10.1017 4.4717 10.3784 4.61391 10.6551 4.75613C10.8626 4.89835 11.001 5.11168 11.001 5.39611C11.001 5.89388 10.5859 6.32053 10.1709 6.32053H10.1017C9.54831 6.32053 9.06409 5.96499 8.85657 5.46722L8.09566 6.24943C8.5107 7.03163 9.34079 7.45828 10.1709 7.45828C11.2777 7.52939 12.1769 6.67608 12.2461 5.53833V5.32501C12.1769 4.4717 11.831 4.04504 10.4476 3.47617ZM6.43543 7.38716H7.61139V1.05844H6.43543V7.38716ZM0.970703 1.05844H2.70005H3.04592C4.70609 1.12955 6.0204 2.55174 5.95122 4.25836C5.95122 5.18278 5.53618 6.03609 4.84444 6.67607C4.22188 7.17384 3.46096 7.45827 2.70005 7.38716H0.970703V1.05844ZM2.4926 6.32049C3.04599 6.3916 3.66856 6.17828 4.0836 5.82273C4.49864 5.39607 4.70617 4.8272 4.70617 4.18722C4.70617 3.61834 4.49864 3.04947 4.0836 2.62282C3.66856 2.26727 3.04599 2.05394 2.4926 2.12505H2.14673V6.32049H2.4926Z" fill="white"/>
</svg>
