<svg width="40" height="40" viewBox="0 0 40 40" fill="none" xmlns="http://www.w3.org/2000/svg">
<g clip-path="url(#clip0_2350_4413)">
<path d="M29 14.4192C28.3306 14.7129 27.6174 14.9075 26.8737 15.002C27.6388 14.5452 28.2226 13.8275 28.4971 12.9624C27.7839 13.3876 26.9964 13.688 26.1571 13.8556C25.4799 13.1345 24.5146 12.6879 23.4616 12.6879C21.4186 12.6879 19.7739 14.3461 19.7739 16.379C19.7739 16.6715 19.7986 16.9527 19.8594 17.2205C16.7915 17.0709 14.0769 15.6005 12.2533 13.3606C11.9349 13.913 11.7481 14.5452 11.7481 15.2259C11.7481 16.5039 12.4062 17.6367 13.3872 18.2926C12.7944 18.2814 12.2127 18.1092 11.72 17.8381C11.72 17.8494 11.72 17.864 11.72 17.8786C11.72 19.6719 12.9991 21.1614 14.6765 21.5045C14.3761 21.5866 14.0487 21.626 13.709 21.626C13.4727 21.626 13.2342 21.6125 13.0104 21.563C13.4885 23.0244 14.8453 24.0987 16.4585 24.1336C15.203 25.1157 13.6089 25.7075 11.8831 25.7075C11.5805 25.7075 11.2902 25.694 11 25.6569C12.6346 26.711 14.5719 27.3129 16.661 27.3129C23.4515 27.3129 27.164 21.6879 27.164 16.8121C27.164 16.649 27.1584 16.4915 27.1505 16.3351C27.8829 15.8154 28.4982 15.1662 29 14.4192Z" fill="#4D4D4D"/>
</g>
<defs>
<clipPath id="clip0_2350_4413">
<rect width="18" height="18" fill="white" transform="translate(11 11.0004)"/>
</clipPath>
</defs>
</svg>
