<svg width="40" height="40" viewBox="0 0 40 40" fill="none" xmlns="http://www.w3.org/2000/svg">
<g clip-path="url(#clip0_2350_4414)">
<path d="M20.2445 11.0004C15.3111 11.0004 12.6875 14.1618 12.6875 17.6089C12.6875 19.2076 13.5808 21.2012 15.0107 21.8335C15.2279 21.9314 15.346 21.8897 15.3944 21.6883C15.4371 21.5353 15.625 20.7984 15.7161 20.4508C15.7443 20.3394 15.7296 20.2427 15.6396 20.138C15.1649 19.589 14.788 18.5888 14.788 17.6505C14.788 15.2463 16.6994 12.9118 19.952 12.9118C22.7646 12.9118 24.7323 14.7389 24.7323 17.3524C24.7323 20.3057 23.1696 22.3488 21.1389 22.3488C20.015 22.3488 19.1779 21.4667 19.4434 20.3754C19.7641 19.076 20.393 17.6787 20.393 16.7415C20.393 15.9011 19.9182 15.2058 18.9484 15.2058C17.8042 15.2058 16.8761 16.3387 16.8761 17.8598C16.8761 18.8262 17.2181 19.4787 17.2181 19.4787C17.2181 19.4787 16.0863 24.051 15.8759 24.9049C15.5204 26.3506 15.9243 28.6918 15.9591 28.8932C15.9805 29.0046 16.1054 29.0394 16.1752 28.9483C16.2865 28.802 17.6546 26.8501 18.0382 25.4393C18.1777 24.9251 18.7504 22.8404 18.7504 22.8404C19.1273 23.5211 20.2152 24.0915 21.374 24.0915C24.8212 24.0915 27.312 21.0617 27.312 17.3018C27.2997 13.6971 24.2148 11.0004 20.2445 11.0004Z" fill="#4D4D4D"/>
</g>
<defs>
<clipPath id="clip0_2350_4414">
<rect width="18" height="18" fill="white" transform="translate(11 11.0004)"/>
</clipPath>
</defs>
</svg>
