<svg width="40" height="40" viewBox="0 0 40 40" fill="none" xmlns="http://www.w3.org/2000/svg">
<g clip-path="url(#clip0_2350_4415)">
<path d="M28.982 16.2924C28.9398 15.336 28.7852 14.6785 28.5636 14.1087C28.335 13.504 27.9834 12.9625 27.5227 12.5124C27.0726 12.0553 26.5276 11.7001 25.9298 11.4751C25.3568 11.2535 24.7027 11.0989 23.7463 11.0567C22.7827 11.0109 22.4768 11.0004 20.033 11.0004C17.5892 11.0004 17.2833 11.0109 16.3233 11.0531C15.3669 11.0953 14.7094 11.2501 14.1397 11.4715C13.5348 11.7001 12.9934 12.0517 12.5433 12.5124C12.0861 12.9625 11.7311 13.5075 11.506 14.1053C11.2844 14.6785 11.1297 15.3324 11.0876 16.2888C11.0418 17.2524 11.0312 17.5583 11.0312 20.0021C11.0312 22.446 11.0418 22.7519 11.084 23.7118C11.1262 24.6682 11.281 25.3258 11.5025 25.8955C11.7311 26.5003 12.0861 27.0418 12.5433 27.4919C12.9934 27.949 13.5384 28.3042 14.1362 28.5292C14.7094 28.7507 15.3633 28.9054 16.3199 28.9476C17.2797 28.9899 17.5857 29.0003 20.0296 29.0003C22.4734 29.0003 22.7793 28.9899 23.7393 28.9476C24.6957 28.9054 25.3532 28.7507 25.9228 28.5292C27.1325 28.0615 28.0889 27.1051 28.5566 25.8955C28.778 25.3223 28.9328 24.6682 28.975 23.7118C29.0172 22.7519 29.0277 22.446 29.0277 20.0021C29.0277 17.5583 29.0242 17.2524 28.982 16.2924ZM27.3611 23.6415C27.3223 24.5206 27.1747 24.9953 27.0516 25.3118C26.7491 26.0959 26.1268 26.7183 25.3426 27.0207C25.0261 27.1438 24.548 27.2915 23.6724 27.3301C22.723 27.3724 22.4382 27.3828 20.0366 27.3828C17.6349 27.3828 17.3466 27.3724 16.4006 27.3301C15.5215 27.2915 15.0468 27.1438 14.7304 27.0207C14.3401 26.8765 13.9849 26.648 13.6966 26.3491C13.3978 26.0572 13.1692 25.7056 13.025 25.3153C12.9019 24.9989 12.7542 24.5206 12.7156 23.6451C12.6733 22.6957 12.6629 22.4108 12.6629 20.0091C12.6629 17.6075 12.6733 17.3192 12.7156 16.3733C12.7542 15.4942 12.9019 15.0195 13.025 14.7031C13.1692 14.3127 13.3978 13.9576 13.7002 13.6692C13.992 13.3703 14.3436 13.1417 14.7339 12.9977C15.0504 12.8746 15.5287 12.7269 16.4042 12.6882C17.3536 12.646 17.6385 12.6355 20.04 12.6355C22.4452 12.6355 22.73 12.646 23.6759 12.6882C24.555 12.7269 25.0297 12.8746 25.3462 12.9977C25.7364 13.1417 26.0916 13.3703 26.3799 13.6692C26.6788 13.9611 26.9074 14.3127 27.0516 14.7031C27.1747 15.0195 27.3223 15.4977 27.3611 16.3733C27.4032 17.3227 27.4138 17.6075 27.4138 20.0091C27.4138 22.4108 27.4032 22.6921 27.3611 23.6415Z" fill="#4D4D4D"/>
<path d="M20.0331 15.3782C17.4804 15.3782 15.4092 17.4492 15.4092 20.0021C15.4092 22.555 17.4804 24.6261 20.0331 24.6261C22.586 24.6261 24.6571 22.555 24.6571 20.0021C24.6571 17.4492 22.586 15.3782 20.0331 15.3782ZM20.0331 23.0016C18.377 23.0016 17.0337 21.6584 17.0337 20.0021C17.0337 18.3459 18.377 17.0027 20.0331 17.0027C21.6894 17.0027 23.0326 18.3459 23.0326 20.0021C23.0326 21.6584 21.6894 23.0016 20.0331 23.0016Z" fill="#4D4D4D"/>
<path d="M25.9199 15.1953C25.9199 15.7915 25.4365 16.2748 24.8402 16.2748C24.2441 16.2748 23.7607 15.7915 23.7607 15.1953C23.7607 14.5991 24.2441 14.1158 24.8402 14.1158C25.4365 14.1158 25.9199 14.5991 25.9199 15.1953Z" fill="#4D4D4D"/>
</g>
<defs>
<clipPath id="clip0_2350_4415">
<rect width="18" height="18" fill="white" transform="translate(11 11.0004)"/>
</clipPath>
</defs>
</svg>
