<svg width="32" height="12" viewBox="0 0 32 12" fill="none" xmlns="http://www.w3.org/2000/svg">
<path fill-rule="evenodd" clip-rule="evenodd" d="M8.22787 10.9888H5.50174L3.45748 2.96045C3.36045 2.59114 3.15443 2.26466 2.85138 2.11078C2.09508 1.72408 1.26169 1.41633 0.352539 1.26111V0.952021H4.74412C5.35022 0.952021 5.80479 1.41633 5.88056 1.95557L6.94123 7.74669L9.66603 0.952021H12.3164L8.22787 10.9888ZM13.8317 10.9888H11.2571L13.3771 0.952021H15.9517L13.8317 10.9888ZM19.2825 3.73255C19.3583 3.19198 19.8128 2.88289 20.3432 2.88289C21.1766 2.80528 22.0844 2.96049 22.842 3.34586L23.2966 1.18489C22.539 0.875796 21.7056 0.720581 20.9493 0.720581C18.4504 0.720581 16.6321 2.11083 16.6321 4.04031C16.6321 5.50816 17.9201 6.27888 18.8293 6.74319C19.8128 7.20616 20.1917 7.51525 20.1159 7.97822C20.1159 8.67267 19.3583 8.98177 18.602 8.98177C17.6928 8.98177 16.7837 8.75028 15.9516 8.36358L15.497 10.5259C16.4062 10.9112 17.3898 11.0665 18.2989 11.0665C21.1008 11.1427 22.842 9.75383 22.842 7.66913C22.842 5.04385 19.2825 4.88998 19.2825 3.73255ZM31.8525 10.9888L29.8082 0.952021H27.6124C27.1578 0.952021 26.7033 1.26111 26.5517 1.72408L22.7663 10.9888H25.4166L25.9456 9.5223H29.2021L29.5052 10.9888H31.8525ZM27.9914 3.65498L28.7477 7.43768H26.6276L27.9914 3.65498Z" fill="white"/>
</svg>
