<svg width="96" height="33" viewBox="0 0 96 33" fill="none" xmlns="http://www.w3.org/2000/svg">
<g id="Group">
<path id="Vector" fill-rule="evenodd" clip-rule="evenodd" d="M1.83049 26.0529L9.5362 25.9493L9.55815 25.9044L1.25467 24.5751L1.2123 24.4148L8.17475 24.3153C8.17475 24.3153 8.11706 24.1769 7.93942 23.8339L0.775837 22.693L0.751334 22.5327L7.45344 22.4362L7.34879 21.9686L0.552757 20.9537L0.5451 20.7562L7.14715 20.6612L7.0961 20.1748L0.496094 19.09L0.507324 18.9287L7.09814 18.8337C7.06394 18.6454 7.11907 18.2645 7.11907 18.2645L0.600742 17.2722L0.62984 17.1098L7.21606 17.0333C7.21504 16.9393 7.25333 16.5937 7.25333 16.5937L0.84271 15.4426L0.871808 15.2808L7.52031 15.1848C7.52031 15.1848 7.5637 14.8203 7.63976 14.6309L1.2317 13.6529L1.27866 13.4905L7.94095 13.3945C7.94095 13.3945 8.07929 13.0086 8.15586 12.8662L1.7774 11.9039L1.82437 11.76L8.59896 11.6625C8.59896 11.6625 8.79498 11.2546 8.84042 11.1443L2.51096 10.1647L2.5763 10.0203L9.47137 9.92123C9.47137 9.92123 9.65616 9.55828 9.82564 9.30457L3.50283 8.32547L3.56766 8.19887L10.6587 8.11465C10.6587 8.11465 10.8721 7.77874 11.0585 7.60365L4.66672 6.64599L4.78567 6.50101L12.0355 6.39687C12.0355 6.39687 12.3183 6.08854 12.5205 5.92876L6.23594 4.96957L6.33702 4.82459L13.7242 4.71229L14.2071 4.28399L8.48257 3.0471L8.46878 3.04863C10.9257 1.49166 13.9748 0.550847 17.6488 0.501841C24.4785 0.409444 30.2454 3.79036 30.4378 11.7288L21.5585 11.8483C21.2645 9.03402 19.5865 8.07482 17.196 8.10698C12.0309 8.17641 9.80012 13.7141 9.87056 18.9654C9.91906 22.5505 11.4878 24.9207 15.2868 24.8686C17.8055 24.8349 19.9276 23.9105 20.8337 21.4219L16.565 21.4785L17.8433 14.9291L30.3077 14.7611L27.0334 31.584L21.0996 31.6636L21.3161 28.7156L21.2298 28.6309C19.3022 31.3038 16.2858 32.4544 13.0417 32.4983C6.70048 32.584 3.4186 29.4471 1.83968 26.0785L1.83049 26.0529ZM47.5706 14.9944C46.6609 14.4574 45.5338 14.0873 44.0825 14.1041C42.2754 14.1245 40.3126 14.8591 40.3391 17.1313C40.3759 20.3345 46.8922 20.2871 46.9499 25.2969C46.983 28.1714 45.0218 31.4528 40.4223 31.5054C38.2048 31.5314 36.6111 31.0567 35.071 30.4717L35.9184 27.9433C37.0486 28.6421 38.6152 29.1169 39.9568 29.102C42.8589 29.0684 44.0702 27.2475 44.0513 25.6594C44.0069 21.7721 37.4988 22.5316 37.4376 17.2206C37.3972 13.7432 40.5505 11.7355 43.6991 11.6992C45.2867 11.6809 46.8508 11.9642 48.3088 12.5497L47.5706 14.9944ZM58.5138 30.7218C57.1758 31.0659 55.7827 31.3283 54.3871 31.3441C50.9924 31.3829 47.9371 30.05 47.88 25.1218C47.8355 21.2616 50.4946 16.7678 55.4228 16.7106C58.79 16.6718 60.7022 18.676 60.741 21.989C60.7512 22.9191 60.6512 23.7149 60.5235 24.5373L50.6947 24.6512C50.6437 24.9408 50.6196 25.2346 50.6228 25.5287C50.6565 28.4578 52.4733 29.2853 54.9649 29.2567C56.2513 29.2419 57.6439 28.8979 58.8972 28.3624L58.5138 30.7218ZM58.0921 22.6491C58.1432 22.2381 58.1661 21.9094 58.1621 21.5801C58.1442 19.9379 57.1171 18.7725 55.1732 18.7944C53.0654 18.8184 51.4712 20.672 50.9479 22.7318L58.0921 22.6491ZM62.4042 19.0936C62.5078 18.5172 62.6635 17.7765 62.763 16.9541L65.173 16.9261L64.76 19.1487H64.8146C65.6202 17.8245 67.1118 16.5754 69.5483 16.5473C69.7944 16.5442 70.2334 16.5942 70.7286 16.7806L70.1793 19.0588C69.6846 18.8735 69.2732 18.7954 69.0818 18.7985C65.9061 18.8342 64.3848 22.3019 64.0489 24.0309L62.6768 30.9194L60.1034 30.9495L62.4042 19.0936ZM71.5234 16.852L74.0967 16.8229L71.3008 30.8193L68.7275 30.8494L71.5234 16.852ZM74.9099 13.6922L72.0073 13.7253L72.5755 10.8161L75.4781 10.7829L74.9099 13.6922ZM84.3262 30.4227C82.9883 30.7667 81.5952 31.0291 80.1995 31.0449C76.8048 31.0848 73.7496 29.7509 73.6929 24.8227C73.648 20.9624 76.3071 16.4687 81.2353 16.4115C84.6024 16.3732 86.5147 18.3779 86.5535 21.6899C86.5637 22.621 86.4636 23.4158 86.336 24.2392L76.5072 24.352C76.4562 24.6417 76.4321 24.9354 76.4352 25.2295C76.4689 28.1587 78.2857 28.9862 80.7774 28.9576C82.0638 28.9438 83.4564 28.5987 84.7096 28.0642L84.3262 30.4227ZM83.9046 22.3499C83.9556 21.939 83.9786 21.6102 83.9745 21.281C83.9556 19.6388 82.9296 18.4733 80.9857 18.4953C78.8779 18.5203 77.2837 20.3728 76.7604 22.4326L83.9046 22.3499Z" fill="#CCCCCC"/>
<path id="Vector_2" fill-rule="evenodd" clip-rule="evenodd" d="M95.2566 19.0424C94.5409 18.6943 93.4143 18.3512 92.4561 18.3625C91.3335 18.3752 89.8588 18.6933 89.8746 20.0904C89.9027 22.4713 94.6675 22.5259 94.7124 26.4138C94.7512 29.7819 91.6694 30.9121 89.48 30.9371C87.2624 30.9632 86.437 30.6712 85.3931 30.3271L85.8596 28.1045C86.8775 28.5032 87.9506 28.8743 89.0721 28.861C90.4688 28.8452 91.9956 28.252 91.9762 26.6644C91.9492 24.2825 87.1813 23.9813 87.1404 20.4498C87.1067 17.4926 90.0497 16.3088 92.3499 16.2822C93.5812 16.268 94.8446 16.5543 95.9998 17.0066L95.2566 19.0424Z" fill="#CCCCCC"/>
</g>
</svg>
