<svg width="61" height="33" viewBox="0 0 61 33" fill="none" xmlns="http://www.w3.org/2000/svg">
<g id="Group">
<path id="Vector" fill-rule="evenodd" clip-rule="evenodd" d="M26.3546 28.2551C23.7705 30.3774 20.356 31.6692 16.7568 31.6692C8.2666 31.6692 1.46061 24.8399 1.46061 16.4653C1.46061 8.06744 8.2666 1.2381 16.7568 1.2381C22.3863 1.2381 27.2777 4.28355 29.9538 8.89789C30.3228 8.99024 30.5999 9.08259 30.9686 9.17494C28.2929 4.00685 22.9401 0.5 16.7568 0.5C7.89721 0.5 0.722168 7.60604 0.722168 16.4653C0.722168 25.302 7.89755 32.5 16.7568 32.5C20.9098 32.5 24.6933 30.8391 27.5544 28.2551H26.3546Z" fill="#CCCCCC"/>
<path id="Vector_2" fill-rule="evenodd" clip-rule="evenodd" d="M18.7871 27.5173H60.6615V21.2417H18.7871V27.5173Z" fill="#CCCCCC"/>
<path id="Vector_3" fill-rule="evenodd" clip-rule="evenodd" d="M20.9095 10.0051L20.7248 10.8359H18.6945C18.1408 16.7424 17.7717 21.5178 17.4027 23.7331C16.5722 27.7013 12.8807 29.916 10.4813 29.916C9.65089 29.916 8.63574 29.5473 8.63574 28.5321C8.63574 27.9784 9.09714 27.517 9.65089 27.517C10.4813 27.517 11.1274 28.1627 11.5888 28.9009C12.881 28.1627 13.0654 27.517 13.6191 24.9326C13.8962 23.7331 14.6343 15.1732 15.0033 10.8359H13.3421L13.5268 10.0051H15.188L15.3727 8.52888C16.2955 3.08408 20.2638 2.43799 21.7407 2.43799C22.4788 2.43799 23.9553 2.80704 23.9553 3.82219C23.9553 4.46794 23.4016 4.74499 22.8478 4.74499C21.8327 4.74499 21.3713 4.19124 20.9095 3.36044C19.2483 4.09889 18.9716 8.15948 18.7869 10.0047H20.9095V10.0051ZM20.7252 17.5725C20.7252 13.2356 23.4939 9.45168 28.2003 9.45168C31.1537 9.45168 32.8143 10.7439 32.8143 13.6046C32.8143 17.9419 30.0459 21.6105 25.3392 21.6105C22.3864 21.6105 20.7252 20.3183 20.7252 17.5725ZM29.0311 14.2507C29.0311 13.1432 28.9387 10.4672 27.2778 10.4672C24.8785 10.4672 24.5091 15.1735 24.5091 16.9271C24.5091 17.9423 24.6014 20.688 26.2623 20.688C28.6617 20.6877 29.0311 16.004 29.0311 14.2507ZM33.8298 17.5725C33.8298 13.2356 36.6908 9.45168 41.3972 9.45168C44.2583 9.45168 45.9882 10.7439 45.9882 13.6046C45.9882 17.9419 43.1504 21.6105 38.4441 21.6105C35.583 21.6105 33.8298 20.3183 33.8298 17.5725ZM42.2276 14.2507C42.2276 13.1432 42.1356 10.4672 40.4744 10.4672C37.9827 10.4672 37.706 15.1735 37.706 16.9271C37.706 17.9423 37.706 20.688 39.3669 20.688C41.8583 20.6877 42.2276 16.004 42.2276 14.2507ZM60.293 20.2263C58.6314 20.9644 56.6011 21.6101 55.2172 21.6101C54.4791 21.6101 54.5708 20.5023 54.5708 20.0412C54.5708 19.4882 54.5708 18.749 54.7558 17.2962L54.6631 17.2035C53.7403 19.1184 51.8947 21.6101 49.4954 21.6101C47.6494 21.6101 46.8186 19.6722 46.8186 18.0343C46.8186 13.9733 50.0484 9.63638 54.6631 9.63638H55.5859C55.9553 6.77529 55.9553 5.57578 55.9553 4.65264C55.9553 4.37594 55.9553 4.09889 55.6783 4.09889C55.4012 4.09889 55.0325 4.19124 54.1094 4.46794L53.925 3.72984C55.771 3.08409 57.8013 2.71469 59.6465 2.62234C59.8316 2.62234 59.9236 2.62234 59.9236 2.99139C59.9236 5.39074 58.0776 17.9416 58.0776 19.2111C58.0776 19.4882 58.0776 19.9492 58.447 19.9492C58.6314 19.9492 59.2778 19.7642 60.0159 19.4878L60.293 20.2263ZM54.2937 16.281C54.9402 14.7121 55.1245 13.1432 55.4939 10.7439C55.3089 10.6512 55.1245 10.6512 55.0325 10.6512C52.1714 10.6512 50.7869 14.8965 50.7869 17.2035C50.7869 17.7572 50.8796 19.1184 51.71 19.1184C52.9099 19.1188 53.925 17.2038 54.2937 16.281Z" fill="#CCCCCC"/>
<path id="Vector_4" fill-rule="evenodd" clip-rule="evenodd" d="M21.2788 22.7178H22.294L23.5858 24.6558V22.7178H24.4166V26.409H23.6782L22.1093 24.2871V26.409H21.2788V22.7178ZM26.8156 22.7178H29.6767V23.4563H27.9231V24.1017H29.0309V24.9325H27.9231V25.5782H29.6767V26.409H26.8156V22.7178ZM32.7225 23.4563H31.7073V22.7178H34.8448V23.4563H33.8296V26.409H32.7225V23.4563ZM36.6907 22.7178H37.7975L38.2596 24.6558H38.3513L38.8127 22.7178H39.7362L40.1972 24.6558H40.2899L40.7513 22.7178H41.5814L40.6586 26.409H39.7362L39.1821 24.3787L38.6283 26.409H37.7059L36.6907 22.7178ZM45.3423 26.5017C44.2582 26.5017 43.5197 25.7636 43.5197 24.5634C43.5197 23.3639 44.2578 22.6255 45.3423 22.6255C46.4502 22.6255 47.0956 23.3636 47.0956 24.5634C47.0956 25.7633 46.4498 26.5017 45.3423 26.5017ZM44.6966 24.5631C44.6966 25.5782 44.9736 25.7633 45.3423 25.7633C45.7117 25.7633 45.9881 25.5782 45.9881 24.5631C45.9881 23.5486 45.7117 23.3636 45.3423 23.3636C44.8809 23.3636 44.6966 23.6406 44.6966 24.5631ZM49.3102 22.7178H51.1562C52.3557 22.7178 52.6327 23.2709 52.6327 23.733C52.6327 24.1944 52.3557 24.5631 51.8946 24.6558L52.6327 26.409H51.4332L50.8795 24.8401H50.4181V26.409H49.3102V22.7178ZM50.4181 24.1944H50.9718C51.2482 24.1944 51.5256 24.0093 51.5256 23.825C51.5256 23.5486 51.3405 23.3636 50.9718 23.3636H50.4181V24.1944ZM54.9401 22.7178H56.0476V24.1944L57.1547 22.7178H58.1699L57.2471 23.9173L58.3542 26.409H57.2471L56.509 24.8401L56.0476 25.4866V26.409H54.9401V22.7178Z" fill="white"/>
</g>
</svg>
