<svg width="36" height="36" viewBox="0 0 36 36" fill="none" xmlns="http://www.w3.org/2000/svg">
<g id="headphones 1" clip-path="url(#clip0_2336_5570)">
<g id="Group">
<path id="Vector" d="M30.3163 13.6891V12.305C30.3163 8.99244 29.144 5.91429 27.0188 3.63025C24.8407 1.28571 21.8457 0 18.5785 0H17.4365C14.1692 0 11.1743 1.28571 8.99612 3.63025C6.87091 5.91429 5.69864 8.99244 5.69864 12.305V13.6891C3.11965 13.863 1.07007 16.0109 1.07007 18.6353V20.7983C1.07007 23.5286 3.2936 25.7521 6.02385 25.7521H8.81461C9.31377 25.7521 9.72217 25.3437 9.72217 24.8445V14.5815C9.72217 14.0824 9.31377 13.674 8.81461 13.674H7.51377V12.305C7.51377 6.32269 11.7793 1.81513 17.4289 1.81513H18.5709C24.2281 1.81513 28.486 6.32269 28.486 12.305V13.674H27.1852C26.686 13.674 26.2776 14.0824 26.2776 14.5815V24.837C26.2776 25.3361 26.686 25.7445 27.1852 25.7445H28.4558C28.0852 30.479 24.8255 31.5756 23.3129 31.8252C22.897 30.5471 21.6944 29.6244 20.2802 29.6244H18.0112C16.2566 29.6244 14.8272 31.0538 14.8272 32.8084C14.8272 34.563 16.2566 36 18.0112 36H20.2877C21.7549 36 22.9877 35.0017 23.3583 33.6555C24.0995 33.5496 25.2717 33.2849 26.4365 32.6042C28.0776 31.6437 30.0213 29.6849 30.2785 25.737C32.8726 25.5782 34.9297 23.4227 34.9297 20.7908V18.6277C34.9373 16.0109 32.8953 13.8555 30.3163 13.6891ZM7.92217 23.9294H6.03898C4.30704 23.9294 2.90032 22.5227 2.90032 20.7908V18.6277C2.90032 16.8958 4.30704 15.4891 6.03898 15.4891H7.92217V23.9294ZM20.2877 34.1849H18.0112C17.2549 34.1849 16.6423 33.5723 16.6423 32.816C16.6423 32.0597 17.2549 31.4471 18.0112 31.4471H20.2877C21.044 31.4471 21.6566 32.0597 21.6566 32.816C21.6566 33.5723 21.044 34.1849 20.2877 34.1849ZM33.1222 20.7908C33.1222 22.5227 31.7154 23.9294 29.9835 23.9294H28.1003V15.4891H29.9835C31.7154 15.4891 33.1222 16.8958 33.1222 18.6277V20.7908Z" fill="#1890FF"/>
</g>
</g>
<defs>
<clipPath id="clip0_2336_5570">
<rect width="36" height="36" fill="white"/>
</clipPath>
</defs>
</svg>
