<svg width="68" height="33" viewBox="0 0 68 33" fill="none" xmlns="http://www.w3.org/2000/svg">
<g id="mango-1">
<path id="Vector" fill-rule="evenodd" clip-rule="evenodd" d="M1.63783 4.93062H5.84373C5.46699 4.67376 4.75772 4.34668 3.59024 4.34668C2.74518 4.34668 2.11235 4.58258 1.63783 4.93062ZM6.54989 4.93062H10.949C10.4307 4.58258 9.70509 4.34668 8.69164 4.34668C7.62154 4.34668 6.92897 4.67376 6.54989 4.93062ZM1.04419 5.51456H11.5776C11.4007 5.28747 11.1885 5.0903 10.949 4.93062H6.54989C6.30506 5.09629 6.19099 5.23248 6.19099 5.23248C6.19099 5.23248 6.08623 5.09629 5.84373 4.93062H1.63783C1.41347 5.09638 1.21362 5.29296 1.04419 5.51456Z" fill="#CCCCCC"/>
<path id="Vector_2" fill-rule="evenodd" clip-rule="evenodd" d="M0.692139 6.0789H11.9197C11.8278 5.87844 11.7131 5.68927 11.5778 5.51514H1.04405C0.904374 5.69672 0.788362 5.888 0.692139 6.0789Z" fill="#CCCCCC"/>
<path id="Vector_3" fill-rule="evenodd" clip-rule="evenodd" d="M0.4518 6.66206H12.124C12.0738 6.46153 12.0052 6.26606 11.9191 6.07812H0.691971C0.591867 6.27678 0.513492 6.47505 0.4518 6.66206ZM0.299316 7.24639H2.98582C3.15887 7.04541 3.44405 6.86382 3.91003 6.86382C4.37641 6.86382 4.6418 7.04579 4.79234 7.24639H7.76984C7.94561 7.04541 8.23583 6.86382 8.71074 6.86382C9.15927 6.86382 9.4266 7.04579 9.58568 7.24639H12.2225C12.2046 7.04949 12.1715 6.85426 12.1236 6.66245H0.4518C0.389034 6.85378 0.33811 7.0488 0.299316 7.24639Z" fill="#CCCCCC"/>
<path id="Vector_4" fill-rule="evenodd" clip-rule="evenodd" d="M0.229191 7.81035H2.72984V7.76999C2.72984 7.76999 2.77252 7.49413 2.98592 7.24658H0.299419C0.238115 7.56125 0.229191 7.76999 0.229191 7.76999V7.81035ZM4.99071 7.81035H7.51154V7.76999C7.51154 7.76999 7.55461 7.49413 7.77072 7.24658H4.79322C4.90577 7.39969 4.9742 7.58072 4.9911 7.76999V7.81035H4.99071ZM9.81159 7.81035H12.2323V7.76999C12.2323 7.76999 12.2517 7.56086 12.223 7.24658H9.58617C9.78094 7.49413 9.81159 7.76999 9.81159 7.76999V7.81035ZM0.228027 8.39428H2.72984V7.81035H0.229191L0.228027 8.39428ZM4.99071 8.39428H7.51154V7.81035H4.99071V8.39428ZM9.81159 8.39428H12.2323V7.81035H9.81159V8.39428Z" fill="#CCCCCC"/>
<path id="Vector_5" fill-rule="evenodd" clip-rule="evenodd" d="M0.226894 8.97896H2.73026V8.39502H0.228446L0.226894 8.97896ZM4.99074 8.97896H7.51157V8.39502H4.99074V8.97896ZM9.81162 8.97896H12.2323V8.39502H9.81162V8.97896ZM0.225342 9.54272H2.72987V8.97896H0.226506L0.225342 9.54272ZM4.99074 9.54272H7.51157V8.97896H4.99074V9.54272ZM9.81162 9.54272H12.2323V8.97896H9.81162V9.54272Z" fill="#CCCCCC"/>
<path id="Vector_6" fill-rule="evenodd" clip-rule="evenodd" d="M0.224553 10.1259H2.73025V9.54199H0.225329L0.224553 10.1259ZM4.99073 10.1259H7.51155V9.54199H4.99073V10.1259ZM9.81161 10.1259H12.2323V9.54199H9.81161V10.1259ZM0.223389 10.6897H2.73025V10.1259H0.224553L0.223389 10.6897ZM4.99073 10.6897H7.51155V10.1259H4.99073V10.6897ZM9.81161 10.6897H12.2323V10.1259H9.81161V10.6897Z" fill="#CCCCCC"/>
<path id="Vector_7" fill-rule="evenodd" clip-rule="evenodd" d="M0.221867 11.2743H2.72989V10.6899H0.223031L0.221867 11.2743ZM4.99076 11.2743H7.51158V10.6899H4.99076V11.2743ZM9.81164 11.2743H12.2324V10.6899H9.81164V11.2743ZM0.220703 11.8582H2.73028V11.2743H0.222255L0.220703 11.8582ZM4.99076 11.8582H7.51158V11.2743H4.99076V11.8582ZM9.81164 11.8582H12.2324V11.2743H9.81164V11.8582Z" fill="#CCCCCC"/>
<path id="Vector_8" fill-rule="evenodd" clip-rule="evenodd" d="M0.219482 12.4217H2.73022V11.8579H0.220647L0.219482 12.4217ZM4.9907 12.4217H7.51153V11.8579H4.9907V12.4217ZM9.81158 12.4217H12.2323V11.8579H9.81158V12.4217Z" fill="#CCCCCC"/>
<path id="Vector_9" fill-rule="evenodd" clip-rule="evenodd" d="M0.218506 13.0062H2.73041V12.4219H0.21967L0.218506 13.0062ZM4.99089 13.0062H7.51172V12.4219H4.99089V13.0062ZM9.81177 13.0062H12.2325V12.4219H9.81177V13.0062Z" fill="#CCCCCC"/>
<path id="Vector_10" fill-rule="evenodd" clip-rule="evenodd" d="M0.216797 13.5898H2.73025V13.0059H0.218349L0.216797 13.5898ZM4.99073 13.5898H7.51156V13.0059H4.99073V13.5898ZM9.81161 13.5898H12.2323V13.0059H9.81161V13.5898Z" fill="#CCCCCC"/>
<path id="Vector_11" fill-rule="evenodd" clip-rule="evenodd" d="M0.216239 14.1536H2.73047V13.5898H0.217014L0.216239 14.1536ZM4.99095 14.1536H7.51178V13.5898H4.99095V14.1536ZM9.81183 14.1536H12.2326V13.5898H9.81183V14.1536ZM0.214687 14.7375H2.73008V14.1536H0.215851L0.214687 14.7375ZM4.99095 14.7375H7.51178V14.1536H4.99095V14.7375ZM9.81183 14.7375H12.2326V14.1536H9.81183V14.7375ZM0.213135 15.3219H2.73008V14.7379H0.214687L0.213135 15.3219ZM4.99095 15.3219H7.51178V14.7379H4.99095V15.3219ZM9.81183 15.3219H12.2326V14.7379H9.81183V15.3219Z" fill="#CCCCCC"/>
<path id="Vector_12" fill-rule="evenodd" clip-rule="evenodd" d="M0.211857 15.8855H2.72997V15.3218H0.213022L0.211857 15.8855ZM4.99084 15.8855H7.51166V15.3218H4.99084V15.8855ZM9.81172 15.8855H12.2324V15.3218H9.81172V15.8855ZM0.210693 16.4695H2.72997V15.8855H0.211857L0.210693 16.4695ZM4.99084 16.4695H7.51166V15.8855H4.99084V16.4695ZM9.81172 16.4695H12.2324V15.8855H9.81172V16.4695Z" fill="#CCCCCC"/>
<path id="Vector_13" fill-rule="evenodd" clip-rule="evenodd" d="M0.209473 17.0537H2.7303V16.4697H0.211025L0.209473 17.0537ZM4.99078 17.0537H7.51161V16.4697H4.99078V17.0537ZM9.81166 17.0537H12.2324V16.4697H9.81166V17.0537Z" fill="#CCCCCC"/>
<path id="Vector_14" fill-rule="evenodd" clip-rule="evenodd" d="M0.208195 17.617H2.73019V17.0532H0.209359L0.208195 17.617ZM4.99067 17.617H7.51149V17.0532H4.99067V17.617ZM9.81155 17.617H12.2323V17.0532H9.81155V17.617ZM0.207031 18.2013H2.73019V17.617H0.208195L0.207031 18.2013ZM4.99067 18.2013H7.51149V17.617H4.99067V18.2013ZM9.81155 18.2013H12.2323V17.617H9.81155V18.2013Z" fill="#CCCCCC"/>
<path id="Vector_15" fill-rule="evenodd" clip-rule="evenodd" d="M0.205697 18.7654H2.73002V18.2017H0.206861L0.205697 18.7654ZM4.99088 18.7654H7.51171V18.2017H4.99088V18.7654ZM9.81177 18.7654H12.2325V18.2017H9.81177V18.7654ZM0.204533 19.3497H2.7304V18.7654H0.206085L0.204533 19.3497ZM4.99088 19.3497H7.51171V18.7654H4.99088V19.3497ZM9.81177 19.3497H12.2325V18.7654H9.81177V19.3497ZM0.203369 19.9333H2.7304V19.3497H0.204533L0.203369 19.9333ZM4.99088 19.9333H7.51171V19.3497H4.99088V19.9333ZM9.81177 19.9333H12.2325V19.3497H9.81177V19.9333Z" fill="#CCCCCC"/>
<path id="Vector_16" fill-rule="evenodd" clip-rule="evenodd" d="M0.201604 20.4981H2.73019V19.9336H0.203155L0.201604 20.4981ZM4.99067 20.4981H7.5115V19.9336H4.99067V20.4981ZM9.81155 20.4981H12.2323V19.9336H9.81155V20.4981ZM0.200439 21.0817H2.7298V20.4981H0.201215L0.200439 21.0817ZM4.99067 21.0817H7.5115V20.4981H4.99067V21.0817ZM9.81155 21.0817H12.2323V20.4981H9.81155V21.0817Z" fill="#CCCCCC"/>
<path id="Vector_17" fill-rule="evenodd" clip-rule="evenodd" d="M0.199306 21.6654H2.72983V21.0811H0.20047L0.199306 21.6654ZM4.9907 21.6654H7.51153V21.0811H4.9907V21.6654ZM9.81158 21.6654H12.2323V21.0811H9.81158V21.6654ZM0.197754 22.2295H2.72983V21.6658H0.199306L0.197754 22.2295ZM4.9907 22.2295H7.51153V21.6658H4.9907V22.2295ZM9.81158 22.2295H12.2323V21.6658H9.81158V22.2295Z" fill="#CCCCCC"/>
<path id="Vector_18" fill-rule="evenodd" clip-rule="evenodd" d="M0.197021 22.8138H2.73026V22.2295H0.198186L0.197021 22.8138ZM4.99074 22.8138H7.51157V22.2295H4.99074V22.8138ZM9.81163 22.8138H12.2323V22.2295H9.81163V22.8138Z" fill="#CCCCCC"/>
<path id="Vector_19" fill-rule="evenodd" clip-rule="evenodd" d="M0.1955 23.397H2.72991V22.8135H0.196664L0.1955 23.397ZM4.99077 23.397H7.5116V22.8135H4.99077V23.397ZM9.81166 23.397H12.2324V22.8135H9.81166V23.397ZM0.194336 23.9608H2.72991V23.397H0.1955L0.194336 23.9608ZM4.99077 23.9608H7.5116V23.397H4.99077V23.9608ZM9.81166 23.9608H12.2324V23.397H9.81166V23.9608Z" fill="#CCCCCC"/>
<path id="Vector_20" fill-rule="evenodd" clip-rule="evenodd" d="M0.193246 24.5453H2.72998V23.9609H0.19441L0.193246 24.5453ZM4.99085 24.5453H7.51168V23.9609H4.99085V24.5453ZM9.81173 24.5453H12.2325V23.9609H9.81173V24.5453ZM0.19247 25.1296H2.73037V24.5453H0.193634L0.19247 25.1296ZM4.99085 25.1296H7.51168V24.5453H4.99085V25.1296ZM9.81173 25.1296H12.2325V24.5453H9.81173V25.1296ZM0.190918 25.6933H2.73037V25.1296H0.19247L0.190918 25.6933ZM4.99085 25.6933H7.51168V25.1296H4.99085V25.6933ZM9.81173 25.6933H12.2325V25.1296H9.81173V25.6933Z" fill="#CCCCCC"/>
<path id="Vector_21" fill-rule="evenodd" clip-rule="evenodd" d="M0.189697 26.2764H2.73031V25.6929H0.190861L0.189697 26.2764ZM4.99079 26.2764H7.51162V25.6929H4.99079V26.2764ZM9.81168 26.2764H12.2324V25.6929H9.81168V26.2764Z" fill="#CCCCCC"/>
<path id="Vector_22" fill-rule="evenodd" clip-rule="evenodd" d="M30.8574 4.10493H31.1876L30.8574 3.521V4.10493ZM30.8574 4.70905H31.5298L31.1876 4.10493H30.8574V4.70905Z" fill="#CCCCCC"/>
<path id="Vector_23" fill-rule="evenodd" clip-rule="evenodd" d="M30.8574 5.3131H31.8717L31.5298 4.70898H30.8574V5.3131ZM35.7586 5.3131H38.1192V4.72916H35.7586V5.3131Z" fill="#CCCCCC"/>
<path id="Vector_24" fill-rule="evenodd" clip-rule="evenodd" d="M30.8574 5.91749H32.2139L31.8717 5.31299H30.8574V5.91749ZM35.7586 5.91749H38.1192V5.31299H35.7586V5.91749Z" fill="#CCCCCC"/>
<path id="Vector_25" fill-rule="evenodd" clip-rule="evenodd" d="M30.8574 6.50142H32.5441L32.2139 5.91748H30.8574V6.50142ZM35.7586 6.50142H38.1192V5.91748H35.7586V6.50142Z" fill="#CCCCCC"/>
<path id="Vector_26" fill-rule="evenodd" clip-rule="evenodd" d="M30.8574 7.10558H32.8863L32.5441 6.50146H30.8574V7.10558ZM35.7586 7.10558H38.1192V6.50146H35.7586V7.10558ZM30.8574 7.70969H33.2281L32.8863 7.10558H30.8574V7.70969ZM35.7586 7.70969H38.1192V7.10558H35.7586V7.70969Z" fill="#CCCCCC"/>
<path id="Vector_27" fill-rule="evenodd" clip-rule="evenodd" d="M30.8576 8.3132H33.5705L33.2282 7.70947H30.8576V8.3132ZM35.7588 8.3132H38.1193V7.70947H35.7588V8.3132ZM30.8576 8.89753H33.9006L33.5701 8.3132H30.8572V8.89753H30.8576ZM35.7588 8.89753H38.1193V8.3132H35.7588V8.89753Z" fill="#CCCCCC"/>
<path id="Vector_28" fill-rule="evenodd" clip-rule="evenodd" d="M30.8574 9.50206H34.2423L33.9005 8.89795H30.8574V9.50206ZM35.7586 9.50206H38.1192V8.89795H35.7586V9.50206ZM30.8574 10.1062H34.5849L34.2423 9.50206H30.8574V10.1062ZM35.7586 10.1062H38.1192V9.50206H35.7586V10.1062Z" fill="#CCCCCC"/>
<path id="Vector_29" fill-rule="evenodd" clip-rule="evenodd" d="M30.8574 10.7105H34.9268L34.5849 10.106H30.8574V10.7105ZM35.7586 10.7105H38.1192V10.106H35.7586V10.7105Z" fill="#CCCCCC"/>
<path id="Vector_30" fill-rule="evenodd" clip-rule="evenodd" d="M30.8574 11.2939H35.2569L34.9264 10.71H30.8574V11.2939ZM35.7586 11.2939H38.1192V10.71H35.7586V11.2939ZM30.8574 11.898H35.5988L35.2569 11.2939H30.8574V11.898ZM35.7586 11.898H38.1192V11.2939H35.7586V11.898Z" fill="#CCCCCC"/>
<path id="Vector_31" fill-rule="evenodd" clip-rule="evenodd" d="M30.8574 12.5021H38.1192V11.8979H35.7586V12.1804L35.5988 11.8979H30.8574V12.5021ZM30.8574 13.1062H33.1777V12.5626L33.5276 13.1062H38.1192V12.5021H30.8574V13.1062Z" fill="#CCCCCC"/>
<path id="Vector_32" fill-rule="evenodd" clip-rule="evenodd" d="M30.8574 13.6909H33.1777V13.1069H30.8574V13.6909ZM33.9028 13.6909H38.1192V13.1069H33.5276L33.9028 13.6909Z" fill="#CCCCCC"/>
<path id="Vector_33" fill-rule="evenodd" clip-rule="evenodd" d="M30.8574 14.295H33.1777V13.6909H30.8574V14.295ZM34.2916 14.295H38.1192V13.6909H33.9028L34.2916 14.295Z" fill="#CCCCCC"/>
<path id="Vector_34" fill-rule="evenodd" clip-rule="evenodd" d="M30.8574 14.8985H33.1777V14.2944H30.8574V14.8985ZM34.6804 14.8985H38.1192V14.2944H34.2916L34.6804 14.8985Z" fill="#CCCCCC"/>
<path id="Vector_35" fill-rule="evenodd" clip-rule="evenodd" d="M30.8574 15.4833H33.1777V14.8989H30.8574V15.4833ZM35.0556 15.4833H38.1192V14.8989H34.6804L35.0556 15.4833Z" fill="#CCCCCC"/>
<path id="Vector_36" fill-rule="evenodd" clip-rule="evenodd" d="M30.8574 16.087H33.1777V15.4829H30.8574V16.087ZM35.444 16.087H38.1192V15.4829H35.0556L35.444 16.087Z" fill="#CCCCCC"/>
<path id="Vector_37" fill-rule="evenodd" clip-rule="evenodd" d="M30.8574 16.691H33.1777V16.0869H30.8574V16.691ZM35.8327 16.691H38.1192V16.0869H35.444L35.8327 16.691ZM30.8574 17.2951H33.1777V16.691H30.8574V17.2951ZM35.8587 17.2951H38.1192V16.691H35.8327L35.8583 16.7314V17.2951H35.8587ZM30.8574 17.8795H33.1777V17.2951H30.8574V17.8795ZM35.8587 17.8795H38.1192V17.2951H35.8587V17.8795Z" fill="#CCCCCC"/>
<path id="Vector_38" fill-rule="evenodd" clip-rule="evenodd" d="M30.8574 18.483H33.1777V17.8789H30.8574V18.483ZM35.8587 18.483H38.1192V17.8789H35.8587V18.483ZM30.8574 19.0871H33.1777V18.483H30.8574V19.0871ZM35.8587 19.0871H38.1192V18.483H35.8587V19.0871Z" fill="#CCCCCC"/>
<path id="Vector_39" fill-rule="evenodd" clip-rule="evenodd" d="M30.8574 19.6918H33.1777V19.0869H30.8574V19.6918ZM35.8587 19.6918H38.1192V19.0869H35.8587V19.6918Z" fill="#CCCCCC"/>
<path id="Vector_40" fill-rule="evenodd" clip-rule="evenodd" d="M30.8574 20.2754H33.1777V19.6919H30.8574V20.2754ZM35.8587 20.2754H38.1192V19.6919H35.8587V20.2754ZM30.8574 20.8803H33.1777V20.2754H30.8574V20.8803ZM35.8587 20.8803H38.1192V20.2754H35.8587V20.8803Z" fill="#CCCCCC"/>
<path id="Vector_41" fill-rule="evenodd" clip-rule="evenodd" d="M30.8574 21.4845H33.1777V20.8804H30.8574V21.4845ZM35.8587 21.4845H38.1192V20.8804H35.8587V21.4845Z" fill="#CCCCCC"/>
<path id="Vector_42" fill-rule="evenodd" clip-rule="evenodd" d="M30.8574 22.088H33.1777V21.4839H30.8574V22.088ZM35.8587 22.088H38.1192V21.4839H35.8587V22.088ZM30.8574 22.6723H33.1777V22.088H30.8574V22.6723ZM35.8587 22.6723H38.1192V22.088H35.8587V22.6723Z" fill="#CCCCCC"/>
<path id="Vector_43" fill-rule="evenodd" clip-rule="evenodd" d="M30.8574 23.277H33.1777V22.6729H30.8574V23.277ZM35.8587 23.277H38.1192V22.6729H35.8587V23.277Z" fill="#CCCCCC"/>
<path id="Vector_44" fill-rule="evenodd" clip-rule="evenodd" d="M30.8574 23.8805H33.1777V23.2764H30.8574V23.8805ZM35.8587 23.8805H38.1192V23.2764H35.8587V23.8805Z" fill="#CCCCCC"/>
<path id="Vector_45" fill-rule="evenodd" clip-rule="evenodd" d="M30.8574 24.4845H33.1777V23.8804H30.8574V24.4845ZM35.8587 24.4845H38.1192V23.8804H35.8587V24.4845Z" fill="#CCCCCC"/>
<path id="Vector_46" fill-rule="evenodd" clip-rule="evenodd" d="M30.8574 25.0692H33.1777V24.4849H30.8574V25.0692ZM35.8587 25.0692H38.1192V24.4849H35.8587V25.0692ZM30.8574 25.6733H33.1777V25.0692H30.8574V25.6733ZM35.8587 25.6733H38.1192V25.0692H35.8587V25.6733Z" fill="#CCCCCC"/>
<path id="Vector_47" fill-rule="evenodd" clip-rule="evenodd" d="M30.8574 26.277H33.1777V25.6729H30.8574V26.277ZM35.8587 26.277H38.1192V25.6729H35.8587V26.277Z" fill="#CCCCCC"/>
<path id="Vector_48" fill-rule="evenodd" clip-rule="evenodd" d="M52.0903 1.34622H53.943V0.5C53.943 0.5 53.1973 0.755303 52.0903 1.34622Z" fill="#CCCCCC"/>
<path id="Vector_49" fill-rule="evenodd" clip-rule="evenodd" d="M50.658 2.19164H53.9431V1.34619H52.0905C51.601 1.60726 51.1231 1.88934 50.658 2.19164Z" fill="#CCCCCC"/>
<path id="Vector_50" fill-rule="evenodd" clip-rule="evenodd" d="M49.4842 3.01756H53.943V2.19189H50.6579C50.2567 2.45275 49.8652 2.72816 49.4842 3.01756ZM48.449 3.86339H53.943V3.01756H49.4842C49.1294 3.2874 48.7841 3.56951 48.449 3.86339ZM47.5488 4.70923H53.0522C53.5985 4.45276 53.9434 4.34684 53.9434 4.34684V3.86339H48.4494C48.1395 4.13489 47.8392 4.417 47.5488 4.70923Z" fill="#CCCCCC"/>
<path id="Vector_51" fill-rule="evenodd" clip-rule="evenodd" d="M46.7612 5.55472H51.5499C52.0296 5.237 52.5315 4.95419 53.0518 4.7085H47.5485C47.2769 4.98191 47.0143 5.26413 46.7612 5.55472ZM46.0725 6.40056H50.4146C50.7767 6.09749 51.1558 5.81522 51.5499 5.55511H46.7612C46.5225 5.82937 46.2928 6.11133 46.0725 6.40056Z" fill="#CCCCCC"/>
<path id="Vector_52" fill-rule="evenodd" clip-rule="evenodd" d="M45.4677 7.24623H49.5014C49.7911 6.9488 50.096 6.66648 50.4147 6.40039H46.0726C45.862 6.67579 45.6603 6.95788 45.4677 7.24623ZM44.9509 8.07189H48.7681C48.9998 7.78553 49.2446 7.51002 49.5018 7.24623H45.4681C45.2897 7.51201 45.1178 7.7871 44.9509 8.07189Z" fill="#CCCCCC"/>
<path id="Vector_53" fill-rule="evenodd" clip-rule="evenodd" d="M44.4893 8.91761H48.1411C48.3376 8.62671 48.5467 8.3445 48.7678 8.07178H44.9506C44.7887 8.34918 44.6348 8.63124 44.4893 8.91761ZM44.0908 9.76384H47.6216C47.7884 9.46741 47.9619 9.18572 48.1415 8.918H44.4897C44.35 9.19193 44.2165 9.47362 44.0908 9.76384Z" fill="#CCCCCC"/>
<path id="Vector_54" fill-rule="evenodd" clip-rule="evenodd" d="M43.75 10.6095H47.1912C47.3239 10.3222 47.4674 10.0401 47.6215 9.76367H44.0907C43.9694 10.0425 43.8558 10.3245 43.75 10.6095Z" fill="#CCCCCC"/>
<path id="Vector_55" fill-rule="evenodd" clip-rule="evenodd" d="M43.4631 11.4547H46.8391C46.9481 11.1622 47.0656 10.8797 47.1906 10.6089H43.7494C43.6482 10.8844 43.5527 11.1664 43.4631 11.4547ZM43.2314 12.2804H46.5597C46.6462 11.996 46.7393 11.7209 46.8394 11.4547H43.4635C43.3789 11.7279 43.3015 12.0032 43.2314 12.2804Z" fill="#CCCCCC"/>
<path id="Vector_56" fill-rule="evenodd" clip-rule="evenodd" d="M43.0382 13.1266H46.3362C46.4037 12.836 46.4778 12.5539 46.5597 12.2808H43.2314C43.1599 12.561 43.0955 12.8431 43.0382 13.1266ZM42.8904 13.9724H46.1663C46.2155 13.6822 46.2722 13.4005 46.3362 13.1266H43.0382C42.9827 13.4032 42.9334 13.6853 42.8904 13.9724Z" fill="#CCCCCC"/>
<path id="Vector_57" fill-rule="evenodd" clip-rule="evenodd" d="M42.7842 14.818H46.0473C46.0799 14.5286 46.1203 14.2465 46.1664 13.9722H42.8906C42.8486 14.2533 42.8131 14.5353 42.7842 14.818ZM42.714 15.6638H45.9748C45.9922 15.3752 46.0163 15.0931 46.0477 14.818H42.7846C42.7549 15.0994 42.7314 15.3814 42.714 15.6638ZM42.6853 16.4895H45.9445C45.9484 16.2086 45.9581 15.9331 45.9748 15.6642H42.714C42.6989 15.9391 42.6893 16.2142 42.6853 16.4895Z" fill="#CCCCCC"/>
<path id="Vector_58" fill-rule="evenodd" clip-rule="evenodd" d="M42.6873 17.3351H45.9534C45.9455 17.1338 45.9415 16.9324 45.9414 16.731C45.9414 16.6499 45.943 16.57 45.9445 16.4893H42.6853C42.6838 16.6029 42.6807 16.7166 42.6807 16.8319C42.6807 17.0018 42.6838 17.1694 42.6873 17.3351ZM50.6824 17.3351H53.9431V16.8319H50.6824V17.3351Z" fill="#CCCCCC"/>
<path id="Vector_59" fill-rule="evenodd" clip-rule="evenodd" d="M42.7306 18.1821H46.0126C45.985 17.9005 45.9654 17.6182 45.9537 17.3354H42.6875C42.6956 17.6226 42.71 17.9046 42.7306 18.1821ZM50.6822 18.1821H53.943V17.3354H50.6822V18.1821Z" fill="#CCCCCC"/>
<path id="Vector_60" fill-rule="evenodd" clip-rule="evenodd" d="M42.8095 19.028H46.1226C46.0773 18.7472 46.0406 18.4651 46.0128 18.1821H42.7307C42.7509 18.4685 42.7769 18.7513 42.8095 19.028ZM50.6824 19.028H53.9431V18.1821H50.6824V19.028Z" fill="#CCCCCC"/>
<path id="Vector_61" fill-rule="evenodd" clip-rule="evenodd" d="M42.9345 19.8732H46.2864C46.223 19.593 46.1684 19.3109 46.1227 19.0273H42.8096C42.8445 19.3149 42.8868 19.5965 42.9345 19.8732ZM50.6825 19.8732H53.9432V19.0273H50.6825V19.8732Z" fill="#CCCCCC"/>
<path id="Vector_62" fill-rule="evenodd" clip-rule="evenodd" d="M43.1035 20.7189H46.509C46.4254 20.4395 46.3511 20.1574 46.2862 19.873H42.9343C42.9844 20.1609 43.0406 20.443 43.1035 20.7189ZM50.6823 20.7189H53.943V19.873H50.6823V20.7189Z" fill="#CCCCCC"/>
<path id="Vector_63" fill-rule="evenodd" clip-rule="evenodd" d="M43.3134 21.5445H46.7864C46.6845 21.2727 46.5919 20.9974 46.509 20.7192H43.1035C43.1671 21.0005 43.2366 21.2756 43.3134 21.5445ZM50.6823 21.5445H53.943V20.7192H50.6823V21.5445ZM43.5792 22.3911H47.1387C47.0114 22.1131 46.8939 21.8308 46.7864 21.5445H43.3134C43.3953 21.8332 43.4838 22.116 43.5792 22.3911ZM50.6823 22.3911H53.943V21.5445H50.6823V22.3911Z" fill="#CCCCCC"/>
<path id="Vector_64" fill-rule="evenodd" clip-rule="evenodd" d="M43.9013 23.2365H47.5667C47.4134 22.96 47.2705 22.6778 47.1384 22.3906H43.5789C43.6801 22.6797 43.7876 22.9614 43.9013 23.2365ZM50.6823 23.2365H53.9431V22.3906H50.6823V23.2365Z" fill="#CCCCCC"/>
<path id="Vector_65" fill-rule="evenodd" clip-rule="evenodd" d="M44.2842 24.0822H48.0807C47.8986 23.807 47.7272 23.5248 47.567 23.2363H43.9016C44.0219 23.5258 44.1499 23.8079 44.2842 24.0822ZM50.6823 24.0822H53.943V23.2363H50.6823V24.0822Z" fill="#CCCCCC"/>
<path id="Vector_66" fill-rule="evenodd" clip-rule="evenodd" d="M44.7319 24.9279H48.6946C48.478 24.6548 48.2732 24.3726 48.0807 24.082H44.2842C44.4266 24.373 44.5767 24.6543 44.7319 24.9279ZM50.6823 24.9279H53.943V24.082H50.6823V24.9279Z" fill="#CCCCCC"/>
<path id="Vector_67" fill-rule="evenodd" clip-rule="evenodd" d="M45.2383 25.7535H49.4108C49.1597 25.4894 48.9207 25.214 48.6946 24.9282H44.7319C44.8916 25.2088 45.0604 25.4841 45.2383 25.7535ZM50.6823 25.7535H53.943V24.9282H50.6823V25.7535Z" fill="#CCCCCC"/>
<path id="Vector_68" fill-rule="evenodd" clip-rule="evenodd" d="M45.8362 26.5995H50.3149C49.9969 26.3356 49.695 26.0529 49.4108 25.7529H45.2383C45.4282 26.0417 45.6276 26.324 45.8362 26.5995ZM50.6823 26.5995H53.943V25.7529H50.6823V26.5995Z" fill="#CCCCCC"/>
<path id="Vector_69" fill-rule="evenodd" clip-rule="evenodd" d="M46.5233 27.4454H53.943V26.5996H50.6823V26.8817C50.6823 26.8817 50.5445 26.7886 50.3149 26.5996H45.8362C46.0556 26.8892 46.2848 27.1713 46.5233 27.4454Z" fill="#CCCCCC"/>
<path id="Vector_70" fill-rule="evenodd" clip-rule="evenodd" d="M47.3135 28.2911H53.9429V27.4453H46.5232C46.7816 27.7425 47.0462 28.0234 47.3135 28.2911Z" fill="#CCCCCC"/>
<path id="Vector_71" fill-rule="evenodd" clip-rule="evenodd" d="M48.2255 29.1369H53.9431V28.291H47.3137C47.6076 28.5837 47.9117 28.8658 48.2255 29.1369Z" fill="#CCCCCC"/>
<path id="Vector_72" fill-rule="evenodd" clip-rule="evenodd" d="M49.282 29.9826H53.9434V29.1367H48.2258C48.5671 29.4319 48.9194 29.714 49.282 29.9826ZM50.4898 30.8086H53.943V29.9826H49.2816C49.6736 30.2732 50.0767 30.5487 50.4898 30.8086ZM51.9797 31.6544H53.9434V30.8086H50.4902C51.0256 31.1442 51.53 31.4255 51.9797 31.6544Z" fill="#CCCCCC"/>
<path id="Vector_73" fill-rule="evenodd" clip-rule="evenodd" d="M53.9432 32.5001V31.6543H51.9795C53.1481 32.2495 53.9432 32.5001 53.9432 32.5001Z" fill="#CCCCCC"/>
<path id="Vector_74" fill-rule="evenodd" clip-rule="evenodd" d="M59.4849 17.658H61.8652V17.4966H59.4849V17.658ZM64.6464 17.658H67.1269V17.4966H64.6464V17.658ZM59.4849 18.2415H61.8652V17.658H59.4849V18.2415ZM64.6464 18.2415H67.1269V17.658H64.6464V18.2415Z" fill="#CCCCCC"/>
<path id="Vector_75" fill-rule="evenodd" clip-rule="evenodd" d="M59.4849 18.826H61.8652V18.2417H59.4849V18.826ZM64.6464 18.826H67.1269V18.2417H64.6464V18.826Z" fill="#CCCCCC"/>
<path id="Vector_76" fill-rule="evenodd" clip-rule="evenodd" d="M59.4849 19.4092H61.8652V18.8257H59.4849V19.4092ZM64.6464 19.4092H67.1269V18.8257H64.6464V19.4092ZM59.4849 19.9936H61.8652V19.4092H59.4849V19.9936ZM64.6464 19.9936H67.1269V19.4092H64.6464V19.9936Z" fill="#CCCCCC"/>
<path id="Vector_77" fill-rule="evenodd" clip-rule="evenodd" d="M59.4849 20.5785H61.8652V19.9941H59.4849V20.5785ZM64.6464 20.5785H67.1269V19.9941H64.6464V20.5785ZM59.4849 21.1628H61.8652V20.5785H59.4849V21.1628ZM64.6464 21.1628H67.1269V20.5785H64.6464V21.1628Z" fill="#CCCCCC"/>
<path id="Vector_78" fill-rule="evenodd" clip-rule="evenodd" d="M59.4849 21.7457H61.8652V21.1621H59.4849V21.7457ZM64.6464 21.7457H67.1269V21.1621H64.6464V21.7457ZM59.4849 22.3498H61.8652V21.7457H59.4849V22.3498ZM64.6464 22.3498H67.1269V21.7457H64.6464V22.3498ZM59.4849 22.9341H61.8652V22.3498H59.4849V22.9341ZM64.6464 22.9341H67.1269V22.3498H64.6464V22.9341Z" fill="#CCCCCC"/>
<path id="Vector_79" fill-rule="evenodd" clip-rule="evenodd" d="M59.5435 23.5184H62.126C61.9145 23.2243 61.8653 22.9341 61.8653 22.9341H59.4849C59.4849 22.9341 59.4814 23.1696 59.5435 23.5184ZM64.5405 23.5184H67.0854C67.1141 23.3244 67.1242 23.1653 67.1269 23.0629V22.9341H64.6464C64.6464 22.9341 64.6752 23.2243 64.5405 23.5184ZM59.6936 24.102H63.1173C62.6149 24.0298 62.3095 23.7729 62.126 23.5184H59.5435C59.5745 23.6903 59.6215 23.8897 59.6936 24.102ZM63.6939 24.102H66.9523C67.0183 23.8897 67.059 23.6903 67.085 23.5184H64.5401C64.4237 23.7729 64.1836 24.0298 63.6939 24.102Z" fill="#CCCCCC"/>
<path id="Vector_80" fill-rule="evenodd" clip-rule="evenodd" d="M59.9474 24.6864H66.7168C66.8184 24.4885 66.8949 24.2902 66.9523 24.1021H63.6939C63.5027 24.1299 63.3085 24.1299 63.1173 24.1021H59.6936C59.7572 24.2898 59.8395 24.4885 59.9474 24.6864Z" fill="#CCCCCC"/>
<path id="Vector_81" fill-rule="evenodd" clip-rule="evenodd" d="M60.3535 25.2704H66.3295C66.48 25.0907 66.6099 24.8947 66.7167 24.686H59.9473C60.0607 24.8952 60.197 25.0911 60.3535 25.2704ZM61.0383 25.8539H65.664C65.9139 25.6939 66.1382 25.4971 66.3295 25.2704H60.3535C60.552 25.4973 60.7828 25.6939 61.0383 25.8539Z" fill="#CCCCCC"/>
<path id="Vector_82" fill-rule="evenodd" clip-rule="evenodd" d="M65.664 25.8535H61.0383C61.5932 26.2019 62.3447 26.4378 63.3655 26.4378C64.3813 26.4378 65.1232 26.2023 65.664 25.8535Z" fill="#CCCCCC"/>
<path id="Vector_83" fill-rule="evenodd" clip-rule="evenodd" d="M61.0262 4.76948H65.6027C65.0486 4.42029 64.2939 4.18555 63.2657 4.18555C62.288 4.18516 61.5636 4.42029 61.0262 4.76948ZM60.3616 5.35342H66.284C66.0871 5.1261 65.8574 4.9293 65.6027 4.76948H61.0262C60.7774 4.93066 60.5534 5.1274 60.3616 5.35342Z" fill="#CCCCCC"/>
<path id="Vector_84" fill-rule="evenodd" clip-rule="evenodd" d="M59.9639 5.93745H66.6825C66.5715 5.72875 66.4379 5.53292 66.284 5.35352H60.3616C60.2086 5.53345 60.0753 5.7292 59.9639 5.93745ZM59.7105 6.52139H66.9292C66.8643 6.31983 66.7816 6.12442 66.6821 5.93745H59.9635C59.8634 6.12487 59.7788 6.32017 59.7105 6.52139ZM59.5569 7.10572H62.082C62.2678 6.83373 62.61 6.58192 63.2452 6.58192C63.8908 6.58192 64.2389 6.83334 64.4259 7.10572H67.0728C67.0398 6.90775 66.992 6.71255 66.9296 6.52178H59.7109C59.6461 6.71261 59.5946 6.90773 59.5569 7.10572Z" fill="#CCCCCC"/>
<path id="Vector_85" fill-rule="evenodd" clip-rule="evenodd" d="M59.4865 7.68931H61.8708C61.8937 7.48057 61.9662 7.28034 62.0822 7.10537H59.5572C59.5063 7.37115 59.4912 7.58105 59.4865 7.68931ZM64.6407 7.68931H67.127V7.64314C67.1213 7.46273 67.1033 7.28293 67.0731 7.10498H64.4261C64.5813 7.32963 64.6267 7.56825 64.6407 7.68931ZM59.485 8.29342H61.8654V7.76962C61.8654 7.76962 61.8654 7.73936 61.8708 7.68931H59.4865C59.4842 7.74091 59.485 7.76962 59.485 7.76962V8.29342ZM64.6465 8.29342H67.127V7.68931H64.6407C64.6469 7.73936 64.6469 7.76962 64.6469 7.76962V8.29342H64.6465Z" fill="#CCCCCC"/>
<path id="Vector_86" fill-rule="evenodd" clip-rule="evenodd" d="M59.4849 8.87778H61.8652V8.29346H59.4849V8.87778ZM64.6464 8.87778H67.1269V8.29346H64.6464V8.87778ZM59.4849 9.46172H61.8652V8.87778H59.4849V9.46172ZM64.6464 9.46172H67.1269V8.87778H64.6464V9.46172Z" fill="#CCCCCC"/>
<path id="Vector_87" fill-rule="evenodd" clip-rule="evenodd" d="M59.4849 10.0454H61.8652V9.46143H59.4849V10.0454ZM64.6464 10.0454H67.1269V9.46143H64.6464V10.0454ZM59.4849 10.6297H61.8652V10.0458H59.4849V10.6297ZM64.6464 10.6297H67.1269V10.0458H64.6464V10.6297Z" fill="#CCCCCC"/>
<path id="Vector_88" fill-rule="evenodd" clip-rule="evenodd" d="M59.4849 11.2138H61.8652V10.6299H59.4849V11.2138ZM64.6464 11.2138H67.1269V10.6299H64.6464V11.2138ZM59.4849 11.7978H61.8652V11.2138H59.4849V11.7978ZM64.6464 11.7978H67.1269V11.2138H64.6464V11.7978ZM59.4849 12.3817H61.8652V11.7978H59.4849V12.3817ZM64.6464 12.3817H67.1269V11.7978H64.6464V12.3817Z" fill="#CCCCCC"/>
<path id="Vector_89" fill-rule="evenodd" clip-rule="evenodd" d="M59.4849 12.9653H61.8652V12.3813H59.4849V12.9653ZM64.6464 12.9653H67.1269V12.3813H64.6464V12.9653Z" fill="#CCCCCC"/>
<path id="Vector_90" fill-rule="evenodd" clip-rule="evenodd" d="M59.4849 13.5497H61.8652V12.9653H59.4849V13.5497ZM64.6464 13.5497H67.1269V12.9653H64.6464V13.5497Z" fill="#CCCCCC"/>
<path id="Vector_91" fill-rule="evenodd" clip-rule="evenodd" d="M59.4849 14.1337H61.8652V13.5498H59.4849V14.1337ZM64.6464 14.1337H67.1269V13.5498H64.6464V14.1337ZM59.4849 14.7181H61.8652V14.1341H59.4849V14.7181ZM64.6464 14.7181H67.1269V14.1341H64.6464V14.7181ZM59.4849 15.3222H61.8652V14.7181H59.4849V15.3222ZM64.6464 15.3222H67.1269V14.7181H64.6464V15.3222Z" fill="#CCCCCC"/>
<path id="Vector_92" fill-rule="evenodd" clip-rule="evenodd" d="M59.4849 15.9057H61.8652V15.3218H59.4849V15.9057ZM64.6464 15.9057H67.1269V15.3218H64.6464V15.9057ZM59.4849 16.4897H61.8652V15.9057H59.4849V16.4897ZM64.6464 16.4897H67.1269V15.9057H64.6464V16.4897Z" fill="#CCCCCC"/>
<path id="Vector_93" fill-rule="evenodd" clip-rule="evenodd" d="M59.4849 17.0736H61.8652V16.4893H59.4849V17.0736ZM64.6464 17.0736H67.1269V16.4893H64.6464V17.0736ZM67.1269 17.4965V17.0736H64.6464V17.4965H67.1269ZM61.8652 17.0736H59.4849V17.4965H61.8652V17.0736Z" fill="#CCCCCC"/>
<path id="Vector_94" fill-rule="evenodd" clip-rule="evenodd" d="M19.5719 4.93062H24.184C23.6431 4.58258 22.8993 4.34668 21.8754 4.34668C20.8561 4.34668 20.1135 4.58258 19.5719 4.93062ZM18.9053 5.51456H24.8467C24.6567 5.28723 24.4331 5.0903 24.1836 4.93062H19.5719C19.3215 5.09059 19.0968 5.28746 18.9053 5.51456Z" fill="#CCCCCC"/>
<path id="Vector_95" fill-rule="evenodd" clip-rule="evenodd" d="M18.5288 6.0789H25.2187C25.1159 5.87788 24.9912 5.68882 24.847 5.51514H18.9052C18.7595 5.68878 18.6333 5.87782 18.5288 6.0789Z" fill="#CCCCCC"/>
<path id="Vector_96" fill-rule="evenodd" clip-rule="evenodd" d="M18.2885 6.66206H25.4533C25.3929 6.46074 25.3143 6.26529 25.2186 6.07812H18.5287C18.4316 6.26531 18.3512 6.46072 18.2885 6.66206ZM18.1543 7.24639H20.7869C20.9681 7.00156 21.3017 6.76294 21.9152 6.76294C22.548 6.76294 22.8828 7.00156 23.059 7.24639H25.5818C25.5543 7.04871 25.5115 6.85348 25.4537 6.66245H18.2885C18.2214 6.87702 18.1799 7.07683 18.1543 7.24639Z" fill="#CCCCCC"/>
<path id="Vector_97" fill-rule="evenodd" clip-rule="evenodd" d="M18.1142 7.81035H20.5749V7.76999C20.5749 7.76999 20.5962 7.5046 20.7871 7.24658H18.1545C18.1068 7.56125 18.1142 7.76999 18.1142 7.76999V7.81035ZM23.2556 7.81035H25.6161V7.64428C25.6121 7.51117 25.6006 7.37839 25.5816 7.24658H23.0588C23.2451 7.5046 23.2556 7.76999 23.2556 7.76999V7.81035ZM18.1142 8.39428H20.5749V7.81035H18.1142V8.39428ZM23.2556 8.39428H25.6161V7.81035H23.2556V8.39428Z" fill="#CCCCCC"/>
<path id="Vector_98" fill-rule="evenodd" clip-rule="evenodd" d="M18.114 8.97896H20.5747V8.39502H18.114V8.97896ZM23.2554 8.97896H25.616V8.39502H23.2554V8.97896ZM18.114 9.54272H20.5747V8.97896H18.114V9.54272ZM23.2554 9.54272H25.616V8.97896H23.2554V9.54272Z" fill="#CCCCCC"/>
<path id="Vector_99" fill-rule="evenodd" clip-rule="evenodd" d="M18.114 10.1259H20.5747V9.54199H18.114V10.1259ZM23.2554 10.1259H25.616V9.54199H23.2554V10.1259ZM18.114 10.6897H20.5747V10.1259H18.114V10.6897ZM23.2554 10.6897H25.616V10.1259H23.2554V10.6897Z" fill="#CCCCCC"/>
<path id="Vector_100" fill-rule="evenodd" clip-rule="evenodd" d="M18.114 11.2743H20.5747V10.6899H18.114V11.2743ZM23.2554 11.2743H25.616V10.6899H23.2554V11.2743ZM18.114 11.8582H20.5747V11.2743H18.114V11.8582ZM23.2554 11.8582H25.616V11.2743H23.2554V11.8582Z" fill="#CCCCCC"/>
<path id="Vector_101" fill-rule="evenodd" clip-rule="evenodd" d="M18.114 12.4217H20.5747V11.8579H18.114V12.4217ZM23.2554 12.4217H25.616V11.8579H23.2554V12.4217Z" fill="#CCCCCC"/>
<path id="Vector_102" fill-rule="evenodd" clip-rule="evenodd" d="M18.114 13.0062H20.5747V12.4219H18.114V13.0062ZM23.2554 13.0062H25.616V12.4219H23.2554V13.0062Z" fill="#CCCCCC"/>
<path id="Vector_103" fill-rule="evenodd" clip-rule="evenodd" d="M18.114 13.5898H20.5747V13.0059H18.114V13.5898ZM23.2554 13.5898H25.616V13.0059H23.2554V13.5898Z" fill="#CCCCCC"/>
<path id="Vector_104" fill-rule="evenodd" clip-rule="evenodd" d="M18.114 14.1536H20.5747V13.5898H18.114V14.1536ZM23.2554 14.1536H25.616V13.5898H23.2554V14.1536ZM18.114 14.7375H20.5747V14.1536H18.114V14.7375ZM23.2554 14.7375H25.616V14.1536H23.2554V14.7375ZM18.114 15.3219H20.5747V14.7379H18.114V15.3219ZM23.2554 15.3219H25.616V14.7379H23.2554V15.3219Z" fill="#CCCCCC"/>
<path id="Vector_105" fill-rule="evenodd" clip-rule="evenodd" d="M18.114 15.8855H20.5747V15.3218H18.114V15.8855ZM23.2554 15.8855H25.616V15.3218H23.2554V15.8855ZM18.114 16.4695H20.5747V15.8855H18.114V16.4695ZM23.2554 16.4695H25.616V15.8855H23.2554V16.4695Z" fill="#CCCCCC"/>
<path id="Vector_106" fill-rule="evenodd" clip-rule="evenodd" d="M18.114 17.0537H20.5747V16.4697H18.114V17.0537ZM23.2554 17.0537H25.616V16.4697H23.2554V17.0537Z" fill="#CCCCCC"/>
<path id="Vector_107" fill-rule="evenodd" clip-rule="evenodd" d="M18.114 17.617H20.5747V17.0532H18.114V17.617ZM23.2554 17.617H25.616V17.0532H23.2554V17.617ZM18.114 18.2013H20.5747V17.617H18.114V18.2013ZM23.2554 18.2013H25.616V17.617H23.2554V18.2013Z" fill="#CCCCCC"/>
<path id="Vector_108" fill-rule="evenodd" clip-rule="evenodd" d="M18.1142 18.7654H20.5749V18.2017H18.1142V18.7654ZM23.2555 18.7654H25.6161V18.2017H23.2555V18.7654ZM18.1142 19.3497H20.5749V18.7654H18.1142V19.3497ZM23.2555 19.3497H25.6161V18.7654H23.2555V19.3497ZM15.0203 19.9333H25.6161V19.3497H23.2555V19.4906H20.5749V19.3497H18.1142V19.4906H14.7332L15.0203 19.9333Z" fill="#CCCCCC"/>
<path id="Vector_109" fill-rule="evenodd" clip-rule="evenodd" d="M15.3861 20.4981H25.6161V19.9336H15.0203L15.3861 20.4981ZM15.7644 21.0817H25.6161V20.4981H15.3861L15.7644 21.0817Z" fill="#CCCCCC"/>
<path id="Vector_110" fill-rule="evenodd" clip-rule="evenodd" d="M16.1431 21.6655H25.6161V21.0815H15.7644L16.1431 21.6655ZM18.2142 22.2296H20.5348V21.9072H23.3156V22.2296H25.6161V21.6655H16.1431L16.2738 21.8672H18.2142V22.2296Z" fill="#CCCCCC"/>
<path id="Vector_111" fill-rule="evenodd" clip-rule="evenodd" d="M18.2141 22.8138H20.5347V22.2295H18.2141V22.8138ZM23.3155 22.8138H25.616V22.2295H23.3155V22.8138Z" fill="#CCCCCC"/>
<path id="Vector_112" fill-rule="evenodd" clip-rule="evenodd" d="M18.2141 23.397H20.5347V22.8135H18.2141V23.397ZM23.3155 23.397H25.616V22.8135H23.3155V23.397ZM18.2141 23.9608H20.5347V23.397H18.2141V23.9608ZM23.3155 23.9608H25.616V23.397H23.3155V23.9608Z" fill="#CCCCCC"/>
<path id="Vector_113" fill-rule="evenodd" clip-rule="evenodd" d="M18.2141 24.5453H20.5347V23.9609H18.2141V24.5453ZM23.3155 24.5453H25.616V23.9609H23.3155V24.5453ZM18.2141 25.1296H20.5347V24.5453H18.2141V25.1296ZM23.3155 25.1296H25.616V24.5453H23.3155V25.1296ZM18.2141 25.6933H20.5347V25.1296H18.2141V25.6933ZM23.3155 25.6933H25.616V25.1296H23.3155V25.6933Z" fill="#CCCCCC"/>
<path id="Vector_114" fill-rule="evenodd" clip-rule="evenodd" d="M18.2141 26.2764H20.5347V25.6929H18.2141V26.2764ZM23.3155 26.2764H25.616V25.6929H23.3155V26.2764Z" fill="#CCCCCC"/>
</g>
</svg>
