<svg width="31" height="19" viewBox="0 0 31 19" fill="none" xmlns="http://www.w3.org/2000/svg">
<g id="Mastercard">
<path id="Left" fill-rule="evenodd" clip-rule="evenodd" d="M15.7369 16.3918C14.1698 17.7128 12.1369 18.5102 9.9156 18.5102C4.95916 18.5102 0.941162 14.54 0.941162 9.64255C0.941162 4.74508 4.95916 0.774902 9.9156 0.774902C12.137 0.774902 14.1698 1.57235 15.7369 2.89333C17.3041 1.57238 19.3369 0.774945 21.5582 0.774945C26.5147 0.774945 30.5327 4.74513 30.5327 9.64259C30.5327 14.5401 26.5147 18.5102 21.5582 18.5102C19.3369 18.5102 17.304 17.7128 15.7369 16.3918Z" fill="#ED0006"/>
<path id="Right" fill-rule="evenodd" clip-rule="evenodd" d="M15.7368 16.3919C17.6665 14.7654 18.89 12.3452 18.89 9.64255C18.89 6.93994 17.6665 4.51972 15.7368 2.89323C17.3039 1.57231 19.3367 0.774902 21.558 0.774902C26.5145 0.774902 30.5325 4.74508 30.5325 9.64255C30.5325 14.54 26.5145 18.5102 21.558 18.5102C19.3367 18.5102 17.3039 17.7128 15.7368 16.3919Z" fill="#F9A000"/>
<path id="Middle" fill-rule="evenodd" clip-rule="evenodd" d="M15.7369 16.3921C17.6665 14.7656 18.89 12.3454 18.89 9.6428C18.89 6.94024 17.6665 4.52004 15.7369 2.89355C13.8073 4.52004 12.5837 6.94024 12.5837 9.6428C12.5837 12.3454 13.8073 14.7656 15.7369 16.3921Z" fill="#FF5E00"/>
</g>
</svg>
