<svg width="36" height="36" viewBox="0 0 36 36" fill="none" xmlns="http://www.w3.org/2000/svg">
<g id="shopping-bag" clip-path="url(#clip0_2336_5578)">
<g id="Group">
<g id="Group_2">
<path id="Vector" d="M32.3822 31.201L30.3105 7.85427C30.2733 7.39226 29.8858 7.04202 29.4163 7.04202H25.0495C25.0421 3.15959 21.8825 0 18 0C14.1176 0 10.958 3.15959 10.9506 7.04202H6.58377C6.12175 7.04202 5.73425 7.39226 5.68954 7.85427L3.61792 31.201C3.61792 31.2308 3.61792 31.2532 3.61792 31.283C3.61792 33.8837 6.00997 36 8.94601 36H27.0541C29.9901 36 32.3822 33.8837 32.3822 31.283C32.3822 31.2532 32.3822 31.2308 32.3822 31.201ZM18 1.78845C20.8988 1.78845 23.2536 4.14324 23.2611 7.04202H12.739C12.7465 4.14324 15.1013 1.78845 18 1.78845ZM27.0541 34.2041H8.94601C7.00852 34.2041 5.42873 32.9149 5.40637 31.3128L7.40347 8.83047H10.9506V11.9677C10.9506 12.4595 11.353 12.8619 11.8448 12.8619C12.3366 12.8619 12.739 12.4595 12.739 11.9677V8.83047H23.2611V11.9677C23.2611 12.4595 23.6635 12.8619 24.1553 12.8619C24.6471 12.8619 25.0495 12.4595 25.0495 11.9677V8.83047H28.5966L30.5937 31.3202C30.5713 32.9149 28.9916 34.2041 27.0541 34.2041Z" fill="white"/>
<path id="Vector_2" d="M21.7185 18.6148L16.4426 23.8908L14.289 21.7372C13.9388 21.3869 13.3724 21.3869 13.0222 21.7372C12.672 22.0874 12.672 22.6537 13.0222 23.004L15.8092 25.791C15.9806 25.9624 16.2116 26.0518 16.4426 26.0518C16.6736 26.0518 16.8972 25.9624 17.076 25.791L22.9853 19.8816C23.3356 19.5314 23.3356 18.9651 22.9853 18.6148C22.6351 18.272 22.0688 18.272 21.7185 18.6148Z" fill="white"/>
</g>
</g>
</g>
<defs>
<clipPath id="clip0_2336_5578">
<rect width="36" height="36" fill="white"/>
</clipPath>
</defs>
</svg>
