<svg width="32" height="12" viewBox="0 0 32 12" fill="none" xmlns="http://www.w3.org/2000/svg">
<path id="visa-logo" fill-rule="evenodd" clip-rule="evenodd" d="M7.91224 10.9932H5.24669L3.24786 3.1433C3.15298 2.7822 2.95154 2.46297 2.65522 2.31251C1.91573 1.9344 1.10086 1.63349 0.211914 1.48172V1.1795H4.5059C5.09853 1.1795 5.54301 1.63349 5.61709 2.16074L6.65419 7.82318L9.31844 1.1795H11.9099L7.91224 10.9932ZM13.3916 10.9932H10.8742L12.9471 1.1795H15.4645L13.3916 10.9932ZM18.7212 3.89817C18.7953 3.3696 19.2398 3.06738 19.7583 3.06738C20.5732 2.9915 21.4608 3.14326 22.2016 3.52006L22.6461 1.40711C21.9053 1.10489 21.0904 0.953125 20.351 0.953125C17.9076 0.953125 16.1297 2.31248 16.1297 4.19908C16.1297 5.63431 17.3891 6.38791 18.278 6.8419C19.2398 7.29458 19.6102 7.5968 19.5361 8.04948C19.5361 8.7285 18.7953 9.03073 18.0558 9.03073C17.1669 9.03073 16.2779 8.80439 15.4643 8.42628L15.0199 10.5405C15.9088 10.9173 16.8705 11.0691 17.7595 11.0691C20.4991 11.1437 22.2016 9.78563 22.2016 7.74726C22.2016 5.18032 18.7212 5.02987 18.7212 3.89817ZM31.0118 10.9932L29.013 1.1795H26.866C26.4215 1.1795 25.9771 1.48172 25.8289 1.9344L22.1276 10.9932H24.719L25.2363 9.55933H28.4204L28.7167 10.9932H31.0118ZM27.2365 3.82224L27.976 7.52087H25.9031L27.2365 3.82224Z" fill="#172B85"/>
</svg>
