<svg width="33" height="15" viewBox="0 0 33 15" fill="none" xmlns="http://www.w3.org/2000/svg">
<path fill-rule="evenodd" clip-rule="evenodd" d="M6.50627 2.16003C6.12856 2.62578 5.52422 2.99313 4.91988 2.94065C4.84434 2.31091 5.14022 1.64181 5.48645 1.22854C5.86416 0.749674 6.52516 0.408563 7.06025 0.382324C7.1232 1.03831 6.87769 1.68117 6.50627 2.16003ZM7.05396 3.06527C6.52155 3.03334 6.03575 3.23211 5.64335 3.39267C5.39084 3.496 5.177 3.58349 5.01432 3.58349C4.83176 3.58349 4.6091 3.49132 4.3591 3.38783C4.03152 3.25222 3.657 3.09718 3.26426 3.10463C2.36405 3.11775 1.52679 3.64909 1.06724 4.4953C0.122958 6.18773 0.821725 8.69358 1.73453 10.0711C2.18149 10.7534 2.71658 11.5012 3.42164 11.4749C3.73182 11.4627 3.95495 11.3641 4.18587 11.262C4.45172 11.1444 4.72789 11.0223 5.15911 11.0223C5.57538 11.0223 5.83948 11.1412 6.09299 11.2554C6.33404 11.364 6.56553 11.4682 6.90917 11.4618C7.63942 11.4487 8.09897 10.7796 8.54592 10.0974C9.02826 9.36517 9.24023 8.65058 9.2724 8.54213L9.27617 8.52958C9.2754 8.52878 9.26944 8.52594 9.25892 8.52092C9.09769 8.44401 7.86527 7.8561 7.85345 6.27957C7.84159 4.95631 8.83097 4.28586 8.98671 4.18033C8.99619 4.1739 9.00258 4.16957 9.00547 4.16731C8.37595 3.19646 7.3939 3.09151 7.05396 3.06527ZM12.1091 11.3897V1.163H15.7917C17.6929 1.163 19.0212 2.52744 19.0212 4.52162C19.0212 6.5158 17.6677 7.89336 15.7414 7.89336H13.6325V11.3897H12.1091ZM13.6324 2.50107H15.3888C16.7108 2.50107 17.4662 3.23577 17.4662 4.52805C17.4662 5.82033 16.7108 6.56159 15.3825 6.56159H13.6324V2.50107ZM24.0511 10.163C23.6482 10.9632 22.7606 11.4684 21.8037 11.4684C20.3873 11.4684 19.399 10.5893 19.399 9.26426C19.399 7.9523 20.3558 7.19792 22.1248 7.0864L24.0259 6.96833V6.40418C24.0259 5.57109 23.5034 5.11846 22.5717 5.11846C21.8037 5.11846 21.2435 5.53173 21.1301 6.16147H19.7578C19.8019 4.83639 20.9979 3.8721 22.6158 3.8721C24.3596 3.8721 25.4927 4.82327 25.4927 6.29923V11.3896H24.0826V10.163H24.0511ZM22.2128 10.2549C21.4007 10.2549 20.8845 9.8482 20.8845 9.22502C20.8845 8.58216 21.3819 8.20825 22.3324 8.14921L24.0258 8.03769V8.61496C24.0258 9.57269 23.2452 10.2549 22.2128 10.2549ZM30.17 11.7898C29.5594 13.5806 28.8606 14.171 27.375 14.171C27.2617 14.171 26.884 14.1579 26.7958 14.1316V12.9049C26.8903 12.9181 27.1232 12.9312 27.2428 12.9312C27.9164 12.9312 28.2941 12.636 28.527 11.8685L28.6655 11.4159L26.0845 3.97049H27.6772L29.4713 10.0121H29.5028L31.2969 3.97049H32.8455L30.17 11.7898Z" fill="black"/>
</svg>
