<svg width="72" height="72" viewBox="0 0 72 72" fill="none" xmlns="http://www.w3.org/2000/svg">
<rect width="72" height="72" rx="36" fill="#F4FAFF"/>
<g clip-path="url(#clip0_2336_5569)">
<path d="M48.3163 31.6891V30.305C48.3163 26.9924 47.144 23.9143 45.0188 21.6303C42.8407 19.2857 39.8457 18 36.5785 18H35.4365C32.1692 18 29.1743 19.2857 26.9961 21.6303C24.8709 23.9143 23.6986 26.9924 23.6986 30.305V31.6891C21.1196 31.863 19.0701 34.0109 19.0701 36.6353V38.7983C19.0701 41.5286 21.2936 43.7521 24.0238 43.7521H26.8146C27.3138 43.7521 27.7222 43.3437 27.7222 42.8445V32.5815C27.7222 32.0824 27.3138 31.674 26.8146 31.674H25.5138V30.305C25.5138 24.3227 29.7793 19.8151 35.4289 19.8151H36.5709C42.2281 19.8151 46.486 24.3227 46.486 30.305V31.674H45.1852C44.686 31.674 44.2776 32.0824 44.2776 32.5815V42.837C44.2776 43.3361 44.686 43.7445 45.1852 43.7445H46.4558C46.0852 48.479 42.8255 49.5756 41.3129 49.8252C40.897 48.5471 39.6944 47.6244 38.2802 47.6244H36.0112C34.2566 47.6244 32.8272 49.0538 32.8272 50.8084C32.8272 52.563 34.2566 54 36.0112 54H38.2877C39.7549 54 40.9877 53.0017 41.3583 51.6555C42.0995 51.5496 43.2717 51.2849 44.4365 50.6042C46.0776 49.6437 48.0213 47.6849 48.2785 43.737C50.8726 43.5782 52.9297 41.4227 52.9297 38.7908V36.6277C52.9373 34.0109 50.8953 31.8555 48.3163 31.6891ZM25.9222 41.9294H24.039C22.307 41.9294 20.9003 40.5227 20.9003 38.7908V36.6277C20.9003 34.8958 22.307 33.4891 24.039 33.4891H25.9222V41.9294ZM38.2877 52.1849H36.0112C35.2549 52.1849 34.6423 51.5723 34.6423 50.816C34.6423 50.0597 35.2549 49.4471 36.0112 49.4471H38.2877C39.044 49.4471 39.6566 50.0597 39.6566 50.816C39.6566 51.5723 39.044 52.1849 38.2877 52.1849ZM51.1222 38.7908C51.1222 40.5227 49.7154 41.9294 47.9835 41.9294H46.1003V33.4891H47.9835C49.7154 33.4891 51.1222 34.8958 51.1222 36.6277V38.7908Z" fill="#1890FF"/>
</g>
<defs>
<clipPath id="clip0_2336_5569">
<rect width="36" height="36" fill="white" transform="translate(18 18)"/>
</clipPath>
</defs>
</svg>
