<svg width="72" height="72" viewBox="0 0 72 72" fill="none" xmlns="http://www.w3.org/2000/svg">
<rect width="72" height="72" rx="36" fill="#F4FAFF"/>
<g clip-path="url(#clip0_2336_5587)">
<path d="M52.5564 26.4871C52.5564 26.3504 52.526 26.2136 52.4652 26.0844C52.3436 25.8261 52.1081 25.6513 51.8497 25.5981L36.3723 18.0912C36.1216 17.9696 35.8253 17.9696 35.5745 18.0912L19.9451 25.6665C19.6412 25.8109 19.4437 26.1148 19.4285 26.4567V26.4643C19.4285 26.4719 19.4285 26.4795 19.4285 26.4947V45.5053C19.4285 45.8548 19.626 46.1739 19.9451 46.3259L35.5745 53.9012C35.5821 53.9012 35.5821 53.9012 35.5897 53.9088C35.6125 53.9164 35.6353 53.924 35.6581 53.9392C35.6657 53.9392 35.6733 53.9468 35.6885 53.9468C35.7113 53.9544 35.7341 53.962 35.7569 53.9696C35.7645 53.9696 35.7721 53.9772 35.7797 53.9772C35.8025 53.9848 35.8329 53.9848 35.8557 53.9924C35.8633 53.9924 35.8708 53.9924 35.8784 53.9924C35.9088 53.9924 35.9468 54 35.9772 54C36.0076 54 36.0456 54 36.076 53.9924C36.0836 53.9924 36.0912 53.9924 36.0988 53.9924C36.1216 53.9924 36.152 53.9848 36.1748 53.9772C36.1824 53.9772 36.19 53.9696 36.1976 53.9696C36.2204 53.962 36.2432 53.9544 36.266 53.9468C36.2736 53.9468 36.2811 53.9392 36.2963 53.9392C36.3191 53.9316 36.3419 53.924 36.3647 53.9088C36.3723 53.9088 36.3723 53.9088 36.3799 53.9012L52.0549 46.3031C52.3664 46.1511 52.5716 45.832 52.5716 45.4825V26.5099C52.5564 26.5023 52.5564 26.4947 52.5564 26.4871ZM35.9696 19.9223L49.5247 26.4947L44.5327 28.9185L30.9776 22.3461L35.9696 19.9223ZM35.9696 33.0671L22.4145 26.4947L28.8882 23.3567L42.4432 29.9291L35.9696 33.0671ZM21.252 27.9612L35.0578 34.6551V51.6218L21.252 44.9278V27.9612ZM36.8814 51.6218V34.6551L43.3626 31.5095V35.9468C43.3626 36.4483 43.7729 36.8586 44.2744 36.8586C44.7759 36.8586 45.1862 36.4483 45.1862 35.9468V30.6205L50.7328 27.9308V44.8974L36.8814 51.6218Z" fill="#1890FF"/>
</g>
<defs>
<clipPath id="clip0_2336_5587">
<rect width="36" height="36" fill="white" transform="translate(18 18)"/>
</clipPath>
</defs>
</svg>
