<svg width="72" height="72" viewBox="0 0 72 72" fill="none" xmlns="http://www.w3.org/2000/svg">
<rect width="72" height="72" rx="36" fill="#1890FF"/>
<g clip-path="url(#clip0_2336_5577)">
<path d="M50.3822 49.201L48.3105 25.8543C48.2733 25.3923 47.8858 25.042 47.4163 25.042H43.0495C43.0421 21.1596 39.8825 18 36 18C32.1176 18 28.958 21.1596 28.9506 25.042H24.5838C24.1217 25.042 23.7343 25.3923 23.6895 25.8543L21.6179 49.201C21.6179 49.2308 21.6179 49.2532 21.6179 49.283C21.6179 51.8837 24.01 54 26.946 54H45.0541C47.9901 54 50.3822 51.8837 50.3822 49.283C50.3822 49.2532 50.3822 49.2308 50.3822 49.201ZM36 19.7884C38.8988 19.7884 41.2536 22.1432 41.2611 25.042H30.739C30.7465 22.1432 33.1013 19.7884 36 19.7884ZM45.0541 52.2041H26.946C25.0085 52.2041 23.4287 50.9149 23.4064 49.3128L25.4035 26.8305H28.9506V29.9677C28.9506 30.4595 29.353 30.8619 29.8448 30.8619C30.3366 30.8619 30.739 30.4595 30.739 29.9677V26.8305H41.2611V29.9677C41.2611 30.4595 41.6635 30.8619 42.1553 30.8619C42.6471 30.8619 43.0495 30.4595 43.0495 29.9677V26.8305H46.5966L48.5937 49.3202C48.5713 50.9149 46.9916 52.2041 45.0541 52.2041Z" fill="white"/>
<path d="M39.7185 36.6148L34.4426 41.8908L32.289 39.7372C31.9388 39.3869 31.3724 39.3869 31.0222 39.7372C30.672 40.0874 30.672 40.6537 31.0222 41.004L33.8092 43.791C33.9806 43.9624 34.2116 44.0518 34.4426 44.0518C34.6736 44.0518 34.8972 43.9624 35.076 43.791L40.9853 37.8816C41.3356 37.5314 41.3356 36.9651 40.9853 36.6148C40.6351 36.272 40.0688 36.272 39.7185 36.6148Z" fill="white"/>
</g>
<defs>
<clipPath id="clip0_2336_5577">
<rect width="36" height="36" fill="white" transform="translate(18 18)"/>
</clipPath>
</defs>
</svg>
