<svg width="11" height="11" viewBox="0 0 11 11" fill="none" xmlns="http://www.w3.org/2000/svg">
<g clip-path="url(#clip0_2468_730)">
<path d="M8.70833 5.04199H2.29167C1.78541 5.04199 1.375 5.4524 1.375 5.95866V9.16699C1.375 9.67325 1.78541 10.0837 2.29167 10.0837H8.70833C9.21459 10.0837 9.625 9.67325 9.625 9.16699V5.95866C9.625 5.4524 9.21459 5.04199 8.70833 5.04199Z" stroke="#1A1A1A" stroke-width="0.916667" stroke-linecap="round" stroke-linejoin="round"/>
<path d="M3.20825 5.04199V3.20866C3.20825 2.60087 3.44969 2.01798 3.87947 1.58821C4.30924 1.15843 4.89213 0.916992 5.49992 0.916992C6.10771 0.916992 6.6906 1.15843 7.12037 1.58821C7.55014 2.01798 7.79159 2.60087 7.79159 3.20866V5.04199" stroke="#1A1A1A" stroke-width="0.916667" stroke-linecap="round" stroke-linejoin="round"/>
</g>
<defs>
<clipPath id="clip0_2468_730">
<rect width="11" height="11" fill="white"/>
</clipPath>
</defs>
</svg>
