<svg width="60" height="12" viewBox="0 0 60 12" fill="none" xmlns="http://www.w3.org/2000/svg">
<path d="M6.20672 8.94066L8.5711 10.4384C8.87335 10.6297 9.24835 10.345 9.15872 9.99216L8.47585 7.30529C8.45656 7.23044 8.45878 7.15168 8.48227 7.07804C8.50575 7.00441 8.54954 6.93889 8.6086 6.88904L10.7288 5.12466C11.0071 4.89291 10.8638 4.43054 10.5057 4.40729L7.7371 4.22729C7.66255 4.222 7.59105 4.19565 7.5309 4.1513C7.47075 4.10695 7.42444 4.04643 7.39735 3.97679L6.3646 1.37654C6.33648 1.30264 6.28656 1.23903 6.22146 1.19416C6.15636 1.14928 6.07916 1.12524 6.0001 1.12524C5.92103 1.12524 5.84383 1.14928 5.77873 1.19416C5.71364 1.23903 5.66372 1.30264 5.6356 1.37654L4.60285 3.97679C4.57581 4.0465 4.52952 4.1071 4.46937 4.15152C4.40922 4.19594 4.33768 4.22234 4.2631 4.22766L1.49447 4.40766C1.13672 4.43054 0.992723 4.89291 1.27135 5.12466L3.3916 6.88941C3.45059 6.93924 3.49434 7.00469 3.51782 7.07825C3.5413 7.15181 3.54356 7.2305 3.52435 7.30529L2.89135 9.79716C2.78372 10.2205 3.2341 10.5622 3.59635 10.3323L5.79385 8.94066C5.85561 8.9014 5.92728 8.88054 6.00047 8.88054C6.07366 8.88054 6.14533 8.9014 6.2071 8.94066H6.20672Z" fill="#FFAE35"/>
<path d="M18.2067 8.94066L20.5711 10.4384C20.8733 10.6297 21.2483 10.345 21.1587 9.99216L20.4758 7.30529C20.4566 7.23044 20.4588 7.15168 20.4823 7.07804C20.5057 7.00441 20.5495 6.93889 20.6086 6.88904L22.7288 5.12466C23.0071 4.89291 22.8638 4.43054 22.5057 4.40729L19.7371 4.22729C19.6626 4.222 19.591 4.19565 19.5309 4.1513C19.4708 4.10695 19.4244 4.04643 19.3973 3.97679L18.3646 1.37654C18.3365 1.30264 18.2866 1.23903 18.2215 1.19416C18.1564 1.14928 18.0792 1.12524 18.0001 1.12524C17.921 1.12524 17.8438 1.14928 17.7787 1.19416C17.7136 1.23903 17.6637 1.30264 17.6356 1.37654L16.6028 3.97679C16.5758 4.0465 16.5295 4.1071 16.4694 4.15152C16.4092 4.19594 16.3377 4.22234 16.2631 4.22766L13.4945 4.40766C13.1367 4.43054 12.9927 4.89291 13.2713 5.12466L15.3916 6.88941C15.4506 6.93924 15.4943 7.00469 15.5178 7.07825C15.5413 7.15181 15.5436 7.2305 15.5243 7.30529L14.8913 9.79716C14.7837 10.2205 15.2341 10.5622 15.5963 10.3323L17.7938 8.94066C17.8556 8.9014 17.9273 8.88054 18.0005 8.88054C18.0737 8.88054 18.1453 8.9014 18.2071 8.94066H18.2067Z" fill="#FFAE35"/>
<path d="M30.2067 8.94066L32.5711 10.4384C32.8733 10.6297 33.2483 10.345 33.1587 9.99216L32.4758 7.30529C32.4566 7.23044 32.4588 7.15168 32.4823 7.07804C32.5057 7.00441 32.5495 6.93889 32.6086 6.88904L34.7288 5.12466C35.0071 4.89291 34.8638 4.43054 34.5057 4.40729L31.7371 4.22729C31.6626 4.222 31.591 4.19565 31.5309 4.1513C31.4708 4.10695 31.4244 4.04643 31.3973 3.97679L30.3646 1.37654C30.3365 1.30264 30.2866 1.23903 30.2215 1.19416C30.1564 1.14928 30.0792 1.12524 30.0001 1.12524C29.921 1.12524 29.8438 1.14928 29.7787 1.19416C29.7136 1.23903 29.6637 1.30264 29.6356 1.37654L28.6028 3.97679C28.5758 4.0465 28.5295 4.1071 28.4694 4.15152C28.4092 4.19594 28.3377 4.22234 28.2631 4.22766L25.4945 4.40766C25.1367 4.43054 24.9927 4.89291 25.2713 5.12466L27.3916 6.88941C27.4506 6.93924 27.4943 7.00469 27.5178 7.07825C27.5413 7.15181 27.5436 7.2305 27.5243 7.30529L26.8913 9.79716C26.7837 10.2205 27.2341 10.5622 27.5963 10.3323L29.7938 8.94066C29.8556 8.9014 29.9273 8.88054 30.0005 8.88054C30.0737 8.88054 30.1453 8.9014 30.2071 8.94066H30.2067Z" fill="#FFAE35"/>
<path d="M42.2067 8.94066L44.5711 10.4384C44.8733 10.6297 45.2483 10.345 45.1587 9.99216L44.4758 7.30529C44.4566 7.23044 44.4588 7.15168 44.4823 7.07804C44.5057 7.00441 44.5495 6.93889 44.6086 6.88904L46.7288 5.12466C47.0071 4.89291 46.8638 4.43054 46.5057 4.40729L43.7371 4.22729C43.6626 4.222 43.591 4.19565 43.5309 4.1513C43.4708 4.10695 43.4244 4.04643 43.3973 3.97679L42.3646 1.37654C42.3365 1.30264 42.2866 1.23903 42.2215 1.19416C42.1564 1.14928 42.0792 1.12524 42.0001 1.12524C41.921 1.12524 41.8438 1.14928 41.7787 1.19416C41.7136 1.23903 41.6637 1.30264 41.6356 1.37654L40.6028 3.97679C40.5758 4.0465 40.5295 4.1071 40.4694 4.15152C40.4092 4.19594 40.3377 4.22234 40.2631 4.22766L37.4945 4.40766C37.1367 4.43054 36.9927 4.89291 37.2713 5.12466L39.3916 6.88941C39.4506 6.93924 39.4943 7.00469 39.5178 7.07825C39.5413 7.15181 39.5436 7.2305 39.5243 7.30529L38.8913 9.79716C38.7837 10.2205 39.2341 10.5622 39.5963 10.3323L41.7938 8.94066C41.8556 8.9014 41.9273 8.88054 42.0005 8.88054C42.0737 8.88054 42.1453 8.9014 42.2071 8.94066H42.2067Z" fill="#FFAE35"/>
<path d="M54.2067 8.94066L56.5711 10.4384C56.8733 10.6297 57.2483 10.345 57.1587 9.99216L56.4758 7.30529C56.4566 7.23044 56.4588 7.15168 56.4823 7.07804C56.5057 7.00441 56.5495 6.93889 56.6086 6.88904L58.7288 5.12466C59.0071 4.89291 58.8638 4.43054 58.5057 4.40729L55.7371 4.22729C55.6626 4.222 55.591 4.19565 55.5309 4.1513C55.4708 4.10695 55.4244 4.04643 55.3973 3.97679L54.3646 1.37654C54.3365 1.30264 54.2866 1.23903 54.2215 1.19416C54.1564 1.14928 54.0792 1.12524 54.0001 1.12524C53.921 1.12524 53.8438 1.14928 53.7787 1.19416C53.7136 1.23903 53.6637 1.30264 53.6356 1.37654L52.6028 3.97679C52.5758 4.0465 52.5295 4.1071 52.4694 4.15152C52.4092 4.19594 52.3377 4.22234 52.2631 4.22766L49.4945 4.40766C49.1367 4.43054 48.9927 4.89291 49.2713 5.12466L51.3916 6.88941C51.4506 6.93924 51.4943 7.00469 51.5178 7.07825C51.5413 7.15181 51.5436 7.2305 51.5243 7.30529L50.8913 9.79716C50.7837 10.2205 51.2341 10.5622 51.5963 10.3323L53.7938 8.94066C53.8556 8.9014 53.9273 8.88054 54.0005 8.88054C54.0737 8.88054 54.1453 8.9014 54.2071 8.94066H54.2067Z" fill="#CCCCCC"/>
</svg>
