<svg width="80" height="16" viewBox="0 0 80 16" fill="none" xmlns="http://www.w3.org/2000/svg">
<path d="M8.27563 11.921L11.4281 13.918C11.8311 14.173 12.3311 13.7935 12.2116 13.323L11.3011 9.74055C11.2754 9.64075 11.2784 9.53573 11.3097 9.43755C11.341 9.33937 11.3994 9.25202 11.4781 9.18554L14.3051 6.83305C14.6761 6.52404 14.4851 5.90755 14.0076 5.87654L10.3161 5.63655C10.2167 5.62949 10.1214 5.59436 10.0412 5.53523C9.961 5.4761 9.89925 5.39541 9.86313 5.30254L8.48613 1.83555C8.44864 1.73701 8.38208 1.65221 8.29528 1.59237C8.20849 1.53253 8.10555 1.50049 8.00013 1.50049C7.89471 1.50049 7.79177 1.53253 7.70498 1.59237C7.61818 1.65221 7.55162 1.73701 7.51413 1.83555L6.13713 5.30254C6.10109 5.3955 6.03937 5.4763 5.95916 5.53552C5.87896 5.59474 5.78358 5.62995 5.68413 5.63704L1.99263 5.87704C1.51563 5.90754 1.32363 6.52404 1.69513 6.83305L4.52213 9.18604C4.60079 9.25248 4.65911 9.33974 4.69042 9.43783C4.72173 9.53591 4.72475 9.64083 4.69913 9.74055L3.85513 13.063C3.71163 13.6275 4.31213 14.083 4.79513 13.7765L7.72513 11.921C7.80748 11.8687 7.90304 11.8409 8.00063 11.8409C8.09821 11.8409 8.19378 11.8687 8.27613 11.921H8.27563Z" fill="#FFAE35"/>
<path d="M24.2756 11.921L27.4281 13.918C27.8311 14.173 28.3311 13.7935 28.2116 13.323L27.3011 9.74055C27.2754 9.64075 27.2784 9.53573 27.3097 9.43755C27.341 9.33937 27.3994 9.25202 27.4781 9.18554L30.3051 6.83305C30.6761 6.52404 30.4851 5.90755 30.0076 5.87654L26.3161 5.63655C26.2167 5.62949 26.1214 5.59436 26.0412 5.53523C25.961 5.4761 25.8993 5.39541 25.8631 5.30254L24.4861 1.83555C24.4486 1.73701 24.3821 1.65221 24.2953 1.59237C24.2085 1.53253 24.1056 1.50049 24.0001 1.50049C23.8947 1.50049 23.7918 1.53253 23.705 1.59237C23.6182 1.65221 23.5516 1.73701 23.5141 1.83555L22.1371 5.30254C22.1011 5.3955 22.0394 5.4763 21.9592 5.53552C21.879 5.59474 21.7836 5.62995 21.6841 5.63704L17.9926 5.87704C17.5156 5.90754 17.3236 6.52404 17.6951 6.83305L20.5221 9.18604C20.6008 9.25248 20.6591 9.33974 20.6904 9.43783C20.7217 9.53591 20.7247 9.64083 20.6991 9.74055L19.8551 13.063C19.7116 13.6275 20.3121 14.083 20.7951 13.7765L23.7251 11.921C23.8075 11.8687 23.903 11.8409 24.0006 11.8409C24.0982 11.8409 24.1938 11.8687 24.2761 11.921H24.2756Z" fill="#FFAE35"/>
<path d="M40.2756 11.921L43.4281 13.918C43.8311 14.173 44.3311 13.7935 44.2116 13.323L43.3011 9.74055C43.2754 9.64075 43.2784 9.53573 43.3097 9.43755C43.341 9.33937 43.3994 9.25202 43.4781 9.18554L46.3051 6.83305C46.6761 6.52404 46.4851 5.90755 46.0076 5.87654L42.3161 5.63655C42.2167 5.62949 42.1214 5.59436 42.0412 5.53523C41.961 5.4761 41.8993 5.39541 41.8631 5.30254L40.4861 1.83555C40.4486 1.73701 40.3821 1.65221 40.2953 1.59237C40.2085 1.53253 40.1056 1.50049 40.0001 1.50049C39.8947 1.50049 39.7918 1.53253 39.705 1.59237C39.6182 1.65221 39.5516 1.73701 39.5141 1.83555L38.1371 5.30254C38.1011 5.3955 38.0394 5.4763 37.9592 5.53552C37.879 5.59474 37.7836 5.62995 37.6841 5.63704L33.9926 5.87704C33.5156 5.90754 33.3236 6.52404 33.6951 6.83305L36.5221 9.18604C36.6008 9.25248 36.6591 9.33974 36.6904 9.43783C36.7217 9.53591 36.7247 9.64083 36.6991 9.74055L35.8551 13.063C35.7116 13.6275 36.3121 14.083 36.7951 13.7765L39.7251 11.921C39.8075 11.8687 39.903 11.8409 40.0006 11.8409C40.0982 11.8409 40.1938 11.8687 40.2761 11.921H40.2756Z" fill="#FFAE35"/>
<path d="M56.2756 11.921L59.4281 13.918C59.8311 14.173 60.3311 13.7935 60.2116 13.323L59.3011 9.74055C59.2754 9.64075 59.2784 9.53573 59.3097 9.43755C59.341 9.33937 59.3994 9.25202 59.4781 9.18554L62.3051 6.83305C62.6761 6.52404 62.4851 5.90755 62.0076 5.87654L58.3161 5.63655C58.2167 5.62949 58.1214 5.59436 58.0412 5.53523C57.961 5.4761 57.8993 5.39541 57.8631 5.30254L56.4861 1.83555C56.4486 1.73701 56.3821 1.65221 56.2953 1.59237C56.2085 1.53253 56.1056 1.50049 56.0001 1.50049C55.8947 1.50049 55.7918 1.53253 55.705 1.59237C55.6182 1.65221 55.5516 1.73701 55.5141 1.83555L54.1371 5.30254C54.1011 5.3955 54.0394 5.4763 53.9592 5.53552C53.879 5.59474 53.7836 5.62995 53.6841 5.63704L49.9926 5.87704C49.5156 5.90754 49.3236 6.52404 49.6951 6.83305L52.5221 9.18604C52.6008 9.25248 52.6591 9.33974 52.6904 9.43783C52.7217 9.53591 52.7247 9.64083 52.6991 9.74055L51.8551 13.063C51.7116 13.6275 52.3121 14.083 52.7951 13.7765L55.7251 11.921C55.8075 11.8687 55.903 11.8409 56.0006 11.8409C56.0982 11.8409 56.1938 11.8687 56.2761 11.921H56.2756Z" fill="#FFAE35"/>
<path d="M72.2756 11.921L75.4281 13.918C75.8311 14.173 76.3311 13.7935 76.2116 13.323L75.3011 9.74055C75.2754 9.64075 75.2784 9.53573 75.3097 9.43755C75.341 9.33937 75.3994 9.25202 75.4781 9.18554L78.3051 6.83305C78.6761 6.52404 78.4851 5.90755 78.0076 5.87654L74.3161 5.63655C74.2167 5.62949 74.1214 5.59436 74.0412 5.53523C73.961 5.4761 73.8993 5.39541 73.8631 5.30254L72.4861 1.83555C72.4486 1.73701 72.3821 1.65221 72.2953 1.59237C72.2085 1.53253 72.1056 1.50049 72.0001 1.50049C71.8947 1.50049 71.7918 1.53253 71.705 1.59237C71.6182 1.65221 71.5516 1.73701 71.5141 1.83555L70.1371 5.30254C70.1011 5.3955 70.0394 5.4763 69.9592 5.53552C69.879 5.59474 69.7836 5.62995 69.6841 5.63704L65.9926 5.87704C65.5156 5.90754 65.3236 6.52404 65.6951 6.83305L68.5221 9.18604C68.6008 9.25248 68.6591 9.33974 68.6904 9.43783C68.7217 9.53591 68.7247 9.64083 68.6991 9.74055L67.8551 13.063C67.7116 13.6275 68.3121 14.083 68.7951 13.7765L71.7251 11.921C71.8075 11.8687 71.903 11.8409 72.0006 11.8409C72.0982 11.8409 72.1938 11.8687 72.2761 11.921H72.2756Z" fill="#CCCCCC"/>
</svg>
