<svg width="40" height="41" viewBox="0 0 40 41" fill="none" xmlns="http://www.w3.org/2000/svg">
<g clip-path="url(#clip0_2468_627)">
<path d="M28.9822 16.792C28.9401 15.8356 28.7854 15.1781 28.5639 14.6084C28.3353 14.0036 27.9837 13.4621 27.523 13.012C27.0729 12.5549 26.5278 12.1997 25.9301 11.9747C25.357 11.7531 24.7029 11.5985 23.7465 11.5563C22.783 11.5106 22.4771 11.5 20.0332 11.5C17.5894 11.5 17.2835 11.5106 16.3235 11.5527C15.3671 11.5949 14.7096 11.7497 14.14 11.9711C13.5351 12.1997 12.9936 12.5513 12.5435 13.012C12.0864 13.4621 11.7313 14.0072 11.5062 14.6049C11.2846 15.1781 11.13 15.8321 11.0878 16.7885C11.0421 17.752 11.0315 18.0579 11.0315 20.5018C11.0315 22.9456 11.0421 23.2515 11.0842 24.2115C11.1264 25.1679 11.2812 25.8254 11.5028 26.3952C11.7313 26.9999 12.0864 27.5414 12.5435 27.9915C12.9936 28.4486 13.5386 28.8038 14.1364 29.0288C14.7096 29.2504 15.3636 29.405 16.3201 29.4472C17.2799 29.4895 17.586 29.4999 20.0298 29.4999C22.4736 29.4999 22.7795 29.4895 23.7395 29.4472C24.6959 29.405 25.3534 29.2504 25.9231 29.0288C27.1327 28.5611 28.0892 27.6047 28.5568 26.3952C28.7783 25.822 28.9331 25.1679 28.9752 24.2115C29.0174 23.2515 29.028 22.9456 29.028 20.5018C29.028 18.0579 29.0244 17.752 28.9822 16.792ZM27.3613 24.1411C27.3226 25.0202 27.1749 25.4949 27.0518 25.8114C26.7494 26.5956 26.127 27.2179 25.3429 27.5204C25.0264 27.6434 24.5483 27.7911 23.6726 27.8297C22.7232 27.872 22.4385 27.8824 20.0368 27.8824C17.6351 27.8824 17.3468 27.872 16.4009 27.8297C15.5218 27.7911 15.0471 27.6434 14.7306 27.5204C14.3404 27.3761 13.9852 27.1476 13.6969 26.8487C13.398 26.5568 13.1694 26.2052 13.0252 25.815C12.9021 25.4985 12.7545 25.0202 12.7159 24.1447C12.6736 23.1953 12.6631 22.9104 12.6631 20.5088C12.6631 18.1071 12.6736 17.8188 12.7159 16.873C12.7545 15.9939 12.9021 15.5192 13.0252 15.2027C13.1694 14.8123 13.398 14.4573 13.7005 14.1688C13.9922 13.8699 14.3438 13.6414 14.7342 13.4973C15.0507 13.3742 15.5289 13.2266 16.4044 13.1878C17.3538 13.1457 17.6387 13.1351 20.0402 13.1351C22.4455 13.1351 22.7302 13.1457 23.6762 13.1878C24.5553 13.2266 25.03 13.3742 25.3464 13.4973C25.7367 13.6414 26.0919 13.8699 26.3802 14.1688C26.6791 14.4607 26.9076 14.8123 27.0518 15.2027C27.1749 15.5192 27.3226 15.9973 27.3613 16.873C27.4035 17.8224 27.414 18.1071 27.414 20.5088C27.414 22.9104 27.4035 23.1917 27.3613 24.1411Z" fill="#B3B3B3"/>
<path d="M20.0334 15.8779C17.4806 15.8779 15.4094 17.949 15.4094 20.5019C15.4094 23.0548 17.4806 25.1258 20.0334 25.1258C22.5863 25.1258 24.6573 23.0548 24.6573 20.5019C24.6573 17.949 22.5863 15.8779 20.0334 15.8779ZM20.0334 23.5013C18.3773 23.5013 17.0339 22.1581 17.0339 20.5019C17.0339 18.8456 18.3773 17.5024 20.0334 17.5024C21.6896 17.5024 23.0328 18.8456 23.0328 20.5019C23.0328 22.1581 21.6896 23.5013 20.0334 23.5013Z" fill="#B3B3B3"/>
<path d="M25.9199 15.6952C25.9199 16.2913 25.4365 16.7747 24.8402 16.7747C24.2441 16.7747 23.7607 16.2913 23.7607 15.6952C23.7607 15.0989 24.2441 14.6157 24.8402 14.6157C25.4365 14.6157 25.9199 15.0989 25.9199 15.6952Z" fill="#B3B3B3"/>
</g>
<defs>
<clipPath id="clip0_2468_627">
<rect width="18" height="18" fill="white" transform="translate(11 11.5)"/>
</clipPath>
</defs>
</svg>
