<svg width="40" height="41" viewBox="0 0 40 41" fill="none" xmlns="http://www.w3.org/2000/svg">
<g clip-path="url(#clip0_2468_619)">
<path d="M29 14.9189C28.3306 15.2125 27.6174 15.4071 26.8737 15.5016C27.6388 15.0449 28.2226 14.3271 28.4971 13.462C27.7839 13.8873 26.9964 14.1876 26.1571 14.3553C25.4799 13.6341 24.5146 13.1875 23.4616 13.1875C21.4186 13.1875 19.7739 14.8458 19.7739 16.8786C19.7739 17.1711 19.7986 17.4524 19.8594 17.7201C16.7915 17.5705 14.0769 16.1001 12.2533 13.8603C11.9349 14.4126 11.7481 15.0449 11.7481 15.7255C11.7481 17.0035 12.4062 18.1364 13.3872 18.7923C12.7944 18.781 12.2127 18.6089 11.72 18.3378C11.72 18.349 11.72 18.3636 11.72 18.3783C11.72 20.1715 12.9991 21.661 14.6765 22.0041C14.3761 22.0863 14.0487 22.1256 13.709 22.1256C13.4727 22.1256 13.2342 22.1121 13.0104 22.0626C13.4885 23.524 14.8453 24.5984 16.4585 24.6333C15.203 25.6154 13.6089 26.2071 11.8831 26.2071C11.5805 26.2071 11.2902 26.1936 11 26.1565C12.6346 27.2106 14.5719 27.8125 16.661 27.8125C23.4515 27.8125 27.164 22.1875 27.164 17.3118C27.164 17.1486 27.1584 16.9911 27.1505 16.8348C27.8829 16.315 28.4982 15.6659 29 14.9189Z" fill="#B3B3B3"/>
</g>
<defs>
<clipPath id="clip0_2468_619">
<rect width="18" height="18" fill="white" transform="translate(11 11.5)"/>
</clipPath>
</defs>
</svg>
